<?xml version="1.0" encoding="UTF-8"?>
<svg id="Layer_1" data-name="Layer 1" xmlns="http://www.w3.org/2000/svg" viewBox="0 0 1547.1 1156.97">
  <defs>
    <style>
      .cls-1 {
        fill: #fff;
      }
    </style>
  </defs>
  <path class="cls-1" d="M296.1,220.5c-10.5-3-14.7-8.1-14.7-18.3v-29.4c0-10.5,4.2-15.6,17.1-11.7,13.2,3.9,36.6,7.5,50.4,7.5,17.7,0,22.5-4.2,22.5-10.8s-5.1-10.2-18.9-14.7l-18.9-6.3c-35.7-12-49.5-33.6-49.5-68.1C284.1,24.6,318.3,0,374.7,0c20.1,0,34.8,3.6,50.4,8.7,11.4,3.6,15.3,9.3,12.9,21l-5.4,25.8c-2.1,10.2-7.5,13.2-17.4,10.2-12.3-3.9-26.7-6.3-38.1-6.3-13.5,0-20.7,3.3-20.7,10.5s4.8,10.8,18.9,15.6l18.9,6.3c36,12,49.5,32.7,49.5,66.9,0,49.5-43.5,69.3-93,69.3-18.3,0-37.2-2.7-54.6-7.5Z"/>
  <path class="cls-1" d="M464.7,114C464.7,30,500.1,0,564.6,0c24.6,0,41.7,4.8,48.6,7.2,11.1,3.3,15,9.9,12.9,21l-6.6,31.8c-2.1,9.9-7.5,13.2-17.4,9.9-10.2-3.6-18.9-6.3-30.3-6.3-27,0-35.4,11.7-35.4,50.4s8.4,50.4,35.4,50.4c11.7,0,19.8-1.8,33-5.7,11.4-3.3,18.3-.9,18.3,9.6v34.8c0,10.2-4.8,15.3-17.1,18.9-13.8,4.2-26.7,6-41.4,6-64.5,0-99.9-30-99.9-114Z"/>
  <path class="cls-1" d="M640.2,114c0-81,29.7-114,101.7-114s101.7,33,101.7,114-29.7,114-101.7,114-101.7-33-101.7-114ZM771.9,114c0-40.8-7.2-52.8-30-52.8s-30,12-30,52.8,6.9,52.8,30,52.8,30-12,30-52.8Z"/>
  <path class="cls-1" d="M983.4,210c-6-20.7-12.3-36.3-21.3-52.8h-19.5v52.2c0,10.5-4.5,15-15,15h-38.7c-10.5,0-15-4.5-15-15V18.6c0-10.5,4.5-15,15-15h79.5c61.5,0,93.9,26.7,93.9,78,0,29.7-12,51-34.5,63.3,15,21,22.8,36,30.3,58.8,4.5,13.5.6,20.7-12,20.7h-41.1c-12,0-18.6-4.2-21.6-14.4ZM966.3,101.4c16.2,0,24.3-6.6,24.3-19.8s-8.1-19.8-24.3-19.8h-23.7v39.6h23.7Z"/>
  <path class="cls-1" d="M1091.7,209.4V18.6c0-10.5,4.5-15,15-15h128.4c10.5,0,15,4.5,15,15v30c0,10.5-4.5,15-15,15h-74.7v21.6h62.4c10.5,0,15,4.5,15,15v27.6c0,10.5-4.5,15-15,15h-62.4v21.6h74.7c10.5,0,15,4.5,15,15v30c0,10.5-4.5,15-15,15h-128.4c-10.5,0-15-4.5-15-15Z"/>
  <path class="cls-1" d="M55.35,521.46c0-23.1,33-142.8,64.8-194.4,5.4-8.7,9.9-13.8,24.9-13.8h37.2c15,0,19.5,5.1,24.9,13.8,31.8,51.6,64.8,171.3,64.8,194.4,0,9.6-5.1,12.6-12.6,12.6h-40.5c-13.5,0-19.2-3.9-20.7-13.8-1.5-9-3-18-4.8-27h-62.1c-1.8,9-3.6,18-5.1,27-1.8,9.9-7.2,13.8-20.7,13.8h-37.5c-7.5,0-12.6-3-12.6-12.6ZM180.45,438.36c-6.3-24.6-12.3-46.5-18.3-63-6,16.5-12,38.4-18.3,63h36.6Z"/>
  <path class="cls-1" d="M363.75,519.06v-190.8c0-10.5,4.5-15,15-15h122.4c10.5,0,15,4.5,15,15v31.2c0,10.5-4.5,15-15,15h-68.7v30.3h56.4c10.5,0,15,4.5,15,15v31.2c0,10.5-4.5,15-15,15h-56.4v53.1c0,10.5-4.5,15-15,15h-38.7c-10.5,0-15-4.5-15-15Z"/>
  <path class="cls-1" d="M509.55,521.46c0-23.1,33-142.8,64.8-194.4,5.4-8.7,9.9-13.8,24.9-13.8h37.2c15,0,19.5,5.1,24.9,13.8,31.8,51.6,64.8,171.3,64.8,194.4,0,9.6-5.1,12.6-12.6,12.6h-40.5c-13.5,0-19.2-3.9-20.7-13.8-1.5-9-3-18-4.8-27h-62.1c-1.8,9-3.6,18-5.1,27-1.8,9.9-7.2,13.8-20.7,13.8h-37.5c-7.5,0-12.6-3-12.6-12.6ZM634.65,438.36c-6.3-24.6-12.3-46.5-18.3-63-6,16.5-12,38.4-18.3,63h36.6Z"/>
  <path class="cls-1" d="M735.15,521.46c0-56.1,19.5-162.6,35.4-194.4,5.1-10.5,10.5-13.8,23.1-13.8h33.6c12.6,0,18,3,24,13.8,9.3,17.1,15.9,41.7,24.6,86.1h.6c8.7-44.4,15.3-69,24.6-86.1,6-10.8,11.4-13.8,24-13.8h32.1c12.6,0,18,3.3,23.1,13.8,15.9,31.8,35.4,138.3,35.4,194.4,0,8.4-3.9,12.6-12.6,12.6h-37.8c-13.8,0-20.1-4.2-20.7-13.8-5.7-79.8-7.2-100.2-11.7-135.9h-.6c-12.6,48.6-14.7,63.6-23.1,116.1-1.5,10.2-6.6,13.8-19.8,13.8h-30.9c-13.2,0-18.3-3.6-19.8-13.8-8.4-52.5-10.5-67.5-23.1-116.1h-.6c-4.8,35.7-6.3,56.1-11.7,135.9-.6,9.6-6.9,13.8-20.7,13.8h-34.8c-8.4,0-12.6-4.2-12.6-12.6Z"/>
  <path class="cls-1" d="M1040.85,519.06v-190.8c0-10.5,4.5-15,15-15h38.7c10.5,0,15,4.5,15,15v190.8c0,10.5-4.5,15-15,15h-38.7c-10.5,0-15-4.5-15-15Z"/>
  <path class="cls-1" d="M1145.55,519.06v-190.8c0-10.5,4.5-15,15-15h38.7c10.5,0,15,4.5,15,15v144.6h62.7c10.5,0,15,4.5,15,15v31.2c0,10.5-4.5,15-15,15h-116.4c-10.5,0-15-4.5-15-15Z"/>
  <path class="cls-1" d="M1339.35,519.06v-56.4c-42-55.5-72-114-72-136.8,0-8.7,4.8-12.6,15-12.6h40.2c10.5,0,14.1,2.7,18.3,13.8,11.1,30.9,17.1,46.5,34.8,76.8,17.7-30.3,23.7-45.9,34.8-76.8,4.2-11.1,7.8-13.8,18.3-13.8h36.3c10.2,0,15,3.9,15,12.6,0,22.8-30,81.3-72,136.8v56.4c0,10.5-4.5,15-15,15h-38.7c-10.5,0-15-4.5-15-15Z"/>
  <path class="cls-1" d="M0,828.71v-190.8c0-10.5,4.5-15,15-15h122.4c10.5,0,15,4.5,15,15v31.2c0,10.5-4.5,15-15,15h-68.7v30.3h56.4c10.5,0,15,4.5,15,15v31.2c0,10.5-4.5,15-15,15h-56.4v53.1c0,10.5-4.5,15-15,15H15c-10.5,0-15-4.5-15-15Z"/>
  <path class="cls-1" d="M166.8,733.31c0-81,29.7-114,101.7-114s101.7,33,101.7,114-29.7,114-101.7,114-101.7-33-101.7-114ZM298.5,733.31c0-40.8-7.2-52.8-30-52.8s-30,12-30,52.8,6.9,52.8,30,52.8,30-12,30-52.8Z"/>
  <path class="cls-1" d="M394.8,733.31c0-81,29.7-114,101.7-114s101.7,33,101.7,114-29.7,114-101.7,114-101.7-33-101.7-114ZM526.5,733.31c0-40.8-7.2-52.8-30-52.8s-30,12-30,52.8,6.9,52.8,30,52.8,30-12,30-52.8Z"/>
  <path class="cls-1" d="M661.2,828.71v-144.6h-38.7c-10.5,0-15-4.5-15-15v-31.2c0-10.5,4.5-15,15-15h146.1c10.5,0,15,4.5,15,15v31.2c0,10.5-4.5,15-15,15h-38.7v144.6c0,10.5-4.5,15-15,15h-38.7c-10.5,0-15-4.5-15-15Z"/>
  <path class="cls-1" d="M804.6,828.71v-190.8c0-10.5,4.5-15,15-15h68.4c60.6,0,90,23.1,90,64.5,0,21-8.7,34.5-24,44.4,21.6,10.2,30,27,30,47.7,0,41.1-29.4,64.2-90,64.2h-74.4c-10.5,0-15-4.5-15-15ZM885,712.31c13.2,0,21.3-6.6,21.3-19.8s-8.1-19.8-21.3-19.8h-11.7v39.6h11.7ZM891,793.91c13.2,0,21.3-6.6,21.3-19.8s-8.1-19.8-21.3-19.8h-17.7v39.6h17.7Z"/>
  <path class="cls-1" d="M994.2,831.11c0-23.1,33-142.8,64.8-194.4,5.4-8.7,9.9-13.8,24.9-13.8h37.2c15,0,19.5,5.1,24.9,13.8,31.8,51.6,64.8,171.3,64.8,194.4,0,9.6-5.1,12.6-12.6,12.6h-40.5c-13.5,0-19.2-3.9-20.7-13.8-1.5-9-3-18-4.8-27h-62.1c-1.8,9-3.6,18-5.1,27-1.8,9.9-7.2,13.8-20.7,13.8h-37.5c-7.5,0-12.6-3-12.6-12.6ZM1119.3,748.01c-6.3-24.6-12.3-46.5-18.3-63-6,16.5-12,38.4-18.3,63h36.6Z"/>
  <path class="cls-1" d="M1230.6,828.71v-190.8c0-10.5,4.5-15,15-15h38.7c10.5,0,15,4.5,15,15v144.6h62.7c10.5,0,15,4.5,15,15v31.2c0,10.5-4.5,15-15,15h-116.4c-10.5,0-15-4.5-15-15Z"/>
  <path class="cls-1" d="M1400.7,828.71v-190.8c0-10.5,4.5-15,15-15h38.7c10.5,0,15,4.5,15,15v144.6h62.7c10.5,0,15,4.5,15,15v31.2c0,10.5-4.5,15-15,15h-116.4c-10.5,0-15-4.5-15-15Z"/>
  <path class="cls-1" d="M255.9,1138.37v-190.8c0-10.5,4.5-15,15-15h42.3c10.5,0,17.4,3.6,21.9,13.2l33.6,73.2c3.9,8.4,7.8,16.5,11.7,27l1.2-.3c-.9-11.4-1.2-23.4-1.2-33.9v-64.2c0-10.5,4.5-15,15-15h36.6c10.5,0,15,4.5,15,15v190.8c0,10.5-4.5,15-15,15h-42.3c-10.5,0-17.4-3.6-21.9-13.2l-33.6-73.2c-3.9-8.4-7.8-16.5-11.7-27l-1.2.3c.9,11.4,1.2,23.4,1.2,33.9v64.2c0,10.5-4.5,15-15,15h-36.6c-10.5,0-15-4.5-15-15Z"/>
  <path class="cls-1" d="M483,1138.37v-190.8c0-10.5,4.5-15,15-15h38.7c10.5,0,15,4.5,15,15v190.8c0,10.5-4.5,15-15,15h-38.7c-10.5,0-15-4.5-15-15Z"/>
  <path class="cls-1" d="M582,1043.27c0-76.5,36.3-114.3,108.9-114.3,16.2,0,42.6,5.1,57.6,10.8,12.3,4.5,15.3,9.3,12.9,21l-6.6,30.6c-2.1,10.2-7.2,13.2-17.4,9.9-21-7.2-34.2-9.9-46.5-9.9-26.1,0-37.2,15.6-37.2,51.6,0,42.3,6.9,54.6,30.9,54.6,13.8,0,21-2.1,28.2-4.2v-19.8h-16.2c-10.5,0-15-4.5-15-15v-24c0-10.5,4.5-15,15-15h60.9c10.5,0,15,4.5,15,15v74.1c0,17.4-2.7,23.4-15.3,30.9-18,10.8-45.9,17.4-71.7,17.4-70.8,0-103.5-36-103.5-113.7Z"/>
  <path class="cls-1" d="M802.5,1138.37v-190.8c0-10.5,4.5-15,15-15h38.7c10.5,0,15,4.5,15,15v64.5h53.7v-64.5c0-10.5,4.5-15,15-15h38.7c10.5,0,15,4.5,15,15v190.8c0,10.5-4.5,15-15,15h-38.7c-10.5,0-15-4.5-15-15v-65.1h-53.7v65.1c0,10.5-4.5,15-15,15h-38.7c-10.5,0-15-4.5-15-15Z"/>
  <path class="cls-1" d="M1068.3,1138.37v-144.6h-38.7c-10.5,0-15-4.5-15-15v-31.2c0-10.5,4.5-15,15-15h146.1c10.5,0,15,4.5,15,15v31.2c0,10.5-4.5,15-15,15h-38.7v144.6c0,10.5-4.5,15-15,15h-38.7c-10.5,0-15-4.5-15-15Z"/>
  <path class="cls-1" d="M1212,1065.77c-7.2-103.8-7.2-104.4-7.2-105.3,0-19.5,15-31.5,40.5-31.5s40.5,12,40.5,31.5c0,.9,0,1.5-7.2,105.3-.6,8.7-5.4,12-14.7,10.2-6.6-1.2-12.3-1.8-18.6-1.8s-12,.6-18.6,1.8c-9.3,1.8-14.1-1.5-14.7-10.2ZM1204.8,1123.07c0-21.6,14.7-33.9,40.5-33.9s40.5,12.3,40.5,33.9-14.7,33.9-40.5,33.9-40.5-12.3-40.5-33.9Z"/>
</svg>