<?xml version="1.0" encoding="UTF-8"?>
<svg id="Layer_1" data-name="Layer 1" xmlns="http://www.w3.org/2000/svg" viewBox="0 0 2537.21 1388.7">
  <defs>
    <style>
      .cls-1 {
        fill: #fff;
      }
    </style>
  </defs>
  <path class="cls-1" d="M624.39,236.28c20.51,0,38.89-.9,55.15-2.71,16.26-1.81,30.42-4.35,42.48-7.62,12.06-3.27,22.29-7.08,30.69-11.43,8.4-4.35,15.31-9.01,20.73-13.99s9.69-10.16,12.82-15.53c3.12-5.37,5.42-10.67,6.88-15.89,1.46-5.22,2.37-10.13,2.71-14.72.34-4.59.51-9.62.51-15.09v-.73h11.28v56.25c0,2.83,1.51,5.03,4.54,6.59,1.91.72,3.8,1.25,5.69,1.62,2.07.67,4.27,1.01,6.62,1.01h68.55c9.08,0,17.45-2.25,25.12-6.74,3.01-1.77,5.78-3.79,8.3-6.05.09.13.18.28.27.41,3.52,4.83,8.03,8.11,13.55,9.81,4.59,1.42,10.44,2.24,17.5,2.48v.08h157.18v-65.92h-87.3c-2.15-6.05-3.66-13.16-4.54-21.31-.88-8.15-.49-15.21,1.17-21.17,1.66-5.96,4.93-8.94,9.81-8.94,3.71,0,6.69,1.71,8.94,5.13,2.25,3.42,3.88,7.42,4.91,12.01,1.03,4.59,1.78,11.08,2.27,19.48h64.75c1.07-13.77,1.44-25.22,1.1-34.35-.34-9.13-1.49-18.82-3.44-29.08-1.95-10.25-5.25-19.94-9.89-29.08-4.64-9.13-11.13-16.55-19.48-22.27s-18.68-8.57-30.98-8.57c-29.1,0-48.68,8.11-58.74,24.32-10.06,16.21-15.09,34.96-15.09,56.25,0,12.21,1.61,23.61,4.83,34.2,3.22,10.6,6.01,18.38,8.35,23.36h-29.44c-7.72,0-13.4-1.03-17.07-3.08-.69-.38-1.34-.79-1.98-1.21V6.3c-12.6-.29-22.32-.1-29.15.59-6.84.68-12.84,2.12-18.02,4.32-5.18,2.2-7.76,5.4-7.76,9.59v117.33h-25.63v-.59c0-5.47-.78-12.18-2.34-20.14-1.56-7.96-5.15-15.55-10.77-22.78-5.62-7.23-13.89-10.84-24.83-10.84h-81.74v49.51c0,6.64-1.64,11.99-4.91,16.04-3.27,4.05-9.47,7.35-18.6,9.89-9.13,2.54-22.44,4.35-39.92,5.42v-23.29c.1,0,.24-.05.44-.15,3.61-.78,6.79-1.63,9.52-2.56,2.73-.93,5.49-2.44,8.28-4.54,2.78-2.1,5.17-5.1,7.18-9.01,2-3.9,3.22-8.98,3.66-15.23.44-6.25-.17-13.82-1.83-22.71l-58.3,1.17c-5.57,0-10.16.98-13.77,2.93-3.61,1.96-6.2,4.25-7.76,6.88-1.56,2.64-2.34,4.98-2.34,7.03-.39,10.06-.59,18.36-.59,24.9,0,5.96.15,10.06.44,12.3v93.9Z"/>
  <path class="cls-1" d="M1225.12,254.3c8.69,5.08,18.16,7.62,28.42,7.62,12.21,0,19.09-.1,20.65-.29,14.94,0,27.34-1.49,37.21-4.47,9.86-2.98,17.53-7.08,23-12.3,5.47-5.23,9.38-11.11,11.72-17.65,2.34-6.54,3.76-13.13,4.25-19.78.11-1.55.21-3.21.29-4.94,4.26.9,9.34,1.42,15.23,1.54v.03c20.46.65,36.98-1.67,49.59-6.95,2.47,1.95,5.24,3.42,8.35,4.38,4.78,1.48,10.91,2.32,18.38,2.52v.05h177.25c12.48,0,21.24-3.66,26.32-10.95,3.34,4.05,7.48,6.86,12.43,8.39,4.88,1.51,11.16,2.35,18.82,2.53v.04h205.37v-71.48c-2.64,2.64-5.03,4.27-7.18,4.91-2.15.64-4.79.86-7.91.66h-2.34c-5.57,0-10.6-3.15-15.09-9.45-4.49-6.3-8.06-14.38-10.69-24.24-2.64-9.86-3.96-19.78-3.96-29.74,0-1.46.05-3.66.15-6.59.1-10.16-.25-18.72-1.03-25.71-.78-6.98-3-13.77-6.67-20.36s-9.79-11.91-18.38-15.97c-8.59-4.05-20.12-6.08-34.57-6.08-15.33,0-27.83,2.86-37.5,8.57s-16.82,13.14-21.46,22.27c-4.64,9.13-7.54,18.82-8.72,29.08s-1.39,19.95-.66,29.08c.73,9.13,2.56,20.58,5.49,34.35h74.12c-3.52-8.4-5.74-14.89-6.67-19.48-.93-4.59-.73-8.59.59-12.01,1.32-3.42,4.52-5.13,9.59-5.13,2.73,0,4.54,1.61,5.42,4.83s1.56,8.3,2.05,15.23c.39,6.54.95,11.92,1.68,16.11.73,4.2,2.29,7.79,4.69,10.77,2.39,2.98,5.98,4.47,10.77,4.47h-134.03c-7.72,0-13.4-1.03-17.07-3.08-3.43-1.92-6.24-4.24-8.42-6.93v-16.51c0-26.66-6.72-44.77-20.14-54.35-13.43-9.57-30.35-14.36-50.76-14.36-8.89-.1-20.14,1.3-33.76,4.17-13.62,2.88-27.86,7.18-42.7,12.89-14.85,5.71-28.96,12.79-42.33,21.24-.69.44-1.35.89-2.02,1.33-.47-3.24-1.01-6.68-1.64-10.33-5.27-1.37-11.77-2.76-19.48-4.17-7.72-1.41-15.8-2.03-24.24-1.83-8.45.2-14.77,2.15-18.97,5.86-.39.39-.54.83-.44,1.32l5.27,32.23c-.59,5.08-1.44,9.18-2.56,12.3-1.12,3.13-3.05,6.25-5.79,9.38-2.74,3.13-6.52,5.71-11.35,7.76-4.52,1.92-10.02,2.93-16.46,3.05-6.97-.12-12.19-1.13-15.62-3.05-.23-.13-.44-.26-.66-.39V16.11c-6.64-3.03-12.26-5.27-16.85-6.74-4.59-1.46-9.62-2.46-15.09-3-5.47-.54-10.94-.1-16.41,1.32-5.47,1.42-10.3,4.23-14.5,8.42v157.18c0,5.37-.25,9.55-.73,12.52-.49,2.98-1.83,5.67-4.03,8.06-2.2,2.39-5.81,4.45-10.84,6.15-5.03,1.71-11.94,3-20.73,3.88v-76.9c-12.6-.39-22.34-.29-29.22.29s-12.89,1.98-18.02,4.17-7.69,5.4-7.69,9.59v64.16c0,10.25,2.54,19.72,7.62,28.42,5.08,8.69,11.96,15.58,20.65,20.65ZM1523.95,113.82c21.19-3.61,40.09-5.96,56.69-7.03,8.3,0,14.52,1.61,18.68,4.83,4.15,3.22,5.98,7.3,5.49,12.23-.49,4.93-3.17,9.69-8.06,14.28h-134.29c.48-2.42.88-4.82,1.21-7.22,19.68-7.88,39.77-13.59,60.27-17.09Z"/>
  <path class="cls-1" d="M1928.54,203.91c6.35.29,11.81.24,16.41-.15,4.59-.39,8.3-.95,11.13-1.68,2.83-.73,5-1.51,6.52-2.34,1.51-.83,2.86-1.93,4.03-3.3V6.3c-12.6-.39-22.34-.27-29.22.37-6.88.64-12.89,2.05-18.02,4.25s-7.69,5.4-7.69,9.59v178.86c3.32,1.66,6.23,2.83,8.72,3.52,2.49.68,5.2,1.03,8.13,1.03Z"/>
  <path class="cls-1" d="M662.92,361.95c-4.49,4.49-6.74,9.77-6.74,15.82s2.25,11.33,6.74,15.82c4.49,4.49,9.76,6.74,15.82,6.74s11.33-2.25,15.82-6.74c4.49-4.49,6.74-9.76,6.74-15.82s-2.25-11.33-6.74-15.82c-4.49-4.49-9.77-6.74-15.82-6.74s-11.33,2.25-15.82,6.74Z"/>
  <path class="cls-1" d="M655.52,629.8c14.7-4.35,26.15-10.35,34.35-18.02,8.2-7.67,14.11-16.24,17.72-25.71,3.61-9.47,5.81-18.82,6.59-28.05.78-9.23,1.17-20.43,1.17-33.62v-3.22l-1.46-87.89c-6.54-3.12-12.11-5.42-16.7-6.88-4.59-1.46-9.65-2.46-15.16-3-5.52-.54-10.99-.07-16.41,1.39s-10.23,4.3-14.43,8.5c3.42,23.83,5.79,42.7,7.1,56.62s1.98,26.29,1.98,37.13c0,8.01-1.9,14.36-5.71,19.04s-10.06,8.13-18.75,10.33c-8.69,2.2-20.46,3.3-35.3,3.3v76.17c21.97.29,40.31-1.74,55-6.08Z"/>
  <path class="cls-1" d="M984.59,327.67c4.49-4.49,6.74-9.76,6.74-15.82s-2.25-11.33-6.74-15.82c-4.49-4.49-9.77-6.74-15.82-6.74s-11.33,2.25-15.82,6.74c-4.49,4.49-6.74,9.77-6.74,15.82s2.25,11.33,6.74,15.82c4.49,4.49,9.76,6.74,15.82,6.74s11.33-2.25,15.82-6.74Z"/>
  <path class="cls-1" d="M1057.84,551.21c9.08,0,17.45-2.25,25.12-6.74,7.67-4.49,13.74-10.57,18.24-18.24,4.49-7.67,6.74-16.04,6.74-25.12v-147.66c-12.6-.29-22.32-.1-29.15.59-6.84.68-12.84,2.12-18.02,4.32-5.18,2.2-7.76,5.4-7.76,9.59v117.33h-17.58v.15h-7.42c.16-2.02.25-4.07.25-6.15v-56.4c0-1.37.05-3.52.15-6.45.1-10.16-.25-18.72-1.03-25.71-.78-6.98-3.03-13.77-6.74-20.36-3.71-6.59-9.84-11.94-18.38-16.04-8.55-4.1-20.09-6.15-34.64-6.15-22.85,0-39.65,7.35-50.39,22.05-10.74,14.7-17.38,32.69-19.92,53.98-.88,7.81.34,15.21,3.66,22.19,3.32,6.98,8.23,12.58,14.72,16.77,6.49,4.2,13.7,6.3,21.61,6.3h58.45c-3.03,10.65-8.16,15.97-15.38,15.97h-40.14c-10.65-.1-20.9-.15-30.76-.15h-20.36v.15h-13.4c-.03-.68-.05-1.36-.08-2.05,0-12.99-1.61-24.95-4.83-35.89-3.22-10.94-10.13-20.38-20.73-28.34-10.6-7.96-26.05-11.94-46.36-11.94-24.42,0-42.14,8.13-53.17,24.39-11.04,16.26-17.68,35.72-19.92,58.37-1.17,11.92.32,22.71,4.47,32.37,4.15,9.67,10.94,17.34,20.36,23,9.42,5.67,21.17,8.5,35.23,8.5,6.35,0,11.77-.83,16.26-2.49,4.49-1.66,8.03-3.68,10.62-6.08,2.59-2.39,4.49-4.81,5.71-7.25,1.22-2.44,2.22-5.61,3-9.52v15.38c0,6.64-1.71,11.3-5.13,13.99-3.42,2.68-8.91,4.3-16.48,4.83-7.57.54-20.83.71-39.77.51-12.6-.2-22.71-.29-30.32-.29v76.17c55.17,0,92.55-11.21,112.13-33.62,14.16-16.2,23.19-34.85,27.11-55.93,4.27.94,9.35,1.48,15.29,1.62v.04h65.33c12.3,0,23.9-2.76,34.79-8.28,4.21-2.13,8.1-4.6,11.7-7.4.65,1.19,1.33,2.3,2.07,3.29,3.56,4.83,8.1,8.11,13.62,9.81,4.9,1.52,11.18,2.36,18.82,2.53v.04h22.41ZM826.25,515.32v7.47h-17.87c-2.93,0-5.62-.88-8.06-2.64-2.44-1.76-4.1-4-4.98-6.74-1.95-6.45-2.78-12.96-2.49-19.56s2.07-12.11,5.35-16.55c3.27-4.44,8.13-6.67,14.58-6.67,4.3,0,7.45,1.98,9.45,5.93,2,3.96,3.2,8.86,3.59,14.72.39,5.86.54,13.87.44,24.02ZM965.26,444.86c-.1-10.55,1.1-19.65,3.59-27.32,2.49-7.67,7.05-11.5,13.7-11.5,4.59,0,8.32,3.88,11.21,11.65,2.88,7.76,4.47,16.82,4.76,27.17h-33.25Z"/>
  <path class="cls-1" d="M1146.9,551.06c6.35.29,11.81.24,16.41-.15,4.59-.39,8.3-.95,11.13-1.68,2.83-.73,5-1.51,6.52-2.34,1.51-.83,2.86-1.93,4.03-3.3v-190.14c-12.6-.39-22.34-.27-29.22.37-6.88.64-12.89,2.05-18.02,4.25s-7.69,5.4-7.69,9.59v178.86c3.32,1.66,6.23,2.83,8.72,3.52,2.49.68,5.2,1.03,8.13,1.03Z"/>
  <path class="cls-1" d="M1346.26,525.65c6.17-2.38,12.05-5.55,17.64-9.52.63,5.88,2.52,11.33,5.65,16.33,3.61,5.76,8.4,10.33,14.36,13.7,5.96,3.37,12.4,5.05,19.34,5.05h20.51c19.94.64,36.15-1.54,48.63-6.54,2.34,1.75,4.95,3.09,7.84,3.98,5.09,1.58,11.72,2.42,19.85,2.54v.02h177.25c13.96,0,23.29-4.56,27.98-13.7,4.69-9.13,7.08-18.29,7.18-27.47v-51.27c0-26.66-6.72-44.77-20.14-54.35-13.43-9.57-30.35-14.36-50.76-14.36-8.89-.1-20.14,1.3-33.76,4.17-13.62,2.88-27.86,7.18-42.7,12.89-14.85,5.71-28.96,12.79-42.33,21.24-.69.44-1.35.89-2.02,1.33-.47-3.24-1.01-6.68-1.64-10.33-5.27-1.37-11.77-2.76-19.48-4.17-7.72-1.41-15.8-2.03-24.24-1.83-8.45.2-14.77,2.15-18.97,5.86-.39.39-.54.83-.44,1.32l5.27,32.23c-.59,5.08-1.44,9.18-2.56,12.3-1.12,3.13-3.05,6.25-5.79,9.38-2.74,3.13-6.52,5.71-11.35,7.76s-10.77,3.08-17.8,3.08v.1c-4.84-.06-13.82-.1-26.95-.1v-46c.19-10.16-.1-18.72-.88-25.71-.78-6.98-3.03-13.77-6.74-20.36-3.71-6.59-9.84-11.91-18.38-15.97-8.55-4.05-20.09-6.08-34.64-6.08-15.72,0-28.91,4.52-39.55,13.55-10.65,9.03-18.48,20.17-23.51,33.4-5.03,13.23-7.54,26.25-7.54,39.04-.1,19.73,3.74,35.67,11.5,47.83s17.85,19.95,30.25,23.36c12.4,3.42,25.39,2.52,38.96-2.71ZM1581.81,460.97c21.19-3.61,40.09-5.96,56.69-7.03,8.3,0,14.52,1.61,18.68,4.83,4.15,3.22,5.98,7.3,5.49,12.23-.49,4.93-3.17,9.69-8.06,14.28h-134.29c.48-2.42.88-4.82,1.21-7.22,19.68-7.88,39.77-13.59,60.27-17.09ZM1337.4,440.39c2.49-7.67,7.01-11.5,13.55-11.5,4.59,0,8.35,3.91,11.28,11.72,2.93,7.81,4.54,16.85,4.83,27.1h-33.25c-.1-10.55,1.1-19.65,3.59-27.32Z"/>
  <path class="cls-1" d="M1303.05,325.33c-4.49,4.49-6.74,9.77-6.74,15.82s2.25,11.33,6.74,15.82c4.49,4.49,9.76,6.74,15.82,6.74s11.33-2.25,15.82-6.74,6.74-9.76,6.74-15.82-2.25-11.33-6.74-15.82c-4.49-4.49-9.77-6.74-15.82-6.74s-11.33,2.25-15.82,6.74Z"/>
  <path class="cls-1" d="M1348.46,325.33c-4.49,4.49-6.74,9.77-6.74,15.82s2.25,11.33,6.74,15.82c4.49,4.49,9.76,6.74,15.82,6.74s11.21-2.25,15.75-6.74c4.54-4.49,6.81-9.76,6.81-15.82s-2.27-11.33-6.81-15.82c-4.54-4.49-9.79-6.74-15.75-6.74s-11.33,2.25-15.82,6.74Z"/>
  <path class="cls-1" d="M1949.27,354.33c-8.55-4.1-20.09-6.15-34.64-6.15-22.85,0-39.65,7.35-50.39,22.05-10.74,14.7-17.38,32.69-19.92,53.98-.88,7.81.34,15.21,3.66,22.19,3.32,6.98,8.23,12.58,14.72,16.77,6.49,4.2,13.7,6.3,21.61,6.3h58.45c-3.03,10.65-8.16,15.97-15.38,15.97h-40.14c-10.65-.1-20.9-.15-30.76-.15h-20.36v.15h-25.65l-.86-51.86c-6.54-3.12-12.11-5.42-16.7-6.88-4.59-1.46-9.65-2.46-15.16-3-5.52-.54-10.99-.07-16.41,1.39s-10.23,4.3-14.43,8.5c3.42,23.83,5.79,42.7,7.1,56.62s1.98,26.29,1.98,37.13c0,8.01-1.9,14.36-5.71,19.04s-10.06,8.13-18.75,10.33c-8.69,2.2-20.46,3.3-35.3,3.3v76.17c21.97.29,40.31-1.74,55-6.08,14.7-4.35,26.15-10.35,34.35-18.02,8.2-7.67,14.11-16.24,17.72-25.71,3.61-9.47,5.81-18.82,6.59-28.05.33-3.88.58-8.13.77-12.71,1.98,1.29,4.13,2.31,6.48,3.04,4.91,1.52,11.24,2.36,18.97,2.53v.04h65.33c12.3,0,23.9-2.76,34.79-8.28,10.89-5.52,19.75-13.26,26.59-23.22,8.3-11.91,12.45-25.39,12.45-40.43v-56.4c0-1.37.05-3.52.15-6.45.1-10.16-.25-18.72-1.03-25.71-.78-6.98-3.03-13.77-6.74-20.36-3.71-6.59-9.84-11.94-18.38-16.04ZM1912.28,444.86c-.1-10.55,1.1-19.65,3.59-27.32,2.49-7.67,7.05-11.5,13.7-11.5,4.59,0,8.32,3.88,11.21,11.65,2.88,7.76,4.47,16.82,4.76,27.17h-33.25Z"/>
  <path class="cls-1" d="M1915.8,334.41c6.05,0,11.33-2.25,15.82-6.74s6.74-9.76,6.74-15.82-2.25-11.33-6.74-15.82c-4.49-4.49-9.77-6.74-15.82-6.74s-11.33,2.25-15.82,6.74-6.74,9.77-6.74,15.82,2.25,11.33,6.74,15.82c4.49,4.49,9.76,6.74,15.82,6.74Z"/>
  <path class="cls-1" d="M563.96,721.12c5.96,0,11.21-2.25,15.75-6.74,4.54-4.49,6.81-9.76,6.81-15.82s-2.27-11.33-6.81-15.82c-4.54-4.49-9.79-6.74-15.75-6.74s-11.33,2.25-15.82,6.74c-4.49,4.49-6.74,9.77-6.74,15.82s2.25,11.33,6.74,15.82c4.49,4.49,9.76,6.74,15.82,6.74Z"/>
  <path class="cls-1" d="M502.81,892.8c10.3,5.66,22.63,8.5,36.99,8.5,21.78,0,39.04-5.3,51.78-15.89,12.74-10.59,20.92-24.14,24.54-40.65,3.61-16.5,3.22-33.42-1.17-50.76-4.39-17.33-12.08-32.35-23.07-45.04-10.99-12.69-24-20.51-39.04-23.44-14.55-2.83-28.08-.29-40.58,7.62-12.5,7.91-22.49,20.39-29.96,37.43-7.47,17.04-11.21,37.13-11.21,60.28,0,14.55,2.71,27.1,8.13,37.65s13.28,18.65,23.58,24.32ZM529.39,802.78c.49-5.61,1.73-10.25,3.74-13.92,2-3.66,5.05-5.49,9.16-5.49,6.45,0,11.3,2.2,14.58,6.59,3.27,4.39,5.05,9.91,5.35,16.55.29,6.64-.54,13.14-2.49,19.48-.88,2.83-2.52,5.13-4.91,6.88-2.39,1.76-5.1,2.64-8.13,2.64h-7.18c-2.93,0-5.45-1.05-7.54-3.15-2.1-2.1-3.15-4.61-3.15-7.54-.1-9.08.1-16.43.59-22.05Z"/>
  <path class="cls-1" d="M518.55,721.12c6.05,0,11.33-2.25,15.82-6.74,4.49-4.49,6.74-9.76,6.74-15.82s-2.25-11.33-6.74-15.82c-4.49-4.49-9.77-6.74-15.82-6.74s-11.33,2.25-15.82,6.74c-4.49,4.49-6.74,9.77-6.74,15.82s2.25,11.33,6.74,15.82c4.49,4.49,9.76,6.74,15.82,6.74Z"/>
  <path class="cls-1" d="M711.47,702.37c-6.06,0-11.33,2.25-15.82,6.74-4.49,4.49-6.74,9.77-6.74,15.82s2.25,11.33,6.74,15.82c4.49,4.49,9.76,6.74,15.82,6.74s11.33-2.25,15.82-6.74c4.49-4.49,6.74-9.76,6.74-15.82s-2.25-11.33-6.74-15.82c-4.49-4.49-9.77-6.74-15.82-6.74Z"/>
  <path class="cls-1" d="M747.7,892.76c1.98,1.29,4.13,2.31,6.48,3.04,4.94,1.53,11.32,2.37,19.12,2.53v.03c25.49,1.46,44.46-1.34,56.91-8.42,12.45-7.08,20.63-15.65,24.54-25.71.29-.78.83-1.1,1.61-.95.78.15,1.22.61,1.32,1.39,1.07,9.38,3.59,16.48,7.54,21.31s9.3,8.11,16.04,9.81c6.1,1.55,14.02,2.39,23.73,2.53v.03h18.9c9.08,0,17.19-2.78,24.32-8.35,12.11,12.11,28.76,18.16,49.95,18.16s39.04-5.3,51.78-15.89c.89-.74,1.76-1.51,2.61-2.28,2.86,2.67,6.18,4.62,9.99,5.79,4.91,1.52,11.24,2.36,18.97,2.53v.04h18.9c9.08,0,17.19-2.78,24.32-8.35,12.11,12.11,28.76,18.16,49.95,18.16s39.04-5.3,51.78-15.89,20.92-24.14,24.54-40.65c3.61-16.5,3.22-33.42-1.17-50.76-4.39-17.33-12.08-32.35-23.07-45.04-10.99-12.69-24-20.51-39.04-23.44-14.16-2.73-27.37-.37-39.62,7.1-12.26,7.47-22.17,19.29-29.74,35.45-7.57,16.16-11.65,35.33-12.23,57.5h-21.68c-2.79,0-5.31-.14-7.57-.41.29-10.23-.89-20.62-3.57-31.16-4.39-17.33-12.08-32.35-23.07-45.04-10.99-12.69-24-20.51-39.04-23.44-14.16-2.73-27.37-.37-39.62,7.1-12.26,7.47-22.17,19.29-29.74,35.45-7.57,16.16-11.65,35.33-12.23,57.5h-21.53c-9.47,0-16.48-1.03-21.02-3.08s-8.18-4.54-10.91-7.47c-.39-.29-.64-.54-.73-.73-3.13-3.12-5.2-7.74-6.23-13.84-1.03-6.1-1.39-12.08-1.1-17.94s.78-11.87,1.46-18.02c.19-1.66.29-2.73.29-3.22.1-.88-.29-1.41-1.17-1.61-5.27-1.37-11.77-2.76-19.48-4.17-7.72-1.41-15.8-2.03-24.24-1.83-8.45.2-14.77,2.15-18.97,5.86-.39.39-.54.83-.44,1.32l5.27,32.23c-.59,5.08-1.44,9.18-2.56,12.3-1.12,3.13-3.05,6.25-5.79,9.38-2.74,3.13-6.52,5.71-11.35,7.76s-10.77,3.08-17.8,3.08v.15h-25.8l-.86-51.86c-6.54-3.12-12.11-5.42-16.7-6.88-4.59-1.46-9.65-2.46-15.16-3-5.52-.54-10.99-.07-16.41,1.39s-10.23,4.3-14.43,8.5c3.42,23.83,5.79,42.7,7.1,56.62s1.98,26.29,1.98,37.13c0,8.01-1.9,14.36-5.71,19.04s-10.06,8.13-18.75,10.33c-8.69,2.2-20.46,3.3-35.3,3.3v76.17c21.97.29,40.31-1.74,55-6.08,14.7-4.35,26.15-10.35,34.35-18.02,8.2-7.67,14.11-16.24,17.72-25.71,3.61-9.47,5.81-18.82,6.59-28.05.33-3.88.58-8.13.77-12.71ZM1164.4,809.67c.49-5.61,1.71-10.25,3.66-13.92,1.95-3.66,4.98-5.49,9.08-5.49,6.45,0,11.3,2.2,14.58,6.59,3.27,4.39,5.05,9.91,5.35,16.55.29,6.64-.54,13.14-2.49,19.48-.88,2.83-2.52,5.13-4.91,6.88-2.39,1.76-5.1,2.64-8.13,2.64h-7.03c-3.03,0-5.59-1.05-7.69-3.15-2.1-2.1-3.15-4.61-3.15-7.54,0-9.08.24-16.43.73-22.05ZM987.89,809.67c.49-5.61,1.71-10.25,3.66-13.92,1.95-3.66,4.98-5.49,9.08-5.49,6.45,0,11.3,2.2,14.58,6.59,3.27,4.39,5.05,9.91,5.35,16.55.29,6.64-.54,13.14-2.49,19.48-.88,2.83-2.52,5.13-4.91,6.88-2.39,1.76-5.1,2.64-8.13,2.64h-7.03c-3.03,0-5.59-1.05-7.69-3.15-2.1-2.1-3.15-4.61-3.15-7.54,0-9.08.24-16.43.73-22.05Z"/>
  <path class="cls-1" d="M809.03,907.45c-6.06,0-11.33,2.25-15.82,6.74-4.49,4.49-6.74,9.76-6.74,15.82s2.25,11.33,6.74,15.82c4.49,4.49,9.76,6.74,15.82,6.74s11.33-2.25,15.82-6.74c4.49-4.49,6.74-9.77,6.74-15.82s-2.25-11.33-6.74-15.82c-4.49-4.49-9.77-6.74-15.82-6.74Z"/>
  <path class="cls-1" d="M838.62,914.19c-4.49,4.49-6.74,9.76-6.74,15.82s2.25,11.33,6.74,15.82c4.49,4.49,9.76,6.74,15.82,6.74s11.21-2.25,15.75-6.74c4.54-4.49,6.81-9.77,6.81-15.82s-2.27-11.33-6.81-15.82c-4.54-4.49-9.79-6.74-15.75-6.74s-11.33,2.25-15.82,6.74Z"/>
  <path class="cls-1" d="M1381.79,709.11c-4.49,4.49-6.74,9.77-6.74,15.82s2.25,11.33,6.74,15.82c4.49,4.49,9.76,6.74,15.82,6.74s11.33-2.25,15.82-6.74,6.74-9.76,6.74-15.82-2.25-11.33-6.74-15.82c-4.49-4.49-9.77-6.74-15.82-6.74s-11.33,2.25-15.82,6.74Z"/>
  <path class="cls-1" d="M1545.26,861.3c4.2-6.74,7.32-14.3,9.38-22.71,2.05-8.4,3.27-16.7,3.66-24.9.39-8.2.32-15.7-.22-22.49-.54-6.79-1.64-15.01-3.3-24.68-5.27-1.37-11.77-2.76-19.48-4.17-7.72-1.41-15.8-2.03-24.24-1.83-8.45.2-14.77,2.15-18.97,5.86-.39.39-.54.83-.44,1.32l5.27,32.23c-.59,5.08-1.44,9.18-2.56,12.3-1.12,3.13-3.05,6.25-5.79,9.38-2.74,3.13-6.52,5.71-11.35,7.76s-10.77,3.08-17.8,3.08v.15h-25.8l-.86-51.86c-6.54-3.12-12.11-5.42-16.7-6.88-4.59-1.46-9.65-2.46-15.16-3-5.52-.54-10.99-.07-16.41,1.39s-10.23,4.3-14.43,8.5c3.42,23.83,5.79,42.7,7.1,56.62s1.98,26.29,1.98,37.13c0,8.01-1.9,14.36-5.71,19.04s-10.06,8.13-18.75,10.33c-8.69,2.2-20.46,3.3-35.3,3.3v76.17c21.97.29,40.31-1.74,55-6.08,14.7-4.35,26.15-10.35,34.35-18.02,8.2-7.67,14.11-16.24,17.72-25.71,3.61-9.47,5.81-18.82,6.59-28.05.33-3.88.58-8.13.77-12.71,1.98,1.29,4.13,2.31,6.48,3.04,4.94,1.53,11.32,2.37,19.12,2.53v.03c24.41.78,43.24-2.66,56.47-10.33,13.23-7.67,23.02-16.58,29.37-26.73Z"/>
  <path class="cls-1" d="M1542.19,723.02c1.17-5.86,1.78-10.59,1.83-14.21.05-3.61-.49-7.25-1.61-10.91-1.12-3.66-3.27-6.69-6.45-9.08-3.17-2.39-7.54-3.59-13.11-3.59-6.64,0-11.74,1.22-15.31,3.66-3.57,2.44-5.98,5.96-7.25,10.55-.78,2.83-1.08,6.5-.88,10.99.19,4.49,1.22,8.47,3.08,11.94,1.85,3.47,4.74,5.2,8.64,5.2h-11.43c-1.56,0-3.05,1.46-4.47,4.39-1.42,2.93-3.1,8.06-5.05,15.38v.15h53.76v-19.92h-26.66c-.98-.97-1.66-2.76-2.05-5.35-.39-2.59-.32-4.98.22-7.18.54-2.2,1.54-3.3,3-3.3,1.95,0,3.17.83,3.66,2.49.49,1.66.39,4.59-.29,8.79h20.36Z"/>
  <path class="cls-1" d="M1595.43,705.23c-5.13,2.2-7.69,5.4-7.69,9.59v178.86c3.32,1.66,6.23,2.83,8.72,3.52,2.49.68,5.2,1.03,8.13,1.03,6.35.29,11.81.24,16.41-.15,4.59-.39,8.3-.95,11.13-1.68,2.83-.73,5-1.51,6.52-2.34,1.51-.83,2.86-1.93,4.03-3.3v-190.14c-12.6-.39-22.34-.27-29.22.37-6.88.64-12.89,2.05-18.02,4.25Z"/>
  <path class="cls-1" d="M1919.24,945.83c4.49-4.49,6.74-9.77,6.74-15.82s-2.25-11.33-6.74-15.82-9.77-6.74-15.82-6.74-11.33,2.25-15.82,6.74c-4.49,4.49-6.74,9.76-6.74,15.82s2.25,11.33,6.74,15.82,9.76,6.74,15.82,6.74,11.33-2.25,15.82-6.74Z"/>
  <path class="cls-1" d="M2115.82,766.53c-5.27-1.37-11.77-2.76-19.48-4.17-7.72-1.41-15.8-2.03-24.24-1.83-8.45.2-14.77,2.15-18.97,5.86-.39.39-.54.83-.44,1.32l5.27,32.23c-.59,5.08-1.44,9.18-2.56,12.3-1.12,3.13-3.05,6.25-5.79,9.38-2.74,3.13-6.52,5.71-11.35,7.76s-10.77,3.08-17.8,3.08h-1.46c-5.57,0-10.6-3.15-15.09-9.45-4.49-6.3-8.06-14.38-10.69-24.24-2.64-9.86-3.96-19.78-3.96-29.74,0-1.46.05-3.66.15-6.59.1-10.16-.25-18.72-1.03-25.71-.78-6.98-3-13.77-6.67-20.36s-9.79-11.91-18.38-15.97c-8.59-4.05-20.12-6.08-34.57-6.08-15.33,0-27.83,2.86-37.5,8.57s-16.82,13.14-21.46,22.27c-4.64,9.13-7.54,18.82-8.72,29.08s-1.39,19.95-.66,29.08c.73,9.13,2.56,20.58,5.49,34.35h74.12c-3.52-8.4-5.74-14.89-6.67-19.48-.93-4.59-.73-8.59.59-12.01,1.32-3.42,4.52-5.13,9.59-5.13,2.73,0,4.54,1.61,5.42,4.83s1.56,8.3,2.05,15.23c.39,6.54.95,11.92,1.68,16.11.73,4.2,2.29,7.79,4.69,10.77,2.39,2.98,5.98,4.47,10.77,4.47h-137.11v.15h-13.4c-.03-.68-.05-1.36-.08-2.05,0-12.99-1.61-24.95-4.83-35.89-3.22-10.94-10.13-20.38-20.73-28.34-10.6-7.96-26.05-11.94-46.36-11.94-24.42,0-42.14,8.13-53.17,24.39-11.04,16.26-17.68,35.72-19.92,58.37-1.17,11.92.32,22.71,4.47,32.37,4.15,9.67,10.94,17.34,20.36,23,9.42,5.67,21.17,8.5,35.23,8.5,6.35,0,11.77-.83,16.26-2.49,4.49-1.66,8.03-3.68,10.62-6.08,2.59-2.39,4.49-4.81,5.71-7.25,1.22-2.44,2.22-5.61,3-9.52v15.38c0,6.64-1.71,11.3-5.13,13.99-3.42,2.68-8.91,4.3-16.48,4.83-7.57.54-20.83.71-39.77.51-12.6-.2-22.71-.29-30.32-.29v76.17c55.17,0,92.55-11.21,112.13-33.62,14.15-16.2,23.19-34.85,27.11-55.93,4.27.94,9.36,1.48,15.29,1.62v.04h189.4c24.41.78,43.24-2.66,56.47-10.33,13.23-7.67,23.02-16.58,29.37-26.73,4.2-6.74,7.32-14.3,9.38-22.71,2.05-8.4,3.27-16.7,3.66-24.9.39-8.2.32-15.7-.22-22.49-.54-6.79-1.64-15.01-3.3-24.68ZM1768.21,862.48v7.47h-17.87c-2.93,0-5.62-.88-8.06-2.64-2.44-1.76-4.1-4-4.98-6.74-1.96-6.45-2.78-12.96-2.49-19.56s2.07-12.11,5.35-16.55c3.27-4.44,8.13-6.67,14.58-6.67,4.3,0,7.45,1.98,9.45,5.93,2,3.96,3.2,8.86,3.59,14.72.39,5.86.54,13.87.44,24.02Z"/>
  <path class="cls-1" d="M2055.91,952.56c6.05,0,11.33-2.25,15.82-6.74,4.49-4.49,6.74-9.77,6.74-15.82s-2.25-11.33-6.74-15.82-9.77-6.74-15.82-6.74-11.33,2.25-15.82,6.74c-4.49,4.49-6.74,9.76-6.74,15.82s2.25,11.33,6.74,15.82,9.76,6.74,15.82,6.74Z"/>
  <path class="cls-1" d="M11.5,1208.09c2.49-.1,5.2-.19,8.13-.29,2.93-.1,5.69-.19,8.28-.29,2.59-.1,4.27-.15,5.05-.15,5.27,0,10.4.29,15.38.88,1.37.2,2.81.29,4.32.29s2.76-.49,3.74-1.46c.59-.59,1.07-1.49,1.46-2.71.39-1.22.76-2.46,1.1-3.74.34-1.27.66-2.56.95-3.88s.44-2.37.44-3.15c1.37-16.41,1.95-32.76,1.76-49.07-.2-16.31-.39-32.67-.59-49.07,0-2.34.05-4.66.15-6.96.1-2.29.05-4.66-.15-7.1-.2-1.56-.44-3.54-.73-5.93-.29-2.39-1.08-4.03-2.34-4.91-.78-.39-1.56-.59-2.34-.59h-2.64c-7.62.39-15.33.54-23.14.44-7.81-.1-15.53-.24-23.14-.44-2.54-.19-4.08.86-4.61,3.15-.54,2.3-.9,4.67-1.1,7.1,0,2.15-.05,5.98-.15,11.5-.1,5.52-.15,11.89-.15,19.12s-.1,14.77-.29,22.63c-.2,7.86-.29,15.41-.29,22.63s-.05,13.58-.15,19.04c-.1,5.47-.15,9.33-.15,11.57,0,.78-.05,2.08-.15,3.88-.1,1.81-.15,3.66-.15,5.57s.1,3.71.29,5.42c.19,1.71.49,2.96.88,3.74.39.98,1.1,1.61,2.12,1.9s2.03.54,3,.73c.98.2,2.71.25,5.2.15Z"/>
  <path class="cls-1" d="M55.96,1243.39c-3.13-2.25-6.5-3.86-10.11-4.83-3.61-.97-7.25-1.41-10.91-1.32-3.66.1-7.1,1.03-10.33,2.78-2.25,1.27-4.47,2.64-6.67,4.1s-3.98,3.32-5.35,5.57c-2.25,3.42-4.1,6.98-5.57,10.69-1.46,3.71-1.9,7.57-1.32,11.57.39,3.32,1.19,6.69,2.42,10.11,1.22,3.42,3.1,6.25,5.64,8.5,2.05,1.76,4.12,3.44,6.23,5.05,2.1,1.61,4.42,2.61,6.96,3,2.64.59,5.25,1.03,7.84,1.32,2.59.29,5.1.05,7.54-.73,4-1.37,7.86-3.1,11.57-5.2,3.71-2.1,6.74-4.86,9.08-8.28,3.61-5.17,5.47-10.94,5.57-17.29.1-6.35-1.56-12.11-4.98-17.29-1.95-2.93-4.49-5.52-7.62-7.76Z"/>
  <path class="cls-1" d="M192.92,1099.69c5.96,0,11.21-2.25,15.75-6.74,4.54-4.49,6.81-9.76,6.81-15.82s-2.27-11.33-6.81-15.82c-4.54-4.49-9.79-6.74-15.75-6.74s-11.33,2.25-15.82,6.74c-4.49,4.49-6.74,9.77-6.74,15.82s2.25,11.33,6.74,15.82c4.49,4.49,9.76,6.74,15.82,6.74Z"/>
  <path class="cls-1" d="M147.51,1099.69c6.05,0,11.33-2.25,15.82-6.74,4.49-4.49,6.74-9.76,6.74-15.82s-2.25-11.33-6.74-15.82c-4.49-4.49-9.77-6.74-15.82-6.74s-11.33,2.25-15.82,6.74c-4.49,4.49-6.74,9.77-6.74,15.82s2.25,11.33,6.74,15.82c4.49,4.49,9.76,6.74,15.82,6.74Z"/>
  <path class="cls-1" d="M701.07,1221.27h-2.34c-5.57,0-10.6-3.15-15.09-9.45-4.49-6.3-8.06-14.38-10.69-24.24-2.64-9.86-3.96-19.78-3.96-29.74,0-1.46.05-3.66.15-6.59.1-10.16-.25-18.72-1.03-25.71-.78-6.98-3-13.77-6.67-20.36s-9.79-11.91-18.38-15.97c-8.59-4.05-20.12-6.08-34.57-6.08-15.33,0-27.83,2.86-37.5,8.57s-16.82,13.14-21.46,22.27c-4.64,9.13-7.54,18.82-8.72,29.08s-1.39,19.95-.66,29.08c.73,9.13,2.56,20.58,5.49,34.35h74.12c-3.52-8.4-5.74-14.89-6.67-19.48-.93-4.59-.73-8.59.59-12.01,1.32-3.42,4.52-5.13,9.59-5.13,2.73,0,4.54,1.61,5.42,4.83s1.56,8.3,2.05,15.23c.39,6.54.95,11.92,1.68,16.11.73,4.2,2.29,7.79,4.69,10.77,2.39,2.98,5.98,4.47,10.77,4.47h-134.18c-7.72,0-13.4-1.03-17.07-3.08-2.24-1.26-4.22-2.68-5.93-4.27v-19.17c0-13.48-5.08-23.41-15.23-29.81-10.16-6.39-23.83-9.59-41.02-9.59h-103.71v-6.88c9.08,0,16.72-1.44,22.92-4.32,6.2-2.88,11.06-6.61,14.58-11.21,3.52-4.59,6.03-9.47,7.54-14.65,1.51-5.17,2.42-10.08,2.71-14.72.29-4.64.1-10.42-.59-17.36h-63.43c0,14.65-.95,26.95-2.86,36.91s-5.54,17.82-10.91,23.58c-5.37,5.76-12.99,8.64-22.85,8.64v52.15h153.52c6.93,0,12.4.22,16.41.66,4,.44,7.4,1.66,10.18,3.66,2.78,2,4.17,5.15,4.17,9.45h-209.91v.09c-4.87-.06-13.8-.09-26.81-.09v-46c.19-10.16-.1-18.72-.88-25.71-.78-6.98-3.03-13.77-6.74-20.36-3.71-6.59-9.84-11.91-18.38-15.97-8.55-4.05-20.09-6.08-34.64-6.08-15.72,0-28.91,4.52-39.55,13.55-10.65,9.03-18.48,20.17-23.51,33.4-5.03,13.23-7.54,26.25-7.54,39.04-.1,19.73,3.74,35.67,11.5,47.83s17.85,19.95,30.25,23.36c12.4,3.42,25.39,2.52,38.96-2.71,6.17-2.38,12.05-5.55,17.64-9.52.63,5.88,2.52,11.33,5.65,16.33,3.61,5.76,8.4,10.33,14.36,13.7,5.96,3.37,12.4,5.05,19.34,5.05h223.68c11.54,0,19.9-3.17,25.12-9.49,3.1,3.27,6.8,5.59,11.14,6.93,4.91,1.52,11.24,2.36,18.97,2.53v.04h205.37v-71.48c-2.64,2.64-5.03,4.27-7.18,4.91-2.15.64-4.79.86-7.91.66ZM162.45,1203.69c-.1-10.55,1.1-19.65,3.59-27.32,2.49-7.67,7.01-11.5,13.55-11.5,4.59,0,8.35,3.91,11.28,11.72,2.93,7.81,4.54,16.85,4.83,27.1h-33.25Z"/>
  <path class="cls-1" d="M981.59,1073.03c-4.49,4.49-6.74,9.77-6.74,15.82s2.25,11.33,6.74,15.82c4.49,4.49,9.76,6.74,15.82,6.74s11.33-2.25,15.82-6.74c4.49-4.49,6.74-9.76,6.74-15.82s-2.25-11.33-6.74-15.82c-4.49-4.49-9.77-6.74-15.82-6.74s-11.33,2.25-15.82,6.74Z"/>
  <path class="cls-1" d="M1169.68,1090.02c-6.84.68-12.84,2.12-18.02,4.32-5.18,2.2-7.76,5.4-7.76,9.59v117.33h-14.5c-7.72,0-13.4-1.03-17.07-3.08-3.43-1.92-6.24-4.24-8.42-6.93v-16.51c0-26.66-6.72-44.77-20.14-54.35-13.43-9.57-30.35-14.36-50.76-14.36-8.89-.1-20.14,1.3-33.76,4.17-13.62,2.88-27.86,7.18-42.7,12.89-14.85,5.71-28.96,12.79-42.33,21.24-.69.44-1.35.89-2.02,1.33-.47-3.24-1.01-6.68-1.64-10.33-5.27-1.37-11.77-2.76-19.48-4.17-7.72-1.41-15.8-2.03-24.24-1.83-8.45.2-14.77,2.15-18.97,5.86-.39.39-.54.83-.44,1.32l5.27,32.23c-.59,5.08-1.44,9.18-2.56,12.3-1.12,3.13-3.05,6.25-5.79,9.38-2.74,3.13-6.52,5.71-11.35,7.76s-10.77,3.08-17.8,3.08h-14.79v-117.33c0-4.2-2.56-7.4-7.69-9.59s-11.13-3.64-18.02-4.32c-6.88-.68-16.63-.88-29.22-.59v147.66c0,9.08,2.25,17.46,6.74,25.12,4.49,7.67,10.57,13.75,18.24,18.24,7.67,4.49,16.04,6.74,25.12,6.74h19.63c20.46.65,36.98-1.67,49.59-6.95,2.47,1.95,5.24,3.42,8.35,4.38,4.78,1.48,10.91,2.32,18.38,2.52v.05h177.25c12.48,0,21.24-3.66,26.32-10.95,3.34,4.05,7.48,6.86,12.43,8.39,4.88,1.51,11.16,2.35,18.82,2.53v.04h22.41c9.08,0,17.45-2.25,25.12-6.74,7.67-4.49,13.74-10.57,18.24-18.24,4.49-7.67,6.74-16.04,6.74-25.12v-147.66c-12.6-.29-22.32-.1-29.15.59ZM1054.1,1206.99c-.49,4.93-3.17,9.69-8.06,14.28h-134.29c.48-2.42.88-4.82,1.21-7.22,19.68-7.88,39.77-13.59,60.27-17.09,21.19-3.61,40.09-5.96,56.69-7.03,8.3,0,14.52,1.61,18.68,4.83,4.15,3.22,5.98,7.3,5.49,12.23Z"/>
  <path class="cls-1" d="M1246.66,1089.8c-6.88.64-12.89,2.05-18.02,4.25s-7.69,5.4-7.69,9.59v178.86c3.32,1.66,6.23,2.83,8.72,3.52,2.49.68,5.2,1.03,8.13,1.03,6.35.29,11.81.24,16.41-.15,4.59-.39,8.3-.95,11.13-1.68,2.83-.73,5-1.51,6.52-2.34,1.51-.83,2.86-1.93,4.03-3.3v-190.14c-12.6-.39-22.34-.27-29.22.37Z"/>
  <path class="cls-1" d="M1403.91,1109.94c6.05,0,11.33-2.25,15.82-6.74s6.74-9.76,6.74-15.82-2.25-11.33-6.74-15.82c-4.49-4.49-9.77-6.74-15.82-6.74s-11.33,2.25-15.82,6.74-6.74,9.77-6.74,15.82,2.25,11.33,6.74,15.82c4.49,4.49,9.76,6.74,15.82,6.74Z"/>
  <path class="cls-1" d="M1449.32,1109.94c5.96,0,11.21-2.25,15.75-6.74,4.54-4.49,6.81-9.76,6.81-15.82s-2.27-11.33-6.81-15.82c-4.54-4.49-9.79-6.74-15.75-6.74s-11.33,2.25-15.82,6.74-6.74,9.77-6.74,15.82,2.25,11.33,6.74,15.82c4.49,4.49,9.76,6.74,15.82,6.74Z"/>
  <path class="cls-1" d="M1477.22,1137.77c-10.99-12.69-24-20.51-39.04-23.44-14.55-2.83-28.08-.29-40.58,7.62-12.5,7.91-22.49,20.39-29.96,37.43-7.47,17.04-11.21,37.13-11.21,60.28,0,14.55,2.71,27.1,8.13,37.65s13.28,18.65,23.58,24.32c10.3,5.66,22.63,8.5,36.99,8.5,21.78,0,39.04-5.3,51.78-15.89,12.74-10.59,20.92-24.14,24.54-40.65,3.61-16.5,3.22-33.42-1.17-50.76-4.39-17.33-12.08-32.35-23.07-45.04ZM1445.07,1214.83c-.88,2.83-2.52,5.13-4.91,6.88-2.39,1.76-5.1,2.64-8.13,2.64h-7.18c-2.93,0-5.45-1.05-7.54-3.15-2.1-2.1-3.15-4.61-3.15-7.54-.1-9.08.1-16.43.59-22.05.49-5.61,1.73-10.25,3.74-13.92,2-3.66,5.05-5.49,9.16-5.49,6.45,0,11.3,2.2,14.58,6.59,3.27,4.39,5.05,9.91,5.35,16.55.29,6.64-.54,13.14-2.49,19.48Z"/>
  <path class="cls-1" d="M1732.03,1063.65c4.49-4.49,6.74-9.76,6.74-15.82s-2.25-11.33-6.74-15.82c-4.49-4.49-9.77-6.74-15.82-6.74s-11.33,2.25-15.82,6.74-6.74,9.77-6.74,15.82,2.25,11.33,6.74,15.82c4.49,4.49,9.76,6.74,15.82,6.74s11.33-2.25,15.82-6.74Z"/>
  <path class="cls-1" d="M1777.37,1063.65c4.54-4.49,6.81-9.76,6.81-15.82s-2.27-11.33-6.81-15.82c-4.54-4.49-9.79-6.74-15.75-6.74s-11.33,2.25-15.82,6.74-6.74,9.77-6.74,15.82,2.25,11.33,6.74,15.82c4.49,4.49,9.76,6.74,15.82,6.74s11.21-2.25,15.75-6.74Z"/>
  <path class="cls-1" d="M1882.03,1296.27c-6.06,0-11.33,2.25-15.82,6.74-4.49,4.49-6.74,9.76-6.74,15.82s2.25,11.33,6.74,15.82,9.76,6.74,15.82,6.74,11.33-2.25,15.82-6.74c4.49-4.49,6.74-9.77,6.74-15.82s-2.25-11.33-6.74-15.82-9.77-6.74-15.82-6.74Z"/>
  <path class="cls-1" d="M1980.03,1090.02c-6.84.68-12.84,2.12-18.02,4.32-5.18,2.2-7.76,5.4-7.76,9.59v117.33h-14.5c-9.47,0-16.48-1.03-21.02-3.08s-8.18-4.54-10.91-7.47c-.39-.29-.64-.54-.73-.73-3.13-3.12-5.2-7.74-6.23-13.84-1.03-6.1-1.39-12.08-1.1-17.94s.78-11.87,1.46-18.02c.19-1.66.29-2.73.29-3.22.1-.88-.29-1.41-1.17-1.61-5.27-1.37-11.77-2.76-19.48-4.17-7.72-1.41-15.8-2.03-24.24-1.83-8.45.2-14.77,2.15-18.97,5.86-.39.39-.54.83-.44,1.32l5.27,32.23c-.59,5.08-1.44,9.18-2.56,12.3-1.12,3.13-3.05,6.25-5.79,9.38-2.74,3.13-6.52,5.71-11.35,7.76s-10.77,3.08-17.8,3.08v.15h-7.57c.16-2.02.25-4.07.25-6.15v-56.4c0-1.37.05-3.52.15-6.45.1-10.16-.25-18.72-1.03-25.71-.78-6.98-3.03-13.77-6.74-20.36-3.71-6.59-9.84-11.94-18.38-16.04-8.55-4.1-20.09-6.15-34.64-6.15-22.85,0-39.65,7.35-50.39,22.05-10.74,14.7-17.38,32.69-19.92,53.98-.88,7.81.34,15.21,3.66,22.19,3.32,6.98,8.23,12.58,14.72,16.77,6.49,4.2,13.7,6.3,21.61,6.3h58.45c-3.03,10.65-8.16,15.97-15.38,15.97h-40.14c-10.65-.1-20.9-.15-30.76-.15h-20.36v.15h-25.65l-.86-51.86c-6.54-3.12-12.11-5.42-16.7-6.88-4.59-1.46-9.65-2.46-15.16-3-5.52-.54-10.99-.07-16.41,1.39s-10.23,4.3-14.43,8.5c3.42,23.83,5.79,42.7,7.1,56.62s1.98,26.29,1.98,37.13c0,8.01-1.9,14.36-5.71,19.04s-10.06,8.13-18.75,10.33c-8.69,2.2-20.46,3.3-35.3,3.3v76.17c21.97.29,40.31-1.74,55-6.08,14.7-4.35,26.15-10.35,34.35-18.02,8.2-7.67,14.11-16.24,17.72-25.71,3.61-9.47,5.81-18.82,6.59-28.05.33-3.88.58-8.13.77-12.71,1.98,1.29,4.13,2.31,6.48,3.04,4.91,1.52,11.24,2.36,18.97,2.53v.04h65.33c12.3,0,23.9-2.76,34.79-8.28,4.21-2.13,8.1-4.6,11.7-7.4.65,1.19,1.34,2.3,2.07,3.29,3.56,4.83,8.1,8.11,13.62,9.81,4.93,1.53,11.26,2.37,18.97,2.53v.03c25.49,1.46,44.46-1.34,56.91-8.42,12.45-7.08,20.63-15.65,24.54-25.71.29-.78.83-1.1,1.61-.95.78.15,1.22.61,1.32,1.39,1.07,9.38,3.59,16.48,7.54,21.31s9.3,8.11,16.04,9.81c6.1,1.55,14.02,2.39,23.73,2.53v.03h22.41c9.08,0,17.45-2.25,25.12-6.74,7.67-4.49,13.74-10.57,18.24-18.24,4.49-7.67,6.74-16.04,6.74-25.12v-147.66c-12.6-.29-22.32-.1-29.15.59ZM1734.67,1180.84c-.1-10.55,1.1-19.65,3.59-27.32,2.49-7.67,7.05-11.5,13.7-11.5,4.59,0,8.32,3.88,11.21,11.65,2.88,7.76,4.47,16.82,4.76,27.17h-33.25Z"/>
  <path class="cls-1" d="M2057.01,1089.8c-6.88.64-12.89,2.05-18.02,4.25s-7.69,5.4-7.69,9.59v178.86c3.32,1.66,6.23,2.83,8.72,3.52,2.49.68,5.2,1.03,8.13,1.03,6.35.29,11.81.24,16.41-.15,4.59-.39,8.3-.95,11.13-1.68,2.83-.73,5-1.51,6.52-2.34,1.51-.83,2.86-1.93,4.03-3.3v-190.14c-12.6-.39-22.34-.27-29.22.37Z"/>
  <path class="cls-1" d="M2533.59,1189.7c-4.39-17.33-12.08-32.35-23.07-45.04-10.99-12.69-24-20.51-39.04-23.44-14.16-2.73-27.37-.37-39.62,7.1-12.26,7.47-22.17,19.29-29.74,35.45-7.57,16.16-11.65,35.33-12.23,57.5h-138.28c-2.05-6.05-3.52-13.16-4.39-21.31-.88-8.15-.51-15.21,1.1-21.17,1.61-5.96,4.91-8.94,9.89-8.94,3.71,0,6.69,1.71,8.94,5.13,2.25,3.42,3.86,7.42,4.83,12.01.97,4.59,1.71,11.08,2.2,19.48h64.89c.97-13.77,1.32-25.22,1.03-34.35-.29-9.13-1.42-18.82-3.37-29.08-1.96-10.25-5.25-19.94-9.89-29.08-4.64-9.13-11.13-16.55-19.48-22.27s-18.68-8.57-30.98-8.57c-29.2,0-48.8,8.11-58.81,24.32-10.01,16.21-15.01,34.96-15.01,56.25,0,12.21,1.61,23.61,4.83,34.2,3.22,10.6,6.01,18.38,8.35,23.36h-48.78v47.02c-.1,13.77.27,25.56,1.1,35.38.83,9.81,3.2,19.8,7.1,29.96,3.9,10.16,10.38,19.41,19.41,27.76,9.03,8.35,21.68,14.99,37.94,19.92,16.26,4.93,36.55,7.4,60.86,7.4v-75.29c-12.3,0-23.07-.73-32.3-2.2s-18.29-4.1-27.17-7.91c-8.89-3.81-18.41-9.18-28.56-16.11h178.86c9.08,0,17.19-2.78,24.32-8.35,12.11,12.11,28.76,18.16,49.95,18.16s39.04-5.3,51.78-15.89,20.92-24.14,24.54-40.65c3.61-16.5,3.22-33.42-1.17-50.76ZM2478.37,1221.71c-.88,2.83-2.52,5.13-4.91,6.88-2.39,1.76-5.1,2.64-8.13,2.64h-7.03c-3.03,0-5.59-1.05-7.69-3.15-2.1-2.1-3.15-4.61-3.15-7.54,0-9.08.24-16.43.73-22.05.49-5.61,1.71-10.25,3.66-13.92,1.95-3.66,4.98-5.49,9.08-5.49,6.45,0,11.3,2.2,14.58,6.59,3.27,4.39,5.05,9.91,5.35,16.55.29,6.64-.54,13.14-2.49,19.48Z"/>
</svg>