<?xml version="1.0" encoding="UTF-8"?>
<svg id="Layer_1" data-name="Layer 1" xmlns="http://www.w3.org/2000/svg" viewBox="0 0 2701.12 969.17">
  <defs>
    <style>
      .cls-1 {
        fill: #1d1d1b;
      }

      .cls-2 {
        fill: #fff;
      }
    </style>
  </defs>
  <g>
    <g>
      <path class="cls-1" d="M297.39,245.4c-15.21,0-24.47-6.35-28.32-19.42-5.38-18.55-11.07-33.08-18.78-47.78h-8.31v45.2c0,14.39-7.61,22-22,22h-38.7c-14.39,0-22-7.61-22-22V32.6c0-14.39,7.61-22,22-22h79.5c32.31,0,57.37,7.19,74.48,21.37,17.53,14.53,26.42,35.94,26.42,63.63s-10.86,51.28-31.5,65.38c12.74,18.64,20.07,33.61,26.95,54.53,3.17,9.52,2.82,17.09-1.06,22.48-3.54,4.91-9.46,7.41-17.58,7.41h-41.1ZM258.69,108.4c15.2,0,17.3-6.15,17.3-12.8s-2.1-12.8-17.3-12.8h-16.7v25.6h16.7Z"/>
      <path class="cls-2" d="M260.79,17.6c61.5,0,93.9,26.7,93.9,78,0,29.7-12,51-34.5,63.3,15,21,22.8,36,30.3,58.8,4.5,13.5.6,20.7-12,20.7h-41.1c-12,0-18.6-4.2-21.6-14.4-6-20.7-12.3-36.3-21.3-52.8h-19.5v52.2c0,10.5-4.5,15-15,15h-38.7c-10.5,0-15-4.5-15-15V32.6c0-10.5,4.5-15,15-15h79.5M234.99,115.4h23.7c16.2,0,24.3-6.6,24.3-19.8s-8.1-19.8-24.3-19.8h-23.7v39.6M260.79,3.6h-79.5c-9.07,0-16.25,2.58-21.34,7.66-5.09,5.08-7.66,12.26-7.66,21.34v190.8c0,9.07,2.58,16.25,7.66,21.34,5.08,5.08,12.26,7.66,21.34,7.66h38.7c9.07,0,16.25-2.58,21.34-7.66,5.08-5.08,7.66-12.26,7.66-21.34v-32.06c5.13,11.07,9.27,22.47,13.35,36.56v.03s.02.03.02.03c2.44,8.31,6.87,14.62,13.15,18.76,5.8,3.83,12.96,5.69,21.88,5.69h41.1c13.08,0,19.87-5.61,23.26-10.31,5.27-7.31,5.95-17,2.03-28.79-6.41-19.47-13.19-33.94-24.08-50.68,19.03-15.49,28.99-38.37,28.99-67.02s-9.74-53.09-28.95-69.02c-18.4-15.25-44.96-22.98-78.95-22.98h0ZM248.99,89.8h9.7c6.82,0,9.01,1.5,9.38,1.8.85.69.92,3.23.92,4s-.07,3.3-.92,4c-.37.3-2.56,1.8-9.38,1.8h-9.7v-11.6h0Z"/>
    </g>
    <g>
      <path class="cls-1" d="M399.09,245.4c-14.39,0-22-7.61-22-22V32.6c0-14.39,7.61-22,22-22h128.4c14.39,0,22,7.61,22,22v30c0,14.39-7.61,22-22,22h-67.7v7.6h55.4c14.39,0,22,7.61,22,22v27.6c0,14.39-7.61,22-22,22h-55.4v7.6h67.7c14.39,0,22,7.61,22,22v30c0,14.39-7.61,22-22,22h-128.4Z"/>
      <path class="cls-2" d="M527.5,17.6c10.5,0,15,4.5,15,15v30c0,10.5-4.5,15-15,15h-74.7v21.6h62.4c10.5,0,15,4.5,15,15v27.6c0,10.5-4.5,15-15,15h-62.4v21.6h74.7c10.5,0,15,4.5,15,15v30c0,10.5-4.5,15-15,15h-128.4c-10.5,0-15-4.5-15-15V32.6c0-10.5,4.5-15,15-15h128.4M527.5,3.6h-128.4c-9.07,0-16.25,2.58-21.34,7.66-5.09,5.08-7.66,12.26-7.66,21.34v190.8c0,9.07,2.58,16.25,7.66,21.34,5.08,5.08,12.26,7.66,21.34,7.66h128.4c9.07,0,16.25-2.58,21.34-7.66s7.66-12.26,7.66-21.34v-30c0-9.07-2.58-16.25-7.66-21.34-3.7-3.7-8.52-6.08-14.36-7.09.72-.57,1.41-1.18,2.06-1.83,5.08-5.08,7.66-12.26,7.66-21.34v-27.6c0-9.07-2.58-16.25-7.66-21.34-.65-.65-1.34-1.26-2.06-1.83,5.85-1.02,10.66-3.39,14.36-7.09,5.08-5.08,7.66-12.26,7.66-21.34v-30c0-9.07-2.58-16.25-7.66-21.34s-12.26-7.66-21.34-7.66h0Z"/>
    </g>
    <g>
      <path class="cls-1" d="M667.29,249c-37.8,0-65.11-9.81-83.48-30-18.18-19.99-27.02-49.65-27.02-90.7s9.81-70.4,29.16-90.67c19.4-20.32,48.58-30.63,86.74-30.63,16.51,0,44.03,5.16,60.09,11.26,15.51,5.68,20.38,13.8,17.27,28.95l-6.61,30.67c-2.84,13.8-11,16.71-17.35,16.71-2.72,0-5.68-.53-9.05-1.62l-.12-.04c-19.73-6.76-32.54-9.52-44.23-9.52-18.13,0-30.2,7.58-30.2,44.6,0,45.39,8.64,47.6,23.9,47.6,9.71,0,15.81-1.09,21.2-2.5v-7.5h-9.2c-14.39,0-22-7.61-22-22v-24c0-14.39,7.61-22,22-22h60.9c14.39,0,22,7.61,22,22v74.1c0,17.82-2.7,27.38-18.72,36.92-18.89,11.33-47.75,18.38-75.28,18.38Z"/>
      <path class="cls-2" d="M672.69,14c16.2,0,42.6,5.1,57.6,10.8,12.3,4.5,15.3,9.3,12.9,21l-6.6,30.6c-1.56,7.58-4.78,11.18-10.51,11.18-1.98,0-4.27-.43-6.89-1.28-21-7.2-34.2-9.9-46.5-9.9-26.1,0-37.2,15.6-37.2,51.6,0,42.3,6.9,54.6,30.9,54.6,13.8,0,21-2.1,28.2-4.2v-19.8h-16.2c-10.5,0-15-4.5-15-15v-24c0-10.5,4.5-15,15-15h60.9c10.5,0,15,4.5,15,15v74.1c0,17.4-2.7,23.4-15.3,30.9-18,10.8-45.9,17.4-71.7,17.4-70.8,0-103.5-36-103.5-113.7s36.3-114.3,108.9-114.3M672.69,0c-40.14,0-71.03,11.03-91.8,32.8-20.64,21.62-31.1,53.75-31.1,95.51s9.44,74.08,28.84,95.41c10.02,11.02,22.79,19.31,37.96,24.66,14.38,5.07,31.43,7.64,50.69,7.64,28.73,0,58.97-7.43,78.9-19.4,18.67-11.11,22.1-23.17,22.1-42.91v-74.1c0-9.07-2.58-16.25-7.66-21.34-3.82-3.82-8.83-6.23-14.93-7.19,1.95-3,3.57-6.85,4.59-11.78l6.59-30.55v-.07s.03-.07.03-.07c1.25-6.09,2.33-15.15-2.73-23.36-4.65-7.55-12.58-11.22-18.99-13.57-17-6.44-45.01-11.68-62.49-11.68h0ZM651.47,107.03c1.01-4.28,2.42-7.67,4.21-10.16,2.17-3.01,6.06-6.47,17.02-6.47,1.71,0,3.46.07,5.26.2-8.86.08-15.89,2.66-20.89,7.66-2.45,2.45-4.31,5.38-5.59,8.77h0ZM661.32,168.32c-5.29-.69-6.33-2.51-7.19-4.04-1.16-2.05-2.03-4.91-2.68-8.15,1.28,3.41,3.15,6.35,5.6,8.81,1.29,1.29,2.71,2.42,4.27,3.38h0Z"/>
    </g>
    <g>
      <path class="cls-1" d="M799.29,10.6h38.7c12.14,0,22,9.86,22,22v190.8c0,12.14-9.86,22-22,22h-38.7c-12.14,0-22-9.86-22-22V32.6c0-12.14,9.86-22,22-22Z"/>
      <path class="cls-2" d="M837.99,17.6c10.5,0,15,4.5,15,15v190.8c0,10.5-4.5,15-15,15h-38.7c-10.5,0-15-4.5-15-15V32.6c0-10.5,4.5-15,15-15h38.7M837.99,3.6h-38.7c-9.07,0-16.25,2.58-21.34,7.66-5.09,5.08-7.66,12.26-7.66,21.34v190.8c0,9.07,2.58,16.25,7.66,21.34,5.08,5.08,12.26,7.66,21.34,7.66h38.7c9.07,0,16.25-2.58,21.34-7.66,5.08-5.08,7.66-12.26,7.66-21.34V32.6c0-9.07-2.58-16.25-7.66-21.34-5.08-5.08-12.26-7.66-21.34-7.66h0Z"/>
    </g>
    <g>
      <path class="cls-1" d="M948.99,249c-18.55,0-38.08-2.68-56.46-7.75-13.55-3.87-19.84-11.83-19.84-25.05v-29.4c0-18.06,11.62-20.01,16.61-20.01,2.83,0,5.94.53,9.52,1.61,12.96,3.83,35.59,7.2,48.38,7.2,9.37,0,13.12-1.29,14.52-2.06.86-.47.98-.62.98-1.74,0-.86,0-3.46-14.07-8.04l-18.94-6.32c-19.17-6.45-32.79-15.67-41.64-28.22-8.51-12.06-12.64-27.27-12.64-46.52,0-47.4,36.49-75.7,97.6-75.7,20.67,0,35.97,3.62,52.58,9.05,15.06,4.76,20.67,14,17.58,29.06l-5.41,25.83c-1.29,6.29-5.33,16.87-17.79,16.87-2.59,0-5.37-.46-8.49-1.41-11.71-3.71-25.5-6-36.07-6-7.12,0-10.63.99-12.31,1.82-1.39.69-1.39,1.06-1.39,1.68,0,1.95,0,4.15,14.16,8.97l18.86,6.29c37.54,12.51,54.29,35.2,54.29,73.54,0,25.36-10.76,45.79-31.11,59.08-17.26,11.27-41.09,17.23-68.89,17.23Z"/>
      <path class="cls-2" d="M972.99,14c20.1,0,34.8,3.6,50.4,8.7,11.4,3.6,15.3,9.3,12.9,21l-5.4,25.8c-1.59,7.71-5.06,11.31-10.94,11.31-1.9,0-4.05-.37-6.46-1.11-12.3-3.9-26.7-6.3-38.1-6.3-13.5,0-20.7,3.3-20.7,10.5s4.8,10.8,18.9,15.6l18.9,6.3c36,12,49.5,32.7,49.5,66.9,0,49.5-43.5,69.3-93,69.3-18.3,0-37.2-2.7-54.6-7.5-10.5-3-14.7-8.1-14.7-18.3v-29.4c0-8.12,2.51-13.01,9.61-13.01,2.08,0,4.56.42,7.49,1.31,13.2,3.9,36.6,7.5,50.4,7.5,17.7,0,22.5-4.2,22.5-10.8s-5.1-10.2-18.9-14.7l-18.9-6.3c-35.7-12-49.5-33.6-49.5-68.1,0-44.1,34.2-68.7,90.6-68.7M972.99,0c-31.37,0-56.55,6.93-74.83,20.6-19.47,14.56-29.77,36.03-29.77,62.1,0,20.74,4.55,37.28,13.92,50.56,9.74,13.8,24.5,23.88,45.12,30.81l12.76,4.25c-12.33-.87-29.22-3.64-39.38-6.64-4.23-1.27-7.99-1.89-11.5-1.89-8.09,0-14.86,3.41-19.06,9.61-3.06,4.52-4.55,10.21-4.55,17.4v29.4c0,16.36,8.36,27.05,24.85,31.76l.06.02.06.02c18.98,5.24,39.15,8,58.32,8,29.17,0,54.31-6.35,72.72-18.36,22.43-14.64,34.29-37.1,34.29-64.94,0-20.62-4.54-36.96-13.88-49.95-9.66-13.43-24.44-23.32-45.19-30.23l-14.39-4.8c8.54.72,18.23,2.63,26.73,5.32l.08.03.09.03c3.79,1.15,7.24,1.71,10.52,1.71,6.02,0,20.47-2.19,24.65-22.48l5.39-25.76v-.03s.01-.03.01-.03c2.64-12.88.91-29.77-22.33-37.14-17.22-5.63-33.12-9.37-54.69-9.37h0Z"/>
    </g>
    <g>
      <path class="cls-1" d="M1116.39,245.4c-14.39,0-22-7.61-22-22V85.8h-31.7c-14.39,0-22-7.61-22-22v-31.2c0-14.39,7.61-22,22-22h146.1c14.39,0,22,7.61,22,22v31.2c0,14.39-7.61,22-22,22h-31.7v137.6c0,14.39-7.61,22-22,22h-38.7Z"/>
      <path class="cls-2" d="M1208.79,17.6c10.5,0,15,4.5,15,15v31.2c0,10.5-4.5,15-15,15h-38.7v144.6c0,10.5-4.5,15-15,15h-38.7c-10.5,0-15-4.5-15-15V78.8h-38.7c-10.5,0-15-4.5-15-15v-31.2c0-10.5,4.5-15,15-15h146.1M1208.79,3.6h-146.1c-9.07,0-16.25,2.58-21.34,7.66-5.08,5.08-7.66,12.26-7.66,21.34v31.2c0,9.07,2.58,16.25,7.66,21.34,5.08,5.08,12.26,7.66,21.34,7.66h24.7v130.6c0,9.07,2.58,16.25,7.66,21.34,5.08,5.08,12.26,7.66,21.34,7.66h38.7c9.07,0,16.25-2.58,21.34-7.66,5.09-5.08,7.66-12.26,7.66-21.34V92.8h24.7c9.07,0,16.25-2.58,21.34-7.66s7.66-12.26,7.66-21.34v-31.2c0-9.07-2.58-16.25-7.66-21.34s-12.26-7.66-21.34-7.66h0Z"/>
    </g>
    <g>
      <path class="cls-1" d="M1259.79,245.4c-14.39,0-22-7.61-22-22V32.6c0-14.39,7.61-22,22-22h128.4c14.39,0,22,7.61,22,22v30c0,14.39-7.61,22-22,22h-67.7v7.6h55.4c14.39,0,22,7.61,22,22v27.6c0,14.39-7.61,22-22,22h-55.4v7.6h67.7c14.39,0,22,7.61,22,22v30c0,14.39-7.61,22-22,22h-128.4Z"/>
      <path class="cls-2" d="M1388.19,17.6c10.5,0,15,4.5,15,15v30c0,10.5-4.5,15-15,15h-74.7v21.6h62.4c10.5,0,15,4.5,15,15v27.6c0,10.5-4.5,15-15,15h-62.4v21.6h74.7c10.5,0,15,4.5,15,15v30c0,10.5-4.5,15-15,15h-128.4c-10.5,0-15-4.5-15-15V32.6c0-10.5,4.5-15,15-15h128.4M1388.19,3.6h-128.4c-9.07,0-16.25,2.58-21.34,7.66-5.08,5.08-7.66,12.26-7.66,21.34v190.8c0,9.07,2.58,16.25,7.66,21.34,5.08,5.08,12.26,7.66,21.34,7.66h128.4c9.07,0,16.25-2.58,21.34-7.66s7.66-12.26,7.66-21.34v-30c0-9.07-2.58-16.25-7.66-21.34-3.7-3.7-8.51-6.08-14.36-7.09.72-.57,1.41-1.18,2.06-1.83,5.08-5.08,7.66-12.26,7.66-21.34v-27.6c0-9.07-2.58-16.25-7.66-21.34-.65-.65-1.34-1.26-2.06-1.83,5.85-1.02,10.66-3.39,14.36-7.09,5.08-5.08,7.66-12.26,7.66-21.34v-30c0-9.07-2.58-16.25-7.66-21.34s-12.26-7.66-21.34-7.66h0Z"/>
    </g>
    <g>
      <path class="cls-1" d="M1564.29,245.4c-15.21,0-24.47-6.35-28.32-19.42-5.38-18.55-11.07-33.08-18.78-47.78h-8.31v45.2c0,14.39-7.61,22-22,22h-38.7c-14.39,0-22-7.61-22-22V32.6c0-14.39,7.61-22,22-22h79.5c32.31,0,57.37,7.19,74.48,21.37,17.53,14.53,26.42,35.94,26.42,63.63s-10.86,51.28-31.5,65.38c12.74,18.64,20.07,33.61,26.95,54.53,3.17,9.52,2.82,17.09-1.06,22.48-3.54,4.91-9.46,7.41-17.58,7.41h-41.1ZM1525.59,108.4c15.2,0,17.3-6.15,17.3-12.8s-2.1-12.8-17.3-12.8h-16.7v25.6h16.7Z"/>
      <path class="cls-2" d="M1527.69,17.6c61.5,0,93.9,26.7,93.9,78,0,29.7-12,51-34.5,63.3,15,21,22.8,36,30.3,58.8,4.5,13.5.6,20.7-12,20.7h-41.1c-12,0-18.6-4.2-21.6-14.4-6-20.7-12.3-36.3-21.3-52.8h-19.5v52.2c0,10.5-4.5,15-15,15h-38.7c-10.5,0-15-4.5-15-15V32.6c0-10.5,4.5-15,15-15h79.5M1501.89,115.4h23.7c16.2,0,24.3-6.6,24.3-19.8s-8.1-19.8-24.3-19.8h-23.7v39.6M1527.69,3.6h-79.5c-9.07,0-16.25,2.58-21.34,7.66-5.08,5.08-7.66,12.26-7.66,21.34v190.8c0,9.07,2.58,16.25,7.66,21.34,5.08,5.08,12.26,7.66,21.34,7.66h38.7c9.07,0,16.25-2.58,21.34-7.66,5.08-5.08,7.66-12.26,7.66-21.34v-32.06c5.13,11.07,9.27,22.47,13.35,36.56v.03s.02.03.02.03c2.44,8.31,6.87,14.62,13.15,18.76,5.8,3.83,12.96,5.69,21.88,5.69h41.1c13.08,0,19.87-5.61,23.26-10.31,5.27-7.31,5.95-17,2.03-28.79-6.41-19.47-13.19-33.94-24.08-50.68,19.03-15.49,28.99-38.37,28.99-67.02s-9.74-53.09-28.95-69.02c-18.4-15.25-44.96-22.98-78.95-22.98h0ZM1515.89,89.8h9.7c6.82,0,9.01,1.5,9.38,1.8.85.69.92,3.23.92,4s-.07,3.3-.92,4c-.37.3-2.56,1.8-9.38,1.8h-9.7v-11.6h0Z"/>
    </g>
    <g>
      <path class="cls-1" d="M1856.79,245.4c-13.76,0-22.73-5.47-28.24-17.23l-31.96-69.63v64.86c0,14.39-7.61,22-22,22h-36.6c-14.39,0-22-7.61-22-22V32.6c0-14.39,7.61-22,22-22h42.3c13.76,0,22.73,5.47,28.24,17.23l31.96,69.63V32.6c0-14.39,7.61-22,22-22h36.6c14.39,0,22,7.61,22,22v190.8c0,14.39-7.61,22-22,22h-42.3Z"/>
      <path class="cls-2" d="M1899.09,17.6c10.5,0,15,4.5,15,15v190.8c0,10.5-4.5,15-15,15h-42.3c-10.5,0-17.4-3.6-21.9-13.2l-33.6-73.2c-3.9-8.4-7.8-16.5-11.7-27l-1.2.3c.9,11.4,1.2,23.4,1.2,33.9v64.2c0,10.5-4.5,15-15,15h-36.6c-10.5,0-15-4.5-15-15V32.6c0-10.5,4.5-15,15-15h42.3c10.5,0,17.4,3.6,21.9,13.2l33.6,73.2c3.9,8.4,7.8,16.5,11.7,27l1.2-.3c-.9-11.4-1.2-23.4-1.2-33.9V32.6c0-10.5,4.5-15,15-15h36.6M1899.09,3.6h-36.6c-9.07,0-16.25,2.58-21.34,7.66-5.09,5.08-7.66,12.26-7.66,21.34v32.83l-18.58-40.47-.02-.05-.02-.05c-6.61-14.11-18.25-21.26-34.58-21.26h-42.3c-9.07,0-16.25,2.58-21.34,7.66-5.08,5.08-7.66,12.26-7.66,21.34v190.8c0,9.07,2.58,16.25,7.66,21.34,5.08,5.08,12.26,7.66,21.34,7.66h36.6c9.07,0,16.25-2.58,21.34-7.66,5.08-5.08,7.66-12.26,7.66-21.34v-32.83l18.58,40.47.02.05.02.05c6.61,14.11,18.25,21.26,34.58,21.26h42.3c9.07,0,16.25-2.58,21.34-7.66,5.08-5.08,7.66-12.26,7.66-21.34V32.6c0-9.07-2.58-16.25-7.66-21.34-5.08-5.08-12.26-7.66-21.34-7.66h0Z"/>
    </g>
    <g>
      <path class="cls-1" d="M2046.09,249c-76.19,0-108.7-36.19-108.7-121s32.51-121,108.7-121,108.7,36.19,108.7,121-32.51,121-108.7,121ZM2046.09,82.2c-14.26,0-23,2.21-23,45.8s7.01,45.8,23,45.8,23-4.33,23-45.8c0-43.59-8.74-45.8-23-45.8Z"/>
      <path class="cls-2" d="M2046.09,14c72,0,101.7,33,101.7,114s-29.7,114-101.7,114-101.7-33-101.7-114,29.7-114,101.7-114M2046.09,180.8c23.1,0,30-12,30-52.8s-7.2-52.8-30-52.8-30,12-30,52.8,6.9,52.8,30,52.8M2046.09,0c-19.88,0-36.48,2.34-50.75,7.16-15.18,5.12-27.81,13.25-37.54,24.14-18.7,20.92-27.41,51.65-27.41,96.71s8.71,75.78,27.41,96.71c9.74,10.89,22.37,19.01,37.54,24.14,14.26,4.82,30.86,7.16,50.75,7.16s36.48-2.34,50.75-7.16c15.18-5.12,27.81-13.25,37.54-24.14,18.7-20.92,27.41-51.65,27.41-96.71s-8.71-75.78-27.41-96.71c-9.74-10.89-22.37-19.01-37.54-24.14-14.26-4.82-30.86-7.16-50.75-7.16h0ZM2046.09,166.8c-9.2,0-10.47-2.23-11.5-4.03-4.5-7.91-4.5-28.13-4.5-34.77s0-26.73,4.59-34.73c1.04-1.81,2.34-4.07,11.41-4.07s10.37,2.26,11.41,4.07c4.59,8,4.59,28.12,4.59,34.73s0,26.86-4.5,34.77c-1.02,1.79-2.29,4.03-11.5,4.03h0Z"/>
    </g>
    <g>
      <path class="cls-1" d="M2356.29,245.4c-15.46,0-23.36-4.59-30.19-17.53-7.13-13.3-13.08-30.75-18.56-54.74-5.48,23.99-11.44,41.44-18.58,54.78-6.81,12.91-14.71,17.5-30.17,17.5h-33c-15.13,0-23.1-4.8-29.37-17.69-17.19-34.14-39.13-144.84-39.13-197.51,0-12.46,7.8-19.6,21.4-19.6h37.8c16.33,0,25.04,6.85,25.89,20.36,2.64,40.73,4.81,66.11,8.44,94.89,5.53-27.84,10.21-55.95,16.05-95.48,2.56-17.43,14.95-19.78,26.72-19.78h30.9c11.78,0,24.16,2.35,26.73,19.78,5.84,39.52,10.52,67.63,16.05,95.47,3.62-28.78,5.8-54.16,8.44-94.91.84-13.5,9.55-20.35,25.89-20.35h34.8c13.6,0,21.4,7.14,21.4,19.6,0,52.67-21.93,163.37-39.13,197.51-6.28,12.9-14.25,17.69-29.37,17.69h-33Z"/>
      <path class="cls-2" d="M2436.4,17.6c9.6,0,14.4,3.9,14.4,12.6,0,51-21.6,161.1-38.4,194.4-5.1,10.5-10.5,13.8-23.1,13.8h-33c-12.6,0-18.3-3-24-13.8-9-16.8-16.5-41.1-24-83.4h-1.5c-7.5,42.3-15,66.6-24,83.4-5.7,10.8-11.4,13.8-24,13.8h-33c-12.6,0-18-3.3-23.1-13.8-16.8-33.3-38.4-143.4-38.4-194.4,0-8.7,4.8-12.6,14.4-12.6h37.8c12.6,0,18.3,4.2,18.9,13.8,3.6,55.5,6.3,82.8,13.5,131.7h1.2c9.9-44.4,15.9-78.9,23.7-131.7,1.5-10.2,6.6-13.8,19.8-13.8h30.9c13.2,0,18.3,3.6,19.8,13.8,7.8,52.8,13.8,87.3,23.7,131.7h1.2c7.2-48.9,9.9-76.2,13.5-131.7.6-9.6,6.3-13.8,18.9-13.8h34.8M2436.4,3.6h-34.8c-9.43,0-16.7,1.96-22.22,6-4.47,3.27-9.95,9.55-10.66,20.93-1.14,17.59-2.19,32.3-3.31,45.66-2.31-14.01-4.67-29.29-7.26-46.83-3.79-25.75-26.26-25.75-33.65-25.75h-30.9c-7.39,0-29.86,0-33.65,25.76-2.59,17.54-4.95,32.82-7.26,46.83-1.12-13.37-2.17-28.09-3.32-45.69-.71-11.34-6.18-17.62-10.65-20.89-5.52-4.04-12.79-6-22.22-6h-37.8c-8.26,0-14.97,2.16-19.93,6.42-3.87,3.32-8.48,9.52-8.48,20.18,0,24.88,4.92,64.71,13.16,106.54,4,20.28,14.59,70.01,26.69,94.07,7.48,15.33,17.81,21.59,35.65,21.59h33c18.09,0,28.29-5.95,36.36-21.23,4.55-8.5,8.62-18.54,12.39-30.71,3.77,12.17,7.84,22.22,12.39,30.71,8.07,15.27,18.27,21.22,36.36,21.22h33c17.83,0,28.17-6.26,35.65-21.59,12.1-24.05,22.69-73.79,26.69-94.07,8.24-41.83,13.16-81.66,13.16-106.54,0-10.66-4.61-16.86-8.48-20.18-4.96-4.26-11.66-6.42-19.93-6.42h0Z"/>
    </g>
    <g>
      <path class="cls-1" d="M2509.59,249c-29.74,0-47.5-15.29-47.5-40.9s17.76-40.9,47.5-40.9,47.5,15.29,47.5,40.9-17.76,40.9-47.5,40.9ZM2532.68,168.48c-1.79,0-3.75-.2-5.82-.6-6.43-1.17-11.62-1.67-17.27-1.67s-10.84.5-17.35,1.69c-1.99.38-3.94.59-5.74.59-10.03,0-16.46-6.43-17.2-17.19-7.22-104.04-7.22-104.59-7.22-105.78,0-23.75,18.2-38.5,47.5-38.5s47.5,14.75,47.5,38.5c0,1.2,0,1.74-7.22,105.79-.74,10.76-7.17,17.19-17.2,17.19Z"/>
      <path class="cls-2" d="M2509.59,14c25.5,0,40.5,12,40.5,31.5,0,.9,0,1.5-7.2,105.3-.49,7.17-3.84,10.68-10.21,10.68-1.36,0-2.85-.16-4.48-.48-6.6-1.2-12.3-1.8-18.6-1.8s-12,.6-18.6,1.8c-1.63.32-3.13.48-4.48.48-6.37,0-9.72-3.5-10.22-10.68-7.2-103.8-7.2-104.4-7.2-105.3,0-19.5,15-31.5,40.5-31.5M2509.59,174.2c25.8,0,40.5,12.3,40.5,33.9s-14.7,33.9-40.5,33.9-40.5-12.3-40.5-33.9,14.7-33.9,40.5-33.9M2509.59,0c-15.62,0-28.92,3.95-38.45,11.42-10.35,8.11-16.05,20.22-16.05,34.08,0,1.52,0,1.98,7.23,106.27.48,6.92,2.75,12.55,6.75,16.74.83.87,1.84,1.78,3.05,2.65-.49.38-.98.77-1.45,1.16-10.2,8.54-15.59,20.91-15.59,35.79s5.39,27.25,15.59,35.79c9.6,8.04,22.7,12.11,38.91,12.11s29.31-4.08,38.91-12.11c10.2-8.54,15.59-20.91,15.59-35.79s-5.39-27.25-15.59-35.79c-.47-.4-.96-.79-1.45-1.16,1.21-.87,2.22-1.78,3.05-2.65,4-4.19,6.28-9.82,6.75-16.74,7.23-104.28,7.23-104.74,7.23-106.26,0-13.86-5.7-25.97-16.05-34.08-9.53-7.47-22.83-11.42-38.45-11.42h0Z"/>
    </g>
  </g>
  <g>
    <path class="cls-2" d="M75.89,528.09v-106.43c0-5.86,2.51-8.37,8.37-8.37h38.15c33.8,0,50.2,12.88,50.2,35.98,0,11.71-4.85,19.24-13.39,24.77,12.05,5.69,16.73,15.06,16.73,26.61,0,22.93-16.4,35.81-50.2,35.81h-41.5c-5.86,0-8.37-2.51-8.37-8.37ZM120.74,463.16c7.36,0,11.88-3.68,11.88-11.04s-4.52-11.04-11.88-11.04h-6.53v22.09h6.53ZM124.09,508.68c7.36,0,11.88-3.68,11.88-11.04s-4.52-11.04-11.88-11.04h-9.87v22.09h9.87Z"/>
    <path class="cls-2" d="M187.34,496.13v-45.35c0-5.86,2.51-8.37,8.37-8.37h20.42c5.86,0,8.37,2.51,8.37,8.37v42.67c0,10.04,2.68,13.89,9.2,13.89,3.35,0,7.53-1.51,11.21-4.52v-52.04c0-5.86,2.51-8.37,8.37-8.37h20.42c5.86,0,8.37,2.51,8.37,8.37v77.31c0,5.86-2.51,8.37-8.37,8.37h-15.9c-6.02,0-8.37-2.34-8.37-8.03v-.5c-7.7,7.03-18.41,10.54-28.62,10.54-22.42,0-33.47-13.72-33.47-42.34Z"/>
    <path class="cls-2" d="M295.95,565.91c-5.86-2.17-8.03-5.02-8.03-10.54v-11.38c0-5.19,1.34-7.2,5.69-7.2,2.17,0,4.52.33,6.69.33,6.69,0,13.55-1,19.91-9.04-15.23-24.93-30.12-63.59-30.12-78.65,0-4.85,2.68-7.03,7.36-7.03h20.58c7.53,0,10.71,2.18,11.55,7.7,2.68,17.24,7.2,33.97,12.55,47.36,5.02-12.72,9.37-28.95,12.55-47.36,1-5.69,4.18-7.7,11.55-7.7h18.91c4.85,0,7.36,2.18,7.36,7.03,0,15.06-14.39,54.55-29.45,79.32-16.4,26.78-31.63,38.82-53.88,38.82-6.02,0-9.71-.5-13.22-1.67Z"/>
    <path class="cls-2" d="M436.02,511.86c0-19.41,16.4-28.95,54.89-29.12v-1.67c0-6.53-4.85-10.04-14.22-10.04-8.03,0-14.39,1.51-23.09,4.85-5.36,2.01-8.03.33-9.54-5.86l-2.84-11.38c-1.34-5.69.17-9.04,6.02-11.55,9.71-4.02,24.26-6.69,36.98-6.69,28.78,0,43.84,14.06,43.84,40.66v47.02c0,5.86-2.51,8.37-8.37,8.37h-16.07c-5.86,0-8.37-2.68-8.37-8.87v-.84c-7.36,7.87-17.24,11.71-30.29,11.71-17.74,0-28.95-10.54-28.95-26.61ZM490.91,511.36v-9.54c-16.57.33-21.08,2.84-21.08,8.03,0,3.51,2.17,5.69,7.36,5.69,3.68,0,10.54-1,13.72-4.18Z"/>
    <path class="cls-2" d="M542.28,528.09v-77.31c0-5.86,2.51-8.37,8.37-8.37h15.9c6.02,0,8.37,2.34,8.37,8.03v.5c7.7-7.03,18.07-10.54,28.62-10.54,22.76,0,33.8,13.72,33.8,42.34v45.35c0,5.86-2.51,8.37-8.37,8.37h-20.42c-5.86,0-8.37-2.51-8.37-8.37v-42.67c0-10.04-2.68-13.89-9.2-13.89-3.68,0-7.87,1.51-11.55,4.52v52.04c0,5.86-2.51,8.37-8.37,8.37h-20.42c-5.86,0-8.37-2.51-8.37-8.37Z"/>
    <path class="cls-2" d="M649.55,565.91c-5.86-2.17-8.03-5.02-8.03-10.54v-11.38c0-5.19,1.34-7.2,5.69-7.2,2.17,0,4.52.33,6.69.33,6.69,0,13.55-1,19.91-9.04-15.23-24.93-30.12-63.59-30.12-78.65,0-4.85,2.68-7.03,7.36-7.03h20.58c7.53,0,10.71,2.18,11.55,7.7,2.68,17.24,7.2,33.97,12.55,47.36,5.02-12.72,9.37-28.95,12.55-47.36,1-5.69,4.18-7.7,11.55-7.7h18.91c4.85,0,7.36,2.18,7.36,7.03,0,15.06-14.39,54.55-29.45,79.32-16.4,26.78-31.63,38.82-53.88,38.82-6.02,0-9.71-.5-13.22-1.67Z"/>
    <path class="cls-2" d="M796.81,528.09v-106.43c0-5.86,2.51-8.37,8.37-8.37h21.59c5.86,0,8.37,2.51,8.37,8.37v80.66h34.97c5.86,0,8.37,2.51,8.37,8.37v17.4c0,5.86-2.51,8.37-8.37,8.37h-64.93c-5.86,0-8.37-2.51-8.37-8.37Z"/>
    <path class="cls-2" d="M907.09,528.76c-17.74-28.78-36.15-95.55-36.15-108.44,0-4.85,2.51-7.03,7.7-7.03h22.42c7.03,0,10.04,2.17,10.88,7.7,4.69,28.78,13.05,58.4,20.08,76.31,6.86-17.91,15.23-47.53,20.08-76.31,1-5.52,3.68-7.7,10.88-7.7h21.08c5.19,0,7.7,2.17,7.7,7.03,0,12.88-18.41,79.66-36.15,108.44-3.01,4.85-5.52,7.7-13.89,7.7h-20.75c-8.37,0-10.88-2.84-13.89-7.7Z"/>
    <path class="cls-2" d="M1053.52,545.66l-3.68-7.2c-36.48-1.51-51.88-20.08-51.88-63.59s16.57-63.59,56.73-63.59,56.73,18.41,56.73,63.59c0,33.13-9.04,51.71-29.12,59.24,2.34,2.18,5.69,3.35,10.21,3.35,8.87,0,13.55-2.84,17.74-2.84,3.85,0,5.86,2.34,5.86,6.86v13.55c0,5.19-2.17,7.53-9.04,9.87-4.85,1.67-10.21,2.68-16.73,2.68-16.4,0-29.79-8.2-36.82-21.92ZM1071.43,474.88c0-22.76-4.02-29.45-16.73-29.45s-16.73,6.69-16.73,29.45,3.85,29.45,16.73,29.45,16.73-6.69,16.73-29.45Z"/>
    <path class="cls-2" d="M1189.41,528.43c-3.35-11.55-6.86-20.25-11.88-29.45h-10.88v29.12c0,5.86-2.51,8.37-8.37,8.37h-21.59c-5.86,0-8.37-2.51-8.37-8.37v-106.43c0-5.86,2.51-8.37,8.37-8.37h44.35c34.3,0,52.38,14.89,52.38,43.51,0,16.57-6.69,28.45-19.24,35.31,8.37,11.71,12.72,20.08,16.9,32.8,2.51,7.53.33,11.55-6.69,11.55h-22.93c-6.69,0-10.38-2.34-12.05-8.03ZM1179.87,467.85c9.04,0,13.55-3.68,13.55-11.04s-4.52-11.04-13.55-11.04h-13.22v22.09h13.22Z"/>
    <path class="cls-2" d="M1287.47,557.21v-106.43c0-5.86,2.51-8.37,8.37-8.37h15.9c5.86,0,8.37,2.51,8.37,8.37v.17c4.69-6.02,14.06-10.54,25.44-10.54,24.6,0,39.33,17.57,39.33,46.86,0,32.46-16.23,51.21-44.51,51.21-5.69,0-11.21-1.51-15.73-3.35v22.09c0,5.86-2.51,8.37-8.37,8.37h-20.42c-5.86,0-8.37-2.51-8.37-8.37ZM1347.21,488.1c0-11.55-3.35-17.07-10.88-17.07-4.18,0-8.87,1.51-11.71,3.85v30.62c2.68,1.34,5.52,2.34,9.2,2.34,9.04,0,13.39-6.53,13.39-19.75Z"/>
    <path class="cls-2" d="M1396.91,528.09v-77.31c0-5.86,2.51-8.37,8.37-8.37h15.9c5.86,0,8.37,2.34,8.37,8.2v6.02c2.68-8.37,13.89-16.23,23.43-16.23,5.86,0,8.37,2.51,8.37,8.37v22.09c0,5.86-2.51,8.37-8.37,8.37-3.68,0-12.55-1.51-18.91-3.01v51.88c0,5.86-2.51,8.37-8.37,8.37h-20.42c-5.86,0-8.37-2.51-8.37-8.37Z"/>
    <path class="cls-2" d="M1466.53,489.44c0-32.63,16.73-49.03,49.87-49.03s49.87,16.4,49.87,49.03-16.73,49.03-49.87,49.03-49.87-16.4-49.87-49.03ZM1528.61,489.44c0-13.39-3.35-18.41-12.22-18.41s-12.22,5.02-12.22,18.41,3.35,18.41,12.22,18.41,12.22-5.02,12.22-18.41Z"/>
    <path class="cls-2" d="M1575.3,491.61c0-32.46,16.23-51.21,44.51-51.21,5.69,0,11.21,1.51,15.73,3.35v-22.09c0-5.86,2.51-8.37,8.37-8.37h20.42c5.86,0,8.37,2.51,8.37,8.37v106.43c0,5.86-2.51,8.37-8.37,8.37h-15.9c-5.86,0-8.37-2.51-8.37-8.37v-.17c-4.69,6.02-14.06,10.54-25.44,10.54-24.6,0-39.33-17.57-39.33-46.86ZM1635.55,503.99v-30.62c-2.68-1.34-5.52-2.34-9.2-2.34-9.04,0-13.39,6.53-13.39,19.75,0,11.55,3.35,17.07,10.88,17.07,4.18,0,8.87-1.51,11.71-3.85Z"/>
    <path class="cls-2" d="M1686.92,496.13v-45.35c0-5.86,2.51-8.37,8.37-8.37h20.42c5.86,0,8.37,2.51,8.37,8.37v42.67c0,10.04,2.68,13.89,9.2,13.89,3.35,0,7.53-1.51,11.21-4.52v-52.04c0-5.86,2.51-8.37,8.37-8.37h20.42c5.86,0,8.37,2.51,8.37,8.37v77.31c0,5.86-2.51,8.37-8.37,8.37h-15.9c-6.02,0-8.37-2.34-8.37-8.03v-.5c-7.7,7.03-18.41,10.54-28.62,10.54-22.42,0-33.47-13.72-33.47-42.34Z"/>
    <path class="cls-2" d="M1793.69,489.6c0-32.63,16.4-49.2,49.37-49.2,9.37,0,16.06,1.51,19.24,2.68,5.02,1.84,7.36,5.36,6.19,11.21l-2.51,13.22c-1.34,7.2-5.02,7.2-10.54,5.69-4.69-1.34-6.69-1.67-10.38-1.67-9.54,0-13.22,5.19-13.22,17.57,0,13.05,4.02,18.24,13.55,18.24,3.68,0,6.69-.33,14.22-2.01,5.36-1.17,8.2.67,8.2,7.03v12.72c0,6.02-2.18,9.04-8.2,11.04-4.35,1.51-10.21,2.34-17.91,2.34-31.96,0-48.03-16.73-48.03-48.86Z"/>
    <path class="cls-2" d="M1885.39,496.97v-23.93h-5.19c-5.86,0-8.37-2.51-8.37-8.37v-13.89c0-5.86,2.51-8.37,8.37-8.37h5.19v-10.38c0-7.03,1.67-9.87,7.03-11.04l12.55-2.68c4.18-1,7.7-1.67,10.21-1.67,5.69,0,7.36,2.68,7.36,8.37v17.4h17.74c5.86,0,8.37,2.51,8.37,8.37v13.89c0,5.86-2.51,8.37-8.37,8.37h-17.74v23.43c0,7.53,2.51,10.54,9.04,10.54,3.85,0,8.7-1.17,11.21-1.17,4.18,0,5.86,2.18,5.86,7.2v12.05c0,6.02-2.18,9.04-8.2,11.04-4.35,1.34-10.71,2.34-15.23,2.34-28.28,0-39.83-11.71-39.83-41.5Z"/>
    <path class="cls-2" d="M1979.44,565.58c-8.7-2.01-11.88-6.02-8.37-13.39,2.68-5.69,4.18-9.37,5.69-15.06-12.55-1-18.74-8.2-18.74-20.92,0-14.73,7.53-22.26,22.42-22.26s22.42,7.36,22.42,23.93c0,14.56-4.02,31.79-8.37,40.83-2.34,4.69-5.02,7.7-9.37,7.7-1.17,0-2.84-.17-5.69-.84Z"/>
    <path class="cls-2" d="M2054.41,496.13v-45.35c0-5.86,2.51-8.37,8.37-8.37h20.42c5.86,0,8.37,2.51,8.37,8.37v42.67c0,10.04,2.68,13.89,9.2,13.89,3.35,0,7.53-1.51,11.21-4.52v-52.04c0-5.86,2.51-8.37,8.37-8.37h20.42c5.86,0,8.37,2.51,8.37,8.37v77.31c0,5.86-2.51,8.37-8.37,8.37h-15.9c-6.02,0-8.37-2.34-8.37-8.03v-.5c-7.7,7.03-18.41,10.54-28.62,10.54-22.42,0-33.47-13.72-33.47-42.34Z"/>
    <path class="cls-2" d="M2164.19,557.21v-106.43c0-5.86,2.51-8.37,8.37-8.37h15.9c5.86,0,8.37,2.51,8.37,8.37v.17c4.69-6.02,14.06-10.54,25.44-10.54,24.6,0,39.33,17.57,39.33,46.86,0,32.46-16.23,51.21-44.51,51.21-5.69,0-11.21-1.51-15.73-3.35v22.09c0,5.86-2.51,8.37-8.37,8.37h-20.42c-5.86,0-8.37-2.51-8.37-8.37ZM2223.93,488.1c0-11.55-3.35-17.07-10.88-17.07-4.18,0-8.87,1.51-11.71,3.85v30.62c2.68,1.34,5.52,2.34,9.2,2.34,9.04,0,13.39-6.53,13.39-19.75Z"/>
    <path class="cls-2" d="M2273.64,505.67v-84.01c0-5.86,2.51-8.37,8.37-8.37h20.42c5.86,0,8.37,2.51,8.37,8.37v80.33c0,4.02,1.51,5.69,4.69,5.69h.84c4.52,0,6.36,2.01,6.36,7.2v12.55c0,5.69-2.34,8.2-8.2,9.71-3.68,1-7.53,1.34-11.04,1.34-22.09,0-29.79-8.37-29.79-32.8Z"/>
    <path class="cls-2" d="M2328.36,489.44c0-32.63,16.73-49.03,49.87-49.03s49.87,16.4,49.87,49.03-16.73,49.03-49.87,49.03-49.87-16.4-49.87-49.03ZM2390.44,489.44c0-13.39-3.35-18.41-12.22-18.41s-12.22,5.02-12.22,18.41,3.35,18.41,12.22,18.41,12.22-5.02,12.22-18.41Z"/>
    <path class="cls-2" d="M2435.46,511.86c0-19.41,16.4-28.95,54.89-29.12v-1.67c0-6.53-4.85-10.04-14.22-10.04-8.03,0-14.39,1.51-23.09,4.85-5.36,2.01-8.03.33-9.54-5.86l-2.84-11.38c-1.34-5.69.17-9.04,6.02-11.55,9.71-4.02,24.26-6.69,36.98-6.69,28.78,0,43.84,14.06,43.84,40.66v47.02c0,5.86-2.51,8.37-8.37,8.37h-16.07c-5.86,0-8.37-2.68-8.37-8.87v-.84c-7.36,7.87-17.24,11.71-30.29,11.71-17.74,0-28.95-10.54-28.95-26.61ZM2490.35,511.36v-9.54c-16.57.33-21.08,2.84-21.08,8.03,0,3.51,2.17,5.69,7.36,5.69,3.68,0,10.54-1,13.72-4.18Z"/>
    <path class="cls-2" d="M2538.71,491.61c0-32.46,16.23-51.21,44.51-51.21,5.69,0,11.21,1.51,15.73,3.35v-22.09c0-5.86,2.51-8.37,8.37-8.37h20.42c5.86,0,8.37,2.51,8.37,8.37v106.43c0,5.86-2.51,8.37-8.37,8.37h-15.9c-5.86,0-8.37-2.51-8.37-8.37v-.17c-4.69,6.02-14.06,10.54-25.44,10.54-24.6,0-39.33-17.57-39.33-46.86ZM2598.95,503.99v-30.62c-2.68-1.34-5.52-2.34-9.2-2.34-9.04,0-13.39,6.53-13.39,19.75,0,11.55,3.35,17.07,10.88,17.07,4.18,0,8.87-1.51,11.71-3.85Z"/>
    <path class="cls-2" d="M8.03,766.71c-5.86-2.17-8.03-5.02-8.03-10.54v-11.38c0-5.19,1.34-7.2,5.69-7.2,2.17,0,4.52.33,6.69.33,6.69,0,13.55-1,19.91-9.04-15.23-24.93-30.12-63.59-30.12-78.65,0-4.85,2.68-7.03,7.36-7.03h20.58c7.53,0,10.71,2.18,11.55,7.7,2.68,17.24,7.2,33.97,12.55,47.36,5.02-12.72,9.37-28.95,12.55-47.36,1-5.69,4.18-7.7,11.55-7.7h18.91c4.85,0,7.36,2.18,7.36,7.03,0,15.06-14.39,54.55-29.45,79.32-16.4,26.78-31.63,38.82-53.88,38.82-6.02,0-9.71-.5-13.22-1.67Z"/>
    <path class="cls-2" d="M107.1,690.23c0-32.63,16.73-49.03,49.87-49.03s49.87,16.4,49.87,49.03-16.73,49.03-49.87,49.03-49.87-16.4-49.87-49.03ZM169.19,690.23c0-13.39-3.35-18.41-12.22-18.41s-12.22,5.02-12.22,18.41,3.35,18.41,12.22,18.41,12.22-5.02,12.22-18.41Z"/>
    <path class="cls-2" d="M218.05,696.92v-45.35c0-5.86,2.51-8.37,8.37-8.37h20.42c5.86,0,8.37,2.51,8.37,8.37v42.67c0,10.04,2.68,13.89,9.2,13.89,3.35,0,7.53-1.51,11.21-4.52v-52.04c0-5.86,2.51-8.37,8.37-8.37h20.42c5.86,0,8.37,2.51,8.37,8.37v77.31c0,5.86-2.51,8.37-8.37,8.37h-15.9c-6.02,0-8.37-2.34-8.37-8.03v-.5c-7.7,7.03-18.41,10.54-28.62,10.54-22.42,0-33.47-13.72-33.47-42.34Z"/>
    <path class="cls-2" d="M327.83,728.89v-77.31c0-5.86,2.51-8.37,8.37-8.37h15.9c5.86,0,8.37,2.34,8.37,8.2v6.02c2.68-8.37,13.89-16.23,23.43-16.23,5.86,0,8.37,2.51,8.37,8.37v22.09c0,5.86-2.51,8.37-8.37,8.37-3.68,0-12.55-1.51-18.91-3.01v51.88c0,5.86-2.51,8.37-8.37,8.37h-20.42c-5.86,0-8.37-2.51-8.37-8.37Z"/>
    <path class="cls-2" d="M441.46,728.89v-77.31c0-5.86,2.51-8.37,8.37-8.37h15.9c5.86,0,8.37,2.34,8.37,8.2v6.02c2.68-8.37,13.89-16.23,23.43-16.23,5.86,0,8.37,2.51,8.37,8.37v22.09c0,5.86-2.51,8.37-8.37,8.37-3.68,0-12.55-1.51-18.91-3.01v51.88c0,5.86-2.51,8.37-8.37,8.37h-20.42c-5.86,0-8.37-2.51-8.37-8.37Z"/>
    <path class="cls-2" d="M511.07,690.23c0-31.79,17.57-49.03,49.87-49.03,26.61,0,43.17,12.05,43.17,31.29,0,16.06-10.38,24.26-32.63,25.6l-22.42,1.51c1.34,7.03,6.36,9.87,17.4,9.87,7.53,0,16.73-1.67,23.26-4.35,6.86-2.84,11.71-1.67,11.71,4.35v12.38c0,5.86-3.01,9.87-9.37,12.22-8.54,3.18-20.25,5.19-30.79,5.19-34.31,0-50.2-15.4-50.2-49.03ZM557.76,680.19c8.87-.67,12.55-2.51,12.55-6.86,0-4.02-3.51-6.36-9.87-6.36-6.69,0-10.54,4.69-11.55,13.89l8.87-.67Z"/>
    <path class="cls-2" d="M609.81,690.4c0-32.63,16.4-49.2,49.37-49.2,9.37,0,16.06,1.51,19.24,2.68,5.02,1.84,7.36,5.36,6.19,11.21l-2.51,13.22c-1.34,7.2-5.02,7.2-10.54,5.69-4.69-1.34-6.69-1.67-10.38-1.67-9.54,0-13.22,5.19-13.22,17.57,0,13.05,4.02,18.24,13.55,18.24,3.68,0,6.69-.33,14.22-2.01,5.36-1.17,8.2.67,8.2,7.03v12.72c0,6.02-2.18,9.04-8.2,11.04-4.35,1.51-10.21,2.34-17.91,2.34-31.96,0-48.03-16.73-48.03-48.86Z"/>
    <path class="cls-2" d="M689.13,690.23c0-31.79,17.57-49.03,49.87-49.03,26.61,0,43.17,12.05,43.17,31.29,0,16.06-10.38,24.26-32.63,25.6l-22.42,1.51c1.34,7.03,6.36,9.87,17.4,9.87,7.53,0,16.73-1.67,23.26-4.35,6.86-2.84,11.71-1.67,11.71,4.35v12.38c0,5.86-3.01,9.87-9.37,12.22-8.54,3.18-20.25,5.19-30.79,5.19-34.31,0-50.2-15.4-50.2-49.03ZM735.82,680.19c8.87-.67,12.55-2.51,12.55-6.86,0-4.02-3.51-6.36-9.87-6.36-6.69,0-10.54,4.69-11.55,13.89l8.87-.67Z"/>
    <path class="cls-2" d="M788.7,630.99c0-12.05,8.03-18.91,22.42-18.91s22.42,6.86,22.42,18.91-8.03,18.91-22.42,18.91-22.42-6.86-22.42-18.91ZM792.55,728.89v-65.93c0-4.69,3.01-6.86,8.2-5.69,3.68.67,6.86,1,10.38,1s6.69-.33,10.38-1c5.19-1.17,8.2,1,8.2,5.69v65.93c0,5.86-2.51,8.37-8.37,8.37h-20.42c-5.86,0-8.37-2.51-8.37-8.37Z"/>
    <path class="cls-2" d="M844.76,758v-106.43c0-5.86,2.51-8.37,8.37-8.37h15.9c5.86,0,8.37,2.51,8.37,8.37v.17c4.69-6.02,14.06-10.54,25.44-10.54,24.6,0,39.33,17.57,39.33,46.86,0,32.46-16.23,51.21-44.51,51.21-5.69,0-11.21-1.51-15.73-3.35v22.09c0,5.86-2.51,8.37-8.37,8.37h-20.42c-5.86,0-8.37-2.51-8.37-8.37ZM904.5,688.89c0-11.55-3.35-17.07-10.88-17.07-4.18,0-8.87,1.51-11.71,3.85v30.62c2.68,1.34,5.52,2.34,9.2,2.34,9.04,0,13.39-6.53,13.39-19.75Z"/>
    <path class="cls-2" d="M957.72,697.76v-23.93h-5.19c-5.86,0-8.37-2.51-8.37-8.37v-13.89c0-5.86,2.51-8.37,8.37-8.37h5.19v-10.38c0-7.03,1.67-9.87,7.03-11.04l12.55-2.68c4.18-1,7.7-1.67,10.21-1.67,5.69,0,7.36,2.68,7.36,8.37v17.4h17.74c5.86,0,8.37,2.51,8.37,8.37v13.89c0,5.86-2.51,8.37-8.37,8.37h-17.74v23.43c0,7.53,2.51,10.54,9.04,10.54,3.85,0,8.7-1.17,11.21-1.17,4.18,0,5.86,2.18,5.86,7.2v12.05c0,6.02-2.18,9.04-8.2,11.04-4.35,1.34-10.71,2.34-15.23,2.34-28.28,0-39.83-11.71-39.83-41.5Z"/>
    <path class="cls-2" d="M1051.76,766.37c-8.7-2.01-11.88-6.02-8.37-13.39,2.68-5.69,4.18-9.37,5.69-15.06-12.55-1-18.74-8.2-18.74-20.92,0-14.73,7.53-22.26,22.42-22.26s22.42,7.36,22.42,23.93c0,14.56-4.02,31.79-8.37,40.83-2.34,4.69-5.02,7.7-9.37,7.7-1.17,0-2.84-.17-5.69-.84Z"/>
    <path class="cls-2" d="M1163.05,712.65c0-19.41,16.4-28.95,54.89-29.12v-1.67c0-6.53-4.85-10.04-14.22-10.04-8.03,0-14.39,1.51-23.09,4.85-5.36,2.01-8.03.33-9.54-5.86l-2.84-11.38c-1.34-5.69.17-9.04,6.02-11.55,9.71-4.02,24.26-6.69,36.98-6.69,28.78,0,43.84,14.06,43.84,40.66v47.02c0,5.86-2.51,8.37-8.37,8.37h-16.07c-5.86,0-8.37-2.68-8.37-8.87v-.84c-7.36,7.87-17.24,11.71-30.29,11.71-17.74,0-28.95-10.54-28.95-26.61ZM1217.94,712.15v-9.54c-16.57.33-21.08,2.84-21.08,8.03,0,3.51,2.17,5.69,7.36,5.69,3.68,0,10.54-1,13.72-4.18Z"/>
    <path class="cls-2" d="M1269.31,728.89v-77.31c0-5.86,2.51-8.37,8.37-8.37h15.9c6.02,0,8.37,2.34,8.37,8.03v.5c7.7-7.03,18.07-10.54,28.62-10.54,22.76,0,33.8,13.72,33.8,42.34v45.35c0,5.86-2.51,8.37-8.37,8.37h-20.42c-5.86,0-8.37-2.51-8.37-8.37v-42.67c0-10.04-2.68-13.89-9.2-13.89-3.68,0-7.87,1.51-11.55,4.52v52.04c0,5.86-2.51,8.37-8.37,8.37h-20.42c-5.86,0-8.37-2.51-8.37-8.37Z"/>
    <path class="cls-2" d="M1375.58,692.41c0-32.46,16.23-51.21,44.51-51.21,5.69,0,11.21,1.51,15.73,3.35v-22.09c0-5.86,2.51-8.37,8.37-8.37h20.42c5.86,0,8.37,2.51,8.37,8.37v106.43c0,5.86-2.51,8.37-8.37,8.37h-15.9c-5.86,0-8.37-2.51-8.37-8.37v-.17c-4.69,6.02-14.06,10.54-25.44,10.54-24.6,0-39.33-17.57-39.33-46.86ZM1435.82,704.79v-30.62c-2.68-1.34-5.52-2.34-9.2-2.34-9.04,0-13.39,6.53-13.39,19.75,0,11.55,3.35,17.07,10.88,17.07,4.18,0,8.87-1.51,11.71-3.85Z"/>
    <path class="cls-2" d="M1525.18,690.23c0-31.79,17.57-49.03,49.87-49.03,26.61,0,43.17,12.05,43.17,31.29,0,16.06-10.38,24.26-32.63,25.6l-22.42,1.51c1.34,7.03,6.36,9.87,17.4,9.87,7.53,0,16.73-1.67,23.26-4.35,6.86-2.84,11.71-1.67,11.71,4.35v12.38c0,5.86-3.01,9.87-9.37,12.22-8.54,3.18-20.25,5.19-30.79,5.19-34.31,0-50.2-15.4-50.2-49.03ZM1571.87,680.19c8.87-.67,12.55-2.51,12.55-6.86,0-4.02-3.51-6.36-9.87-6.36-6.69,0-10.54,4.69-11.55,13.89l8.87-.67Z"/>
    <path class="cls-2" d="M1628.6,728.89v-77.31c0-5.86,2.51-8.37,8.37-8.37h15.9c6.02,0,8.37,2.34,8.37,8.03v.5c7.7-7.03,18.07-10.54,28.62-10.54,22.76,0,33.8,13.72,33.8,42.34v45.35c0,5.86-2.51,8.37-8.37,8.37h-20.42c-5.86,0-8.37-2.51-8.37-8.37v-42.67c0-10.04-2.68-13.89-9.2-13.89-3.68,0-7.87,1.51-11.55,4.52v52.04c0,5.86-2.51,8.37-8.37,8.37h-20.42c-5.86,0-8.37-2.51-8.37-8.37Z"/>
    <path class="cls-2" d="M1743.07,697.76v-23.93h-5.19c-5.86,0-8.37-2.51-8.37-8.37v-13.89c0-5.86,2.51-8.37,8.37-8.37h5.19v-10.38c0-7.03,1.67-9.87,7.03-11.04l12.55-2.68c4.18-1,7.7-1.67,10.21-1.67,5.69,0,7.36,2.68,7.36,8.37v17.4h17.74c5.86,0,8.37,2.51,8.37,8.37v13.89c0,5.86-2.51,8.37-8.37,8.37h-17.74v23.43c0,7.53,2.51,10.54,9.04,10.54,3.85,0,8.7-1.17,11.21-1.17,4.18,0,5.86,2.18,5.86,7.2v12.05c0,6.02-2.18,9.04-8.2,11.04-4.35,1.34-10.71,2.34-15.23,2.34-28.28,0-39.83-11.71-39.83-41.5Z"/>
    <path class="cls-2" d="M1812.18,690.23c0-31.79,17.57-49.03,49.87-49.03,26.61,0,43.17,12.05,43.17,31.29,0,16.06-10.38,24.26-32.63,25.6l-22.42,1.51c1.34,7.03,6.36,9.87,17.4,9.87,7.53,0,16.73-1.67,23.26-4.35,6.86-2.84,11.71-1.67,11.71,4.35v12.38c0,5.86-3.01,9.87-9.37,12.22-8.54,3.18-20.25,5.19-30.79,5.19-34.31,0-50.2-15.4-50.2-49.03ZM1858.87,680.19c8.87-.67,12.55-2.51,12.55-6.86,0-4.02-3.51-6.36-9.87-6.36-6.69,0-10.54,4.69-11.55,13.89l8.87-.67Z"/>
    <path class="cls-2" d="M1915.6,728.89v-77.31c0-5.86,2.51-8.37,8.37-8.37h15.9c5.86,0,8.37,2.34,8.37,8.2v6.02c2.68-8.37,13.89-16.23,23.43-16.23,5.86,0,8.37,2.51,8.37,8.37v22.09c0,5.86-2.51,8.37-8.37,8.37-3.68,0-12.55-1.51-18.91-3.01v51.88c0,5.86-2.51,8.37-8.37,8.37h-20.42c-5.86,0-8.37-2.51-8.37-8.37Z"/>
    <path class="cls-2" d="M2035.25,697.76v-23.93h-5.19c-5.86,0-8.37-2.51-8.37-8.37v-13.89c0-5.86,2.51-8.37,8.37-8.37h5.19v-10.38c0-7.03,1.67-9.87,7.03-11.04l12.55-2.68c4.18-1,7.7-1.67,10.21-1.67,5.69,0,7.36,2.68,7.36,8.37v17.4h17.74c5.86,0,8.37,2.51,8.37,8.37v13.89c0,5.86-2.51,8.37-8.37,8.37h-17.74v23.43c0,7.53,2.51,10.54,9.04,10.54,3.85,0,8.7-1.17,11.21-1.17,4.18,0,5.86,2.18,5.86,7.2v12.05c0,6.02-2.18,9.04-8.2,11.04-4.35,1.34-10.71,2.34-15.23,2.34-28.28,0-39.83-11.71-39.83-41.5Z"/>
    <path class="cls-2" d="M2104.37,690.23c0-32.63,16.73-49.03,49.87-49.03s49.87,16.4,49.87,49.03-16.73,49.03-49.87,49.03-49.87-16.4-49.87-49.03ZM2166.45,690.23c0-13.39-3.35-18.41-12.22-18.41s-12.22,5.02-12.22,18.41,3.35,18.41,12.22,18.41,12.22-5.02,12.22-18.41Z"/>
    <path class="cls-2" d="M2278.24,729.55c-14.39-23.43-28.62-62.75-28.62-79.32,0-4.85,2.34-7.03,7.03-7.03h18.74c7.36,0,10.54,2.01,11.55,7.7,3.18,17.91,7.03,33.47,10.71,44.51h.33c5.19-13.39,9.37-30.12,12.05-44.51,1-5.69,4.18-7.7,11.55-7.7h11.88c7.36,0,10.54,2.01,11.55,7.7,3.01,17.07,6.69,34.14,11.38,46.52h.33c3.51-10.38,7.36-25.94,11.21-46.52,1-5.69,4.18-7.7,11.55-7.7h17.24c4.85,0,7.03,2.18,7.03,7.03,0,16.57-14.22,55.89-28.62,79.32-3.68,6.02-6.86,7.7-13.89,7.7h-7.36c-7.2,0-10.38-1.84-13.89-7.7-5.02-8.37-9.54-18.57-13.39-29.62h-.33c-4.02,11.04-8.37,21.08-13.39,29.62-3.51,5.86-6.69,7.7-13.89,7.7h-6.86c-7.03,0-10.21-1.67-13.89-7.7Z"/>
    <path class="cls-2" d="M2408.27,630.99c0-12.05,8.03-18.91,22.42-18.91s22.42,6.86,22.42,18.91-8.03,18.91-22.42,18.91-22.42-6.86-22.42-18.91ZM2412.11,728.89v-65.93c0-4.69,3.01-6.86,8.2-5.69,3.68.67,6.86,1,10.38,1s6.69-.33,10.38-1c5.19-1.17,8.2,1,8.2,5.69v65.93c0,5.86-2.51,8.37-8.37,8.37h-20.42c-5.86,0-8.37-2.51-8.37-8.37Z"/>
    <path class="cls-2" d="M2464.33,728.89v-77.31c0-5.86,2.51-8.37,8.37-8.37h15.9c6.02,0,8.37,2.34,8.37,8.03v.5c7.7-7.03,18.07-10.54,28.62-10.54,22.76,0,33.8,13.72,33.8,42.34v45.35c0,5.86-2.51,8.37-8.37,8.37h-20.42c-5.86,0-8.37-2.51-8.37-8.37v-42.67c0-10.04-2.68-13.89-9.2-13.89-3.68,0-7.87,1.51-11.55,4.52v52.04c0,5.86-2.51,8.37-8.37,8.37h-20.42c-5.86,0-8.37-2.51-8.37-8.37Z"/>
    <path class="cls-2" d="M2609.08,712.65c0-19.41,16.4-28.95,54.89-29.12v-1.67c0-6.53-4.85-10.04-14.22-10.04-8.03,0-14.39,1.51-23.09,4.85-5.36,2.01-8.03.33-9.54-5.86l-2.84-11.38c-1.34-5.69.17-9.04,6.02-11.55,9.71-4.02,24.26-6.69,36.98-6.69,28.78,0,43.84,14.06,43.84,40.66v47.02c0,5.86-2.51,8.37-8.37,8.37h-16.07c-5.86,0-8.37-2.68-8.37-8.87v-.84c-7.36,7.87-17.24,11.71-30.29,11.71-17.74,0-28.95-10.54-28.95-26.61ZM2663.97,712.15v-9.54c-16.57.33-21.08,2.84-21.08,8.03,0,3.51,2.17,5.69,7.36,5.69,3.68,0,10.54-1,13.72-4.18Z"/>
    <path class="cls-2" d="M386.65,929.68v-40.5h-3.51c-5.86,0-8.37-2.51-8.37-8.37v-13.89c0-5.86,2.51-8.37,8.37-8.37h3.51v-3.18c0-28.28,14.56-41.5,45.35-41.5,9.54,0,12.22,2.51,12.22,11.21v11.71c0,5.35-2.68,8.03-8.37,8.03-8.7,0-12.05,3.68-12.05,12.88v.84h6.69c5.86,0,8.37,2.51,8.37,8.37v13.89c0,5.86-2.51,8.37-8.37,8.37h-6.69v40.5c0,5.86-2.51,8.37-8.37,8.37h-20.42c-5.86,0-8.37-2.51-8.37-8.37Z"/>
    <path class="cls-2" d="M444.05,891.02c0-32.63,16.73-49.03,49.87-49.03s49.87,16.4,49.87,49.03-16.73,49.03-49.87,49.03-49.87-16.4-49.87-49.03ZM506.14,891.02c0-13.39-3.35-18.41-12.22-18.41s-12.22,5.02-12.22,18.41,3.35,18.41,12.22,18.41,12.22-5.02,12.22-18.41Z"/>
    <path class="cls-2" d="M552.83,891.02c0-32.63,16.73-49.03,49.87-49.03s49.87,16.4,49.87,49.03-16.73,49.03-49.87,49.03-49.87-16.4-49.87-49.03ZM614.91,891.02c0-13.39-3.35-18.41-12.22-18.41s-12.22,5.02-12.22,18.41,3.35,18.41,12.22,18.41,12.22-5.02,12.22-18.41Z"/>
    <path class="cls-2" d="M668.13,898.55v-23.93h-5.19c-5.86,0-8.37-2.51-8.37-8.37v-13.89c0-5.86,2.51-8.37,8.37-8.37h5.19v-10.38c0-7.03,1.67-9.87,7.03-11.04l12.55-2.68c4.18-1,7.7-1.67,10.21-1.67,5.69,0,7.36,2.68,7.36,8.37v17.4h17.74c5.86,0,8.37,2.51,8.37,8.37v13.89c0,5.86-2.51,8.37-8.37,8.37h-17.74v23.43c0,7.53,2.51,10.54,9.04,10.54,3.85,0,8.7-1.17,11.21-1.17,4.18,0,5.86,2.18,5.86,7.2v12.05c0,6.02-2.18,9.04-8.2,11.04-4.35,1.34-10.71,2.34-15.23,2.34-28.28,0-39.83-11.71-39.83-41.5Z"/>
    <path class="cls-2" d="M768.87,929.18c0,6.86-2.01,8.87-6.69,8.87h-11.88c-5.86,0-8.37-2.51-8.37-8.37v-106.43c0-5.86,2.51-8.37,8.37-8.37h20.42c5.86,0,8.37,2.51,8.37,8.37v24.93c5.19-3.68,12.55-6.19,20.92-6.19,24.6,0,39.33,17.57,39.33,46.86,0,32.46-16.23,51.21-44.51,51.21-8.87,0-19.08-3.35-25.94-10.88ZM801.67,889.68c0-11.55-3.35-17.07-10.88-17.07-4.18,0-8.87,1.51-11.71,4.18v29.96c2.68,1.67,5.69,2.68,9.2,2.68,9.04,0,13.39-6.53,13.39-19.75Z"/>
    <path class="cls-2" d="M846.68,913.45c0-19.41,16.4-28.95,54.89-29.12v-1.67c0-6.53-4.85-10.04-14.22-10.04-8.03,0-14.39,1.51-23.09,4.85-5.36,2.01-8.03.33-9.54-5.86l-2.84-11.38c-1.34-5.69.17-9.04,6.02-11.55,9.71-4.02,24.26-6.69,36.98-6.69,28.78,0,43.84,14.06,43.84,40.66v47.02c0,5.86-2.51,8.37-8.37,8.37h-16.07c-5.86,0-8.37-2.68-8.37-8.87v-.84c-7.36,7.87-17.24,11.71-30.29,11.71-17.74,0-28.95-10.54-28.95-26.61ZM901.57,912.94v-9.54c-16.57.33-21.08,2.84-21.08,8.03,0,3.51,2.17,5.69,7.36,5.69,3.68,0,10.54-1,13.72-4.18Z"/>
    <path class="cls-2" d="M952.95,907.25v-84.01c0-5.86,2.51-8.37,8.37-8.37h20.42c5.86,0,8.37,2.51,8.37,8.37v80.33c0,4.02,1.51,5.69,4.69,5.69h.84c4.52,0,6.36,2.01,6.36,7.2v12.55c0,5.69-2.34,8.2-8.2,9.71-3.68,1-7.53,1.34-11.04,1.34-22.09,0-29.79-8.37-29.79-32.8Z"/>
    <path class="cls-2" d="M1010.68,907.25v-84.01c0-5.86,2.51-8.37,8.37-8.37h20.42c5.86,0,8.37,2.51,8.37,8.37v80.33c0,4.02,1.51,5.69,4.69,5.69h.84c4.52,0,6.36,2.01,6.36,7.2v12.55c0,5.69-2.34,8.2-8.2,9.71-3.68,1-7.53,1.34-11.04,1.34-22.09,0-29.79-8.37-29.79-32.8Z"/>
    <path class="cls-2" d="M1066.41,890.19v-17.57c0-5.86,2.51-8.37,8.37-8.37h45.52c5.86,0,8.37,2.51,8.37,8.37v17.57c0,5.86-2.51,8.37-8.37,8.37h-45.52c-5.86,0-8.37-2.51-8.37-8.37Z"/>
    <path class="cls-2" d="M1142.55,929.68v-77.31c0-5.86,2.51-8.37,8.37-8.37h15.9c6.02,0,8.37,2.34,8.37,8.03v.5c7.7-7.03,18.07-10.54,28.62-10.54,22.76,0,33.8,13.72,33.8,42.34v45.35c0,5.86-2.51,8.37-8.37,8.37h-20.42c-5.86,0-8.37-2.51-8.37-8.37v-42.67c0-10.04-2.68-13.89-9.2-13.89-3.68,0-7.87,1.51-11.55,4.52v52.04c0,5.86-2.51,8.37-8.37,8.37h-20.42c-5.86,0-8.37-2.51-8.37-8.37Z"/>
    <path class="cls-2" d="M1247.98,831.78c0-12.05,8.03-18.91,22.42-18.91s22.42,6.86,22.42,18.91-8.03,18.91-22.42,18.91-22.42-6.86-22.42-18.91ZM1251.83,929.68v-65.93c0-4.69,3.01-6.86,8.2-5.69,3.68.67,6.86,1,10.38,1s6.69-.33,10.38-1c5.19-1.17,8.2,1,8.2,5.69v65.93c0,5.86-2.51,8.37-8.37,8.37h-20.42c-5.86,0-8.37-2.51-8.37-8.37Z"/>
    <path class="cls-2" d="M1315.42,964.49c-5.86-2.01-8.2-4.52-8.2-10.21v-12.05c0-7.36,3.85-8.53,10.54-6.36,7.7,2.51,17.24,4.18,22.93,4.18,7.53,0,14.39-2.68,14.39-8.37,0-2.17-.33-4.35-1-6.19-2.51.5-5.69.84-8.7.84-28.95,0-45.85-15.06-45.85-42.17s16.9-42.17,45.85-42.17c5.19,0,10.04.5,14.56,1.51,3.01-4.02,4.18-9.37,4.18-16.4,0-4.35,1.51-6.53,6.53-6.53h20.25c5.02,0,6.53,2.01,6.53,7.36,0,9.37-5.52,21.59-14.56,28.95,5.36,6.86,8.37,16.06,8.37,27.28,0,10.54-3.68,19.91-10.04,27.11,7.2,6.69,11.88,15.9,11.88,24.93,0,19.58-19.91,32.97-47.02,32.97-9.71,0-21.59-1.34-30.62-4.69ZM1356.58,884.16c0-9.87-3.68-14.22-11.21-14.22s-11.21,4.35-11.21,14.22,3.68,14.06,11.21,14.06,11.21-4.18,11.21-14.06Z"/>
    <path class="cls-2" d="M1404.78,929.68v-106.43c0-5.86,2.51-8.37,8.37-8.37h20.42c5.86,0,8.37,2.51,8.37,8.37v26.44c6.19-4.35,13.72-7.7,24.1-7.7,22.76,0,33.8,13.72,33.8,42.34v45.35c0,5.86-2.51,8.37-8.37,8.37h-20.42c-5.86,0-8.37-2.51-8.37-8.37v-42.67c0-10.04-2.68-13.89-9.2-13.89-3.68,0-7.87,1.51-11.55,4.52v52.04c0,5.86-2.51,8.37-8.37,8.37h-20.42c-5.86,0-8.37-2.51-8.37-8.37Z"/>
    <path class="cls-2" d="M1519.24,898.55v-23.93h-5.19c-5.86,0-8.37-2.51-8.37-8.37v-13.89c0-5.86,2.51-8.37,8.37-8.37h5.19v-10.38c0-7.03,1.67-9.87,7.03-11.04l12.55-2.68c4.18-1,7.7-1.67,10.21-1.67,5.69,0,7.36,2.68,7.36,8.37v17.4h17.74c5.86,0,8.37,2.51,8.37,8.37v13.89c0,5.86-2.51,8.37-8.37,8.37h-17.74v23.43c0,7.53,2.51,10.54,9.04,10.54,3.85,0,8.7-1.17,11.21-1.17,4.18,0,5.86,2.18,5.86,7.2v12.05c0,6.02-2.18,9.04-8.2,11.04-4.35,1.34-10.71,2.34-15.23,2.34-28.28,0-39.83-11.71-39.83-41.5Z"/>
    <path class="cls-2" d="M1633.21,929.68v-106.43c0-5.86,2.51-8.37,8.37-8.37h20.42c5.86,0,8.37,2.51,8.37,8.37v26.44c6.19-4.35,13.72-7.7,24.1-7.7,22.76,0,33.8,13.72,33.8,42.34v45.35c0,5.86-2.51,8.37-8.37,8.37h-20.42c-5.86,0-8.37-2.51-8.37-8.37v-42.67c0-10.04-2.68-13.89-9.2-13.89-3.68,0-7.87,1.51-11.55,4.52v52.04c0,5.86-2.51,8.37-8.37,8.37h-20.42c-5.86,0-8.37-2.51-8.37-8.37Z"/>
    <path class="cls-2" d="M1737.8,913.45c0-19.41,16.4-28.95,54.89-29.12v-1.67c0-6.53-4.85-10.04-14.22-10.04-8.03,0-14.39,1.51-23.09,4.85-5.36,2.01-8.03.33-9.54-5.86l-2.84-11.38c-1.34-5.69.17-9.04,6.02-11.55,9.71-4.02,24.26-6.69,36.98-6.69,28.78,0,43.84,14.06,43.84,40.66v47.02c0,5.86-2.51,8.37-8.37,8.37h-16.07c-5.86,0-8.37-2.68-8.37-8.87v-.84c-7.36,7.87-17.24,11.71-30.29,11.71-17.74,0-28.95-10.54-28.95-26.61ZM1792.69,912.94v-9.54c-16.57.33-21.08,2.84-21.08,8.03,0,3.51,2.17,5.69,7.36,5.69,3.68,0,10.54-1,13.72-4.18Z"/>
    <path class="cls-2" d="M1844.06,929.68v-77.31c0-5.86,2.51-8.37,8.37-8.37h15.9c6.02,0,8.37,2.34,8.37,8.03v.17c7.36-6.69,17.74-10.21,28.28-10.21,12.55,0,20.42,3.85,26.11,11.38,8.53-7.53,19.58-11.38,31.46-11.38,22.76,0,33.8,13.72,33.8,42.34v45.35c0,5.86-2.51,8.37-8.37,8.37h-20.42c-5.86,0-8.37-2.51-8.37-8.37v-41c0-11.71-2.34-15.56-8.87-15.56-3.18,0-7.87,1.51-11.88,4.18.17,2.68.33,5.52.33,8.7v43.68c0,5.86-2.51,8.37-8.37,8.37h-20.42c-5.86,0-8.37-2.51-8.37-8.37v-41c0-11.71-2.34-15.56-8.87-15.56-3.68,0-7.87,1.51-11.55,4.52v52.04c0,5.86-2.51,8.37-8.37,8.37h-20.42c-5.86,0-8.37-2.51-8.37-8.37Z"/>
    <path class="cls-2" d="M2010.57,958.8v-106.43c0-5.86,2.51-8.37,8.37-8.37h15.9c5.86,0,8.37,2.51,8.37,8.37v.17c4.69-6.02,14.06-10.54,25.44-10.54,24.6,0,39.33,17.57,39.33,46.86,0,32.46-16.23,51.21-44.51,51.21-5.69,0-11.21-1.51-15.73-3.35v22.09c0,5.86-2.51,8.37-8.37,8.37h-20.42c-5.86,0-8.37-2.51-8.37-8.37ZM2070.31,889.68c0-11.55-3.35-17.07-10.88-17.07-4.18,0-8.87,1.51-11.71,3.85v30.62c2.68,1.34,5.52,2.34,9.2,2.34,9.04,0,13.39-6.53,13.39-19.75Z"/>
    <path class="cls-2" d="M2117,891.02c0-31.79,17.57-49.03,49.87-49.03,26.61,0,43.17,12.05,43.17,31.29,0,16.06-10.38,24.26-32.63,25.6l-22.42,1.51c1.34,7.03,6.36,9.87,17.4,9.87,7.53,0,16.73-1.67,23.26-4.35,6.86-2.84,11.71-1.67,11.71,4.35v12.38c0,5.86-3.01,9.87-9.37,12.22-8.54,3.18-20.25,5.19-30.79,5.19-34.31,0-50.2-15.4-50.2-49.03ZM2163.69,880.98c8.87-.67,12.55-2.51,12.55-6.86,0-4.02-3.51-6.36-9.87-6.36-6.69,0-10.54,4.69-11.55,13.89l8.87-.67Z"/>
    <path class="cls-2" d="M2220.42,929.68v-77.31c0-5.86,2.51-8.37,8.37-8.37h15.9c5.86,0,8.37,2.34,8.37,8.2v6.02c2.68-8.37,13.89-16.23,23.43-16.23,5.86,0,8.37,2.51,8.37,8.37v22.09c0,5.86-2.51,8.37-8.37,8.37-3.68,0-12.55-1.51-18.91-3.01v51.88c0,5.86-2.51,8.37-8.37,8.37h-20.42c-5.86,0-8.37-2.51-8.37-8.37Z"/>
    <path class="cls-2" d="M2286.86,917.8c0-14.73,7.53-22.26,22.42-22.26s22.42,7.53,22.42,22.26-7.53,22.26-22.42,22.26-22.42-7.53-22.42-22.26Z"/>
  </g>
</svg>