<?xml version="1.0" encoding="UTF-8"?>
<svg id="Layer_1" data-name="Layer 1" xmlns="http://www.w3.org/2000/svg" viewBox="0 0 2406.69 1065.78">
  <defs>
    <style>
      .cls-1 {
        fill: #1d1d1b;
      }

      .cls-2 {
        fill: #fff;
      }
    </style>
  </defs>
  <g>
    <g>
      <path class="cls-1" d="M720.68,191.65c-7.13,0-13.4-2.66-18.65-7.91-5.25-5.25-7.91-11.52-7.91-18.65s2.66-13.4,7.91-18.65c5.25-5.25,11.52-7.91,18.65-7.91s13.4,2.66,18.65,7.91c5.25,5.25,7.91,11.53,7.91,18.65s-2.66,13.4-7.91,18.65-11.52,7.91-18.65,7.91Z"/>
      <path class="cls-2" d="M720.68,142.53c6.05,0,11.33,2.25,15.82,6.74,4.49,4.49,6.74,9.77,6.74,15.82s-2.25,11.33-6.74,15.82c-4.49,4.49-9.77,6.74-15.82,6.74s-11.33-2.25-15.82-6.74c-4.49-4.49-6.74-9.76-6.74-15.82s2.25-11.33,6.74-15.82c4.49-4.49,9.76-6.74,15.82-6.74M720.68,134.53c-8.23,0-15.45,3.06-21.48,9.08-6.03,6.03-9.08,13.25-9.08,21.48s3.06,15.45,9.08,21.48c6.02,6.02,13.25,9.08,21.48,9.08s15.45-3.06,21.48-9.08c6.03-6.03,9.08-13.25,9.08-21.48s-3.05-15.45-9.08-21.48c-6.03-6.03-13.26-9.08-21.48-9.08h0Z"/>
    </g>
    <g>
      <path class="cls-1" d="M711.6,354.43c-1.05-.05-2.09-.12-3.11-.2-23.5-1.92-42.96-9.33-57.86-22.04-14.77-12.61-25.49-27.88-31.85-45.4-6.28-17.3-9.52-35.03-9.62-52.69v-31.08c0-4.09,1.76-9.7,10.14-13.21,5.48-2.3,11.94-3.8,19.2-4.47,4.37-.4,9.9-.61,16.44-.61,3.99,0,8.46.08,13.27.22l4.19.13-.32,4.18c-2.26,29.32,1.07,50.98,9.9,64.36,8.74,13.25,20.54,20.5,36.07,22.16,1.68.07,3.14.11,4.34.11,2.31,0,3.12-.13,3.31-.17,3.16-.65,6.1-1.44,8.77-2.36,9.63-3.33,17.47-8.95,23.3-16.71,5.84-7.77,9.29-20.29,10.26-37.23,1-17.36-1.85-40.81-8.48-69.7l-.96-4.2,4.26-.65c14.13-2.16,25.31-3.45,33.22-3.85,1.7-.08,3.39-.13,5.01-.13,6.17,0,11.86.62,16.93,1.85,9.69,2.34,12.4,7.64,12.98,11.67l.02.16c3.82,37.42,4.26,69.45,1.31,95.2-3,26.18-10.77,47.8-23.11,64.27-12.49,16.67-30.99,27.9-54.97,33.36l-.21.04c-2.41.74-4.46,1.32-6.41,1.83-5.97,1.59-12.38,2.9-19.02,3.89-3.97.58-8.15,1.13-12.43,1.63l-4.59.54.03-.91Z"/>
      <path class="cls-2" d="M801.08,144.9c5.88,0,11.21.58,15.99,1.73,6.05,1.46,9.38,4.25,9.96,8.35,3.81,37.31,4.25,68.75,1.32,94.34-2.93,25.59-10.38,46.36-22.34,62.33-11.96,15.97-29.52,26.59-52.66,31.86-.1.02-.2.04-.3.06-2.11.65-4.24,1.27-6.44,1.85-5.86,1.56-12.06,2.83-18.6,3.81-4.01.59-8.11,1.12-12.3,1.61v-.3c-2.29,0-4.59-.1-6.88-.29-22.76-1.86-41.29-8.89-55.59-21.09-14.31-12.21-24.54-26.78-30.69-43.72-6.15-16.94-9.28-34.06-9.38-51.34v-31.05c0-4.2,2.56-7.37,7.69-9.52,5.13-2.15,11.13-3.54,18.02-4.17,4.26-.39,9.62-.59,16.08-.59,3.97,0,8.35.07,13.15.22-2.34,30.37,1.17,52.66,10.55,66.87s22.41,22.19,39.11,23.95c1.8.08,3.34.12,4.64.12,1.95,0,3.33-.09,4.15-.26,3.32-.68,6.4-1.51,9.23-2.49,10.45-3.61,18.85-9.64,25.2-18.09,6.35-8.45,10.03-21.58,11.06-39.4,1.03-17.82-1.83-41.43-8.57-70.83,14.06-2.15,25-3.42,32.81-3.81,1.64-.08,3.25-.12,4.81-.12M801.08,136.9c-1.69,0-3.44.04-5.21.13-8.05.4-19.36,1.71-33.62,3.89l-8.51,1.3,1.92,8.4c6.54,28.52,9.36,51.59,8.38,68.58-.93,16.14-4.11,27.93-9.47,35.06-5.42,7.21-12.42,12.23-21.41,15.34-2.5.86-5.27,1.6-8.23,2.21h0c-.12.02-.79.1-2.53.1-1.12,0-2.47-.03-4.04-.1-14.21-1.56-25.01-8.22-33.03-20.37-8.33-12.62-11.44-33.43-9.25-61.85l.64-8.35-8.37-.26c-4.85-.15-9.36-.23-13.39-.23-6.67,0-12.32.21-16.81.62-7.67.71-14.52,2.31-20.38,4.76-10.96,4.6-12.6,12.56-12.6,16.9v31.05c.1,18.16,3.42,36.34,9.86,54.07,6.6,18.18,17.71,34.02,33.02,47.08,15.4,13.14,35.4,20.85,59.45,22.92l-.05,1.69,9.19-1.07c4.32-.5,8.54-1.06,12.53-1.64,6.82-1.02,13.37-2.36,19.5-3.99,1.93-.51,3.97-1.09,6.34-1.81h.04s.08-.03.08-.03c24.94-5.68,44.21-17.41,57.29-34.86,12.77-17.05,20.81-39.32,23.88-66.22,2.98-26.04,2.54-58.36-1.31-96.06l-.02-.16-.02-.16c-1.43-10.02-10.64-13.7-16-14.99-5.37-1.3-11.39-1.96-17.87-1.96h0Z"/>
    </g>
    <g>
      <path class="cls-1" d="M951.53,61.65c-1.26-2.92-3.14-5.18-5.73-6.9-1.71-1.17-3.34-1.73-5.02-1.73-.56,0-1.15.06-1.74.19-3.03.65-6.56,2.07-10.5,4.21l-3.01,1.72c-4.44,2.58-7.83,4.27-10.34,5.14-3,1.06-5.54,1.59-7.74,1.59h0c-.45,0-.9-.02-1.32-.07-2.97-.33-5.66-2.2-8.23-5.72-1.94-2.65-4.04-5.99-6.26-9.92-1.36-2.44-1.7-3.1-1.86-3.41l-3.34-6.74,7.46,1c1.12.15,2.31.23,3.52.23,1.55,0,3.2-.12,4.9-.37,1.75-.24,3.67-.86,5.72-1.84,1.36-.63,3.35-1.75,5.95-3.33,3.52-2.07,6.15-3.48,8.07-4.34,5.41-2.49,10.57-3.75,15.3-3.75s8.84,1.18,12.65,3.51c1.58.87,3.05,2.03,4.37,3.44,2.57,2.48,4.44,5.47,5.56,8.88,1.12,3.42,1.44,6.76.96,9.91-.21,1.6-.83,4.18-1.86,7.82l-3.07,10.76-4.45-10.27Z"/>
      <path class="cls-2" d="M937.38,31.6c3.89,0,7.44.99,10.64,2.97,1.27.68,2.44,1.61,3.52,2.78,2.15,2.05,3.69,4.49,4.61,7.32.93,2.83,1.19,5.52.81,8.06-.2,1.46-.78,3.91-1.76,7.32-1.56-3.61-3.96-6.49-7.18-8.64-2.33-1.6-4.74-2.4-7.24-2.4-.85,0-1.71.09-2.58.28-3.42.73-7.28,2.27-11.57,4.61-.68.39-1.71.98-3.08,1.76-4.2,2.44-7.42,4.05-9.67,4.83-2.56.91-4.7,1.36-6.42,1.36-.31,0-.61-.02-.9-.05-1.76-.19-3.57-1.56-5.42-4.1-1.86-2.54-3.86-5.71-6.01-9.52-.98-1.76-1.56-2.83-1.76-3.22,1.3.17,2.65.26,4.05.26,1.75,0,3.57-.14,5.47-.41,2.15-.29,4.44-1.03,6.88-2.2,1.46-.68,3.56-1.85,6.3-3.52,3.32-1.95,5.86-3.32,7.62-4.1,4.95-2.27,9.51-3.41,13.67-3.41M937.38,23.6s0,0,0,0c-5.3,0-11,1.39-16.97,4.12-2.05.92-4.79,2.39-8.38,4.49l-.05.03-.05.03c-3.08,1.87-4.71,2.72-5.53,3.1l-.04.02-.04.02c-1.68.81-3.19,1.3-4.51,1.48h-.03s-.03,0-.03,0c-1.52.22-2.98.33-4.34.33-1.04,0-2.05-.06-2.99-.19l-14.92-1.99,6.69,13.48c.19.39.56,1.08,1.93,3.55,2.31,4.11,4.51,7.58,6.54,10.36,3.22,4.41,6.92,6.88,11,7.33.6.06,1.19.09,1.78.09,2.66,0,5.63-.59,9.07-1.82,2.75-.96,6.35-2.74,11.01-5.45l2.98-1.7c3.57-1.94,6.72-3.21,9.35-3.78.32-.07.62-.1.9-.1.54,0,1.41.1,2.71,1l.05.03.05.03c1.93,1.29,3.33,2.98,4.27,5.16l8.89,20.54,6.14-21.53c1.09-3.82,1.72-6.49,1.98-8.38.56-3.76.19-7.69-1.12-11.68-1.32-4.01-3.5-7.52-6.51-10.44-1.57-1.67-3.32-3.05-5.21-4.1-4.42-2.69-9.35-4.05-14.66-4.05h0Z"/>
    </g>
    <g>
      <path class="cls-1" d="M878,281.3c-6.16,0-11.47-2.19-15.79-6.52-4.32-4.32-6.52-9.64-6.52-15.79v-50.88h42.92v-117.48h.76c1.05-3.27,3.66-6.77,9.51-9.27,5.5-2.36,11.97-3.86,19.25-4.48,4.22-.36,9.54-.54,15.81-.54,4.15,0,8.81.08,13.87.24l3.88.12v131.42h17.93v-119.78c0-4.08,1.75-9.69,10.11-13.27,5.48-2.35,11.94-3.9,19.2-4.62,4.93-.49,11.35-.74,19.06-.74,3.28,0,6.86.04,10.65.13l3.91.09v157.28c0,9.76-2.45,18.89-7.29,27.14-4.82,8.23-11.44,14.85-19.67,19.67-8.25,4.83-17.38,7.29-27.14,7.29h-110.45Z"/>
      <path class="cls-2" d="M1027.99,73.7c3.26,0,6.78.04,10.56.13v153.37c0,9.08-2.25,17.46-6.74,25.12-4.49,7.67-10.57,13.75-18.24,18.24-7.67,4.49-16.04,6.74-25.12,6.74h-110.45c-5.08,0-9.4-1.78-12.96-5.35-3.57-3.56-5.35-7.88-5.35-12.96v-46.88h42.92v-117.48h.15c0-4.2,2.56-7.4,7.69-9.59s11.13-3.59,18.02-4.17c4.13-.35,9.29-.53,15.47-.53,4.13,0,8.71.08,13.75.23v131.54h25.93v-123.78c0-4.2,2.56-7.4,7.69-9.59s11.13-3.64,18.02-4.32c4.82-.48,11.04-.72,18.67-.72M1027.99,65.7c-7.85,0-14.39.25-19.46.76-7.67.76-14.53,2.42-20.38,4.93-10.91,4.68-12.54,12.63-12.54,16.95v115.78h-9.93V72.81l-7.75-.24c-5.1-.16-9.81-.24-14-.24-6.39,0-11.82.19-16.15.56-7.71.66-14.6,2.27-20.49,4.79-5.65,2.42-8.82,5.73-10.55,8.95h-2.14v117.48h-42.92v54.88c0,7.15,2.66,13.59,7.69,18.62,5.03,5.03,11.47,7.69,18.62,7.69h110.45c10.48,0,20.29-2.64,29.17-7.84,8.82-5.17,15.92-12.27,21.09-21.09,5.2-8.88,7.84-18.69,7.84-29.17V66.01l-7.81-.18c-3.82-.09-7.43-.13-10.74-.13h0Z"/>
    </g>
    <g>
      <path class="cls-1" d="M1092.35,281.34c-2.42,0-5.03-.06-7.76-.19-3.24,0-6.3-.4-9.1-1.17-2.73-.75-5.91-2.03-9.45-3.79l-2.21-1.11V93.75c0-4.08,1.75-9.69,10.11-13.27,5.48-2.35,11.95-3.88,19.23-4.55,4.37-.4,9.9-.61,16.44-.61,3.99,0,8.46.08,13.27.22l3.88.12v195.49l-.96,1.12c-1.48,1.73-3.21,3.14-5.14,4.2-1.82,1-4.25,1.88-7.44,2.71-3.04.79-7.01,1.39-11.8,1.8-2.73.23-5.79.35-9.08.35Z"/>
      <path class="cls-2" d="M1109.63,79.32c3.97,0,8.35.07,13.15.22v190.14c-1.17,1.37-2.52,2.47-4.03,3.3-1.52.83-3.69,1.61-6.52,2.34-2.83.73-6.54,1.29-11.13,1.68-2.63.22-5.54.33-8.74.33-2.39,0-4.95-.06-7.66-.19-2.93,0-5.64-.34-8.13-1.03-2.49-.68-5.4-1.85-8.72-3.52V93.75c0-4.2,2.56-7.4,7.69-9.59s11.13-3.61,18.02-4.25c4.26-.39,9.62-.59,16.08-.59M1109.63,71.32c-6.67,0-12.32.21-16.81.62-7.69.71-14.57,2.35-20.44,4.86-10.91,4.68-12.54,12.63-12.54,16.95v183.8l4.42,2.21c3.82,1.91,7.15,3.25,10.18,4.08,3.1.85,6.49,1.29,10.05,1.31,2.76.12,5.4.19,7.85.19,3.41,0,6.58-.12,9.42-.36,5.08-.43,9.15-1.06,12.46-1.91,3.51-.91,6.25-1.91,8.36-3.07,2.35-1.29,4.46-3.01,6.26-5.11l1.92-2.25V71.79l-7.75-.24c-4.86-.15-9.36-.23-13.39-.23h0Z"/>
    </g>
    <g>
      <path class="cls-1" d="M1489.28,56.97c-4.44,0-8.11-1.91-10.61-5.53-.09-.13-.18-.27-.27-.4-2.42,1.92-6.04,3.29-11.18,4.24-1.54.33-3.08.49-4.58.49h0c-2.79,0-5.52-.57-8.13-1.7-3.97-1.72-7.22-4.42-9.64-8.03-2.44-3.63-3.68-7.71-3.68-12.12V10.3l1.17-1.17c1.94-1.94,4.79-2.93,8.47-2.93,2.91,0,7.05.61,12.66,1.85l3.13.7v3.5c1.71-.9,3.83-1.36,6.33-1.36,2.9,0,7.03.6,12.63,1.85v-4.78l1.17-1.17c1.87-1.87,4.59-2.78,8.32-2.78,2.87,0,7.03.55,12.72,1.69l3.22.64v24.57l-.02.19c-.53,5.49-1.38,9.7-2.59,12.85-1.32,3.41-3.51,6.42-6.5,8.94-3.22,2.71-7.46,4.09-12.61,4.09Z"/>
      <path class="cls-2" d="M1495.07,8c2.59,0,6.57.54,11.94,1.61v21.09c-.49,5.08-1.27,9.01-2.34,11.79-1.08,2.78-2.86,5.23-5.35,7.32-2.49,2.1-5.84,3.15-10.03,3.15-3.13,0-5.57-1.27-7.32-3.81-1.76-2.54-2.64-5.57-2.64-9.08,0,2.74-.83,5.05-2.49,6.96-1.66,1.9-5.13,3.35-10.4,4.32-1.29.28-2.55.42-3.79.42-2.25,0-4.43-.46-6.54-1.37-3.27-1.42-5.91-3.61-7.91-6.59-2-2.98-3-6.27-3-9.89V11.96c1.17-1.17,3.05-1.76,5.64-1.76s6.52.59,11.79,1.76v21.83c2.25,0,3.61-.34,4.1-1.03.49-.68.68-2.15.59-4.39v-11.72c1.17-1.17,3.05-1.76,5.64-1.76s6.52.59,11.79,1.76v17.29c2.25,0,3.61-.44,4.1-1.32.49-.88.73-2.59.73-5.13V9.61c1.07-1.07,2.9-1.61,5.49-1.61M1495.07,0c-4.77,0-8.53,1.33-11.15,3.95l-2.34,2.34v1.54c-3.53-.64-6.38-.95-8.63-.95-.8,0-1.58.04-2.33.12v-1.46l-6.26-1.39c-5.9-1.31-10.32-1.95-13.53-1.95-4.77,0-8.58,1.38-11.3,4.1l-2.34,2.34v25.29c0,5.22,1.47,10.05,4.36,14.35,2.86,4.25,6.68,7.44,11.37,9.47,3.1,1.34,6.37,2.03,9.71,2.03,1.76,0,3.57-.19,5.36-.57,3.85-.72,6.99-1.68,9.53-2.93,3.1,3.05,7.18,4.7,11.76,4.7,6.12,0,11.23-1.69,15.19-5.03,3.51-2.96,6.09-6.51,7.65-10.55,1.35-3.5,2.28-8.05,2.85-13.91l.04-.38V3.05l-6.43-1.29c-5.95-1.19-10.37-1.77-13.51-1.77h0Z"/>
    </g>
    <g>
      <path class="cls-1" d="M1444.6,335.49c-7.13,0-13.4-2.66-18.65-7.91-5.25-5.25-7.91-11.52-7.91-18.65s2.66-13.4,7.91-18.65c5.25-5.25,11.52-7.91,18.65-7.91s13.4,2.66,18.65,7.91c5.25,5.25,7.91,11.52,7.91,18.65s-2.66,13.4-7.91,18.65c-5.25,5.25-11.53,7.91-18.65,7.91Z"/>
      <path class="cls-2" d="M1444.6,286.38c6.05,0,11.33,2.25,15.82,6.74,4.49,4.49,6.74,9.76,6.74,15.82s-2.25,11.33-6.74,15.82c-4.49,4.49-9.77,6.74-15.82,6.74s-11.33-2.25-15.82-6.74c-4.49-4.49-6.74-9.77-6.74-15.82s2.25-11.33,6.74-15.82c4.49-4.49,9.76-6.74,15.82-6.74M1444.6,278.38c-8.23,0-15.45,3.06-21.48,9.08-6.02,6.02-9.08,13.25-9.08,21.48s3.06,15.45,9.08,21.48c6.03,6.03,13.25,9.08,21.48,9.08s15.45-3.05,21.48-9.08c6.03-6.03,9.08-13.26,9.08-21.48s-3.06-15.45-9.08-21.48c-6.03-6.03-13.25-9.08-21.48-9.08h0Z"/>
    </g>
    <g>
      <path class="cls-1" d="M1260.03,339.16c-10.92,0-21.16-2.75-30.44-8.16-9.25-5.41-16.69-12.84-22.09-22.09-5.42-9.27-8.16-19.51-8.16-30.44v-64.16c0-4.08,1.75-9.69,10.11-13.27,5.5-2.36,11.97-3.86,19.25-4.48,4.22-.36,9.54-.54,15.81-.54,4.15,0,8.81.08,13.87.24l3.88.12v76.31c6.39-.81,11.57-1.88,15.44-3.19,4.36-1.48,7.45-3.19,9.18-5.07,1.67-1.82,2.66-3.78,3.03-6,.45-2.75.68-6.75.68-11.88V87.7l1.17-1.17c4.69-4.69,10.18-7.88,16.33-9.47,4.27-1.11,8.61-1.67,12.9-1.67,1.63,0,3.27.08,4.9.24,5.73.56,11.08,1.63,15.91,3.17,4.71,1.5,10.52,3.83,17.29,6.91l2.34,1.07v118.68c2.43.98,6.62,1.91,13.72,1.91h118.82c-1.99-3.06-3.35-6.6-4.03-10.55-.76-4.34-1.34-9.92-1.74-16.56-.47-6.61-1.11-11.47-1.92-14.42-.51-1.89-1.07-1.89-1.56-1.89-4.87,0-5.59,1.87-5.86,2.57-1.03,2.68-1.17,5.97-.4,9.78.87,4.31,3.03,10.61,6.43,18.73l2.32,5.54h-83.37l-.67-3.17c-2.95-13.87-4.83-25.6-5.57-34.86-.75-9.34-.52-19.39.67-29.85,1.22-10.68,4.29-20.92,9.12-30.43,4.96-9.78,12.7-17.82,22.99-23.9,10.25-6.06,23.55-9.13,39.54-9.13,14.98,0,27.18,2.17,36.28,6.46,9.33,4.4,16.12,10.34,20.17,17.64,3.9,7.02,6.3,14.38,7.14,21.86.79,7.1,1.15,15.92,1.05,26.19-.1,2.94-.15,5.11-.15,6.55,0,9.57,1.29,19.22,3.82,28.7,2.5,9.35,5.89,17.08,10.09,22.95,3.73,5.23,7.6,7.77,11.83,7.77h8.25v.03c3.13-.02,7.31-.03,12.51-.03v-46.58l1.17-1.17c4.83-4.83,12.75-7.18,24.22-7.18,5.36,0,11.01.46,16.8,1.37,5.7.89,13.14,2.49,22.11,4.76l3.02.76v42.52l-.09,6.47c10.55-.44,15.37-2.68,17.57-4.59,3.46-2.99,5.14-6.72,5.14-11.4,0-1.39-.09-2.99-.26-4.78l-5.27-35,1.43-1.43c4.83-4.83,12.7-7.18,24.07-7.18,5.45,0,11.16.46,16.95,1.37,5.71.89,13.1,2.5,21.98,4.76l3.01.77v57.48c10.76-.42,15.64-2.55,17.85-4.36,3.4-2.79,5.06-6.31,5.06-10.75-.05-1.08-1.04-9.98-5.54-45.79l-.24-1.94,1.38-1.38c4.83-4.83,12.75-7.18,24.22-7.18,5.36,0,11.01.46,16.8,1.37,5.7.89,13.14,2.49,22.11,4.76l3.02.76v57.98c.1,2.73.15,4.86.15,6.52,0,9.43-1.66,19.59-4.94,30.19-3.4,10.99-10.65,20.96-21.54,29.63-10.98,8.74-26.78,13.18-46.95,13.18-8.05,0-15.06-2.4-20.84-7.13-5.03-4.11-9.01-9.37-11.85-15.67-1.94,6.37-5.77,11.74-11.41,15.99-6.01,4.52-14.82,6.81-26.21,6.81-7.05,0-13.15-1.28-18.14-3.8-5.29-2.67-9.53-7.72-12.58-14.99-.8-1.91-1.49-4.01-2.07-6.31-1.53,2.51-3.37,4.82-5.52,6.9-7.15,6.94-15.54,11.78-24.93,14.39-9.09,2.53-17.54,3.81-25.09,3.81h-217.28v-.18c-2.61-.14-5.07-.37-7.35-.69-.01.18-.02.36-.04.53-.52,6.98-2.02,13.99-4.47,20.83-2.54,7.1-6.82,13.56-12.72,19.2-5.91,5.64-14.18,10.09-24.6,13.24-10.15,3.06-22.98,4.62-38.15,4.64-1.46.14-5.53.29-20.87.29Z"/>
      <path class="cls-2" d="M1469.95,73.24c14.45,0,25.98,2.03,34.57,6.08,8.59,4.05,14.72,9.38,18.38,15.97s5.88,13.38,6.67,20.36c.78,6.98,1.12,15.55,1.03,25.71-.1,2.93-.15,5.13-.15,6.59,0,9.96,1.32,19.87,3.96,29.74,2.64,9.86,6.2,17.94,10.69,24.24,4.49,6.3,9.52,9.45,15.09,9.45h4.25v.06c3.57-.04,10.39-.06,20.51-.06v-48.93c4-4,11.13-6.01,21.39-6.01,5.17,0,10.57.44,16.19,1.32,5.61.88,12.87,2.44,21.75,4.69v39.4l-.15,9.96.15.59c11.72,0,19.75-1.88,24.1-5.64,4.34-3.76,6.52-8.57,6.52-14.43,0-1.56-.1-3.32-.29-5.27l-4.98-33.11c4-4,11.08-6.01,21.24-6.01,5.27,0,10.72.44,16.33,1.32,5.61.88,12.82,2.44,21.61,4.69v58.45c11.91,0,20.04-1.78,24.39-5.35,4.34-3.56,6.52-8.18,6.52-13.84,0-1.27-1.86-16.7-5.57-46.29,4-4,11.13-6.01,21.39-6.01,5.17,0,10.57.44,16.19,1.32,5.61.88,12.87,2.44,21.75,4.69v54.93c.1,2.64.15,4.79.15,6.45,0,9.08-1.59,18.75-4.76,29-3.17,10.25-9.91,19.48-20.21,27.69-10.3,8.2-25.12,12.3-44.46,12.3-7.13,0-13.23-2.07-18.31-6.23-5.08-4.15-8.94-9.54-11.57-16.19-2.64-6.64-3.96-13.72-3.96-21.24,0,8.89-.78,16.38-2.34,22.49-1.56,6.1-5.01,11.16-10.33,15.16-5.32,4-13.26,6.01-23.8,6.01-6.45,0-11.89-1.12-16.33-3.37-4.45-2.25-8.01-6.57-10.69-12.96-2.69-6.4-4.03-15.5-4.03-27.32,0,11.23-3.35,20.09-10.03,26.59-6.69,6.5-14.43,10.96-23.22,13.4-8.79,2.44-16.8,3.66-24.02,3.66h-213.28v-.04c-5.84-.13-10.86-.64-15.09-1.54-.08,1.74-.18,3.39-.29,4.94-.49,6.64-1.9,13.23-4.25,19.78-2.34,6.54-6.25,12.43-11.72,17.65-5.47,5.22-13.14,9.32-23,12.3-9.87,2.98-22.27,4.47-37.21,4.47-1.56.2-8.45.29-20.65.29-10.25,0-19.73-2.54-28.42-7.62-8.69-5.08-15.58-11.96-20.65-20.65-5.08-8.69-7.62-18.16-7.62-28.42v-64.16c0-4.2,2.56-7.4,7.69-9.59s11.13-3.59,18.02-4.17c4.13-.35,9.29-.53,15.47-.53,4.13,0,8.71.08,13.75.23v76.9c8.79-.88,15.7-2.17,20.73-3.88,5.03-1.71,8.64-3.76,10.84-6.15,2.2-2.39,3.54-5.08,4.03-8.06.49-2.98.73-7.15.73-12.52V89.36c4.2-4.2,9.03-7.01,14.5-8.42,3.97-1.03,7.93-1.54,11.9-1.54,1.5,0,3.01.07,4.51.22,5.47.54,10.5,1.54,15.09,3,4.59,1.46,10.2,3.71,16.85,6.74v118.56c.22.13.43.26.66.39,3.66,2.05,9.35,3.08,17.07,3.08h134.18c-4.79,0-8.38-1.49-10.77-4.47-2.39-2.98-3.96-6.57-4.69-10.77-.73-4.2-1.3-9.57-1.68-16.11-.49-6.93-1.17-12.01-2.05-15.23s-2.69-4.83-5.42-4.83c-5.08,0-8.28,1.71-9.59,5.13-1.32,3.42-1.52,7.42-.59,12.01.93,4.59,3.15,11.08,6.67,19.48h-74.12c-2.93-13.77-4.76-25.22-5.49-34.35-.73-9.13-.51-18.82.66-29.08s4.08-19.95,8.72-29.08c4.64-9.13,11.79-16.55,21.46-22.27s22.17-8.57,37.5-8.57M1469.95,65.24c-16.71,0-30.7,3.26-41.57,9.68-10.96,6.47-19.21,15.06-24.52,25.53-5.05,9.94-8.26,20.63-9.53,31.79-1.22,10.72-1.46,21.02-.69,30.63.76,9.43,2.66,21.33,5.64,35.38l1.09,5.13h-25.2c-4.51,0-7.62-.39-9.72-.86v-118.31l-4.68-2.13c-7.01-3.19-12.8-5.51-17.73-7.08-5.1-1.63-10.73-2.75-16.74-3.34-1.76-.17-3.54-.26-5.29-.26-4.62,0-9.3.6-13.9,1.79-6.85,1.77-12.95,5.31-18.16,10.51l-2.34,2.34v160.49c0,4.91-.21,8.69-.63,11.23-.24,1.44-.88,2.69-2.02,3.94-.72.78-2.64,2.33-7.52,3.99-2.68.91-6.08,1.7-10.15,2.37v-75.57l-7.75-.24c-5.1-.16-9.81-.24-14-.24-6.38,0-11.82.19-16.15.56-7.71.66-14.6,2.27-20.49,4.79-10.91,4.68-12.54,12.63-12.54,16.95v64.16c0,11.64,2.93,22.56,8.71,32.45,5.76,9.85,13.67,17.77,23.53,23.53,9.89,5.78,20.81,8.71,32.45,8.71,16.01,0,19.73-.17,21.09-.29,15.46-.03,28.6-1.65,39.08-4.81,11.03-3.33,19.85-8.1,26.21-14.18,6.35-6.07,10.97-13.05,13.73-20.74,2.11-5.88,3.55-11.87,4.3-17.88l7.8.03h213.28c7.92,0,16.72-1.33,26.17-3.95,10.05-2.79,19.02-7.96,26.65-15.37.46-.45.91-.9,1.34-1.37,3.41,7.88,8.2,13.42,14.23,16.47,5.55,2.8,12.26,4.23,19.94,4.23,12.44,0,21.8-2.49,28.61-7.61,3.91-2.94,7.05-6.37,9.39-10.26,2.51,3.74,5.5,7.04,8.94,9.84,6.51,5.33,14.38,8.03,23.37,8.03,21.1,0,37.73-4.73,49.44-14.05,11.53-9.19,19.23-19.81,22.87-31.58,3.4-10.98,5.12-21.53,5.12-31.37,0-1.69-.05-3.84-.15-6.59v-61.02l-6.04-1.53c-9.09-2.3-16.66-3.92-22.47-4.83-6-.94-11.86-1.41-17.42-1.41-12.58,0-21.43,2.73-27.04,8.35l-2.77,2.77.49,3.88c4.51,35.96,5.4,43.99,5.5,45.46-.04,3.17-1.15,5.49-3.59,7.49-1,.82-3.87,2.47-11.32,3.19v-56.31l-6.02-1.54c-9-2.3-16.52-3.93-22.35-4.84-6-.94-11.91-1.41-17.57-1.41-12.48,0-21.28,2.73-26.9,8.35l-2.85,2.85.6,3.99,4.95,32.9c.16,1.61.23,3.06.23,4.29,0,3.55-1.16,6.13-3.75,8.38-.98.85-3.77,2.55-10.89,3.31l.03-2.05v-.06s0-.06,0-.06v-45.63l-6.04-1.53c-9.09-2.3-16.66-3.92-22.47-4.83-6-.94-11.86-1.41-17.42-1.41-12.58,0-21.43,2.73-27.04,8.35l-2.34,2.34v44.24c-1.63,0-3.13,0-4.51,0v-.02h-12.25c-1.05,0-4.23,0-8.57-6.09-3.91-5.49-7.1-12.78-9.48-21.67-2.44-9.14-3.68-18.45-3.68-27.67,0-1.4.05-3.53.14-6.32v-.1s0-.1,0-.1c.1-10.44-.26-19.41-1.07-26.67-.9-8.01-3.46-15.87-7.62-23.36-4.47-8.05-11.86-14.55-21.96-19.32-9.77-4.61-22.19-6.84-37.98-6.84h0ZM1482.52,168.22c.06-.02.13-.04.22-.06.47,2.17,1.03,5.94,1.49,12.4.04.63.08,1.24.12,1.85-.92-2.71-1.57-5.01-1.94-6.89-.59-2.92-.55-5.38.12-7.3h0Z"/>
    </g>
  </g>
  <g>
    <path class="cls-2" d="M228.22,700.98c1.95.58,3.96.8,6.05.67,2.08-.13,4.03-.69,5.85-1.66,2.75-1.46,4.75-3.6,6.01-6.41,1.26-2.81,1.54-5.72.83-8.74-.27-1.06-.7-2.09-1.3-3.09-.6-1-1.25-1.96-1.96-2.89-.09-.18-.26-.33-.5-.46-.24-.13-.37-.29-.37-.46.09-.35.13-.94.13-1.76s.13-1.36.4-1.63c.93-.84,1.72-1.78,2.36-2.82.64-1.04,1.19-2.09,1.63-3.16-.75-1.11-1.51-2.16-2.26-3.16-.75-1-1.55-1.98-2.39-2.96-.18-.22-.55-.53-1.13-.93-.58-.4-1.19-.82-1.83-1.26-.64-.44-1.24-.85-1.79-1.23-.55-.38-.96-.65-1.23-.83-.27-.18-.81-.54-1.63-1.1-.82-.55-1.71-1.16-2.66-1.83-.95-.66-1.84-1.27-2.66-1.83-.82-.55-1.36-.92-1.63-1.1-2.61,1.37-4.85,3.35-6.71,5.91-1.86,2.57-3.26,5.32-4.19,8.24-.89,3.19-1.4,6.41-1.53,9.67-.13,3.26.02,6.48.46,9.67.18,1.37.52,2.67,1.03,3.89.51,1.22,1.07,2.47,1.69,3.75.97,1.91,2.28,3.49,3.92,4.75,1.64,1.26,3.43,2.18,5.38,2.76Z"/>
    <path class="cls-2" d="M304.77,615.59c2.7,0,5.08-1.02,7.14-3.06,2.06-2.04,3.09-4.43,3.09-7.18s-1.03-5.14-3.09-7.18c-2.06-2.04-4.44-3.06-7.14-3.06s-5.14,1.02-7.18,3.06-3.06,4.43-3.06,7.18,1.02,5.14,3.06,7.18c2.04,2.04,4.43,3.06,7.18,3.06Z"/>
    <path class="cls-2" d="M284.17,615.59c2.75,0,5.14-1.02,7.18-3.06,2.04-2.04,3.06-4.43,3.06-7.18s-1.02-5.14-3.06-7.18c-2.04-2.04-4.43-3.06-7.18-3.06s-5.14,1.02-7.18,3.06-3.06,4.43-3.06,7.18,1.02,5.14,3.06,7.18c2.04,2.04,4.43,3.06,7.18,3.06Z"/>
    <path class="cls-2" d="M278.92,690.28c5.62,1.55,11.52,1.14,17.68-1.23,2.8-1.08,5.46-2.54,8-4.33.29,2.68,1.14,5.15,2.57,7.42,1.64,2.61,3.81,4.68,6.51,6.21,2.7,1.53,5.62,2.29,8.77,2.29h101.47c5.23,0,9.01-1.46,11.38-4.32,1.41,1.49,3.09,2.55,5.07,3.16,2.23.69,5.1,1.07,8.61,1.15v.02h93.16v-32.43c-1.2,1.2-2.28,1.94-3.26,2.23-.98.29-2.17.39-3.59.3h-1.06c-2.52,0-4.81-1.43-6.84-4.29-2.04-2.86-3.65-6.52-4.85-11-1.2-4.47-1.79-8.97-1.79-13.49,0-.66.02-1.66.07-2.99.04-4.61-.11-8.49-.46-11.66-.36-3.17-1.36-6.25-3.02-9.24-1.66-2.99-4.44-5.4-8.34-7.24-3.9-1.84-9.13-2.76-15.68-2.76-6.96,0-12.63,1.3-17.01,3.89s-7.63,5.96-9.73,10.1c-2.1,4.14-3.42,8.54-3.95,13.19-.53,4.65-.63,9.05-.3,13.19.33,4.14,1.16,9.34,2.49,15.58h33.62c-1.59-3.81-2.6-6.75-3.02-8.84-.42-2.08-.33-3.9.27-5.45s2.05-2.33,4.35-2.33c1.24,0,2.06.73,2.46,2.19.4,1.46.71,3.77.93,6.91.18,2.97.43,5.41.76,7.31.33,1.91,1.04,3.53,2.13,4.88,1.08,1.35,2.71,2.03,4.88,2.03h-60.87c-3.5,0-6.08-.47-7.74-1.4-1.02-.57-1.91-1.23-2.69-1.96v-8.67c0-6.11-2.3-10.62-6.91-13.52-4.61-2.9-10.81-4.35-18.61-4.35h-47.05v-3.12c4.12,0,7.59-.65,10.4-1.96,2.81-1.31,5.02-3,6.61-5.08,1.59-2.08,2.73-4.3,3.42-6.65.69-2.35,1.1-4.57,1.23-6.68.13-2.1.04-4.73-.27-7.88h-28.77c0,6.65-.43,12.23-1.3,16.75-.86,4.52-2.52,8.08-4.95,10.7-2.44,2.61-5.89,3.92-10.37,3.92v23.66h69.64c3.15,0,5.63.1,7.44.3,1.82.2,3.36.75,4.62,1.66,1.26.91,1.89,2.34,1.89,4.29h-95.22v.04c-2.21-.03-6.26-.04-12.16-.04v-20.87c.09-4.61-.04-8.49-.4-11.66-.35-3.17-1.37-6.25-3.06-9.24-1.68-2.99-4.46-5.4-8.34-7.24-3.88-1.84-9.11-2.76-15.72-2.76-7.13,0-13.11,2.05-17.94,6.15-4.83,4.1-8.38,9.15-10.67,15.15-2.28,6-3.42,11.91-3.42,17.71-.04,8.95,1.69,16.18,5.22,21.7s8.1,9.05,13.72,10.6ZM292.58,650.38c1.13-3.48,3.18-5.22,6.15-5.22,2.08,0,3.79,1.77,5.12,5.32,1.33,3.54,2.06,7.64,2.19,12.29h-15.08c-.04-4.78.5-8.91,1.63-12.39Z"/>
    <path class="cls-2" d="M566.75,697.59c3.48,2.04,7.28,3.06,11.4,3.06h8.9c9.28.3,16.77-.76,22.49-3.15,1.12.88,2.38,1.55,3.79,1.99,2.17.67,4.95,1.05,8.34,1.14v.02h80.41c5.66,0,9.63-1.67,11.93-4.98,1.52,1.84,3.4,3.12,5.64,3.81,2.21.69,5.06,1.07,8.54,1.15v.02h10.17c4.12,0,7.92-1.02,11.4-3.06,3.48-2.04,6.23-4.79,8.27-8.27,2.04-3.48,3.06-7.28,3.06-11.4v-66.98c-5.71-.13-10.12-.04-13.22.27-3.1.31-5.83.96-8.17,1.96-2.35,1-3.52,2.45-3.52,4.35v53.23h-6.58c-3.5,0-6.08-.47-7.74-1.4-1.56-.87-2.83-1.93-3.82-3.16v-7.47c0-12.09-3.05-20.31-9.14-24.65-6.09-4.34-13.77-6.51-23.02-6.51-4.03-.04-9.14.59-15.32,1.89s-12.64,3.26-19.37,5.85c-6.73,2.59-13.14,5.8-19.2,9.63-.31.2-.61.4-.92.6-.21-1.47-.46-3.03-.74-4.69-2.39-.62-5.34-1.25-8.84-1.89-3.5-.64-7.17-.92-11-.83-3.83.09-6.7.97-8.61,2.66-.18.18-.24.38-.2.6l2.39,14.62c-.27,2.3-.65,4.16-1.16,5.58-.51,1.42-1.39,2.83-2.62,4.25-1.24,1.42-2.96,2.59-5.15,3.52-2.19.93-4.88,1.4-8.07,1.4h-6.71v-53.23c0-1.9-1.16-3.36-3.49-4.35s-5.05-1.65-8.17-1.96-7.54-.4-13.26-.27v66.98c0,4.12,1.02,7.92,3.06,11.4,2.04,3.48,4.79,6.24,8.27,8.27ZM658.75,659.71c9.61-1.64,18.18-2.7,25.72-3.19,3.76,0,6.59.73,8.47,2.19,1.88,1.46,2.71,3.31,2.49,5.55-.22,2.24-1.44,4.4-3.65,6.48h-60.92c.22-1.1.39-2.19.55-3.28,8.93-3.58,18.04-6.17,27.35-7.76Z"/>
    <path class="cls-2" d="M669.72,620.91c2.75,0,5.14-1.02,7.18-3.06,2.04-2.04,3.06-4.43,3.06-7.18s-1.02-5.14-3.06-7.18c-2.04-2.04-4.43-3.06-7.18-3.06s-5.14,1.02-7.18,3.06-3.06,4.43-3.06,7.18,1.02,5.14,3.06,7.18c2.04,2.04,4.43,3.06,7.18,3.06Z"/>
    <path class="cls-2" d="M778.76,700.58c2.88.13,5.36.11,7.44-.07,2.08-.18,3.77-.43,5.05-.76,1.28-.33,2.27-.69,2.96-1.06.69-.38,1.3-.88,1.83-1.5v-86.25c-5.71-.18-10.13-.12-13.26.17s-5.85.93-8.17,1.93c-2.33,1-3.49,2.45-3.49,4.35v81.14c1.51.75,2.82,1.29,3.95,1.59,1.13.31,2.36.46,3.69.46Z"/>
    <path class="cls-2" d="M874.72,620.24c2.7,0,5.08-1.02,7.14-3.06,2.06-2.04,3.09-4.43,3.09-7.18s-1.03-5.14-3.09-7.18c-2.06-2.04-4.44-3.06-7.14-3.06s-5.14,1.02-7.18,3.06-3.06,4.43-3.06,7.18,1.02,5.14,3.06,7.18c2.04,2.04,4.43,3.06,7.18,3.06Z"/>
    <path class="cls-2" d="M846.97,698.12c4.67,2.57,10.27,3.85,16.78,3.85,9.88,0,17.71-2.4,23.49-7.21,5.78-4.81,9.49-10.95,11.13-18.44,1.64-7.49,1.46-15.16-.53-23.03-1.99-7.86-5.48-14.67-10.47-20.43-4.98-5.76-10.89-9.3-17.71-10.63-6.6-1.28-12.74-.13-18.41,3.46-5.67,3.59-10.2,9.25-13.59,16.98-3.39,7.73-5.08,16.84-5.08,27.34,0,6.6,1.23,12.29,3.69,17.08s6.02,8.46,10.7,11.03ZM859.03,657.29c.22-2.55.79-4.65,1.69-6.31.91-1.66,2.29-2.49,4.15-2.49,2.92,0,5.13,1,6.61,2.99,1.48,1.99,2.29,4.5,2.43,7.51.13,3.01-.24,5.96-1.13,8.84-.4,1.29-1.14,2.33-2.23,3.12-1.09.8-2.32,1.2-3.69,1.2h-3.26c-1.33,0-2.47-.48-3.42-1.43-.95-.95-1.43-2.09-1.43-3.42-.04-4.12.04-7.45.27-10Z"/>
    <path class="cls-2" d="M854.12,620.24c2.75,0,5.14-1.02,7.18-3.06s3.06-4.43,3.06-7.18-1.02-5.14-3.06-7.18c-2.04-2.04-4.43-3.06-7.18-3.06s-5.14,1.02-7.18,3.06-3.06,4.43-3.06,7.18,1.02,5.14,3.06,7.18c2.04,2.04,4.43,3.06,7.18,3.06Z"/>
    <path class="cls-2" d="M931.1,736.43c6.67-1.97,11.86-4.7,15.58-8.17,3.72-3.48,6.4-7.37,8.04-11.66,1.64-4.3,2.63-8.54,2.99-12.73.15-1.76.26-3.69.35-5.76.9.58,1.88,1.05,2.94,1.38,2.23.69,5.1,1.07,8.61,1.15v.02h29.64c5.58,0,10.84-1.25,15.78-3.75,1.91-.97,3.67-2.09,5.31-3.35.3.54.61,1.04.94,1.49,1.62,2.19,3.68,3.68,6.18,4.45,2.24.69,5.11,1.07,8.61,1.15v.02c11.56.66,20.17-.61,25.82-3.82,5.65-3.21,9.36-7.1,11.13-11.66.13-.35.38-.5.73-.43.35.07.55.28.6.63.49,4.25,1.63,7.48,3.42,9.67,1.79,2.19,4.22,3.68,7.28,4.45,2.77.7,6.36,1.08,10.77,1.15h0s10.17.01,10.17.01c4.12,0,7.92-1.02,11.4-3.06,3.48-2.04,6.23-4.79,8.27-8.27,2.04-3.48,3.06-7.28,3.06-11.4v-66.98c-5.71-.13-10.12-.04-13.22.27-3.1.31-5.83.96-8.17,1.96-2.35,1-3.52,2.45-3.52,4.35v53.23h-6.58c-4.3,0-7.48-.47-9.54-1.4-2.06-.93-3.71-2.06-4.95-3.39-.18-.13-.29-.24-.33-.33-1.42-1.42-2.36-3.51-2.82-6.28-.47-2.77-.63-5.48-.5-8.14.13-2.66.35-5.38.66-8.17.09-.75.13-1.24.13-1.46.04-.4-.13-.64-.53-.73-2.39-.62-5.34-1.25-8.84-1.89-3.5-.64-7.17-.92-11-.83-3.83.09-6.7.97-8.61,2.66-.18.18-.24.38-.2.6l2.39,14.62c-.27,2.3-.65,4.16-1.16,5.58-.51,1.42-1.39,2.83-2.62,4.25-1.24,1.42-2.96,2.59-5.15,3.52-2.19.93-4.88,1.4-8.07,1.4v.07h-3.44c.07-.92.12-1.85.12-2.79v-25.58c0-.62.02-1.59.07-2.92.04-4.61-.11-8.49-.46-11.66-.35-3.17-1.37-6.25-3.06-9.24-1.68-2.99-4.46-5.42-8.34-7.28-3.88-1.86-9.11-2.79-15.72-2.79-10.37,0-17.99,3.33-22.86,10-4.87,6.67-7.89,14.83-9.04,24.49-.4,3.54.15,6.9,1.66,10.07,1.51,3.17,3.73,5.7,6.68,7.61,2.95,1.91,6.21,2.86,9.8,2.86h26.51c-1.37,4.83-3.7,7.24-6.98,7.24h-18.21c-4.83-.04-9.48-.07-13.95-.07h-9.24v.07h-11.64l-.39-23.52c-2.97-1.42-5.49-2.46-7.58-3.12-2.08-.67-4.38-1.12-6.88-1.36-2.5-.24-4.98-.03-7.44.63-2.46.67-4.64,1.95-6.55,3.85,1.55,10.81,2.62,19.37,3.22,25.68.6,6.31.9,11.93.9,16.85,0,3.63-.86,6.51-2.59,8.64-1.73,2.13-4.56,3.69-8.51,4.68-3.94,1-9.28,1.5-16.01,1.5v34.55c9.97.13,18.28-.79,24.95-2.76ZM1004.16,652.41c-.04-4.78.5-8.91,1.63-12.39,1.13-3.48,3.2-5.22,6.21-5.22,2.08,0,3.78,1.76,5.08,5.28,1.31,3.52,2.03,7.63,2.16,12.33h-15.08Z"/>
    <path class="cls-2" d="M1016.39,602.3c2.7,0,5.08-1.02,7.14-3.06,2.06-2.04,3.09-4.43,3.09-7.18s-1.03-5.14-3.09-7.18c-2.06-2.04-4.44-3.06-7.14-3.06s-5.14,1.02-7.18,3.06c-2.04,2.04-3.06,4.43-3.06,7.18s1.02,5.14,3.06,7.18c2.04,2.04,4.43,3.06,7.18,3.06Z"/>
    <path class="cls-2" d="M995.79,602.3c2.75,0,5.14-1.02,7.18-3.06s3.06-4.43,3.06-7.18-1.02-5.14-3.06-7.18c-2.04-2.04-4.43-3.06-7.18-3.06s-5.14,1.02-7.18,3.06-3.06,4.43-3.06,7.18,1.02,5.14,3.06,7.18c2.04,2.04,4.43,3.06,7.18,3.06Z"/>
    <path class="cls-2" d="M1078.19,722.18c2.04-2.04,3.06-4.43,3.06-7.18s-1.02-5.14-3.06-7.18-4.43-3.06-7.18-3.06-5.14,1.02-7.18,3.06c-2.04,2.04-3.06,4.43-3.06,7.18s1.02,5.14,3.06,7.18c2.04,2.04,4.43,3.06,7.18,3.06s5.14-1.02,7.18-3.06Z"/>
    <path class="cls-2" d="M1146.36,700.58c2.88.13,5.36.11,7.44-.07,2.08-.18,3.77-.43,5.05-.76,1.28-.33,2.27-.69,2.96-1.06.69-.38,1.3-.88,1.83-1.5v-86.25c-5.71-.18-10.13-.12-13.26.17s-5.85.93-8.17,1.93c-2.33,1-3.49,2.45-3.49,4.35v81.14c1.51.75,2.82,1.29,3.95,1.59,1.13.31,2.36.46,3.69.46Z"/>
    <path class="cls-2" d="M1245.64,648.82c2.75,0,5.14-1.02,7.18-3.06s3.06-4.43,3.06-7.18-1.02-5.14-3.06-7.18c-2.04-2.04-4.43-3.06-7.18-3.06s-5.14,1.02-7.18,3.06-3.06,4.43-3.06,7.18,1.02,5.14,3.06,7.18c2.04,2.04,4.43,3.06,7.18,3.06Z"/>
    <path class="cls-2" d="M1201.45,691.15c.66,2.39,2.24,4.57,4.72,6.54,2.48,1.97,6.18,2.96,11.1,2.96h55.35c11.07.35,19.61-1.21,25.62-4.68,6-3.48,10.44-7.52,13.32-12.13,1.9-3.06,3.32-6.49,4.25-10.3.93-3.81,1.48-7.58,1.66-11.3.18-3.72.14-7.12-.1-10.2-.24-3.08-.74-6.81-1.5-11.2-2.39-.62-5.34-1.25-8.84-1.89-3.5-.64-7.17-.92-11-.83-3.83.09-6.7.97-8.6,2.66-.18.18-.24.38-.2.6l2.39,14.62c-.27,2.3-.65,4.16-1.16,5.58-.51,1.42-1.38,2.83-2.62,4.25-1.24,1.42-2.96,2.59-5.15,3.52-2.19.93-4.88,1.4-8.07,1.4h-47.78v-22.39c-1.29-1.24-3.2-1.98-5.75-2.23-2.55-.24-5.19-.2-7.94.13-2.75.33-6.4,1.03-10.96,2.09v34.16c0,.13.02.38.07.73.13,2.88.53,5.52,1.2,7.91Z"/>
    <path class="cls-2" d="M1266.24,648.82c2.7,0,5.08-1.02,7.14-3.06,2.06-2.04,3.09-4.43,3.09-7.18s-1.03-5.14-3.09-7.18c-2.06-2.04-4.44-3.06-7.14-3.06s-5.14,1.02-7.18,3.06c-2.04,2.04-3.06,4.43-3.06,7.18s1.02,5.14,3.06,7.18c2.04,2.04,4.43,3.06,7.18,3.06Z"/>
    <path class="cls-2" d="M1395.29,725.24c2.75,0,5.14-1.02,7.18-3.06,2.04-2.04,3.06-4.43,3.06-7.18s-1.02-5.14-3.06-7.18-4.43-3.06-7.18-3.06-5.14,1.02-7.18,3.06c-2.04,2.04-3.06,4.43-3.06,7.18s1.02,5.14,3.06,7.18c2.04,2.04,4.43,3.06,7.18,3.06Z"/>
    <path class="cls-2" d="M1466.24,632.2c2.74,0,5.13-1.02,7.17-3.06,2.04-2.04,3.05-4.43,3.05-7.18s-1.02-5.14-3.05-7.18c-2.04-2.04-4.43-3.06-7.17-3.06s-5.14,1.02-7.17,3.06c-2.04,2.04-3.05,4.43-3.05,7.18s1.02,5.14,3.05,7.18c2.04,2.04,4.43,3.06,7.17,3.06Z"/>
    <path class="cls-2" d="M1486.83,632.2c2.7,0,5.08-1.02,7.14-3.06,2.06-2.04,3.09-4.43,3.09-7.18s-1.03-5.14-3.09-7.18c-2.06-2.04-4.44-3.06-7.14-3.06s-5.14,1.02-7.17,3.06c-2.04,2.04-3.05,4.43-3.05,7.18s1.02,5.14,3.05,7.18c2.04,2.04,4.43,3.06,7.17,3.06Z"/>
    <path class="cls-2" d="M1536.03,632.21c2.75,0,5.14-1.02,7.18-3.06s3.06-4.43,3.06-7.18-1.02-5.14-3.06-7.18c-2.04-2.04-4.43-3.06-7.18-3.06s-5.14,1.02-7.18,3.06-3.06,4.43-3.06,7.18,1.02,5.14,3.06,7.18c2.04,2.04,4.43,3.06,7.18,3.06Z"/>
    <path class="cls-2" d="M1644.27,656.43c-1.99-7.86-5.48-14.67-10.47-20.43-4.98-5.76-10.89-9.3-17.71-10.63-6.42-1.24-12.42-.17-17.97,3.22-5.56,3.39-10.06,8.75-13.49,16.08-3.43,7.33-5.28,16.03-5.55,26.08h-9.77c-4.3,0-7.48-.47-9.54-1.4-2.06-.93-3.71-2.06-4.95-3.39-.18-.13-.29-.24-.33-.33-1.42-1.42-2.36-3.51-2.82-6.28-.47-2.77-.63-5.48-.5-8.14.13-2.66.35-5.38.66-8.17.09-.75.13-1.24.13-1.46.04-.4-.13-.64-.53-.73-2.39-.62-5.34-1.25-8.84-1.89-3.5-.64-7.17-.92-11-.83-3.83.09-6.7.97-8.61,2.66-.18.18-.24.38-.2.6l2.39,14.62c-.27,2.3-.65,4.16-1.16,5.58-.51,1.42-1.39,2.83-2.62,4.25-1.24,1.42-2.96,2.59-5.15,3.52-2.11.89-4.69,1.35-7.72,1.38-3.8-.07-6.66-.52-8.56-1.38-2.06-.93-3.71-2.06-4.95-3.39-.18-.13-.29-.24-.33-.33-1.42-1.42-2.36-3.51-2.82-6.28-.47-2.77-.63-5.48-.5-8.14.13-2.66.35-5.38.66-8.17.09-.75.13-1.24.13-1.46.04-.4-.13-.64-.53-.73-2.39-.62-5.34-1.25-8.84-1.89-3.5-.64-7.17-.92-11-.83-3.83.09-6.7.97-8.61,2.66-.18.18-.24.38-.2.6l2.39,14.62c-.27,2.3-.65,4.16-1.16,5.58-.51,1.42-1.39,2.83-2.62,4.25-1.24,1.42-2.96,2.59-5.15,3.52-2.19.93-4.88,1.4-8.07,1.4h-.66c-2.52,0-4.81-1.43-6.84-4.29-2.04-2.86-3.65-6.52-4.85-11-1.2-4.47-1.79-8.97-1.79-13.49,0-.66.02-1.66.07-2.99.04-4.61-.11-8.49-.46-11.66-.36-3.17-1.36-6.25-3.02-9.24-1.66-2.99-4.44-5.4-8.34-7.24-3.9-1.84-9.13-2.76-15.68-2.76-6.96,0-12.63,1.3-17.01,3.89s-7.63,5.96-9.73,10.1c-2.1,4.14-3.42,8.54-3.95,13.19-.53,4.65-.63,9.05-.3,13.19.33,4.14,1.16,9.34,2.49,15.58h33.62c-1.59-3.81-2.6-6.75-3.02-8.84-.42-2.08-.33-3.9.27-5.45s2.05-2.33,4.35-2.33c1.24,0,2.06.73,2.46,2.19.4,1.46.71,3.77.93,6.91.18,2.97.43,5.41.76,7.31.33,1.91,1.04,3.53,2.13,4.88,1.08,1.35,2.71,2.03,4.88,2.03h-68.84v-53.23c0-1.9-1.16-3.36-3.49-4.35s-5.05-1.65-8.17-1.96-7.54-.4-13.26-.27v66.98c0,4.12,1.02,7.92,3.06,11.4,2.04,3.48,4.79,6.24,8.27,8.27,3.48,2.04,7.28,3.06,11.4,3.06h94.76c11.56.66,20.17-.61,25.82-3.82,5.65-3.21,9.36-7.1,11.13-11.66.13-.35.38-.5.73-.43.35.07.55.28.6.63.49,4.25,1.63,7.48,3.42,9.67,1.79,2.19,4.22,3.68,7.28,4.45,2.78.71,6.4,1.09,10.83,1.15h0c11.56.68,20.17-.6,25.82-3.81,5.65-3.21,9.36-7.1,11.13-11.66.13-.35.38-.5.73-.43.35.07.55.28.6.63.49,4.25,1.63,7.48,3.42,9.67,1.79,2.19,4.22,3.68,7.28,4.45,2.77.7,6.36,1.08,10.77,1.15h0s8.57.01,8.57.01c4.12,0,7.8-1.26,11.03-3.79,5.49,5.49,13.05,8.24,22.66,8.24s17.71-2.4,23.49-7.21c5.78-4.81,9.49-10.95,11.13-18.44,1.64-7.49,1.46-15.16-.53-23.03ZM1619.22,670.95c-.4,1.29-1.14,2.33-2.23,3.12-1.09.8-2.31,1.2-3.69,1.2h-3.19c-1.37,0-2.54-.48-3.49-1.43-.95-.95-1.43-2.09-1.43-3.42,0-4.12.11-7.45.33-10,.22-2.55.77-4.65,1.66-6.31.89-1.66,2.26-2.49,4.12-2.49,2.92,0,5.13,1,6.61,2.99,1.48,1.99,2.29,4.5,2.43,7.51.13,3.01-.24,5.96-1.13,8.84Z"/>
    <path class="cls-2" d="M1690.66,700.65h31.5c3.87,0,6.77-2.07,8.73-6.18.12.19.25.39.38.57,1.59,2.19,3.64,3.68,6.15,4.45,2.21.69,5.06,1.07,8.54,1.15v.02h93.16v-32.43c-1.2,1.2-2.28,1.94-3.26,2.23-.98.29-2.17.39-3.59.3h-1.06c-2.52,0-4.81-1.43-6.84-4.29-2.04-2.86-3.65-6.52-4.85-11-1.2-4.47-1.79-8.97-1.79-13.49,0-.66.02-1.66.07-2.99.04-4.61-.11-8.49-.46-11.66-.36-3.17-1.36-6.25-3.02-9.24-1.66-2.99-4.44-5.4-8.34-7.24-3.9-1.84-9.13-2.76-15.68-2.76-6.96,0-12.63,1.3-17.01,3.89s-7.63,5.96-9.73,10.1c-2.1,4.14-3.42,8.54-3.95,13.19-.53,4.65-.63,9.05-.3,13.19.33,4.14,1.16,9.34,2.49,15.58h33.62c-1.59-3.81-2.6-6.75-3.02-8.84-.42-2.08-.33-3.9.27-5.45s2.05-2.33,4.35-2.33c1.24,0,2.06.73,2.46,2.19.4,1.46.71,3.77.93,6.91.18,2.97.43,5.41.76,7.31.33,1.91,1.04,3.53,2.13,4.88,1.08,1.35,2.71,2.03,4.88,2.03h-60.8c-3.5,0-6.08-.47-7.74-1.4-1.66-.93-3-2.06-4.02-3.39-.13-.13-.22-.24-.27-.33-.17-.21-.33-.43-.5-.67-.1-6.78-.42-14.68-.96-23.71v-.8h-.07c-.35-4.78-.89-8.66-1.59-11.63-.71-2.97-1.87-5.94-3.49-8.9-1.62-2.97-3.85-5.44-6.71-7.41-2.86-1.97-6.39-2.96-10.6-2.96-8.82,0-15.36,3.2-19.64,9.6-4.28,6.4-6.89,13.35-7.84,20.83-.95,7.49-1.41,15.24-1.36,23.26v1.86h24.45v-20c0-2.66.56-4.49,1.69-5.48,1.13-1,2.25-1,3.36,0,1.11,1,1.66,2.82,1.66,5.48v25.58h-31.17v21.86c0,2.21.8,4.12,2.39,5.71s3.5,2.39,5.71,2.39Z"/>
    <path class="cls-2" d="M1877.31,596.99h-12.09c-.44-.44-.75-1.25-.93-2.43-.18-1.17-.14-2.26.1-3.26.24-1,.7-1.5,1.36-1.5.89,0,1.44.38,1.66,1.13.22.75.18,2.08-.13,3.99h9.24c.53-2.66.81-4.81.83-6.45.02-1.64-.22-3.29-.73-4.95-.51-1.66-1.48-3.03-2.92-4.12-1.44-1.08-3.42-1.63-5.95-1.63-3.01,0-5.33.55-6.94,1.66-1.62,1.11-2.71,2.7-3.29,4.78-.35,1.29-.49,2.95-.4,4.98.09,2.04.55,3.84,1.4,5.42.84,1.57,2.15,2.36,3.92,2.36h-5.18c-.71,0-1.39.66-2.03,1.99-.64,1.33-1.41,3.66-2.29,6.98v.07h24.39v-9.04Z"/>
    <path class="cls-2" d="M1860.04,700.58c2.88.13,5.36.11,7.44-.07,2.08-.18,3.77-.43,5.05-.76,1.28-.33,2.27-.69,2.96-1.06.69-.38,1.3-.88,1.83-1.5v-86.25c-5.71-.18-10.13-.12-13.26.17s-5.85.93-8.17,1.93c-2.33,1-3.49,2.45-3.49,4.35v81.14c1.51.75,2.82,1.29,3.95,1.59,1.13.31,2.36.46,3.69.46Z"/>
    <rect class="cls-2" x="1898.76" y="750.39" width="28.94" height="6.22" transform="translate(-70.14 210.85) rotate(-6.19)"/>
    <path class="cls-2" d="M1988.61,632.2c2.74,0,5.13-1.02,7.17-3.06,2.04-2.04,3.05-4.43,3.05-7.18s-1.02-5.14-3.05-7.18c-2.04-2.04-4.43-3.06-7.17-3.06s-5.14,1.02-7.17,3.06c-2.04,2.04-3.05,4.43-3.05,7.18s1.02,5.14,3.05,7.18c2.04,2.04,4.43,3.06,7.17,3.06Z"/>
    <path class="cls-2" d="M2009.19,632.2c2.7,0,5.08-1.02,7.14-3.06,2.06-2.04,3.09-4.43,3.09-7.18s-1.03-5.14-3.09-7.18c-2.06-2.04-4.44-3.06-7.14-3.06s-5.14,1.02-7.17,3.06c-2.04,2.04-3.05,4.43-3.05,7.18s1.02,5.14,3.05,7.18c2.04,2.04,4.43,3.06,7.17,3.06Z"/>
    <path class="cls-2" d="M2083.24,632.21c2.75,0,5.14-1.02,7.18-3.06s3.06-4.43,3.06-7.18-.96-4.98-2.88-6.98c.85.27,1.74.4,2.68.4,1.25,0,2.42-.24,3.51-.71-.04.04-.08.07-.12.11-2.04,2.04-3.06,4.43-3.06,7.18s1.02,5.14,3.06,7.18c2.04,2.04,4.43,3.06,7.18,3.06s5.08-1.02,7.14-3.06c2.06-2.04,3.09-4.43,3.09-7.18s-1.03-5.14-3.09-7.18c-2.06-2.04-4.44-3.06-7.14-3.06-1.45,0-2.8.29-4.05.86,1.86-1.86,2.79-4.03,2.79-6.51s-.93-4.58-2.79-6.45c-1.86-1.86-4.03-2.79-6.51-2.79s-4.64.93-6.48,2.79c-1.84,1.86-2.76,4.01-2.76,6.45s.83,4.41,2.47,6.2c-1.03-.36-2.12-.55-3.27-.55-2.75,0-5.14,1.02-7.18,3.06s-3.06,4.43-3.06,7.18,1.02,5.14,3.06,7.18c2.04,2.04,4.43,3.06,7.18,3.06Z"/>
    <path class="cls-2" d="M2144.78,641.51c-4.03-1.02-7.32-1.73-9.87-2.13-2.55-.4-5-.6-7.34-.6-4.65,0-7.89.91-9.7,2.72,1.68,13.42,2.53,20.42,2.53,21,0,2.57-.99,4.66-2.96,6.28-1.97,1.62-5.66,2.43-11.06,2.43v-26.51c-3.99-1.02-7.25-1.73-9.8-2.13-2.55-.4-5.02-.6-7.41-.6-4.61,0-7.82.91-9.64,2.72l2.26,15.02c.09.89.13,1.68.13,2.39,0,2.66-.99,4.84-2.96,6.54-1.97,1.71-5.62,2.56-10.93,2.56l-.07-.27.07-4.52v-17.88c-4.03-1.02-7.32-1.73-9.87-2.13-2.55-.4-5-.6-7.34-.6-4.65,0-7.89.91-9.7,2.72v22.19c-4.53,0-7.6,0-9.24.03v-.03c-4.3,0-7.48-.47-9.54-1.4-2.06-.93-3.71-2.06-4.95-3.39-.18-.13-.29-.24-.33-.33-1.42-1.42-2.36-3.51-2.82-6.28-.47-2.77-.63-5.48-.5-8.14.13-2.66.35-5.38.66-8.17.09-.75.13-1.24.13-1.46.04-.4-.13-.64-.53-.73-2.39-.62-5.34-1.25-8.84-1.89-3.5-.64-7.17-.92-11-.83-3.83.09-6.7.97-8.61,2.66-.18.18-.24.38-.2.6l2.39,14.62c-.27,2.3-.65,4.16-1.16,5.58-.51,1.42-1.39,2.83-2.62,4.25-1.24,1.42-2.96,2.59-5.15,3.52-2.19.93-4.88,1.4-8.07,1.4v.07h-11.7l-.39-23.52c-2.97-1.42-5.49-2.46-7.58-3.12-2.08-.67-4.38-1.12-6.88-1.36-2.5-.24-4.98-.03-7.44.63-2.46.67-4.64,1.95-6.55,3.85,1.55,10.81,2.62,19.37,3.22,25.68.6,6.31.9,11.93.9,16.85,0,3.63-.86,6.51-2.59,8.64-1.73,2.13-4.56,3.69-8.51,4.68-3.94,1-9.28,1.5-16.01,1.5v34.55c9.97.13,18.28-.79,24.95-2.76,6.67-1.97,11.86-4.7,15.58-8.17,3.72-3.48,6.4-7.37,8.04-11.66,1.64-4.3,2.63-8.54,2.99-12.73.15-1.76.26-3.69.35-5.76.9.58,1.88,1.05,2.94,1.38,2.24.69,5.13,1.08,8.67,1.15v.02c11.56.66,20.17-.61,25.82-3.82,5.65-3.21,9.36-7.1,11.13-11.66.13-.35.38-.5.73-.43.35.07.55.28.6.63.49,4.25,1.63,7.48,3.42,9.67,1.79,2.19,4.22,3.68,7.28,4.45,2.77.7,6.36,1.08,10.77,1.15h0s10.9.01,10.9.01c3.28,0,6.91-.55,10.9-1.66,3.99-1.11,7.5-3.13,10.53-6.08,3.03-2.95,4.55-6.97,4.55-12.06,0,5.36.61,9.49,1.83,12.39,1.22,2.9,2.83,4.86,4.85,5.88,2.02,1.02,4.49,1.53,7.41,1.53,4.78,0,8.38-.91,10.8-2.72,2.41-1.82,3.98-4.11,4.68-6.88.71-2.77,1.06-6.17,1.06-10.2,0,3.41.6,6.62,1.79,9.63,1.2,3.01,2.95,5.46,5.25,7.34,2.3,1.88,5.07,2.82,8.31,2.82,8.77,0,15.49-1.86,20.17-5.58,4.67-3.72,7.73-7.91,9.17-12.56,1.44-4.65,2.16-9.04,2.16-13.16,0-.75-.02-1.73-.07-2.92v-24.92Z"/>
    <path class="cls-2" d="M2170.56,700.58c2.88.13,5.36.11,7.44-.07,2.08-.18,3.77-.43,5.05-.76,1.28-.33,2.27-.69,2.96-1.06.69-.38,1.3-.88,1.83-1.5v-86.25c-5.71-.18-10.13-.12-13.26.17s-5.85.93-8.17,1.93c-2.33,1-3.49,2.45-3.49,4.35v81.14c1.51.75,2.82,1.29,3.95,1.59,1.13.31,2.36.46,3.69.46Z"/>
    <path class="cls-2" d="M136.75,825.53c.18-3.72.14-7.12-.1-10.2-.24-3.08-.74-6.81-1.5-11.2-2.39-.62-5.34-1.25-8.84-1.89-3.5-.64-7.17-.92-11-.83-3.83.09-6.7.97-8.61,2.66-.18.18-.24.38-.2.6l2.39,14.62c-.27,2.3-.65,4.16-1.16,5.58-.51,1.42-1.39,2.83-2.62,4.25-1.24,1.42-2.96,2.59-5.15,3.52-2.19.93-4.88,1.4-8.07,1.4h-.66c-2.52,0-4.81-1.43-6.84-4.29-2.04-2.86-3.65-6.52-4.85-11-1.2-4.47-1.79-8.97-1.79-13.49,0-.66.02-1.66.07-2.99.04-4.61-.11-8.49-.47-11.66-.35-3.17-1.36-6.25-3.02-9.24-1.66-2.99-4.44-5.4-8.34-7.24-3.9-1.84-9.13-2.76-15.68-2.76-6.96,0-12.63,1.3-17.01,3.89s-7.63,5.96-9.73,10.1c-2.1,4.14-3.42,8.54-3.95,13.19-.53,4.65-.63,9.05-.3,13.19.33,4.14,1.16,9.34,2.49,15.58h33.62c-1.59-3.81-2.6-6.75-3.02-8.84-.42-2.08-.33-3.9.27-5.45s2.05-2.33,4.35-2.33c1.24,0,2.06.73,2.46,2.19.4,1.46.71,3.77.93,6.91.18,2.97.43,5.41.76,7.31.33,1.91,1.04,3.53,2.13,4.88,1.09,1.35,2.71,2.03,4.88,2.03H0v17.48c0,7.66.47,14.55,1.4,20.67.93,6.11,3.21,12.08,6.84,17.91,3.63,5.82,9.44,10.6,17.41,14.32,7.97,3.72,18.54,5.58,31.7,5.58v-34.16c-7.27,0-12.8-.33-16.61-1-3.81-.66-6.59-1.83-8.34-3.49-1.75-1.66-2.87-4.13-3.36-7.41h62.86c11.07.35,19.61-1.21,25.62-4.68,6-3.48,10.44-7.52,13.32-12.13,1.9-3.06,3.32-6.49,4.25-10.3.93-3.81,1.48-7.58,1.66-11.3Z"/>
    <path class="cls-2" d="M107.98,868.06c-2.75,0-5.14,1.02-7.18,3.06-2.04,2.04-3.06,4.43-3.06,7.18s1.02,5.14,3.06,7.18c2.04,2.04,4.43,3.06,7.18,3.06s5.14-1.02,7.18-3.06c2.04-2.04,3.06-4.43,3.06-7.18s-1.02-5.14-3.06-7.18c-2.04-2.04-4.43-3.06-7.18-3.06Z"/>
    <path class="cls-2" d="M178.02,807.46c-2.08-.67-4.38-1.12-6.88-1.36-2.5-.24-4.98-.03-7.44.63-2.46.67-4.64,1.95-6.55,3.85,1.55,10.81,2.62,19.37,3.22,25.68.6,6.31.9,11.93.9,16.85,0,3.63-.86,6.51-2.59,8.64-1.73,2.13-4.56,3.69-8.51,4.68-3.94,1-9.28,1.5-16.01,1.5v34.55c9.97.13,18.28-.79,24.95-2.76,6.67-1.97,11.86-4.7,15.58-8.17,3.72-3.48,6.4-7.37,8.04-11.66,1.64-4.3,2.63-8.54,2.99-12.73.35-4.19.53-9.27.53-15.25v-1.46l-.66-39.87c-2.97-1.42-5.49-2.46-7.58-3.12Z"/>
    <path class="cls-2" d="M239.82,761.47c-2.04,2.04-3.06,4.43-3.06,7.18s1.02,5.14,3.06,7.18c2.04,2.04,4.43,3.06,7.18,3.06s5.14-1.02,7.18-3.06c2.04-2.04,3.06-4.43,3.06-7.18s-1.02-5.14-3.06-7.18c-2.04-2.04-4.43-3.06-7.18-3.06s-5.14,1.02-7.18,3.06Z"/>
    <path class="cls-2" d="M267.59,778.88c2.7,0,5.08-1.02,7.14-3.06,2.06-2.04,3.09-4.43,3.09-7.18s-1.03-5.14-3.09-7.18c-2.06-2.04-4.44-3.06-7.14-3.06s-5.14,1.02-7.18,3.06-3.06,4.43-3.06,7.18,1.02,5.14,3.06,7.18c2.04,2.04,4.43,3.06,7.18,3.06Z"/>
    <path class="cls-2" d="M422.29,857.73c2.13-4.14,3.21-8.29,3.26-12.46v-23.26c0-12.09-3.05-20.31-9.14-24.65-6.09-4.34-13.77-6.51-23.02-6.51-4.03-.04-9.14.59-15.32,1.89s-12.64,3.26-19.37,5.85c-6.73,2.59-13.14,5.8-19.2,9.63-.31.2-.61.4-.92.6-.21-1.47-.46-3.03-.74-4.69-2.39-.62-5.34-1.25-8.84-1.89-3.5-.64-7.17-.92-11-.83-3.83.09-6.7.97-8.61,2.66-.18.18-.24.38-.2.6l2.39,14.62c-.27,2.3-.65,4.16-1.16,5.58-.51,1.42-1.39,2.83-2.62,4.25-1.24,1.42-2.96,2.59-5.15,3.52-2.19.93-4.88,1.4-8.07,1.4v.04c-2.19-.03-6.27-.04-12.23-.04v-20.87c.09-4.61-.04-8.49-.4-11.66-.35-3.17-1.37-6.25-3.06-9.24-1.68-2.99-4.46-5.4-8.34-7.24-3.88-1.84-9.11-2.76-15.72-2.76-7.13,0-13.11,2.05-17.94,6.15-4.83,4.1-8.38,9.15-10.67,15.15-2.28,6-3.42,11.91-3.42,17.71-.04,8.95,1.69,16.18,5.22,21.7s8.1,9.05,13.72,10.6c5.62,1.55,11.52,1.14,17.68-1.23,2.8-1.08,5.46-2.54,8-4.33.29,2.68,1.14,5.15,2.57,7.42,1.64,2.61,3.81,4.68,6.51,6.21,2.7,1.53,5.62,2.29,8.77,2.29h9.3c9.05.29,16.4-.7,22.06-2.97,1.06.79,2.24,1.4,3.55,1.81,2.31.72,5.32,1.1,9,1.15h0s80.4.01,80.4.01c6.33,0,10.57-2.07,12.69-6.21ZM253.77,826.06c-.04-4.78.5-8.91,1.63-12.39,1.13-3.48,3.18-5.22,6.15-5.22,2.08,0,3.79,1.77,5.12,5.32,1.33,3.54,2.06,7.64,2.19,12.29h-15.08ZM402.95,827.56c-.22,2.24-1.44,4.4-3.65,6.48h-60.92c.22-1.1.39-2.19.55-3.28,8.93-3.58,18.04-6.17,27.35-7.76,9.61-1.64,18.18-2.7,25.72-3.19,3.76,0,6.59.73,8.47,2.19,1.88,1.46,2.71,3.31,2.49,5.55Z"/>
    <path class="cls-2" d="M510.6,748.18c-2.04,2.04-3.06,4.43-3.06,7.18s1.02,5.14,3.06,7.18c2.04,2.04,4.43,3.06,7.18,3.06s5.14-1.02,7.18-3.06,3.06-4.43,3.06-7.18-1.02-5.14-3.06-7.18c-2.04-2.04-4.43-3.06-7.18-3.06s-5.14,1.02-7.18,3.06Z"/>
    <path class="cls-2" d="M569.58,860.88c3.48-2.04,6.23-4.79,8.27-8.27,2.04-3.48,3.06-7.28,3.06-11.4v-66.98c-5.71-.13-10.12-.04-13.22.27-3.1.31-5.83.96-8.17,1.96-2.35,1-3.52,2.45-3.52,4.35v53.23h-7.97v.07h-3.37c.07-.92.12-1.85.12-2.79v-25.58c0-.62.02-1.59.07-2.92.04-4.61-.11-8.49-.46-11.66-.35-3.17-1.37-6.25-3.06-9.24-1.68-2.99-4.46-5.42-8.34-7.28-3.88-1.86-9.11-2.79-15.72-2.79-10.37,0-17.99,3.33-22.86,10-4.87,6.67-7.89,14.83-9.04,24.49-.4,3.54.15,6.9,1.66,10.07,1.51,3.17,3.73,5.7,6.68,7.61,2.95,1.91,6.21,2.86,9.8,2.86h26.51c-1.37,4.83-3.7,7.24-6.98,7.24h-18.21c-4.83-.04-9.48-.07-13.95-.07h-9.24v.07h-11.64l-.39-23.52c-2.97-1.42-5.49-2.46-7.58-3.12-2.08-.67-4.38-1.12-6.88-1.36-2.5-.24-4.98-.03-7.44.63-2.46.67-4.64,1.95-6.55,3.85,1.55,10.81,2.62,19.37,3.22,25.68.6,6.31.9,11.93.9,16.85,0,3.63-.86,6.51-2.59,8.64-1.73,2.13-4.56,3.69-8.51,4.68-3.94,1-9.28,1.5-16.01,1.5v34.55c9.97.13,18.28-.79,24.95-2.76,6.67-1.97,11.86-4.7,15.58-8.17,3.72-3.48,6.4-7.37,8.04-11.66,1.64-4.3,2.63-8.54,2.99-12.73.15-1.76.26-3.69.35-5.76.9.58,1.88,1.05,2.94,1.38,2.23.69,5.1,1.07,8.61,1.15v.02h29.64c5.58,0,10.84-1.25,15.78-3.75,1.91-.97,3.67-2.09,5.31-3.35.3.54.61,1.04.94,1.49,1.62,2.19,3.68,3.68,6.18,4.45,2.22.69,5.07,1.07,8.54,1.15v.02h10.17c4.12,0,7.92-1.02,11.4-3.06ZM516.18,815.7c-.04-4.78.5-8.91,1.63-12.39,1.13-3.48,3.2-5.22,6.21-5.22,2.08,0,3.78,1.76,5.08,5.28,1.31,3.52,2.03,7.63,2.16,12.33h-15.08Z"/>
    <path class="cls-2" d="M670.81,888.53c2.75,0,5.14-1.02,7.18-3.06,2.04-2.04,3.06-4.43,3.06-7.18s-1.02-5.14-3.06-7.18-4.43-3.06-7.18-3.06-5.14,1.02-7.18,3.06c-2.04,2.04-3.06,4.43-3.06,7.18s1.02,5.14,3.06,7.18c2.04,2.04,4.43,3.06,7.18,3.06Z"/>
    <path class="cls-2" d="M959.61,774.5c-3.1.31-5.83.96-8.17,1.96-2.35,1-3.52,2.45-3.52,4.35v53.23h-6.65c-3.5,0-6.08-.47-7.74-1.4-.18-.1-.33-.21-.5-.31,0-.71-.03-1.57-.06-2.61v-24.92c-4.03-1.02-7.32-1.73-9.87-2.13-2.55-.4-5-.6-7.34-.6-4.65,0-7.89.91-9.7,2.72,1.68,13.42,2.53,20.42,2.53,21,0,2.57-.99,4.66-2.96,6.28-1.97,1.62-5.66,2.43-11.06,2.43v-26.51c-3.99-1.02-7.25-1.73-9.8-2.13-2.55-.4-5.02-.6-7.41-.6-4.61,0-7.82.91-9.64,2.72l2.26,15.02c.09.89.13,1.68.13,2.39,0,2.66-.99,4.84-2.96,6.54-1.97,1.71-5.62,2.56-10.93,2.56l-.07-.27.07-4.52v-17.88c-4.03-1.02-7.32-1.73-9.87-2.13-2.55-.4-5-.6-7.34-.6-4.65,0-7.89.91-9.7,2.72v22.19c-4.59,0-7.69,0-9.3.03v-.03h-1.93c-2.52,0-4.81-1.43-6.84-4.29-2.04-2.86-3.65-6.52-4.85-11-1.2-4.47-1.79-8.97-1.79-13.49,0-.66.02-1.66.07-2.99.04-4.61-.11-8.49-.46-11.66-.36-3.17-1.36-6.25-3.02-9.24-1.66-2.99-4.44-5.4-8.34-7.24-3.9-1.84-9.13-2.76-15.68-2.76-6.96,0-12.63,1.3-17.01,3.89s-7.63,5.96-9.73,10.1c-2.1,4.14-3.42,8.54-3.95,13.19-.53,4.65-.63,9.05-.3,13.19.33,4.14,1.16,9.34,2.49,15.58h33.62c-1.59-3.81-2.6-6.75-3.02-8.84-.42-2.08-.33-3.9.27-5.45s2.05-2.33,4.35-2.33c1.24,0,2.06.73,2.46,2.19.4,1.46.71,3.77.93,6.91.18,2.97.43,5.41.76,7.31.33,1.91,1.04,3.53,2.13,4.88,1.08,1.35,2.71,2.03,4.88,2.03h-62.2v.07h-2.39c.57-2.88.93-5.74,1.06-8.57.18-3.72.14-7.12-.1-10.2-.24-3.08-.74-6.81-1.5-11.2-2.39-.62-5.34-1.25-8.84-1.89-3.5-.64-7.17-.92-11-.83-3.83.09-6.7.97-8.6,2.66-.18.18-.24.38-.2.6l2.39,14.62c-.27,2.3-.65,4.16-1.16,5.58-.51,1.42-1.38,2.83-2.62,4.25-1.24,1.42-2.96,2.59-5.15,3.52-2.19.93-4.88,1.4-8.07,1.4h-47.78v-22.39c-1.29-1.24-3.2-1.98-5.75-2.23-2.55-.24-5.19-.2-7.94.13-2.75.33-6.4,1.03-10.96,2.09v34.16c0,.13.02.38.07.73.13,2.88.53,5.52,1.2,7.91.66,2.39,2.24,4.57,4.72,6.54,2.48,1.97,6.18,2.96,11.1,2.96h55.35c11.07.35,19.61-1.21,25.62-4.68,1.65-.96,3.17-1.96,4.58-3,.38.77.79,1.46,1.23,2.07,1.59,2.19,3.64,3.68,6.15,4.45,2.23.69,5.1,1.07,8.6,1.15v.02h96.75c3.28,0,6.91-.55,10.9-1.66,3.99-1.11,7.5-3.13,10.53-6.08,3.03-2.95,4.55-6.97,4.55-12.06,0,5.36.61,9.49,1.83,12.39,1.22,2.9,2.83,4.86,4.85,5.88,2.02,1.02,4.49,1.53,7.41,1.53,4.78,0,8.38-.91,10.8-2.72,2.41-1.82,3.98-4.11,4.68-6.88.71-2.77,1.06-6.17,1.06-10.2,0,3.41.6,6.62,1.79,9.63,1.2,3.01,2.95,5.46,5.25,7.34,2.3,1.88,5.07,2.82,8.31,2.82,8.77,0,15.49-1.86,20.17-5.58.82-.66,1.58-1.33,2.3-2.01.37.73.76,1.4,1.19,1.98,1.59,2.19,3.64,3.68,6.15,4.45,2.23.69,5.1,1.07,8.61,1.15v.02h10.17c4.12,0,7.92-1.02,11.4-3.06,3.48-2.04,6.23-4.79,8.27-8.27,2.04-3.48,3.06-7.28,3.06-11.4v-66.98c-5.71-.13-10.12-.04-13.22.27Z"/>
    <path class="cls-2" d="M1007.78,860.48v-86.25c-5.71-.18-10.13-.12-13.26.17s-5.85.93-8.17,1.93c-2.33,1-3.49,2.45-3.49,4.35v81.14c1.51.75,2.82,1.29,3.95,1.59,1.13.31,2.36.46,3.69.46,2.88.13,5.36.11,7.44-.07,2.08-.18,3.77-.43,5.05-.76,1.28-.33,2.27-.69,2.96-1.06.69-.38,1.3-.88,1.83-1.5Z"/>
    <path class="cls-2" d="M1076.99,884.37c-2.02,2.06-3.02,4.44-3.02,7.14s1.03,5.14,3.09,7.18c2.06,2.04,4.44,3.06,7.14,3.06s5.14-1.03,7.18-3.09c2.04-2.06,3.06-4.46,3.06-7.21-.04-2.7-1.09-5.07-3.12-7.11s-4.43-3.06-7.18-3.06-5.13,1.03-7.14,3.09Z"/>
    <path class="cls-2" d="M1098.29,831.84c0,3.01-.74,5.44-2.23,7.28-1.48,1.84-4.3,3.33-8.44,4.49-4.14,1.15-10.18,1.97-18.11,2.46v-10.57s.11-.02.2-.07c1.64-.35,3.08-.74,4.32-1.16,1.24-.42,2.49-1.11,3.75-2.06,1.26-.95,2.35-2.31,3.26-4.09.91-1.77,1.46-4.08,1.66-6.91.2-2.83-.08-6.27-.83-10.3l-26.45.53c-2.52,0-4.61.44-6.25,1.33-1.64.89-2.81,1.93-3.52,3.12-.71,1.2-1.06,2.26-1.06,3.19-.18,4.56-.27,8.33-.27,11.3,0,2.7.07,4.56.2,5.58v42.59c9.3,0,17.64-.41,25.02-1.23,7.38-.82,13.8-1.97,19.27-3.46,5.47-1.49,10.11-3.21,13.92-5.18,3.81-1.97,6.94-4.09,9.4-6.35,2.46-2.26,4.4-4.61,5.81-7.04,1.42-2.44,2.46-4.84,3.12-7.21.66-2.37,1.07-4.59,1.23-6.68.15-2.08.23-4.36.23-6.84v-.33h5.12v25.52c0,1.29.69,2.28,2.06,2.99.88.33,1.75.58,2.62.75.93.29,1.91.45,2.96.45h50.57c5.58,0,10.84-1.25,15.78-3.75,4.94-2.5,8.96-6.01,12.06-10.53,3.76-5.4,5.65-11.52,5.65-18.34v-25.58c0-.62.02-1.59.07-2.92.04-4.61-.11-8.49-.46-11.66-.35-3.17-1.37-6.25-3.06-9.24-1.68-2.99-4.46-5.42-8.34-7.28-3.88-1.86-9.11-2.79-15.72-2.79-10.37,0-17.99,3.33-22.86,10-4.87,6.67-7.89,14.83-9.04,24.49-.4,3.54.15,6.9,1.66,10.07,1.51,3.17,3.73,5.7,6.68,7.61,2.95,1.91,6.21,2.86,9.8,2.86h26.51c-1.37,4.83-3.7,7.24-6.98,7.24h-18.21c-4.83-.04-9.48-.07-13.95-.07h-12.89v-.27c0-2.48-.35-5.53-1.06-9.14-.71-3.61-2.34-7.05-4.88-10.33-2.55-3.28-6.3-4.92-11.26-4.92h-37.08v22.46ZM1190.79,815.7c-.04-4.78.5-8.91,1.63-12.39,1.13-3.48,3.2-5.22,6.21-5.22,2.08,0,3.78,1.76,5.08,5.28,1.31,3.52,2.03,7.63,2.16,12.33h-15.08Z"/>
    <path class="cls-2" d="M1070.81,898.73c2.02-2.06,3.02-4.46,3.02-7.21s-1.03-5.07-3.09-7.11c-2.06-2.04-4.44-3.06-7.14-3.06s-5.14,1.03-7.18,3.09c-2.04,2.06-3.06,4.46-3.06,7.21.04,2.7,1.08,5.07,3.12,7.11,2.04,2.04,4.43,3.06,7.18,3.06s5.13-1.03,7.14-3.09Z"/>
    <path class="cls-2" d="M1192.38,765.59c2.75,0,5.14-1.02,7.18-3.06s3.06-4.43,3.06-7.18-1.02-5.14-3.06-7.18c-2.04-2.04-4.43-3.06-7.18-3.06s-5.14,1.02-7.18,3.06-3.06,4.43-3.06,7.18,1.02,5.14,3.06,7.18c2.04,2.04,4.43,3.06,7.18,3.06Z"/>
    <path class="cls-2" d="M1307.94,888.03c4.47-1.35,7.95-3.21,10.43-5.58,2.48-2.37,4.25-5.04,5.32-8.01,1.06-2.97,1.71-5.96,1.93-8.97.05-.7.1-1.46.13-2.24,1.92.41,4.2.64,6.84.7v.02h93.16v-32.43c-1.2,1.2-2.28,1.94-3.26,2.23-.98.29-2.17.39-3.59.3h-1.06c-2.52,0-4.81-1.43-6.84-4.29-2.04-2.86-3.65-6.52-4.85-11-1.2-4.47-1.79-8.97-1.79-13.49,0-.66.02-1.66.07-2.99.04-4.61-.11-8.49-.46-11.66-.36-3.17-1.36-6.25-3.02-9.24-1.66-2.99-4.44-5.4-8.34-7.24-3.9-1.84-9.13-2.76-15.68-2.76-6.96,0-12.63,1.3-17.01,3.89s-7.63,5.96-9.73,10.1c-2.1,4.14-3.42,8.54-3.95,13.19-.53,4.65-.63,9.05-.3,13.19.33,4.14,1.16,9.34,2.49,15.58h33.62c-1.59-3.81-2.6-6.75-3.02-8.84-.42-2.08-.33-3.9.27-5.45s2.05-2.33,4.35-2.33c1.24,0,2.06.73,2.46,2.19.4,1.46.71,3.77.93,6.91.18,2.97.43,5.41.76,7.31.33,1.91,1.04,3.53,2.13,4.88,1.08,1.35,2.71,2.03,4.88,2.03h-60.87c-3.5,0-6.08-.47-7.74-1.4-.1-.06-.2-.13-.3-.19v-53.77c-3.01-1.37-5.56-2.39-7.64-3.06-2.08-.66-4.36-1.12-6.84-1.36-2.48-.24-4.96-.04-7.44.6-2.48.64-4.67,1.92-6.58,3.82v71.3c0,2.44-.11,4.33-.33,5.68-.22,1.35-.83,2.57-1.83,3.66-1,1.09-2.64,2.02-4.92,2.79-2.28.78-5.42,1.36-9.4,1.76v-34.89c-5.71-.18-10.13-.13-13.26.13-3.12.27-5.85.9-8.17,1.89-2.33,1-3.49,2.45-3.49,4.35v29.1c0,4.65,1.15,8.95,3.46,12.89,2.3,3.94,5.43,7.07,9.37,9.37,3.94,2.3,8.24,3.46,12.89,3.46,5.54,0,8.66-.04,9.37-.13,6.78,0,12.4-.68,16.88-2.03Z"/>
    <path class="cls-2" d="M1375.38,745.13c-2.75,0-5.14,1.02-7.18,3.06s-3.06,4.43-3.06,7.18,1.02,5.14,3.06,7.18c2.04,2.04,4.43,3.06,7.18,3.06s5.14-1.02,7.18-3.06c2.04-2.04,3.06-4.43,3.06-7.18s-1.02-5.14-3.06-7.18c-2.04-2.04-4.43-3.06-7.18-3.06Z"/>
    <path class="cls-2" d="M1488.52,855c1.88-5.96,2.85-12.91,2.89-20.87.04-7.95-.29-17.82-1-29.6v-.8h-.07c-.35-4.78-.89-8.66-1.59-11.63-.71-2.97-1.87-5.94-3.49-8.9-1.62-2.97-3.85-5.44-6.71-7.41-2.86-1.97-6.39-2.96-10.6-2.96-8.82,0-15.36,3.2-19.64,9.6-4.28,6.4-6.89,13.35-7.84,20.83-.95,7.49-1.41,15.24-1.36,23.26v1.86h24.45v-20c0-2.66.56-4.49,1.69-5.48,1.13-1,2.25-1,3.36,0,1.11,1,1.66,2.82,1.66,5.48v25.58h-31.17v21.86c0,2.21.8,4.12,2.39,5.71s3.5,2.39,5.71,2.39h31.5c4.65,0,7.92-2.98,9.8-8.94Z"/>
    <path class="cls-2" d="M1512.27,863.87c2.88.13,5.36.11,7.44-.07,2.08-.18,3.77-.43,5.05-.76,1.28-.33,2.27-.69,2.96-1.06.69-.38,1.3-.88,1.83-1.5v-86.25c-5.71-.18-10.13-.12-13.26.17s-5.85.93-8.17,1.93c-2.33,1-3.49,2.45-3.49,4.35v81.14c1.51.75,2.82,1.29,3.95,1.59,1.13.31,2.36.46,3.69.46Z"/>
    <path class="cls-2" d="M1584.17,866.96c-1.55,1.22-4.04,1.95-7.48,2.19-3.43.24-9.45.32-18.04.23-5.71-.09-10.3-.13-13.75-.13v34.55c25.03,0,41.98-5.08,50.87-15.25,8.88-10.17,13.32-22.45,13.32-36.85v-9.77c0-2.61-.07-5.54-.2-8.77,0-5.89-.73-11.32-2.19-16.28-1.46-4.96-4.6-9.25-9.4-12.86-4.81-3.61-11.82-5.42-21.03-5.42-11.08,0-19.12,3.69-24.12,11.06-5.01,7.38-8.02,16.2-9.04,26.48-.53,5.41.14,10.3,2.03,14.69,1.88,4.39,4.96,7.86,9.24,10.43,4.27,2.57,9.6,3.85,15.98,3.85,2.88,0,5.34-.38,7.38-1.13,2.04-.75,3.64-1.67,4.82-2.76,1.17-1.08,2.04-2.18,2.59-3.29.55-1.11,1.01-2.55,1.36-4.32v6.98c0,3.01-.78,5.13-2.33,6.35ZM1578.39,851.05c-1.33,0-2.55-.4-3.65-1.2-1.11-.8-1.86-1.82-2.26-3.06-.89-2.92-1.26-5.88-1.13-8.87.13-2.99.94-5.49,2.43-7.51,1.48-2.01,3.69-3.02,6.61-3.02,1.95,0,3.38.9,4.29,2.69.91,1.79,1.45,4.02,1.63,6.68.18,2.66.24,6.29.2,10.9v3.39h-8.11Z"/>
    <path class="cls-2" d="M1672.85,856.86c1.26-2.81,1.54-5.72.83-8.74-.27-1.06-.7-2.09-1.3-3.09-.6-1-1.25-1.96-1.96-2.89-.09-.18-.26-.33-.5-.46-.24-.13-.37-.29-.37-.46.09-.35.13-.94.13-1.76s.13-1.36.4-1.63c.93-.84,1.72-1.78,2.36-2.82.64-1.04,1.19-2.09,1.63-3.16-.75-1.11-1.51-2.16-2.26-3.16-.75-1-1.55-1.98-2.39-2.96-.18-.22-.55-.53-1.13-.93-.58-.4-1.19-.82-1.83-1.26-.64-.44-1.24-.85-1.79-1.23-.55-.38-.96-.65-1.23-.83-.27-.18-.81-.54-1.63-1.1-.82-.55-1.71-1.16-2.66-1.83-.95-.66-1.84-1.27-2.66-1.83-.82-.55-1.36-.92-1.63-1.1-2.61,1.37-4.85,3.35-6.71,5.91-1.86,2.57-3.26,5.32-4.19,8.24-.89,3.19-1.4,6.41-1.53,9.67-.13,3.26.02,6.48.46,9.67.18,1.37.52,2.67,1.03,3.89.51,1.22,1.07,2.47,1.69,3.75.97,1.91,2.28,3.49,3.92,4.75,1.64,1.26,3.43,2.18,5.38,2.76,1.95.58,3.96.8,6.05.67,2.08-.13,4.03-.69,5.85-1.66,2.75-1.46,4.75-3.6,6.01-6.41Z"/>
    <path class="cls-2" d="M1738.67,888.03c4.47-1.35,7.95-3.21,10.43-5.58,2.48-2.37,4.25-5.04,5.32-8.01,1.06-2.97,1.71-5.96,1.93-8.97.22-3.01.31-6.78.27-11.3v-75.49c-3.01-1.37-5.56-2.39-7.64-3.06-2.08-.66-4.36-1.12-6.84-1.36-2.48-.24-4.96-.04-7.44.6-2.48.64-4.67,1.92-6.58,3.82v71.3c0,2.44-.11,4.33-.33,5.68-.22,1.35-.83,2.57-1.83,3.66-1,1.09-2.64,2.02-4.92,2.79-2.28.78-5.42,1.36-9.4,1.76v-34.89c-5.71-.18-10.13-.13-13.26.13-3.12.27-5.85.9-8.17,1.89-2.33,1-3.49,2.45-3.49,4.35v29.1c0,4.65,1.15,8.95,3.46,12.89,2.3,3.94,5.43,7.07,9.37,9.37,3.94,2.3,8.24,3.46,12.89,3.46,5.54,0,8.66-.04,9.37-.13,6.78,0,12.4-.68,16.88-2.03Z"/>
    <path class="cls-2" d="M1953.63,868.06c-2.75,0-5.14,1.02-7.18,3.06-2.04,2.04-3.06,4.43-3.06,7.18s1.02,5.14,3.06,7.18c2.04,2.04,4.43,3.06,7.18,3.06s5.14-1.02,7.18-3.06c2.04-2.04,3.06-4.43,3.06-7.18s-1.02-5.14-3.06-7.18c-2.04-2.04-4.43-3.06-7.18-3.06Z"/>
    <path class="cls-2" d="M1974.23,868.06c-2.75,0-5.14,1.02-7.18,3.06-2.04,2.04-3.06,4.43-3.06,7.18s1.02,5.14,3.06,7.18c2.04,2.04,4.43,3.06,7.18,3.06s5.08-1.02,7.14-3.06c2.06-2.04,3.09-4.43,3.09-7.18s-1.03-5.14-3.09-7.18c-2.06-2.04-4.44-3.06-7.14-3.06Z"/>
    <path class="cls-2" d="M1985.99,804.13c-2.39-.62-5.34-1.25-8.84-1.89-3.5-.64-7.17-.92-11-.83-3.83.09-6.7.97-8.61,2.66-.18.18-.24.38-.2.6l2.39,14.62c-.27,2.3-.65,4.16-1.16,5.58-.51,1.42-1.39,2.83-2.62,4.25-1.24,1.42-2.96,2.59-5.15,3.52-2.09.89-4.66,1.34-7.66,1.38-3.03-.08-5.31-.53-6.83-1.38-1.56-.87-2.83-1.93-3.82-3.16v-7.47c0-12.09-3.05-20.31-9.14-24.65-6.09-4.34-13.77-6.51-23.02-6.51-4.03-.04-9.14.59-15.32,1.89s-12.64,3.26-19.37,5.85c-6.73,2.59-13.14,5.8-19.2,9.63-.31.2-.61.4-.92.6-.21-1.47-.46-3.03-.74-4.69-2.39-.62-5.34-1.25-8.84-1.89-3.5-.64-7.17-.92-11-.83-3.83.09-6.7.97-8.61,2.66-.18.18-.24.38-.2.6l2.39,14.62c-.27,2.3-.65,4.16-1.16,5.58-.51,1.42-1.39,2.83-2.62,4.25-1.24,1.42-2.96,2.59-5.15,3.52-2.19.93-4.88,1.4-8.07,1.4h-6.71v-53.23c0-1.9-1.16-3.36-3.49-4.35s-5.05-1.65-8.17-1.96-7.54-.4-13.26-.27v66.98c0,4.12,1.02,7.92,3.06,11.4,2.04,3.48,4.79,6.24,8.27,8.27,3.48,2.04,7.28,3.06,11.4,3.06h8.9c9.28.3,16.77-.76,22.49-3.15,1.12.88,2.38,1.55,3.79,1.99,2.17.67,4.95,1.05,8.34,1.14v.02h80.41c5.66,0,9.63-1.67,11.93-4.98,1.52,1.84,3.4,3.12,5.64,3.81,2.23.69,5.1,1.07,8.6,1.15v.02c11.07.35,19.61-1.21,25.62-4.68,6-3.48,10.44-7.52,13.32-12.13,1.9-3.06,3.32-6.49,4.25-10.3.93-3.81,1.48-7.58,1.66-11.3.18-3.72.14-7.12-.1-10.2-.24-3.08-.74-6.81-1.5-11.2ZM1909.91,827.56c-.22,2.24-1.44,4.4-3.65,6.48h-60.92c.22-1.1.39-2.19.55-3.28,8.93-3.58,18.04-6.17,27.35-7.76,9.61-1.64,18.18-2.7,25.72-3.19,3.76,0,6.59.73,8.47,2.19,1.88,1.46,2.71,3.31,2.49,5.55Z"/>
    <path class="cls-2" d="M2027.86,887.99c.53-2.66.81-4.82.83-6.48.02-1.66-.22-3.31-.73-4.95-.51-1.64-1.48-3.01-2.92-4.12-1.44-1.11-3.42-1.66-5.95-1.66-3.01,0-5.33.55-6.94,1.66-1.62,1.11-2.71,2.72-3.29,4.85-.36,1.28-.49,2.95-.4,4.98.09,2.04.55,3.83,1.4,5.38.84,1.55,2.15,2.33,3.92,2.33h-5.18c-.71,0-1.38.67-2.03,2.03-.64,1.35-1.41,3.69-2.29,7.01h24.39v-8.97h-4.98c-2.92-.04-5.29-.07-7.11-.07-.44-.4-.75-1.19-.93-2.36-.18-1.17-.14-2.26.1-3.26.24-1,.7-1.5,1.36-1.5.89,0,1.44.38,1.66,1.13.22.75.18,2.08-.13,3.99h9.24Z"/>
    <path class="cls-2" d="M2068.82,771.91c-3.12.31-5.85.96-8.17,1.96-2.33,1-3.49,2.45-3.49,4.35v56.15h-11.76v-59.67c-5.71-.18-10.13-.13-13.26.13s-5.85.9-8.17,1.89-3.49,2.45-3.49,4.35h-.07v53.29h-19.47v21.26c0,2.3.81,4.26,2.43,5.88,1.62,1.62,3.58,2.43,5.88,2.43h50.1c4.12,0,7.92-1.02,11.4-3.06,3.48-2.04,6.23-4.79,8.27-8.27,2.04-3.48,3.06-7.28,3.06-11.4v-69.57c-5.71-.13-10.13-.04-13.26.27Z"/>
    <path class="cls-2" d="M2107.03,774.4c-3.12.29-5.85.93-8.17,1.93-2.33,1-3.49,2.45-3.49,4.35v81.14c1.51.75,2.82,1.29,3.95,1.59,1.13.31,2.36.46,3.69.46,2.88.13,5.36.11,7.44-.07,2.08-.18,3.77-.43,5.05-.76,1.28-.33,2.27-.69,2.96-1.06.69-.38,1.3-.88,1.83-1.5v-86.25c-5.71-.18-10.13-.12-13.26.17Z"/>
    <path class="cls-2" d="M2267.58,777.63c1.48.64,3.04.79,4.68.43,2.39-.44,3.96-1.1,4.72-1.96.75-.86,1.13-1.92,1.13-3.16,0,1.59.4,2.97,1.2,4.12.8,1.15,1.9,1.73,3.32,1.73,1.9,0,3.42-.48,4.55-1.43,1.13-.95,1.94-2.06,2.43-3.32.49-1.26.84-3.04,1.06-5.35v-9.57c-2.44-.49-4.24-.73-5.42-.73s-2,.24-2.49.73v8.11c0,1.15-.11,1.93-.33,2.33-.22.4-.84.6-1.86.6v-7.84c-2.39-.53-4.18-.8-5.35-.8s-2.03.27-2.56.8v5.32c.04,1.02-.04,1.68-.27,1.99-.22.31-.84.47-1.86.47v-9.9c-2.39-.53-4.18-.8-5.35-.8s-2.03.27-2.56.8v9.97c0,1.64.45,3.13,1.36,4.49.91,1.35,2.1,2.35,3.59,2.99Z"/>
    <path class="cls-2" d="M2403.43,833.74c-.98.29-2.17.39-3.59.3h-1.06c-2.52,0-4.81-1.43-6.84-4.29-2.04-2.86-3.65-6.52-4.85-11-1.2-4.47-1.79-8.97-1.79-13.49,0-.66.02-1.66.07-2.99.04-4.61-.11-8.49-.46-11.66-.36-3.17-1.36-6.25-3.02-9.24-1.66-2.99-4.44-5.4-8.34-7.24-3.9-1.84-9.13-2.76-15.68-2.76-6.96,0-12.63,1.3-17.01,3.89s-7.63,5.96-9.73,10.1c-2.1,4.14-3.42,8.54-3.95,13.19-.53,4.65-.63,9.05-.3,13.19.33,4.14,1.16,9.34,2.49,15.58h33.62c-1.59-3.81-2.6-6.75-3.02-8.84-.42-2.08-.33-3.9.27-5.45s2.05-2.33,4.35-2.33c1.24,0,2.06.73,2.46,2.19.4,1.46.71,3.77.93,6.91.18,2.97.43,5.41.76,7.31.33,1.91,1.04,3.53,2.13,4.88,1.08,1.35,2.71,2.03,4.88,2.03h-60.87c-1.27,0-2.41-.06-3.44-.19.13-4.64-.4-9.35-1.61-14.13-1.99-7.86-5.48-14.67-10.47-20.43-4.98-5.76-10.89-9.3-17.71-10.63-6.42-1.24-12.42-.17-17.97,3.22-5.56,3.39-10.06,8.75-13.49,16.08-3.43,7.33-5.28,16.03-5.55,26.08h-9.83c-3.5,0-6.08-.47-7.74-1.4-.1-.06-.2-.13-.3-.19v-53.77c-3.01-1.37-5.56-2.39-7.64-3.06-2.08-.66-4.36-1.12-6.84-1.36-2.48-.24-4.96-.04-7.44.6-2.48.64-4.67,1.92-6.58,3.82v71.3c0,2.44-.11,4.33-.33,5.68-.22,1.35-.83,2.57-1.83,3.66-1,1.09-2.64,2.02-4.92,2.79-2.28.78-5.42,1.36-9.4,1.76v-34.89c-5.71-.18-10.13-.13-13.26.13-3.12.27-5.85.9-8.17,1.89-2.33,1-3.49,2.45-3.49,4.35v29.1c0,4.65,1.15,8.95,3.46,12.89,2.3,3.94,5.43,7.07,9.37,9.37,3.94,2.3,8.24,3.46,12.89,3.46,5.54,0,8.66-.04,9.37-.13,6.78,0,12.4-.68,16.88-2.03,4.47-1.35,7.95-3.21,10.43-5.58,2.48-2.37,4.25-5.04,5.32-8.01,1.06-2.97,1.71-5.96,1.93-8.97.05-.7.1-1.46.13-2.24,1.92.41,4.2.64,6.84.7v.02h8.57c4.12,0,7.8-1.26,11.03-3.79,5.49,5.49,13.05,8.24,22.66,8.24s17.71-2.4,23.49-7.21c.41-.34.78-.7,1.17-1.05,1.3,1.22,2.81,2.11,4.55,2.65,2.23.69,5.1,1.07,8.61,1.15v.02h93.16v-32.43c-1.2,1.2-2.28,1.94-3.26,2.23ZM2284.75,834.24c-.4,1.29-1.14,2.33-2.23,3.12-1.09.8-2.31,1.2-3.69,1.2h-3.19c-1.37,0-2.54-.48-3.49-1.43-.95-.95-1.43-2.09-1.43-3.42,0-4.12.11-7.45.33-10,.22-2.55.77-4.65,1.66-6.31.89-1.66,2.26-2.49,4.12-2.49,2.92,0,5.13,1,6.61,2.99,1.48,1.99,2.29,4.5,2.43,7.51.13,3.01-.24,5.96-1.13,8.84Z"/>
    <path class="cls-2" d="M535.49,1015.3c-.13-.82-.44-1.58-.93-2.29-.58-.93-1.29-1.8-2.13-2.62-.84-.82-1.77-1.38-2.79-1.7-1.29-.31-2.58-.55-3.89-.73-1.31-.18-2.54,0-3.69.53-.71.31-1.41.71-2.09,1.2-.69.49-1.3,1.04-1.83,1.66-1.11,1.29-1.82,2.79-2.13,4.52-.18,1.06-.19,2.19-.03,3.39.15,1.2.56,2.24,1.23,3.12.49.71,1.04,1.4,1.66,2.06.62.67,1.33,1.2,2.13,1.59.97.49,2.02.86,3.12,1.13,1.11.27,2.21.27,3.32,0,.89-.27,1.75-.52,2.59-.76.84-.24,1.57-.7,2.19-1.36.97-.89,1.84-1.98,2.59-3.29.75-1.31,1.06-2.62.93-3.95-.04-.84-.13-1.67-.27-2.49Z"/>
    <path class="cls-2" d="M605.83,959.45c-4.98-5.76-10.89-9.3-17.71-10.63-6.6-1.28-12.74-.13-18.41,3.46-5.67,3.59-10.2,9.25-13.59,16.98-3.39,7.73-5.08,16.84-5.08,27.34,0,6.6,1.23,12.29,3.69,17.08s6.02,8.46,10.7,11.03c4.67,2.57,10.27,3.85,16.78,3.85,9.88,0,17.71-2.4,23.49-7.21,5.78-4.81,9.49-10.95,11.13-18.44,1.64-7.49,1.46-15.16-.53-23.03-1.99-7.86-5.48-14.67-10.47-20.43ZM591.24,994.4c-.4,1.29-1.14,2.33-2.23,3.12-1.09.8-2.32,1.2-3.69,1.2h-3.26c-1.33,0-2.47-.48-3.42-1.43-.95-.95-1.43-2.09-1.43-3.42-.04-4.12.04-7.45.27-10,.22-2.55.79-4.65,1.69-6.31.91-1.66,2.29-2.49,4.15-2.49,2.92,0,5.13,1,6.61,2.99,1.48,1.99,2.29,4.5,2.43,7.51.13,3.01-.24,5.96-1.13,8.84Z"/>
    <path class="cls-2" d="M572.57,926.36c-2.75,0-5.14,1.02-7.18,3.06s-3.06,4.43-3.06,7.18,1.02,5.14,3.06,7.18c2.04,2.04,4.43,3.06,7.18,3.06s5.14-1.02,7.18-3.06,3.06-4.43,3.06-7.18-1.02-5.14-3.06-7.18c-2.04-2.04-4.43-3.06-7.18-3.06Z"/>
    <path class="cls-2" d="M585.99,929.42c-2.04,2.04-3.06,4.43-3.06,7.18s1.02,5.14,3.06,7.18c2.04,2.04,4.43,3.06,7.18,3.06s5.08-1.02,7.14-3.06c2.06-2.04,3.09-4.43,3.09-7.18s-1.03-5.14-3.09-7.18c-2.06-2.04-4.44-3.06-7.14-3.06s-5.14,1.02-7.18,3.06Z"/>
    <path class="cls-2" d="M642.91,937.69c-3.12.29-5.85.93-8.17,1.93-2.33,1-3.49,2.45-3.49,4.35v81.14c1.51.75,2.82,1.29,3.95,1.59,1.13.31,2.36.46,3.69.46,2.88.13,5.36.11,7.44-.07,2.08-.18,3.77-.43,5.05-.76,1.28-.33,2.27-.69,2.96-1.06.69-.38,1.3-.88,1.83-1.5v-86.25c-5.71-.18-10.13-.12-13.26.17Z"/>
    <path class="cls-2" d="M706.66,970.75c-2.08-.67-4.38-1.12-6.88-1.36-2.5-.24-4.98-.03-7.44.63-2.46.67-4.64,1.95-6.55,3.85,1.55,10.81,2.62,19.37,3.22,25.68.6,6.31.9,11.93.9,16.85,0,3.63-.86,6.51-2.59,8.64-1.73,2.13-4.56,3.69-8.51,4.68-3.94,1-9.28,1.5-16.01,1.5v34.55c9.97.13,18.28-.79,24.95-2.76,6.67-1.97,11.86-4.7,15.58-8.17,3.72-3.48,6.4-7.37,8.04-11.66,1.64-4.3,2.63-8.54,2.99-12.73.35-4.19.53-9.27.53-15.25v-1.46l-.66-39.87c-2.97-1.42-5.49-2.46-7.58-3.12Z"/>
    <path class="cls-2" d="M794.78,1031.35c-2.75,0-5.14,1.02-7.18,3.06-2.04,2.04-3.06,4.43-3.06,7.18s1.02,5.14,3.06,7.18c2.04,2.04,4.43,3.06,7.18,3.06s5.14-1.02,7.18-3.06c2.04-2.04,3.06-4.43,3.06-7.18s-1.02-5.14-3.06-7.18-4.43-3.06-7.18-3.06Z"/>
    <path class="cls-2" d="M919.31,937.79c-3.1.31-5.83.96-8.17,1.96-2.35,1-3.52,2.45-3.52,4.35v53.23h-6.65c-1.27,0-2.41-.06-3.44-.19.13-4.64-.4-9.35-1.61-14.13-1.99-7.86-5.48-14.67-10.47-20.43-4.98-5.76-10.89-9.3-17.71-10.63-6.42-1.24-12.42-.17-17.97,3.22-5.56,3.39-10.06,8.75-13.49,16.08-3.43,7.33-5.28,16.03-5.55,26.08h-9.77c-4.3,0-7.48-.47-9.54-1.4-2.06-.93-3.71-2.06-4.95-3.39-.18-.13-.29-.24-.33-.33-1.42-1.42-2.36-3.51-2.82-6.28-.47-2.77-.63-5.48-.5-8.14.13-2.66.35-5.38.66-8.17.09-.75.13-1.24.13-1.46.04-.4-.13-.64-.53-.73-2.39-.62-5.34-1.25-8.84-1.89-3.5-.64-7.17-.92-11-.83-3.83.09-6.7.97-8.61,2.66-.18.18-.24.38-.2.6l2.39,14.62c-.27,2.3-.65,4.16-1.16,5.58-.51,1.42-1.39,2.83-2.62,4.25-1.24,1.42-2.96,2.59-5.15,3.52-2.19.93-4.88,1.4-8.07,1.4h-6.71v-53.23c0-1.9-1.16-3.36-3.49-4.35s-5.05-1.65-8.17-1.96-7.54-.4-13.26-.27v66.98c0,4.12,1.02,7.92,3.06,11.4,2.04,3.48,4.79,6.24,8.27,8.27,3.48,2.04,7.28,3.06,11.4,3.06h8.9c11.56.66,20.17-.61,25.82-3.82,5.65-3.21,9.36-7.1,11.13-11.66.13-.35.38-.5.73-.43.35.07.55.28.6.63.49,4.25,1.63,7.48,3.42,9.67,1.79,2.19,4.22,3.68,7.28,4.45,2.77.7,6.36,1.08,10.77,1.15h0s8.57.01,8.57.01c4.12,0,7.8-1.26,11.03-3.79,5.49,5.49,13.05,8.24,22.66,8.24s17.71-2.4,23.49-7.21c.41-.34.78-.7,1.17-1.05,1.3,1.22,2.81,2.11,4.55,2.65,2.23.69,5.1,1.07,8.6,1.15v.02h10.17c4.12,0,7.92-1.02,11.4-3.06,3.48-2.04,6.23-4.79,8.27-8.27,2.04-3.48,3.06-7.28,3.06-11.4v-66.98c-5.71-.13-10.12-.04-13.22.27ZM870.86,997.53c-.4,1.29-1.14,2.33-2.23,3.12-1.09.8-2.31,1.2-3.69,1.2h-3.19c-1.37,0-2.54-.48-3.49-1.43-.95-.95-1.43-2.09-1.43-3.42,0-4.12.11-7.45.33-10,.22-2.55.77-4.65,1.66-6.31.89-1.66,2.26-2.49,4.12-2.49,2.92,0,5.13,1,6.61,2.99,1.48,1.99,2.29,4.5,2.43,7.51.13,3.01-.24,5.96-1.13,8.84Z"/>
    <path class="cls-2" d="M954.22,937.69c-3.12.29-5.85.93-8.17,1.93-2.33,1-3.49,2.45-3.49,4.35v81.14c1.51.75,2.82,1.29,3.95,1.59,1.13.31,2.36.46,3.69.46,2.88.13,5.36.11,7.44-.07,2.08-.18,3.77-.43,5.05-.76,1.28-.33,2.27-.69,2.96-1.06.69-.38,1.3-.88,1.83-1.5v-86.25c-5.71-.18-10.13-.12-13.26.17Z"/>
    <path class="cls-2" d="M1048.82,921.71c-2.75,0-5.14,1.02-7.18,3.06s-3.06,4.43-3.06,7.18,1.02,5.14,3.06,7.18c2.04,2.04,4.43,3.06,7.18,3.06s5.08-1.02,7.14-3.06c2.06-2.04,3.09-4.43,3.09-7.18s-1.03-5.14-3.09-7.18c-2.06-2.04-4.44-3.06-7.14-3.06Z"/>
    <path class="cls-2" d="M1028.22,921.71c-2.75,0-5.14,1.02-7.18,3.06s-3.06,4.43-3.06,7.18,1.02,5.14,3.06,7.18c2.04,2.04,4.43,3.06,7.18,3.06s5.14-1.02,7.18-3.06c2.04-2.04,3.06-4.43,3.06-7.18s-1.02-5.14-3.06-7.18c-2.04-2.04-4.43-3.06-7.18-3.06Z"/>
    <path class="cls-2" d="M1152.81,1031.35c-2.75,0-5.14,1.02-7.18,3.06-2.04,2.04-3.06,4.43-3.06,7.18s1.02,5.14,3.06,7.18c2.04,2.04,4.43,3.06,7.18,3.06s5.08-1.02,7.14-3.06c2.06-2.04,3.09-4.43,3.09-7.18s-1.03-5.14-3.09-7.18c-2.06-2.04-4.44-3.06-7.14-3.06Z"/>
    <path class="cls-2" d="M1132.21,1031.35c-2.75,0-5.14,1.02-7.18,3.06-2.04,2.04-3.06,4.43-3.06,7.18s1.02,5.14,3.06,7.18c2.04,2.04,4.43,3.06,7.18,3.06s5.14-1.02,7.18-3.06c2.04-2.04,3.06-4.43,3.06-7.18s-1.02-5.14-3.06-7.18-4.43-3.06-7.18-3.06Z"/>
    <path class="cls-2" d="M1235.61,937.79c-3.1.31-5.83.96-8.17,1.96-2.35,1-3.52,2.45-3.52,4.35v53.23h-6.65c-3.5,0-6.08-.47-7.74-1.4-.31-.18-.61-.37-.9-.56v-57.85c-5.71-.13-10.12-.04-13.22.27-3.1.31-5.83.96-8.17,1.96-2.35,1-3.52,2.45-3.52,4.35v53.23h-6.58c-4.3,0-7.48-.47-9.54-1.4-2.06-.93-3.71-2.06-4.95-3.39-.18-.13-.29-.24-.33-.33-1.42-1.42-2.36-3.51-2.82-6.28-.47-2.77-.63-5.48-.5-8.14.13-2.66.35-5.38.66-8.17.09-.75.13-1.24.13-1.46.04-.4-.13-.64-.53-.73-2.39-.62-5.34-1.25-8.84-1.89-3.5-.64-7.17-.92-11-.83-3.83.09-6.7.97-8.61,2.66-.18.18-.24.38-.2.6l2.39,14.62c-.27,2.3-.65,4.16-1.16,5.58-.51,1.42-1.39,2.83-2.62,4.25-1.24,1.42-2.96,2.59-5.15,3.52-2.1.89-4.67,1.34-7.68,1.38-3.06-.07-5.35-.53-6.87-1.38-.31-.18-.61-.37-.9-.56v-57.85c-5.71-.13-10.12-.04-13.22.27-3.1.31-5.83.96-8.17,1.96-2.35,1-3.52,2.45-3.52,4.35v53.23h-7.97v.04c-2.21-.03-6.26-.04-12.16-.04v-20.87c.09-4.61-.04-8.49-.4-11.66-.35-3.17-1.37-6.25-3.06-9.24-1.68-2.99-4.46-5.4-8.34-7.24-3.88-1.84-9.11-2.76-15.72-2.76-7.13,0-13.11,2.05-17.94,6.15-4.83,4.1-8.38,9.15-10.67,15.15-2.28,6-3.42,11.91-3.42,17.71-.04,8.95,1.69,16.18,5.22,21.7s8.1,9.05,13.72,10.6c5.62,1.55,11.52,1.14,17.68-1.23,2.8-1.08,5.46-2.54,8-4.33.29,2.68,1.14,5.15,2.57,7.42,1.64,2.61,3.81,4.68,6.51,6.21,2.7,1.53,5.62,2.29,8.77,2.29h19.4c4.12,0,7.92-1.02,11.4-3.06,1.37-.8,2.62-1.72,3.76-2.74.04.06.08.13.12.18,1.6,2.19,3.64,3.68,6.15,4.45,2.24.69,5.13,1.08,8.67,1.15v.02c11.56.66,20.17-.61,25.82-3.82,5.65-3.21,9.36-7.1,11.13-11.66.13-.35.38-.5.73-.43.35.07.55.28.6.63.49,4.25,1.63,7.48,3.42,9.67,1.79,2.19,4.22,3.68,7.28,4.45,2.77.7,6.36,1.08,10.77,1.15h0s10.17.01,10.17.01c4.12,0,7.92-1.02,11.4-3.06,1.37-.8,2.62-1.72,3.76-2.74.04.06.08.13.12.18,1.6,2.19,3.64,3.68,6.15,4.45,2.23.69,5.1,1.07,8.6,1.15v.02h10.17c4.12,0,7.92-1.02,11.4-3.06,3.48-2.04,6.23-4.79,8.27-8.27,2.04-3.48,3.06-7.28,3.06-11.4v-66.98c-5.71-.13-10.12-.04-13.22.27ZM1034.99,989.35c-.04-4.78.5-8.91,1.63-12.39,1.13-3.48,3.18-5.22,6.15-5.22,2.08,0,3.79,1.77,5.12,5.32,1.33,3.54,2.06,7.64,2.19,12.29h-15.08Z"/>
    <path class="cls-2" d="M1299.13,924.76c-2.04,2.04-3.06,4.43-3.06,7.18s1.02,5.14,3.06,7.18c2.04,2.04,4.43,3.06,7.18,3.06s5.14-1.02,7.18-3.06c2.04-2.04,3.06-4.43,3.06-7.18s-1.02-5.14-3.06-7.18c-2.04-2.04-4.43-3.06-7.18-3.06s-5.14,1.02-7.18,3.06Z"/>
    <path class="cls-2" d="M1319.73,924.76c-2.04,2.04-3.06,4.43-3.06,7.18s1.02,5.14,3.06,7.18c2.04,2.04,4.43,3.06,7.18,3.06s5.08-1.02,7.14-3.06c2.06-2.04,3.09-4.43,3.09-7.18s-1.03-5.14-3.09-7.18c-2.06-2.04-4.44-3.06-7.14-3.06s-5.14,1.02-7.18,3.06Z"/>
    <path class="cls-2" d="M1370.1,1031.35c-2.75,0-5.14,1.02-7.18,3.06-2.04,2.04-3.06,4.43-3.06,7.18s1.02,5.14,3.06,7.18c2.04,2.04,4.43,3.06,7.18,3.06s5.14-1.02,7.18-3.06c2.04-2.04,3.06-4.43,3.06-7.18s-1.02-5.14-3.06-7.18-4.43-3.06-7.18-3.06Z"/>
    <path class="cls-2" d="M1390.7,1031.35c-2.75,0-5.14,1.02-7.18,3.06-2.04,2.04-3.06,4.43-3.06,7.18s1.02,5.14,3.06,7.18c2.04,2.04,4.43,3.06,7.18,3.06s5.08-1.02,7.14-3.06c2.06-2.04,3.09-4.43,3.09-7.18s-1.03-5.14-3.09-7.18c-2.06-2.04-4.44-3.06-7.14-3.06Z"/>
    <path class="cls-2" d="M1433.3,937.79c-3.1.31-5.83.96-8.17,1.96-2.35,1-3.52,2.45-3.52,4.35v53.23h-6.58c-4.3,0-7.48-.47-9.54-1.4-2.06-.93-3.71-2.06-4.95-3.39-.18-.13-.29-.24-.33-.33-1.42-1.42-2.36-3.51-2.82-6.28-.47-2.77-.63-5.48-.5-8.14.13-2.66.35-5.38.66-8.17.09-.75.13-1.24.13-1.46.04-.4-.13-.64-.53-.73-2.39-.62-5.34-1.25-8.84-1.89-3.5-.64-7.17-.92-11-.83-3.83.09-6.7.97-8.61,2.66-.18.18-.24.38-.2.6l2.39,14.62c-.27,2.3-.65,4.16-1.16,5.58-.51,1.42-1.39,2.83-2.62,4.25-1.24,1.42-2.96,2.59-5.15,3.52-2.19.93-4.88,1.4-8.07,1.4v.04c-2.19-.03-6.27-.04-12.23-.04v-20.87c.09-4.61-.04-8.49-.4-11.66-.35-3.17-1.37-6.25-3.06-9.24-1.68-2.99-4.46-5.4-8.34-7.24-3.88-1.84-9.11-2.76-15.72-2.76-7.13,0-13.11,2.05-17.94,6.15-4.83,4.1-8.38,9.15-10.67,15.15-2.28,6-3.42,11.91-3.42,17.71-.04,8.95,1.69,16.18,5.22,21.7s8.1,9.05,13.72,10.6c5.62,1.55,11.52,1.14,17.68-1.23,2.8-1.08,5.46-2.54,8-4.33.29,2.68,1.14,5.15,2.57,7.42,1.64,2.61,3.81,4.68,6.51,6.21,2.7,1.53,5.62,2.29,8.77,2.29h9.3c11.56.66,20.17-.61,25.82-3.82,5.65-3.21,9.36-7.1,11.13-11.66.13-.35.38-.5.73-.43.35.07.55.28.6.63.49,4.25,1.63,7.48,3.42,9.67,1.79,2.19,4.22,3.68,7.28,4.45,2.77.7,6.36,1.08,10.76,1.15h0s10.17.01,10.17.01c4.12,0,7.92-1.02,11.4-3.06,3.48-2.04,6.23-4.79,8.27-8.27,2.04-3.48,3.06-7.28,3.06-11.4v-66.98c-5.71-.13-10.12-.04-13.22.27ZM1313.09,989.35c-.04-4.78.5-8.91,1.63-12.39,1.13-3.48,3.18-5.22,6.15-5.22,2.08,0,3.79,1.77,5.12,5.32,1.33,3.54,2.06,7.64,2.19,12.29h-15.08Z"/>
    <path class="cls-2" d="M1495.83,948.55c0,2.75,1.02,5.14,3.06,7.18,2.04,2.04,4.43,3.06,7.18,3.06s5.14-1.02,7.18-3.06,3.06-4.43,3.06-7.18-.96-4.98-2.88-6.98c.85.27,1.74.4,2.68.4,1.25,0,2.42-.24,3.51-.71-.04.04-.08.07-.12.11-2.04,2.04-3.06,4.43-3.06,7.18s1.02,5.14,3.06,7.18c2.04,2.04,4.43,3.06,7.18,3.06s5.08-1.02,7.14-3.06c2.06-2.04,3.09-4.43,3.09-7.18s-1.03-5.14-3.09-7.18c-2.06-2.04-4.44-3.06-7.14-3.06-1.45,0-2.8.29-4.05.86,1.86-1.86,2.79-4.03,2.79-6.51s-.93-4.58-2.79-6.45c-1.86-1.86-4.03-2.79-6.51-2.79s-4.64.93-6.48,2.79c-1.84,1.86-2.76,4.01-2.76,6.45s.83,4.41,2.47,6.2c-1.03-.36-2.12-.55-3.27-.55-2.75,0-5.14,1.02-7.18,3.06s-3.06,4.43-3.06,7.18Z"/>
    <path class="cls-2" d="M1613.81,962.57c-4.98-5.76-10.89-9.3-17.71-10.63-6.42-1.24-12.42-.17-17.97,3.22-5.56,3.39-10.06,8.75-13.49,16.08-3.43,7.33-5.28,16.03-5.55,26.08h-9.77c-4.3,0-7.48-.47-9.54-1.4-2.06-.93-3.71-2.06-4.95-3.39-.18-.13-.29-.24-.33-.33-1.42-1.42-2.36-3.51-2.82-6.28-.47-2.77-.63-5.48-.5-8.14.13-2.66.35-5.38.66-8.17.09-.75.13-1.24.13-1.46.04-.4-.13-.64-.53-.73-2.39-.62-5.34-1.25-8.84-1.89-3.5-.64-7.17-.92-11-.83-3.83.09-6.7.97-8.61,2.66-.18.18-.24.38-.2.6l2.39,14.62c-.27,2.3-.65,4.16-1.16,5.58-.51,1.42-1.39,2.83-2.62,4.25-1.24,1.42-2.96,2.59-5.15,3.52-2.19.93-4.88,1.4-8.07,1.4h-6.71v-53.23c0-1.9-1.16-3.36-3.49-4.35s-5.05-1.65-8.17-1.96-7.54-.4-13.26-.27v66.98c0,4.12,1.02,7.92,3.06,11.4,2.04,3.48,4.79,6.24,8.27,8.27,3.48,2.04,7.28,3.06,11.4,3.06h8.9c11.56.66,20.17-.61,25.82-3.82,5.65-3.21,9.36-7.1,11.13-11.66.13-.35.38-.5.73-.43.35.07.55.28.6.63.49,4.25,1.63,7.48,3.42,9.67,1.79,2.19,4.22,3.68,7.28,4.45,2.77.7,6.36,1.08,10.77,1.15h0s8.57.01,8.57.01c4.12,0,7.8-1.26,11.03-3.79,5.49,5.49,13.05,8.24,22.66,8.24s17.71-2.4,23.49-7.21c5.78-4.81,9.49-10.95,11.13-18.44,1.64-7.49,1.46-15.16-.53-23.03-1.99-7.86-5.48-14.67-10.47-20.43ZM1599.22,997.53c-.4,1.29-1.14,2.33-2.23,3.12-1.09.8-2.31,1.2-3.69,1.2h-3.19c-1.37,0-2.54-.48-3.49-1.43-.95-.95-1.43-2.09-1.43-3.42,0-4.12.11-7.45.33-10,.22-2.55.77-4.65,1.66-6.31.89-1.66,2.26-2.49,4.12-2.49,2.92,0,5.13,1,6.61,2.99,1.48,1.99,2.29,4.5,2.43,7.51.13,3.01-.24,5.96-1.13,8.84Z"/>
    <path class="cls-2" d="M1700.09,924.76c-2.04,2.04-3.06,4.43-3.06,7.18s1.02,5.14,3.06,7.18c2.04,2.04,4.43,3.06,7.18,3.06s5.08-1.02,7.14-3.06c2.06-2.04,3.09-4.43,3.09-7.18s-1.03-5.14-3.09-7.18c-2.06-2.04-4.44-3.06-7.14-3.06s-5.14,1.02-7.18,3.06Z"/>
    <path class="cls-2" d="M1686.67,942.17c2.75,0,5.14-1.02,7.18-3.06,2.04-2.04,3.06-4.43,3.06-7.18s-1.02-5.14-3.06-7.18c-2.04-2.04-4.43-3.06-7.18-3.06s-5.14,1.02-7.18,3.06-3.06,4.43-3.06,7.18,1.02,5.14,3.06,7.18c2.04,2.04,4.43,3.06,7.18,3.06Z"/>
    <path class="cls-2" d="M1745.65,927.63c1.48.64,3.04.79,4.68.43,2.39-.44,3.96-1.1,4.72-1.96.75-.86,1.13-1.92,1.13-3.16,0,1.59.4,2.97,1.2,4.12.8,1.15,1.9,1.73,3.32,1.73,1.9,0,3.42-.48,4.55-1.43,1.13-.95,1.94-2.06,2.43-3.32.49-1.26.84-3.04,1.06-5.35v-9.57c-2.44-.49-4.24-.73-5.42-.73s-2,.24-2.49.73v8.11c0,1.15-.11,1.93-.33,2.33-.22.4-.84.6-1.86.6v-7.84c-2.39-.53-4.18-.8-5.35-.8s-2.03.27-2.56.8v5.32c.04,1.02-.04,1.68-.27,1.99-.22.31-.84.47-1.86.47v-9.9c-2.39-.53-4.18-.8-5.35-.8s-2.03.27-2.56.8v9.97c0,1.64.45,3.13,1.36,4.49.91,1.35,2.1,2.35,3.59,2.99Z"/>
    <path class="cls-2" d="M1888.68,968.09c-4.03-1.02-7.32-1.73-9.87-2.13-2.55-.4-5-.6-7.34-.6-4.65,0-7.89.91-9.7,2.72,1.68,13.42,2.53,20.42,2.53,21,0,2.57-.99,4.66-2.96,6.28-1.97,1.62-5.66,2.43-11.06,2.43v-26.51c-3.99-1.02-7.25-1.73-9.8-2.13-2.55-.4-5.02-.6-7.41-.6-4.61,0-7.82.91-9.64,2.72l2.26,15.02c.09.89.13,1.68.13,2.39,0,2.66-.99,4.84-2.96,6.54-1.97,1.71-5.62,2.56-10.93,2.56l-.07-.27.07-4.52v-17.88c-4.03-1.02-7.32-1.73-9.87-2.13-2.55-.4-5-.6-7.34-.6-4.65,0-7.89.91-9.7,2.72v22.19c-4.59,0-7.69,0-9.3.03v-.03c-3.5,0-6.08-.47-7.74-1.4-.31-.18-.61-.37-.9-.56v-57.85c-5.71-.13-10.12-.04-13.22.27-3.1.31-5.83.96-8.17,1.96-2.35,1-3.52,2.45-3.52,4.35v53.23h-7.97v.04c-2.21-.03-6.26-.04-12.16-.04v-20.87c.09-4.61-.04-8.49-.4-11.66-.35-3.17-1.37-6.25-3.06-9.24-1.68-2.99-4.46-5.4-8.34-7.24-3.88-1.84-9.11-2.76-15.72-2.76-7.13,0-13.11,2.05-17.94,6.15-4.83,4.1-8.38,9.15-10.67,15.15-2.28,6-3.42,11.91-3.42,17.71-.04,8.95,1.69,16.18,5.22,21.7s8.1,9.05,13.72,10.6c5.62,1.55,11.52,1.14,17.68-1.23,2.8-1.08,5.46-2.54,8-4.33.29,2.68,1.14,5.15,2.57,7.42,1.64,2.61,3.81,4.68,6.51,6.21,2.7,1.53,5.62,2.29,8.77,2.29h19.4c4.12,0,7.92-1.02,11.4-3.06,1.37-.8,2.62-1.72,3.76-2.74.04.06.08.13.12.18,1.6,2.19,3.64,3.68,6.15,4.45,2.23.69,5.1,1.07,8.6,1.15v.02h10.9c3.28,0,6.91-.55,10.9-1.66,3.99-1.11,7.5-3.13,10.53-6.08,3.03-2.95,4.55-6.97,4.55-12.06,0,5.36.61,9.49,1.83,12.39,1.22,2.9,2.83,4.86,4.85,5.88,2.02,1.02,4.49,1.53,7.41,1.53,4.78,0,8.38-.91,10.8-2.72,2.41-1.82,3.98-4.11,4.68-6.88.71-2.77,1.06-6.17,1.06-10.2,0,3.41.6,6.62,1.79,9.63,1.2,3.01,2.95,5.46,5.25,7.34,2.3,1.88,5.07,2.82,8.31,2.82,8.77,0,15.49-1.86,20.17-5.58,4.67-3.72,7.73-7.91,9.17-12.56,1.44-4.65,2.16-9.04,2.16-13.16,0-.75-.02-1.73-.07-2.92v-24.92ZM1693.45,989.35c-.04-4.78.5-8.91,1.63-12.39,1.13-3.48,3.18-5.22,6.15-5.22,2.08,0,3.79,1.77,5.12,5.32,1.33,3.54,2.06,7.64,2.19,12.29h-15.08Z"/>
  </g>
</svg>