<?xml version="1.0" encoding="UTF-8"?>
<svg id="Layer_1" data-name="Layer 1" xmlns="http://www.w3.org/2000/svg" viewBox="0 0 1398.81 1185.29">
  <defs>
    <style>
      .cls-1 {
        fill: #1d1d1b;
      }

      .cls-2 {
        fill: #fff;
      }
    </style>
  </defs>
  <g>
    <g>
      <polygon class="cls-1" points="349.67 41.45 421.05 33.71 423.37 55.28 351.99 63.03 349.67 41.45"/>
      <path class="cls-2" d="M417.5,38.11l1.46,13.62-63.43,6.88-1.46-13.62,63.43-6.88M424.59,29.3l-7.96.86-63.43,6.88-7.95.86.85,7.95,1.46,13.62.86,7.96,7.96-.86,63.43-6.88,7.95-.86-.85-7.95-1.46-13.62-.86-7.96h0Z"/>
    </g>
    <g>
      <polygon class="cls-1" points="349.67 12.16 421.05 4.41 423.37 25.99 351.99 33.73 349.67 12.16"/>
      <path class="cls-2" d="M417.5,8.82l1.46,13.62-63.43,6.88-1.46-13.62,63.43-6.88M424.59,0l-7.96.86-63.43,6.88-7.95.86.85,7.95,1.46,13.62.86,7.96,7.96-.86,63.43-6.88,7.95-.86-.85-7.95-1.46-13.62-.86-7.96h0Z"/>
    </g>
    <g>
      <path class="cls-1" d="M381.66,287.43c-2.42,0-5.03-.06-7.76-.19-3.24,0-6.3-.4-9.1-1.17-2.73-.75-5.91-2.03-9.45-3.8l-2.21-1.11V99.84c0-4.08,1.75-9.69,10.11-13.27,5.48-2.35,11.95-3.88,19.23-4.55,4.36-.4,9.9-.6,16.44-.6,3.99,0,8.45.08,13.27.22l3.88.12v195.49l-.96,1.12c-1.48,1.73-3.21,3.15-5.15,4.2-1.82,1-4.25,1.88-7.44,2.71-3.05.79-7.02,1.39-11.8,1.8-2.73.23-5.78.35-9.08.35Z"/>
      <path class="cls-2" d="M398.93,85.41c3.97,0,8.35.07,13.15.22v190.14c-1.17,1.37-2.52,2.47-4.03,3.3-1.52.83-3.69,1.61-6.52,2.34-2.83.73-6.54,1.3-11.13,1.68-2.63.22-5.54.33-8.74.33-2.4,0-4.95-.06-7.67-.19-2.93,0-5.64-.34-8.13-1.03-2.49-.68-5.4-1.85-8.72-3.52V99.84c0-4.2,2.56-7.4,7.69-9.59s11.13-3.61,18.02-4.25c4.26-.39,9.62-.59,16.07-.59M398.93,77.41c-6.67,0-12.32.21-16.81.62-7.69.71-14.57,2.35-20.44,4.86-10.91,4.68-12.54,12.63-12.54,16.95v183.8l4.42,2.21c3.82,1.92,7.16,3.25,10.19,4.08,3.1.85,6.48,1.29,10.05,1.31,2.76.12,5.4.19,7.86.19,3.41,0,6.57-.12,9.41-.36,5.07-.43,9.15-1.05,12.46-1.91,3.51-.91,6.25-1.91,8.36-3.08,2.35-1.29,4.46-3.01,6.26-5.11l1.92-2.25V77.88l-7.75-.24c-4.86-.15-9.37-.23-13.4-.23h0Z"/>
    </g>
    <g>
      <path class="cls-1" d="M430.84,372.38c-1.38,0-2.77,0-4.17-.03l-3.95-.05v-84.12h4c14.45,0,25.99-1.07,34.32-3.17,7.8-1.97,13.39-4.99,16.63-8.97,3.2-3.93,4.82-9.49,4.82-16.52,0-10.66-.66-23.03-1.96-36.76-1.3-13.76-3.69-32.75-7.08-56.43l-.28-1.98,1.42-1.42c4.68-4.68,10.14-7.89,16.21-9.53,4.29-1.16,8.67-1.75,13.02-1.75,1.59,0,3.21.08,4.81.23,5.78.56,11.16,1.63,15.99,3.17,4.73,1.51,10.52,3.89,17.21,7.09l2.23,1.07.84,50.4h17.72v-.15h209.2c-.51-1.14-1.21-1.78-1.8-2.2-2.2-1.58-4.99-2.57-8.28-2.93-3.84-.42-9.22-.64-15.97-.64h-157.52v-60.15h4c8.79,0,15.3-2.41,19.93-7.37,4.82-5.18,8.16-12.45,9.91-21.61,1.85-9.67,2.79-21.83,2.79-36.16v-4h71.05l.35,3.61c.7,7.13.9,13.18.6,18-.31,4.91-1.27,10.15-2.86,15.59-1.65,5.63-4.41,11-8.21,15.96-3.9,5.09-9.3,9.26-16.07,12.4-3.44,1.6-7.3,2.79-11.55,3.58h90.65c17.87,0,32.38,3.43,43.15,10.21,11.35,7.15,17.1,18.32,17.1,33.19v17.34c1.17.94,2.47,1.82,3.89,2.61,2.09,1.17,6.41,2.57,15.11,2.57h4v.03c3.14-.02,7.32-.03,12.51-.03v-46.58l1.17-1.17c4.83-4.83,12.75-7.18,24.22-7.18,5.36,0,11.01.46,16.8,1.37,5.7.89,13.14,2.49,22.11,4.76l3.02.76v42.52l-.09,6.47c10.55-.44,15.37-2.68,17.57-4.59,3.46-2.99,5.14-6.72,5.14-11.4,0-1.39-.09-2.99-.26-4.78l-5.27-35,1.43-1.43c4.83-4.83,12.7-7.18,24.07-7.18,5.45,0,11.16.46,16.95,1.37,5.71.89,13.1,2.5,21.98,4.76l3.01.77v57.48c10.76-.42,15.64-2.55,17.85-4.36,3.4-2.79,5.06-6.31,5.06-10.75-.05-1.08-1.04-9.98-5.54-45.79l-.24-1.94,1.38-1.38c4.83-4.83,12.75-7.18,24.22-7.18,5.36,0,11.01.46,16.8,1.37,5.7.89,13.14,2.49,22.11,4.76l3.02.76v57.97c.1,2.73.15,4.86.15,6.52,0,9.43-1.66,19.59-4.94,30.19-3.4,10.99-10.65,20.96-21.54,29.63-10.98,8.74-26.78,13.18-46.95,13.18-8.05,0-15.06-2.4-20.84-7.13-5.03-4.11-9.01-9.37-11.85-15.67-1.94,6.37-5.77,11.74-11.41,15.99-6.09,4.58-14.66,6.81-26.21,6.81-7.05,0-13.16-1.28-18.14-3.8-5.29-2.67-9.52-7.72-12.58-14.99-.8-1.91-1.49-4.01-2.07-6.31-1.53,2.51-3.37,4.82-5.52,6.9-7.15,6.94-15.54,11.78-24.93,14.39-9.09,2.53-17.54,3.81-25.09,3.81h-28.02v-.18c-6.37-.35-11.79-1.21-16.15-2.56-3.61-1.12-6.9-2.85-9.8-5.18-5.98,5.26-14.46,7.92-25.27,7.92h-207.32v-.18c-6.37-.35-11.79-1.21-16.15-2.56-.54-.17-1.07-.35-1.6-.55-.14,2.38-.3,4.63-.48,6.73-.81,9.56-3.11,19.36-6.84,29.14-3.82,10-10.12,19.16-18.73,27.21-8.62,8.06-20.72,14.43-35.95,18.93-14.08,4.16-31.58,6.27-52.02,6.27Z"/>
      <path class="cls-2" d="M692.3,82.41c.68,6.94.88,12.72.59,17.36-.29,4.64-1.2,9.55-2.71,14.72-1.52,5.18-4.03,10.06-7.54,14.65-3.52,4.59-8.38,8.33-14.58,11.21-6.2,2.88-13.84,4.32-22.92,4.32v6.88h103.71c17.19,0,30.86,3.2,41.02,9.59,10.16,6.4,15.23,16.33,15.23,29.81v19.17c1.71,1.59,3.69,3.01,5.93,4.27,3.66,2.05,9.35,3.08,17.07,3.08v.06c3.57-.04,10.39-.06,20.51-.06v-48.93c4-4,11.13-6.01,21.39-6.01,5.17,0,10.57.44,16.19,1.32,5.61.88,12.87,2.44,21.75,4.69v39.4l-.15,9.96.15.59c11.72,0,19.75-1.88,24.1-5.64,4.34-3.76,6.52-8.57,6.52-14.43,0-1.56-.1-3.32-.29-5.27l-4.98-33.11c4-4,11.08-6.01,21.24-6.01,5.27,0,10.72.44,16.33,1.32,5.61.88,12.82,2.44,21.61,4.69v58.45c11.91,0,20.04-1.78,24.39-5.35,4.34-3.56,6.52-8.18,6.52-13.84,0-1.27-1.86-16.7-5.57-46.29,4-4,11.13-6.01,21.39-6.01,5.17,0,10.57.44,16.19,1.32,5.61.88,12.87,2.44,21.75,4.69v54.93c.1,2.64.15,4.79.15,6.45,0,9.08-1.59,18.75-4.76,29-3.17,10.25-9.91,19.48-20.21,27.69-10.3,8.2-25.12,12.3-44.46,12.3-7.13,0-13.23-2.07-18.31-6.23-5.08-4.15-8.94-9.54-11.57-16.19-2.64-6.64-3.96-13.72-3.96-21.24,0,8.89-.78,16.38-2.34,22.49-1.56,6.1-5.01,11.16-10.33,15.16-5.32,4.01-13.26,6.01-23.8,6.01-6.45,0-11.89-1.12-16.33-3.37-4.45-2.25-8.01-6.57-10.69-12.96-2.69-6.39-4.03-15.5-4.03-27.32,0,11.23-3.35,20.09-10.03,26.59-6.69,6.5-14.43,10.96-23.22,13.4-8.79,2.44-16.8,3.66-24.02,3.66h-24.02v-.04c-7.73-.17-14.06-1.01-18.97-2.53-4.33-1.34-8.04-3.66-11.14-6.93-5.22,6.32-13.58,9.49-25.12,9.49h-203.32v-.04c-7.73-.17-14.06-1.01-18.97-2.53-2.34-.73-4.5-1.75-6.48-3.04-.19,4.58-.45,8.83-.77,12.71-.78,9.23-2.98,18.58-6.59,28.05-3.61,9.47-9.52,18.04-17.72,25.71-8.2,7.66-19.65,13.67-34.35,18.02-13.77,4.07-30.73,6.11-50.89,6.11-1.36,0-2.73,0-4.12-.03v-76.17c14.84,0,26.61-1.1,35.3-3.29,8.69-2.2,14.94-5.64,18.75-10.33s5.71-11.03,5.71-19.04c0-10.84-.66-23.22-1.98-37.13s-3.69-32.79-7.1-56.62c4.2-4.2,9.01-7.03,14.43-8.5,3.97-1.07,7.96-1.61,11.98-1.61,1.47,0,2.95.07,4.43.22,5.52.54,10.57,1.54,15.16,3,4.59,1.46,10.16,3.76,16.7,6.88l.86,51.86h25.65v-.15h209.91c0-4.3-1.39-7.45-4.17-9.45-2.78-2-6.18-3.22-10.18-3.66-4.01-.44-9.47-.66-16.41-.66h-153.52v-52.15c9.86,0,17.48-2.88,22.85-8.64,5.37-5.76,9.01-13.62,10.91-23.58s2.86-22.27,2.86-36.91h63.43M699.55,74.41h-78.68v8c0,14.08-.91,25.99-2.71,35.41-1.61,8.41-4.6,15.02-8.91,19.63-3.82,4.1-9.38,6.1-17,6.1h-8v65.92h-25.63v.15h-9.78l-.73-43.99-.08-4.95-4.47-2.13c-6.94-3.31-12.74-5.7-17.71-7.29-5.1-1.63-10.76-2.75-16.82-3.34-1.73-.17-3.48-.25-5.21-.25-4.71,0-9.44.63-14.06,1.88-6.76,1.83-12.82,5.38-18,10.56l-2.83,2.83.57,3.96c3.39,23.61,5.76,42.53,7.06,56.23,1.29,13.6,1.94,25.84,1.94,36.38,0,6.09-1.32,10.8-3.92,14-2.68,3.3-7.56,5.86-14.5,7.62-8.01,2.02-19.23,3.05-33.34,3.05h-8v92.07l7.89.11c1.42.02,2.83.03,4.22.03,20.82,0,38.71-2.17,53.15-6.43,15.83-4.68,28.46-11.36,37.54-19.84,9.06-8.47,15.7-18.13,19.74-28.7,3.86-10.13,6.25-20.3,7.09-30.23.05-.6.1-1.2.15-1.82,3.03.72,6.38,1.25,10.1,1.58v.42l8,.04h203.32c10.41,0,18.92-2.32,25.38-6.91,2.61,1.71,5.45,3.04,8.51,3.99,3.83,1.19,8.23,2,13.33,2.46v.42l8,.04h24.02c7.92,0,16.72-1.33,26.17-3.95,10.05-2.79,19.02-7.96,26.65-15.37.46-.45.91-.9,1.34-1.37,3.41,7.88,8.2,13.42,14.23,16.47,5.54,2.8,12.25,4.23,19.94,4.23,12.45,0,21.8-2.49,28.61-7.61,3.91-2.94,7.05-6.37,9.39-10.26,2.51,3.74,5.5,7.04,8.94,9.84,6.51,5.33,14.38,8.03,23.37,8.03,21.1,0,37.73-4.73,49.44-14.05,11.53-9.18,19.23-19.81,22.87-31.58,3.4-10.98,5.12-21.53,5.12-31.37,0-1.69-.05-3.85-.15-6.59v-61.02l-6.04-1.53c-9.09-2.3-16.66-3.92-22.47-4.83-6-.94-11.86-1.41-17.42-1.41-12.58,0-21.43,2.73-27.04,8.35l-2.77,2.77.49,3.88c4.51,35.96,5.4,43.99,5.5,45.46-.04,3.17-1.15,5.49-3.59,7.49-1,.82-3.87,2.47-11.32,3.19v-56.31l-6.02-1.54c-9-2.3-16.52-3.93-22.35-4.84-6-.94-11.91-1.41-17.57-1.41-12.48,0-21.28,2.73-26.9,8.35l-2.85,2.85.6,3.99,4.95,32.9c.16,1.62.23,3.06.23,4.29,0,3.55-1.16,6.13-3.75,8.38-.98.85-3.77,2.55-10.89,3.31l.03-2.05v-.06s0-.06,0-.06v-45.63l-6.04-1.53c-9.09-2.3-16.66-3.92-22.47-4.83-6-.94-11.86-1.41-17.42-1.41-12.58,0-21.43,2.73-27.04,8.35l-2.34,2.34v44.24c-1.63,0-3.13,0-4.51,0v-.02h-8c-8.25,0-11.79-1.29-13.16-2.06-.64-.36-1.26-.74-1.84-1.13v-15.32c0-16.11-6.56-28.76-18.97-36.58-11.41-7.18-26.65-10.83-45.28-10.83h-70.17c4.08-2.73,7.53-5.92,10.31-9.55,4.1-5.35,7.08-11.16,8.87-17.27,1.67-5.72,2.69-11.26,3.02-16.46.32-5.1.12-11.2-.61-18.65l-.71-7.22h0Z"/>
    </g>
    <g>
      <path class="cls-1" d="M986.88,136.51c-7.13,0-13.4-2.66-18.65-7.91-1.59-1.59-2.94-3.27-4.06-5.05-1.11,1.77-2.47,3.46-4.06,5.05-5.25,5.25-11.52,7.91-18.65,7.91s-13.4-2.66-18.65-7.91c-5.25-5.24-7.91-11.52-7.91-18.65s2.66-13.4,7.91-18.65c5.07-5.07,11.1-7.73,17.94-7.9-1.02-2.66-1.53-5.48-1.53-8.46,0-6.44,2.43-12.16,7.23-17.02,4.81-4.87,10.57-7.34,17.13-7.34s12.32,2.46,17.18,7.32c4.86,4.86,7.32,10.59,7.32,17.04,0,2.98-.51,5.8-1.53,8.45.1,0,.21,0,.31,0,7.02,0,13.26,2.66,18.56,7.89,5.31,5.25,8,11.53,8,18.67s-2.69,13.42-8,18.67c-5.29,5.24-11.54,7.89-18.56,7.89Z"/>
      <path class="cls-2" d="M963.59,54.58c5.47,0,10.25,2.05,14.36,6.15s6.15,8.84,6.15,14.21-2.05,10.25-6.14,14.35c2.76-1.25,5.73-1.9,8.93-1.9,5.96,0,11.21,2.25,15.75,6.74,4.54,4.49,6.81,9.77,6.81,15.82s-2.27,11.33-6.81,15.82c-4.54,4.49-9.79,6.74-15.75,6.74s-11.33-2.25-15.82-6.74c-4.49-4.49-6.74-9.76-6.74-15.82s2.25-11.33,6.74-15.82c.09-.09.18-.16.26-.24-2.41,1.04-4.98,1.56-7.73,1.56-2.07,0-4.03-.3-5.9-.88,4.21,4.4,6.34,9.52,6.34,15.38s-2.25,11.33-6.74,15.82-9.77,6.74-15.82,6.74-11.33-2.25-15.82-6.74c-4.49-4.49-6.74-9.76-6.74-15.82s2.25-11.33,6.74-15.82,9.76-6.74,15.82-6.74c2.54,0,4.94.42,7.21,1.22-3.62-3.95-5.45-8.5-5.45-13.67s2.03-10.11,6.08-14.21c4.05-4.1,8.81-6.15,14.28-6.15M963.59,46.58c-7.66,0-14.38,2.87-19.97,8.53-5.56,5.63-8.39,12.3-8.39,19.83,0,1.71.14,3.37.43,4.99-5.85,1.12-11.1,3.98-15.66,8.54-6.03,6.03-9.08,13.25-9.08,21.48s3.06,15.46,9.08,21.48c6.02,6.02,13.25,9.08,21.48,9.08s15.45-3.06,21.48-9.08c.42-.42.83-.85,1.23-1.29.4.44.81.87,1.23,1.29,6.02,6.02,13.25,9.08,21.48,9.08s15.3-3.05,21.37-9.05c6.09-6.03,9.18-13.26,9.18-21.51s-3.09-15.48-9.18-21.51c-4.84-4.79-10.4-7.7-16.56-8.68.27-1.56.4-3.17.4-4.83,0-7.54-2.86-14.23-8.5-19.87-5.64-5.64-12.37-8.5-20.01-8.5h0Z"/>
    </g>
    <g>
      <path class="cls-1" d="M60.66,568.69c-1.69,0-3.32-.11-4.84-.33-4.79-.56-9.79-.85-14.86-.85-.69,0-2.29.05-4.91.14-2.59.1-5.36.2-8.29.29-2.92.1-5.62.2-8.11.29-.89.04-1.69.05-2.41.05-1.62,0-2.81-.09-3.74-.28-1.05-.21-2.17-.48-3.31-.81-2.16-.62-3.81-2.07-4.68-4.11-.58-1.21-.96-2.78-1.2-4.92-.21-1.83-.32-3.81-.32-5.87s.05-3.93.15-5.78c.09-1.75.14-2.98.14-3.66,0-2.31.05-6.23.15-11.64.1-5.5.15-11.88.15-18.97s.1-14.93.29-22.73c.19-7.83.29-15.41.29-22.53s.05-13.73.15-19.19c.1-5.63.15-9.37.15-11.43v-.32c.22-2.63.62-5.22,1.2-7.7.92-3.92,3.88-6.26,7.93-6.26.25,0,.51,0,.77.03,7.54.19,15.28.34,23,.44,1.56.02,3.11.03,4.65.03,6.11,0,12.25-.16,18.24-.46h.21s2.64,0,2.64,0c1.4,0,2.78.34,4.12,1l.26.13.24.17c2.24,1.55,3.6,4.15,4.04,7.71.29,2.39.53,4.36.73,5.92l.02.18c.21,2.59.26,5.14.16,7.59-.1,2.21-.14,4.49-.14,6.79.19,16.36.39,32.72.59,49.02.19,16.31-.4,32.9-1.76,49.31-.02,1.05-.19,2.3-.53,3.83-.3,1.36-.64,2.72-.99,4.05-.36,1.33-.75,2.64-1.15,3.91-.59,1.86-1.4,3.27-2.45,4.32-1.73,1.72-3.99,2.64-6.56,2.64Z"/>
      <path class="cls-2" d="M14.6,426.09c.19,0,.38,0,.58.02,7.62.2,15.33.34,23.14.44,1.57.02,3.14.03,4.7.03,6.21,0,12.36-.16,18.44-.47h2.64c.78,0,1.56.2,2.34.59,1.27.88,2.05,2.52,2.34,4.91.29,2.39.54,4.37.73,5.93.19,2.44.24,4.81.15,7.1-.1,2.3-.15,4.61-.15,6.96.19,16.41.39,32.76.59,49.07.19,16.31-.39,32.67-1.76,49.07,0,.78-.15,1.83-.44,3.15s-.61,2.61-.95,3.88c-.34,1.27-.71,2.52-1.1,3.74-.39,1.22-.88,2.12-1.46,2.71-.98.98-2.22,1.46-3.74,1.46s-2.96-.1-4.32-.29c-4.98-.59-10.11-.88-15.38-.88-.78,0-2.47.05-5.05.15-2.59.1-5.35.2-8.28.29-2.93.1-5.64.2-8.13.29-.84.03-1.59.05-2.25.05-1.32,0-2.3-.07-2.95-.2-.98-.19-1.98-.44-3-.73s-1.73-.93-2.12-1.9c-.39-.78-.68-2.03-.88-3.74-.2-1.71-.29-3.52-.29-5.42s.05-3.76.15-5.57c.1-1.81.15-3.1.15-3.88,0-2.25.05-6.1.15-11.57.1-5.47.15-11.81.15-19.04s.1-14.77.29-22.63c.19-7.86.29-15.4.29-22.63s.05-13.6.15-19.12c.1-5.52.15-9.35.15-11.5.19-2.44.56-4.81,1.1-7.1.49-2.11,1.84-3.17,4.04-3.17M14.6,418.09c-5.95,0-10.48,3.58-11.83,9.35-.63,2.67-1.06,5.46-1.28,8.29l-.03.32v.32c0,2.04-.05,5.75-.15,11.36-.1,5.48-.15,11.96-.15,19.26s-.1,14.64-.29,22.43c-.2,7.83-.3,15.51-.3,22.83s-.05,13.42-.15,18.9c-.1,5.44-.15,9.38-.15,11.71,0,.42-.02,1.36-.14,3.46-.1,1.92-.16,3.94-.16,5.99,0,2.21.12,4.35.35,6.34.29,2.54.78,4.49,1.53,6.1,1.35,3.13,3.91,5.37,7.23,6.32,1.24.35,2.47.65,3.64.89,1.17.24,2.61.35,4.51.35.77,0,1.63-.02,2.57-.06,2.47-.09,5.17-.19,8.08-.29,2.94-.1,5.71-.2,8.31-.29,2.52-.09,4.12-.14,4.75-.14,4.9,0,9.73.27,14.35.81,1.69.24,3.49.36,5.35.36,3.65,0,6.9-1.32,9.39-3.81,1.51-1.51,2.63-3.45,3.43-5.93.43-1.34.83-2.71,1.2-4.09.38-1.4.72-2.82,1.04-4.23.39-1.75.59-3.19.62-4.49,1.36-16.49,1.96-33.17,1.76-49.56-.2-16.29-.39-32.63-.59-49.02,0-2.23.05-4.44.14-6.57.11-2.62.05-5.33-.16-8.08v-.18s-.04-.18-.04-.18c-.2-1.55-.44-3.52-.73-5.9-.72-5.91-3.51-8.98-5.73-10.51l-.48-.33-.52-.26c-1.9-.94-3.88-1.42-5.9-1.42h-3.05c-5.92.31-11.99.47-18.03.47-1.53,0-3.06,0-4.6-.03-7.68-.09-15.38-.24-22.87-.43-.32-.02-.64-.03-.95-.03h0Z"/>
    </g>
    <g>
      <path class="cls-1" d="M44.89,660.21c-.84,0-1.7-.05-2.55-.15-2.67-.3-5.41-.76-8.13-1.36-3.15-.51-6.06-1.77-8.65-3.76-2.13-1.64-4.28-3.38-6.39-5.19-3.09-2.73-5.36-6.15-6.8-10.19-1.31-3.66-2.19-7.34-2.62-10.93-.67-4.66-.15-9.23,1.56-13.56,1.55-3.93,3.54-7.75,5.91-11.37,1.66-2.71,3.85-4.98,6.51-6.75,2.27-1.51,4.59-2.94,6.92-4.26,3.82-2.08,7.9-3.18,12.19-3.3.37,0,.73-.01,1.09-.01,3.67,0,7.36.49,10.97,1.47,4.06,1.1,7.9,2.93,11.4,5.45,3.5,2.52,6.4,5.48,8.61,8.79,3.86,5.85,5.76,12.43,5.65,19.57-.11,7.13-2.23,13.7-6.29,19.51-2.66,3.88-6.16,7.07-10.39,9.47-3.91,2.21-8.03,4.06-12.25,5.5-2.24.72-4.48,1.07-6.74,1.07h0Z"/>
      <path class="cls-2" d="M43.92,593.39c3.33,0,6.64.44,9.93,1.33,3.61.98,6.98,2.59,10.11,4.83,3.12,2.25,5.66,4.83,7.62,7.76,3.42,5.18,5.08,10.94,4.98,17.29-.1,6.35-1.95,12.11-5.57,17.29-2.34,3.42-5.37,6.17-9.08,8.28-3.71,2.1-7.57,3.83-11.57,5.2-1.78.57-3.59.85-5.45.85-.69,0-1.39-.04-2.1-.12-2.59-.29-5.2-.73-7.84-1.32-2.54-.39-4.86-1.39-6.96-3-2.1-1.61-4.17-3.3-6.23-5.05-2.54-2.25-4.42-5.08-5.64-8.5-1.22-3.42-2.03-6.79-2.42-10.11-.59-4-.15-7.86,1.32-11.57,1.46-3.71,3.32-7.27,5.57-10.69,1.37-2.25,3.15-4.1,5.35-5.57s4.42-2.83,6.67-4.1c3.22-1.76,6.67-2.68,10.33-2.78.33,0,.65-.01.98-.01M43.92,585.39c-.4,0-.79,0-1.19.02-4.93.13-9.62,1.4-13.95,3.76l-.05.03-.05.03c-2.41,1.36-4.82,2.84-7.17,4.41-3.13,2.08-5.7,4.75-7.67,7.94-2.5,3.82-4.61,7.88-6.25,12.04-1.96,4.98-2.57,10.21-1.81,15.55.46,3.87,1.41,7.83,2.82,11.76,1.67,4.68,4.32,8.65,7.87,11.79l.05.04.05.04c2.16,1.85,4.37,3.65,6.56,5.33,3.09,2.37,6.56,3.89,10.33,4.52,2.82.62,5.66,1.09,8.44,1.41,1,.11,2.01.17,3,.17,2.67,0,5.32-.41,7.88-1.23l.08-.02.08-.03c4.45-1.52,8.8-3.48,12.92-5.81,4.76-2.7,8.7-6.29,11.73-10.69,4.51-6.48,6.86-13.78,6.99-21.71.12-7.96-2-15.3-6.3-21.82-2.5-3.75-5.73-7.05-9.62-9.85-3.9-2.8-8.17-4.84-12.69-6.06-3.96-1.07-8-1.61-12.02-1.61h0Z"/>
    </g>
    <g>
      <path class="cls-1" d="M117.98,564.15l1.28-4.99c3.02-11.78,5.62-19.88,7.96-24.76,2.91-6.08,6.51-9.16,10.71-9.16h1.93c-.45-.66-.88-1.35-1.27-2.08-3.16-5.84-4.9-12.65-5.17-20.22-.26-7.34.25-13.48,1.52-18.23,2.2-8.05,6.48-14.32,12.71-18.66,6.13-4.27,14.93-6.43,26.16-6.43,9.56,0,17.21,2.18,22.74,6.48,5.47,4.25,9.25,9.65,11.25,16.03,1.88,6,2.78,12.11,2.67,18.18-.1,5.88-1.06,13.55-2.86,22.81l-.44,2.27h3.3v38.76h-92.5ZM167.66,525.39l.6-3.68c1.32-8.02.83-10.92.56-11.8-.15-.48-.29-.94-1.84-.98-.16.22-.48.78-.78,2.01-.7,2.85-.8,6.08-.29,9.61.36,2.46.83,3.96,1.23,4.85h.52Z"/>
      <path class="cls-2" d="M173.82,463.61c8.69,0,15.45,1.88,20.29,5.64,4.83,3.76,8.13,8.45,9.89,14.06,1.76,5.62,2.59,11.26,2.49,16.92-.1,5.67-1.03,13.04-2.78,22.12h-31.49c1.07-6.54,1.22-11.08.44-13.62-.78-2.54-2.74-3.81-5.86-3.81-2.15,0-3.64,1.68-4.47,5.05-.83,3.37-.95,7.08-.37,11.13.59,4.05,1.61,6.81,3.08,8.28h41.46v30.76h-83.35c2.93-11.43,5.49-19.43,7.69-24.02,2.2-4.59,4.56-6.88,7.1-6.88h17.58c-6.06,0-10.52-2.66-13.4-7.98-2.88-5.32-4.44-11.47-4.69-18.46-.25-6.98.22-12.67,1.39-17.07,1.95-7.13,5.66-12.6,11.13-16.41,5.47-3.81,13.43-5.71,23.88-5.71M173.82,455.61c-12.24,0-21.54,2.34-28.45,7.15-7.02,4.89-11.82,11.91-14.28,20.86v.03s-.01.03-.01.03c-1.39,5.21-1.93,11.56-1.66,19.41.24,6.92,1.63,13.28,4.15,18.94-3.93,1.47-7.27,5.04-9.96,10.65-2.45,5.11-5.14,13.45-8.22,25.49l-2.56,9.99h101.66v-46.76h-2.46c1.55-8.47,2.36-15.36,2.46-21.01.11-6.5-.85-13.04-2.85-19.45-2.25-7.17-6.49-13.23-12.61-17.99-6.25-4.86-14.73-7.33-25.2-7.33h0Z"/>
    </g>
    <g>
      <path class="cls-1" d="M381.18,496.47c-7.12,0-13.39-2.66-18.64-7.91-5.24-5.25-7.9-11.52-7.9-18.65s2.66-13.4,7.9-18.65c5.25-5.25,11.52-7.91,18.64-7.91s13.25,2.66,18.55,7.89c5.3,5.25,7.99,11.53,7.99,18.67s-2.69,13.41-7.99,18.66c-5.29,5.24-11.53,7.9-18.55,7.9Z"/>
      <path class="cls-2" d="M381.18,447.35c5.95,0,11.19,2.25,15.73,6.74,4.54,4.49,6.81,9.77,6.81,15.82s-2.27,11.33-6.81,15.82c-4.54,4.49-9.78,6.74-15.73,6.74s-11.32-2.25-15.81-6.74c-4.49-4.49-6.73-9.76-6.73-15.82s2.24-11.33,6.73-15.82c4.49-4.49,9.76-6.74,15.81-6.74M381.18,439.35c-8.22,0-15.44,3.06-21.47,9.08-6.02,6.03-9.08,13.25-9.08,21.48s3.05,15.45,9.08,21.48c6.02,6.03,13.24,9.08,21.47,9.08s15.29-3.05,21.36-9.05c6.09-6.03,9.18-13.27,9.18-21.51s-3.09-15.48-9.18-21.51c-6.07-6.01-13.26-9.05-21.36-9.05h0Z"/>
    </g>
    <g>
      <path class="cls-1" d="M335.81,496.47c-7.12,0-13.39-2.66-18.64-7.91-5.24-5.25-7.9-11.52-7.9-18.65s2.66-13.4,7.9-18.65c5.25-5.25,11.52-7.91,18.64-7.91s13.39,2.66,18.64,7.91c5.25,5.25,7.91,11.53,7.91,18.65s-2.66,13.4-7.9,18.65c-5.25,5.25-11.52,7.91-18.64,7.91Z"/>
      <path class="cls-2" d="M335.81,447.35c6.05,0,11.32,2.25,15.81,6.74,4.49,4.49,6.73,9.77,6.73,15.82s-2.25,11.33-6.73,15.82c-4.49,4.49-9.76,6.74-15.81,6.74s-11.32-2.25-15.81-6.74c-4.49-4.49-6.73-9.76-6.73-15.82s2.24-11.33,6.73-15.82c4.49-4.49,9.76-6.74,15.81-6.74M335.81,439.35c-8.22,0-15.44,3.06-21.47,9.08-6.02,6.03-9.07,13.25-9.07,21.48s3.05,15.45,9.07,21.48c6.02,6.03,13.24,9.08,21.47,9.08s15.44-3.06,21.47-9.08c6.02-6.03,9.08-13.25,9.08-21.48s-3.05-15.45-9.07-21.48c-6.03-6.03-13.25-9.08-21.47-9.08h0Z"/>
    </g>
    <g>
      <path class="cls-1" d="M308.97,647.73c-4.04,0-8.34-.13-12.77-.38l-.96-.05c-7.67-.22-14.09-1.12-19.11-2.68-4.98-1.54-9.28-4.21-12.85-7.98-1.66,1.24-3.39,2.38-5.18,3.43-8.25,4.83-17.38,7.29-27.14,7.29h-110.45c-6.16,0-11.47-2.19-15.79-6.52-4.32-4.32-6.52-9.63-6.52-15.79v-50.88h123.93v-119.78c0-4.08,1.75-9.69,10.11-13.27,5.48-2.35,11.93-3.9,19.2-4.62,4.94-.49,11.36-.74,19.07-.74,3.28,0,6.86.04,10.64.13l3.91.09v135.36c2.18.96,6.02,1.95,12.72,2.07,5.89-.12,10.91-1.04,14.9-2.73,4.25-1.8,7.58-4.06,9.9-6.71,2.39-2.73,4.08-5.46,5.03-8.09.98-2.71,1.74-6.37,2.29-10.86l-5.17-31.62c-.33-1.77.24-3.53,1.55-4.84l.09-.09.09-.08c4.9-4.33,12.15-6.64,21.53-6.86,1.05-.02,2.09-.04,3.13-.04,7.55,0,14.93.65,21.92,1.93,7.75,1.42,14.39,2.85,19.71,4.22,2.75.65,4.42,2.92,4.22,5.7-.01.5-.07,1.39-.32,3.49-.67,6.01-1.15,11.99-1.44,17.75-.28,5.54.08,11.29,1.05,17.08.88,5.24,2.6,9.17,5.11,11.68l.47.47v.02s.11.08.11.08l.24.26c2.36,2.53,5.6,4.73,9.63,6.55,4,1.81,10.52,2.72,19.37,2.72h202.12c-.51-1.14-1.21-1.78-1.8-2.2-2.21-1.58-4.99-2.57-8.28-2.93-3.84-.42-9.21-.64-15.97-.64h-157.52v-60.15h4c8.79,0,15.3-2.41,19.93-7.37,4.82-5.18,8.16-12.45,9.91-21.61,1.85-9.67,2.79-21.83,2.79-36.16v-4h71.05l.35,3.61c.7,7.12.9,13.18.6,18-.31,4.91-1.27,10.15-2.86,15.59-1.65,5.63-4.41,11-8.21,15.96-3.9,5.09-9.3,9.26-16.07,12.4-3.44,1.6-7.3,2.79-11.55,3.58h90.65c17.87,0,32.39,3.43,43.15,10.21,11.35,7.15,17.1,18.32,17.1,33.19v51.27c-.11,9.81-2.7,19.66-7.7,29.31-5.46,10.52-16.04,15.85-31.46,15.85h-207.32v-.13c-8.26-.3-15.21-1.16-20.71-2.55-7.55-1.91-13.66-5.67-18.15-11.16-3.26-3.98-5.65-9.28-7.15-15.82-4.88,7.94-12.52,14.88-22.79,20.72-10.88,6.19-26.47,9.32-46.35,9.32Z"/>
      <path class="cls-2" d="M270.5,439.75c3.26,0,6.77.04,10.54.13v133.83c.36.22.72.44,1.1.65,3.43,1.92,8.65,2.93,15.62,3.05,6.44-.12,11.94-1.13,16.46-3.05,4.83-2.05,8.62-4.64,11.35-7.76,2.73-3.12,4.66-6.25,5.79-9.38,1.12-3.12,1.98-7.23,2.56-12.3l-5.27-32.23c-.1-.49.05-.93.44-1.32,4.2-3.71,10.52-5.66,18.97-5.86,1.02-.02,2.03-.04,3.04-.04,7.35,0,14.42.62,21.2,1.87,7.71,1.42,14.21,2.81,19.48,4.17.88.2,1.27.73,1.17,1.61,0,.49-.1,1.56-.29,3.22-.68,6.15-1.17,12.16-1.46,18.02s.07,11.84,1.1,17.94c1.03,6.1,3.1,10.72,6.23,13.84.1.2.34.44.73.73,2.73,2.93,6.37,5.42,10.91,7.47s11.55,3.08,21.02,3.08h206.84c0-4.3-1.39-7.45-4.17-9.45-2.78-2-6.18-3.22-10.18-3.66-4.01-.44-9.47-.66-16.41-.66h-153.52v-52.15c9.86,0,17.48-2.88,22.85-8.64,5.37-5.76,9.01-13.62,10.91-23.58s2.86-22.27,2.86-36.91h63.43c.68,6.94.88,12.72.59,17.36-.29,4.64-1.2,9.55-2.71,14.72-1.52,5.18-4.03,10.06-7.54,14.65-3.52,4.59-8.38,8.33-14.58,11.21-6.2,2.88-13.84,4.32-22.92,4.32v6.88h103.71c17.19,0,30.86,3.2,41.02,9.59,10.16,6.4,15.23,16.33,15.23,29.81v51.27c-.1,9.18-2.52,18.34-7.25,27.47-4.74,9.13-14.04,13.7-27.91,13.7h-203.32v-.03c-9.71-.15-17.63-.98-23.73-2.53-6.74-1.71-12.08-4.98-16.04-9.81s-6.47-11.94-7.54-21.31c-.1-.78-.54-1.25-1.32-1.39-.12-.02-.24-.03-.35-.03-.59,0-1.01.33-1.26.99-3.91,10.06-12.08,18.63-24.54,25.71-10.32,5.87-25.11,8.8-44.37,8.8-3.99,0-8.17-.13-12.54-.38v-.03c-7.8-.16-14.18-1-19.12-2.53-5.49-1.7-9.98-4.95-13.49-9.73-2.38,2.06-4.96,3.92-7.75,5.56-7.67,4.49-16.04,6.74-25.12,6.74h-110.45c-5.08,0-9.4-1.78-12.96-5.35-3.57-3.56-5.35-7.88-5.35-12.96v-46.88h123.93v-123.78c0-4.2,2.56-7.4,7.69-9.59s11.13-3.64,18.02-4.32c4.82-.48,11.05-.72,18.68-.72M270.5,431.75c-7.85,0-14.4.25-19.47.76-7.67.76-14.53,2.42-20.38,4.93-10.91,4.68-12.54,12.62-12.54,16.95v115.78h-123.93v54.88c0,7.15,2.66,13.59,7.69,18.62,5.02,5.03,11.46,7.69,18.62,7.69h110.45c10.48,0,20.29-2.64,29.17-7.84.94-.55,1.86-1.13,2.77-1.73,3.5,3.02,7.53,5.24,12.06,6.64,5.45,1.69,12.08,2.63,20.24,2.86l.78.05c4.5.26,8.88.39,13,.39,20.87,0,36.68-3.22,48.33-9.85,7.92-4.5,14.38-9.66,19.32-15.41,1.47,3.66,3.31,6.83,5.54,9.56,5.05,6.17,11.87,10.38,20.27,12.5,4.96,1.26,10.79,2.08,17.7,2.49v.29l8,.03h203.32c11.71,0,27.28-3.12,35.01-18.01,5.3-10.21,8.04-20.66,8.15-31.06v-.04s0-.04,0-.04v-51.27c0-16.11-6.56-28.76-18.97-36.58-11.41-7.18-26.65-10.83-45.28-10.83h-70.17c4.08-2.73,7.53-5.92,10.31-9.55,4.1-5.35,7.08-11.16,8.87-17.26,1.67-5.72,2.69-11.26,3.02-16.46.32-5.1.12-11.2-.61-18.65l-.71-7.22h-78.68v8c0,14.08-.91,25.99-2.71,35.41-1.61,8.41-4.6,15.02-8.91,19.63-3.82,4.1-9.38,6.1-17,6.1h-8v65.92h-14.56c-10.32,0-15.34-1.29-17.73-2.37-3.53-1.6-6.33-3.48-8.33-5.6v-.02s-.13-.12-.13-.12l-.38-.41-.11-.08-.33-.33c-1.91-1.91-3.25-5.11-3.99-9.51-.93-5.51-1.26-10.96-1-16.22.28-5.69.76-11.58,1.43-17.53.24-2.01.32-3.02.34-3.72.3-4.7-2.62-8.65-7.25-9.77-5.41-1.4-12.13-2.84-19.95-4.28-7.23-1.33-14.85-2-22.65-2-1.06,0-2.15.01-3.22.04-10.35.24-18.45,2.89-24.08,7.86l-.18.16-.17.17c-2.25,2.25-3.22,5.29-2.66,8.36l5.07,31.01c-.5,3.94-1.18,7.1-2.01,9.43-.78,2.16-2.22,4.46-4.28,6.81-1.92,2.19-4.76,4.1-8.46,5.67-3.5,1.49-7.99,2.3-13.34,2.41-4.05-.08-6.83-.48-8.71-.94v-136.39l-7.81-.18c-3.81-.09-7.42-.13-10.73-.13h0Z"/>
    </g>
    <g>
      <path class="cls-1" d="M664.85,732.34c-1.37,0-2.77,0-4.17-.03l-3.95-.05v-84.12h4c14.44,0,25.99-1.07,34.32-3.17,7.8-1.97,13.39-4.99,16.63-8.97,3.2-3.93,4.82-9.49,4.82-16.52,0-10.66-.66-23.03-1.96-36.76-1.3-13.76-3.69-32.75-7.08-56.43l-.28-1.98,1.42-1.42c4.68-4.68,10.14-7.89,16.21-9.53,4.29-1.16,8.67-1.75,13.02-1.75,1.59,0,3.21.08,4.81.23,5.78.56,11.16,1.63,15.99,3.17,4.73,1.51,10.52,3.9,17.21,7.09l2.23,1.07,1.51,90.37v3.29c0,13.22-.4,24.65-1.19,33.96-.81,9.56-3.11,19.36-6.84,29.14-3.82,10-10.12,19.16-18.73,27.21-8.62,8.06-20.72,14.43-35.95,18.93-14.08,4.16-31.58,6.27-52.02,6.27h0Z"/>
      <path class="cls-2" d="M737.82,515.62c1.47,0,2.95.07,4.43.22,5.52.54,10.57,1.54,15.16,3,4.59,1.46,10.16,3.76,16.7,6.88l1.46,87.89v3.22c0,13.18-.39,24.39-1.17,33.62-.78,9.23-2.98,18.58-6.59,28.05-3.61,9.47-9.52,18.04-17.72,25.71-8.2,7.67-19.65,13.67-34.35,18.02-13.77,4.07-30.73,6.11-50.89,6.11-1.36,0-2.73,0-4.12-.03v-76.17c14.84,0,26.61-1.1,35.3-3.3,8.69-2.2,14.94-5.64,18.75-10.33s5.71-11.03,5.71-19.04c0-10.84-.66-23.22-1.98-37.13s-3.69-32.79-7.1-56.62c4.2-4.2,9.01-7.03,14.43-8.5,3.97-1.07,7.96-1.61,11.98-1.61M737.82,507.62c-4.71,0-9.44.63-14.06,1.88-6.76,1.83-12.82,5.38-18,10.56l-2.83,2.83.57,3.96c3.39,23.61,5.76,42.53,7.06,56.23,1.29,13.6,1.94,25.84,1.94,36.38,0,6.09-1.32,10.8-3.92,14-2.68,3.3-7.56,5.86-14.5,7.62-8.01,2.02-19.23,3.05-33.34,3.05h-8v92.07l7.89.11c1.42.02,2.83.03,4.22.03,20.82,0,38.71-2.17,53.16-6.44,15.83-4.68,28.46-11.36,37.55-19.84,9.06-8.47,15.7-18.13,19.74-28.7,3.86-10.13,6.25-20.3,7.09-30.23.8-9.42,1.2-20.96,1.2-34.29v-3.36s-1.47-87.89-1.47-87.89l-.08-4.95-4.47-2.13c-6.94-3.31-12.74-5.7-17.71-7.29-5.1-1.63-10.76-2.75-16.82-3.34-1.73-.17-3.48-.25-5.21-.25h0Z"/>
    </g>
    <g>
      <path class="cls-1" d="M1036.17,496.47c-7.13,0-13.4-2.66-18.65-7.91-1.59-1.59-2.94-3.27-4.06-5.05-1.11,1.77-2.47,3.46-4.06,5.05-5.25,5.25-11.52,7.91-18.65,7.91s-13.4-2.66-18.65-7.91c-5.25-5.24-7.91-11.52-7.91-18.65s2.66-13.4,7.91-18.65c5.07-5.07,11.1-7.73,17.94-7.9-1.02-2.66-1.53-5.48-1.53-8.46,0-6.44,2.43-12.16,7.23-17.02,4.81-4.87,10.57-7.34,17.13-7.34s12.32,2.46,17.18,7.32c4.86,4.86,7.32,10.59,7.32,17.04,0,2.98-.51,5.8-1.53,8.45.1,0,.21,0,.31,0,7.02,0,13.26,2.66,18.56,7.89,5.31,5.25,8,11.53,8,18.67s-2.69,13.42-8,18.67c-5.29,5.24-11.54,7.89-18.56,7.89Z"/>
      <path class="cls-2" d="M1012.88,414.54c5.47,0,10.25,2.05,14.36,6.15s6.15,8.84,6.15,14.21-2.05,10.25-6.14,14.35c2.76-1.25,5.73-1.9,8.93-1.9,5.96,0,11.21,2.25,15.75,6.74,4.54,4.49,6.81,9.77,6.81,15.82s-2.27,11.33-6.81,15.82c-4.54,4.49-9.79,6.74-15.75,6.74s-11.33-2.25-15.82-6.74c-4.49-4.49-6.74-9.76-6.74-15.82s2.25-11.33,6.74-15.82c.09-.09.18-.16.26-.24-2.41,1.04-4.98,1.56-7.73,1.56-2.07,0-4.03-.29-5.9-.88,4.21,4.4,6.34,9.52,6.34,15.38s-2.25,11.33-6.74,15.82-9.77,6.74-15.82,6.74-11.33-2.25-15.82-6.74c-4.49-4.49-6.74-9.76-6.74-15.82s2.25-11.33,6.74-15.82,9.76-6.74,15.82-6.74c2.54,0,4.94.42,7.21,1.22-3.62-3.95-5.45-8.5-5.45-13.67s2.03-10.11,6.08-14.21c4.05-4.1,8.81-6.15,14.28-6.15M1012.88,406.54c-7.66,0-14.38,2.87-19.97,8.53-5.56,5.63-8.39,12.3-8.39,19.83,0,1.71.14,3.37.43,4.99-5.85,1.12-11.1,3.98-15.66,8.54-6.03,6.03-9.08,13.25-9.08,21.48s3.06,15.46,9.08,21.48c6.02,6.02,13.25,9.08,21.48,9.08s15.45-3.06,21.48-9.08c.42-.42.83-.85,1.23-1.29.4.44.81.87,1.23,1.29,6.02,6.02,13.25,9.08,21.48,9.08s15.3-3.05,21.37-9.05c6.09-6.03,9.18-13.26,9.18-21.51s-3.09-15.48-9.18-21.51c-4.84-4.79-10.4-7.7-16.56-8.68.27-1.56.4-3.17.4-4.83,0-7.54-2.86-14.23-8.5-19.87s-12.37-8.5-20.01-8.5h0Z"/>
    </g>
    <g>
      <path class="cls-1" d="M1234.95,657.17c-20.79,0-37.69-5.71-50.29-16.98-7.14,4.76-15.19,7.17-23.97,7.17h-22.9v-.18c-6.37-.35-11.79-1.21-16.15-2.56-6.33-1.96-11.58-5.75-15.6-11.28-.11-.16-.23-.32-.34-.48-.54.45-1.08.89-1.62,1.33-10.98,8.74-26.78,13.18-46.95,13.18-8.05,0-15.06-2.4-20.84-7.13-5.03-4.11-9.01-9.37-11.85-15.67-1.94,6.37-5.77,11.74-11.41,15.99-6.09,4.58-14.66,6.81-26.21,6.81-7.05,0-13.16-1.28-18.14-3.8-5.29-2.67-9.52-7.72-12.58-14.99-.8-1.91-1.49-4.01-2.07-6.31-1.53,2.51-3.37,4.82-5.52,6.9-7.15,6.94-15.54,11.78-24.93,14.39-9.09,2.53-17.54,3.81-25.09,3.81h-43.51c-9.76,0-18.9-2.45-27.15-7.29-8.23-4.82-14.85-11.44-19.67-19.67-4.83-8.25-7.29-17.38-7.29-27.14v-151.56l3.91-.09c3.78-.09,7.36-.13,10.64-.13,7.72,0,14.13.25,19.07.74,7.26.72,13.72,2.28,19.2,4.62,8.36,3.58,10.11,9.19,10.11,13.27v113.33h17.58v.03c3.14-.02,7.32-.03,12.51-.03v-46.58l1.17-1.17c4.83-4.83,12.75-7.18,24.22-7.18,5.36,0,11.01.46,16.8,1.37,5.7.89,13.14,2.49,22.11,4.76l3.02.76v42.52l-.09,6.47c10.55-.44,15.37-2.68,17.57-4.58,3.46-2.99,5.14-6.72,5.14-11.4,0-1.39-.09-2.99-.26-4.78l-5.27-35,1.43-1.43c4.83-4.83,12.7-7.18,24.07-7.18,5.45,0,11.16.46,16.95,1.37,5.71.89,13.1,2.5,21.98,4.76l3.01.77v57.48c10.76-.42,15.64-2.55,17.85-4.36,3.4-2.79,5.06-6.31,5.06-10.75-.05-1.08-1.04-9.98-5.54-45.79l-.24-1.94,1.38-1.38c4.83-4.83,12.75-7.18,24.22-7.18,5.36,0,11.01.46,16.8,1.37,5.7.89,13.14,2.49,22.11,4.76l3.02.76v57.98c.05,1.28.08,2.44.1,3.48,2.35,1.05,6.61,2.11,14.21,2.11h17.82c.96-21.01,5.15-39.56,12.47-55.19,7.87-16.81,18.39-29.32,31.28-37.17,9.56-5.83,19.84-8.79,30.53-8.79,3.89,0,7.91.39,11.93,1.17,15.87,3.09,29.77,11.42,41.3,24.75,11.35,13.11,19.4,28.82,23.92,46.68,2.42,9.54,3.67,19.1,3.73,28.47,1.13.06,2.3.08,3.53.08h10.65v-113.33c0-4.08,1.77-9.7,10.2-13.28,5.52-2.34,11.97-3.9,19.18-4.62,4.91-.49,11.3-.74,19.01-.74,3.27,0,6.85.04,10.63.13l3.91.09v151.56c0,9.76-2.45,18.89-7.29,27.14-4.82,8.23-11.44,14.85-19.67,19.67-8.25,4.83-17.38,7.29-27.14,7.29h-26.41v-.18c-6.37-.35-11.79-1.21-16.15-2.56-3.17-.98-6.09-2.44-8.73-4.37-.04.04-.09.07-.13.11-13.42,11.16-31.7,16.82-54.34,16.82ZM1237.44,539.25c-2.63,0-4.29,1.01-5.55,3.38-1.69,3.17-2.77,7.33-3.21,12.38-.48,5.46-.72,12.76-.72,21.7,0,1.87.63,3.37,1.98,4.71,1.35,1.35,2.89,1.98,4.86,1.98h7.03c2.17,0,4.06-.61,5.76-1.86,1.7-1.25,2.83-2.83,3.45-4.84,1.81-5.87,2.59-11.97,2.31-18.12-.26-5.79-1.79-10.62-4.56-14.34-2.5-3.35-6.21-4.98-11.37-4.98Z"/>
      <path class="cls-2" d="M1380.27,445.47c3.25,0,6.77.04,10.54.13v147.66c0,9.08-2.25,17.46-6.74,25.12-4.49,7.67-10.57,13.75-18.24,18.24-7.67,4.49-16.04,6.74-25.12,6.74h-22.41v-.04c-7.73-.17-14.06-1.01-18.97-2.53-3.81-1.18-7.13-3.12-9.99-5.79-.85.77-1.72,1.53-2.61,2.28-12.74,10.59-30.01,15.89-51.78,15.89s-37.84-6.06-49.95-18.16c-7.13,5.57-15.23,8.35-24.32,8.35h-18.9v-.04c-7.73-.17-14.06-1.01-18.97-2.53-5.52-1.71-10.03-4.98-13.55-9.81-.93-1.28-1.8-2.74-2.61-4.34-1.59,1.5-3.28,2.97-5.08,4.41-10.3,8.2-25.12,12.3-44.46,12.3-7.13,0-13.23-2.07-18.31-6.23-5.08-4.15-8.94-9.54-11.57-16.19-2.64-6.64-3.96-13.72-3.96-21.24,0,8.89-.78,16.38-2.34,22.49-1.56,6.1-5.01,11.16-10.33,15.16-5.32,4.01-13.26,6.01-23.8,6.01-6.45,0-11.89-1.12-16.33-3.37-4.45-2.25-8.01-6.57-10.69-12.96-2.69-6.39-4.03-15.5-4.03-27.32,0,11.23-3.35,20.09-10.03,26.59-6.69,6.5-14.43,10.96-23.22,13.4-8.79,2.44-16.8,3.66-24.02,3.66h-43.51c-9.08,0-17.46-2.25-25.12-6.74-7.67-4.49-13.75-10.57-18.24-18.24-4.49-7.67-6.74-16.04-6.74-25.12v-147.66c3.77-.09,7.29-.13,10.54-.13,7.63,0,13.86.24,18.68.72,6.88.68,12.89,2.12,18.02,4.32s7.69,5.4,7.69,9.59v117.33h17.58v.06c3.57-.04,10.39-.06,20.51-.06v-48.93c4-4,11.13-6.01,21.39-6.01,5.17,0,10.57.44,16.19,1.32,5.61.88,12.87,2.44,21.75,4.69v39.4l-.15,9.96.15.59c11.72,0,19.75-1.88,24.1-5.64,4.34-3.76,6.52-8.57,6.52-14.43,0-1.56-.1-3.32-.29-5.27l-4.98-33.11c4-4,11.08-6.01,21.24-6.01,5.27,0,10.72.44,16.33,1.32,5.61.88,12.82,2.44,21.61,4.69v58.45c11.91,0,20.04-1.78,24.39-5.35,4.34-3.56,6.52-8.18,6.52-13.84,0-1.27-1.86-16.7-5.57-46.29,4-4,11.13-6.01,21.39-6.01,5.17,0,10.57.44,16.19,1.32,5.61.88,12.87,2.44,21.75,4.69v54.93c.08,2.32.13,4.23.14,5.8.36.22.73.44,1.1.65,3.66,2.05,9.35,3.08,17.07,3.08h21.68c.59-22.17,4.66-41.33,12.23-57.5,7.57-16.16,17.48-27.98,29.74-35.45,8.97-5.47,18.45-8.2,28.45-8.2,3.66,0,7.38.37,11.18,1.1,15.04,2.93,28.05,10.74,39.04,23.44,10.99,12.7,18.68,27.71,23.07,45.04,2.67,10.54,3.85,20.93,3.57,31.16,2.26.27,4.78.41,7.57.41h14.65v-117.33c0-4.2,2.59-7.4,7.76-9.59,5.17-2.2,11.18-3.64,18.02-4.32,4.79-.48,10.99-.72,18.61-.72M1234.81,587.39h7.03c3.03,0,5.74-.88,8.13-2.64,2.39-1.76,4.03-4.05,4.91-6.88,1.95-6.35,2.78-12.84,2.49-19.48-.29-6.64-2.08-12.16-5.35-16.55-3.27-4.39-8.13-6.59-14.58-6.59-4.1,0-7.13,1.83-9.08,5.49-1.96,3.66-3.17,8.3-3.66,13.92-.49,5.62-.73,12.96-.73,22.05,0,2.93,1.05,5.45,3.15,7.54,2.1,2.1,4.66,3.15,7.69,3.15M1380.27,437.47c-7.84,0-14.37.25-19.41.76-7.61.76-14.46,2.42-20.35,4.92-11,4.67-12.64,12.63-12.64,16.96v109.33h-6.27c-.34-8.44-1.6-17-3.76-25.53-4.68-18.47-13.02-34.73-24.78-48.31-12.14-14.02-26.79-22.79-43.56-26.06-4.29-.83-8.56-1.25-12.71-1.25-11.44,0-22.41,3.15-32.61,9.37-13.57,8.27-24.61,21.35-32.82,38.89-7.09,15.15-11.33,32.91-12.63,52.89h-14.04c-4.93,0-8.18-.46-10.29-1,0-.22-.02-.44-.02-.67v-61.02l-6.04-1.53c-9.09-2.3-16.66-3.92-22.47-4.83-6-.94-11.86-1.41-17.42-1.41-12.58,0-21.43,2.73-27.04,8.35l-2.77,2.77.49,3.88c4.51,35.95,5.4,43.99,5.5,45.46-.04,3.17-1.15,5.49-3.59,7.49-1,.82-3.87,2.47-11.32,3.19v-56.31l-6.02-1.54c-9-2.3-16.52-3.93-22.35-4.84-6-.94-11.91-1.41-17.57-1.41-12.48,0-21.28,2.73-26.9,8.35l-2.85,2.85.6,3.99,4.95,32.9c.16,1.61.23,3.06.23,4.29,0,3.55-1.16,6.13-3.75,8.38-.98.85-3.77,2.55-10.89,3.31l.03-2.05v-.06s0-.06,0-.06v-45.63l-6.04-1.53c-9.09-2.3-16.66-3.92-22.47-4.83-6-.94-11.86-1.41-17.42-1.41-12.58,0-21.43,2.73-27.04,8.35l-2.34,2.34v44.25c-1.63,0-3.13,0-4.51,0v-.02h-17.58v-109.33c0-4.32-1.63-12.27-12.54-16.95-5.85-2.51-12.71-4.17-20.38-4.93-5.07-.5-11.62-.76-19.47-.76-3.31,0-6.92.04-10.73.13l-7.81.18v155.47c0,10.48,2.64,20.3,7.84,29.17,5.17,8.83,12.27,15.92,21.1,21.1,8.87,5.2,18.68,7.83,29.16,7.83h43.51c7.92,0,16.72-1.33,26.17-3.95,10.05-2.79,19.02-7.96,26.65-15.37.46-.45.91-.9,1.34-1.37,3.41,7.88,8.2,13.42,14.23,16.47,5.54,2.8,12.25,4.23,19.94,4.23,12.45,0,21.8-2.49,28.61-7.61,3.91-2.94,7.05-6.37,9.39-10.26,2.51,3.74,5.5,7.04,8.94,9.84,6.51,5.33,14.38,8.03,23.37,8.03,20.2,0,36.31-4.33,47.92-12.88,4.19,4.74,9.37,8.09,15.42,9.96,3.83,1.19,8.23,2,13.33,2.46v.42l8,.04h18.9c8.55,0,16.46-2.09,23.6-6.23,13.07,10.65,30.08,16.04,50.67,16.04,22.39,0,40.77-5.38,54.69-15.99,2.28,1.36,4.73,2.45,7.32,3.25,3.83,1.19,8.23,2,13.33,2.46v.42l8,.04h22.41c10.48,0,20.29-2.64,29.17-7.84,8.82-5.17,15.92-12.27,21.09-21.1,5.2-8.88,7.84-18.69,7.84-29.17v-155.47l-7.81-.18c-3.81-.09-7.42-.13-10.72-.13h0ZM1234.81,579.39c-1.03,0-1.52-.29-2.03-.8-.61-.61-.81-1.08-.81-1.89,0-8.83.24-16.01.7-21.35.39-4.51,1.32-8.16,2.75-10.84.59-1.11.94-1.26,2.02-1.26,5.01,0,6.99,1.8,8.16,3.37,2.31,3.11,3.55,7.08,3.77,12.13.25,5.69-.47,11.34-2.14,16.78-.37,1.18-.98,2.04-2,2.79-1.02.75-2.07,1.08-3.39,1.08h-7.03Z"/>
    </g>
  </g>
  <g>
    <path class="cls-2" d="M243.27,896.93h-21.28c-.75-.75-1.28-2.17-1.58-4.25-.3-2.08-.24-3.98.19-5.71.43-1.73,1.19-2.59,2.29-2.59,1.6,0,2.61.65,3.01,1.95.4,1.3.33,3.63-.23,6.99h16.16c.9-4.66,1.38-8.45,1.43-11.35.05-2.91-.38-5.8-1.28-8.68-.9-2.88-2.59-5.29-5.08-7.22-2.48-1.93-5.95-2.9-10.41-2.9-5.36,0-9.45.98-12.26,2.93-2.81,1.95-4.71,4.76-5.71,8.42-.6,2.25-.84,5.18-.71,8.76.12,3.58.93,6.74,2.41,9.47,1.48,2.73,3.77,4.1,6.88,4.1h-9.02c-1.3,0-2.52,1.18-3.65,3.53-1.13,2.36-2.44,6.47-3.95,12.33h42.78v-15.79Z"/>
    <path class="cls-2" d="M199.13,955.43h56.69c4.66,0,8.96-1.15,12.89-3.46,1.44-.84,2.76-1.79,3.98-2.85,1.8,2.46,4.11,4.12,6.92,5,2.53.79,5.81,1.22,9.81,1.3v.02c12.53.4,22.19-1.37,28.98-5.3,6.79-3.93,11.82-8.51,15.07-13.72,2.15-3.46,3.76-7.34,4.81-11.65,1.05-4.31,1.68-8.57,1.88-12.78.2-4.21.16-8.06-.11-11.54-.28-3.48-.84-7.71-1.69-12.67-2.71-.7-6.04-1.42-10-2.14-3.96-.73-8.11-1.04-12.44-.94-4.34.1-7.58,1.1-9.74,3.01-.2.2-.28.43-.23.68l2.71,16.54c-.3,2.61-.74,4.71-1.32,6.32-.58,1.6-1.57,3.21-2.97,4.81-1.4,1.6-3.35,2.93-5.83,3.98-2.32.99-5.14,1.5-8.45,1.57-3.58-.06-6.26-.58-8.02-1.57-.2-.11-.37-.23-.56-.35v-68.67c-6.47-.15-11.47-.05-15,.3-3.53.35-6.62,1.09-9.25,2.22-2.63,1.13-3.95,2.77-3.95,4.92v63.53h-63.61v24.06c0,2.61.91,4.83,2.74,6.65,1.83,1.83,4.05,2.74,6.65,2.74Z"/>
    <path class="cls-2" d="M307.78,877.99c3.11,0,5.81-1.15,8.12-3.46,2.31-2.3,3.46-5.01,3.46-8.12s-1.15-5.81-3.46-8.12c-2.31-2.3-5.01-3.46-8.12-3.46s-5.81,1.15-8.12,3.46c-2.31,2.31-3.46,5.01-3.46,8.12s1.15,5.82,3.46,8.12c2.3,2.31,5.01,3.46,8.12,3.46Z"/>
    <path class="cls-2" d="M331.08,877.99c3.06,0,5.75-1.15,8.08-3.46,2.33-2.3,3.5-5.01,3.5-8.12s-1.17-5.81-3.5-8.12c-2.33-2.3-5.03-3.46-8.08-3.46s-5.81,1.15-8.12,3.46-3.46,5.01-3.46,8.12,1.15,5.82,3.46,8.12c2.3,2.31,5.01,3.46,8.12,3.46Z"/>
    <path class="cls-2" d="M368.11,951.97c3.93,2.31,8.23,3.46,12.89,3.46h10.07c12.53.4,22.19-1.37,28.98-5.3,6.79-3.93,11.82-8.51,15.07-13.72,2.15-3.46,3.76-7.34,4.81-11.65,1.05-4.31,1.68-8.57,1.88-12.78.2-4.21.16-8.06-.11-11.54-.28-3.48-.84-7.71-1.69-12.67-2.71-.7-6.04-1.42-10-2.14-3.96-.73-8.11-1.04-12.44-.94-4.34.1-7.58,1.1-9.74,3.01-.2.2-.28.43-.23.68l2.71,16.54c-.3,2.61-.74,4.71-1.32,6.32-.58,1.6-1.57,3.21-2.97,4.81-1.4,1.6-3.35,2.93-5.83,3.98-2.48,1.05-5.53,1.58-9.13,1.58h-7.59v-60.22c0-2.15-1.32-3.8-3.95-4.92-2.63-1.13-5.71-1.87-9.25-2.22-3.53-.35-8.53-.45-15-.3v75.79c0,4.66,1.15,8.96,3.46,12.89,2.3,3.94,5.42,7.06,9.36,9.36Z"/>
    <path class="cls-2" d="M422.58,877.99c3.11,0,5.81-1.15,8.12-3.46,2.3-2.3,3.46-5.01,3.46-8.12s-1.15-5.81-3.46-8.12c-2.31-2.3-5.01-3.46-8.12-3.46s-5.81,1.15-8.12,3.46c-2.31,2.31-3.46,5.01-3.46,8.12s1.15,5.82,3.46,8.12c2.31,2.31,5.01,3.46,8.12,3.46Z"/>
    <path class="cls-2" d="M534.38,983.25c3.06,0,5.75-1.15,8.08-3.46,2.33-2.31,3.5-5.01,3.5-8.12s-1.17-5.82-3.5-8.12c-2.33-2.31-5.03-3.46-8.08-3.46s-5.81,1.15-8.12,3.46c-2.31,2.3-3.46,5.01-3.46,8.12s1.15,5.81,3.46,8.12,5.01,3.46,8.12,3.46Z"/>
    <path class="cls-2" d="M511.08,960.09c-3.11,0-5.81,1.15-8.12,3.46-2.31,2.3-3.46,5.01-3.46,8.12s1.15,5.81,3.46,8.12c2.3,2.3,5.01,3.46,8.12,3.46s5.81-1.15,8.12-3.46c2.31-2.31,3.46-5.01,3.46-8.12s-1.15-5.82-3.46-8.12c-2.31-2.31-5.01-3.46-8.12-3.46Z"/>
    <path class="cls-2" d="M604.45,936.41c2.15-3.46,3.76-7.34,4.81-11.65,1.05-4.31,1.68-8.57,1.88-12.78.2-4.21.16-8.06-.11-11.54-.28-3.48-.84-7.71-1.69-12.67-2.71-.7-6.04-1.42-10-2.14-3.96-.73-8.11-1.04-12.44-.94-4.34.1-7.58,1.1-9.74,3.01-.2.2-.28.43-.23.68l2.71,16.54c-.3,2.61-.74,4.71-1.32,6.32-.58,1.6-1.57,3.21-2.97,4.81-1.4,1.6-3.35,2.93-5.83,3.98-2.33.99-5.16,1.51-8.49,1.57-4.42-.06-7.74-.58-9.93-1.57-2.33-1.05-4.2-2.33-5.6-3.83-.2-.15-.33-.27-.38-.38-1.6-1.6-2.67-3.97-3.2-7.11-.53-3.13-.71-6.2-.56-9.21.15-3.01.4-6.09.75-9.25.1-.85.15-1.4.15-1.65.05-.45-.15-.73-.6-.83-2.71-.7-6.04-1.42-10-2.14-3.96-.73-8.11-1.04-12.44-.94-4.34.1-7.58,1.1-9.74,3.01-.2.2-.28.43-.23.68l2.71,16.54c-.3,2.61-.74,4.71-1.32,6.32-.58,1.6-1.57,3.21-2.97,4.81-1.4,1.6-3.35,2.93-5.83,3.98-2.48,1.05-5.53,1.58-9.13,1.58h-7.59v-60.22c0-2.15-1.32-3.8-3.95-4.92-2.63-1.13-5.71-1.87-9.25-2.22-3.53-.35-8.53-.45-15-.3v75.79c0,4.66,1.15,8.96,3.46,12.89,2.3,3.94,5.42,7.06,9.36,9.36,3.93,2.31,8.23,3.46,12.89,3.46h10.07c13.08.75,22.82-.69,29.21-4.32,6.39-3.63,10.59-8.03,12.59-13.19.15-.4.43-.56.83-.49.4.08.63.31.68.71.55,4.81,1.84,8.46,3.87,10.94,2.03,2.48,4.77,4.16,8.23,5.04,3.15.8,7.24,1.23,12.25,1.3h0c12.53.42,22.19-1.35,28.98-5.29,6.79-3.93,11.82-8.51,15.07-13.72Z"/>
    <path class="cls-2" d="M578.59,960.09c-3.11,0-5.82,1.15-8.12,3.46-2.31,2.3-3.46,5.01-3.46,8.12s1.15,5.81,3.46,8.12c2.3,2.3,5.01,3.46,8.12,3.46s5.81-1.15,8.12-3.46c2.3-2.31,3.46-5.01,3.46-8.12s-1.15-5.82-3.46-8.12-5.01-3.46-8.12-3.46Z"/>
    <path class="cls-2" d="M667.08,981.22c4.46,2.6,9.32,3.91,14.59,3.91,6.27,0,9.8-.05,10.6-.15,7.67,0,14.03-.76,19.1-2.29,5.06-1.53,9-3.63,11.8-6.32,2.81-2.68,4.81-5.7,6.01-9.06,1.2-3.36,1.93-6.74,2.18-10.15.25-3.41.35-7.67.3-12.78v-85.41c-3.41-1.55-6.29-2.71-8.65-3.46-2.36-.75-4.94-1.26-7.74-1.54-2.81-.27-5.61-.05-8.42.68-2.81.73-5.29,2.17-7.44,4.32v80.67c0,2.76-.13,4.9-.38,6.43-.25,1.53-.94,2.91-2.07,4.14-1.13,1.23-2.98,2.28-5.56,3.16-2.58.88-6.13,1.54-10.64,1.99v-39.47c-6.47-.2-11.47-.15-15,.15s-6.62,1.02-9.25,2.14-3.95,2.77-3.95,4.92v32.93c0,5.26,1.3,10.12,3.91,14.59,2.61,4.46,6.14,7.99,10.6,10.6Z"/>
    <path class="cls-2" d="M852.3,952.35c2.73-2.06,4.5-4.65,5.3-7.78.8-3.13,1.2-6.98,1.2-11.54,0,3.86.68,7.49,2.03,10.9,1.35,3.41,3.33,6.18,5.94,8.31,2.61,2.13,5.74,3.2,9.4,3.2,9.92,0,17.53-2.1,22.82-6.32,5.29-4.21,8.75-8.95,10.38-14.21,1.63-5.26,2.44-10.22,2.44-14.89,0-.85-.03-1.95-.08-3.31v-28.19c-4.56-1.15-8.28-1.95-11.17-2.41-2.88-.45-5.65-.68-8.31-.68-5.26,0-8.92,1.03-10.98,3.08,1.9,15.19,2.86,23.11,2.86,23.76,0,2.91-1.12,5.28-3.35,7.11-2.23,1.83-6.4,2.74-12.52,2.74v-30c-4.51-1.15-8.21-1.95-11.09-2.41-2.88-.45-5.68-.68-8.38-.68-5.21,0-8.85,1.03-10.9,3.08l2.56,16.99c.1,1,.15,1.9.15,2.71,0,3.01-1.12,5.48-3.35,7.41-2.23,1.93-6.35,2.9-12.37,2.9l-.08-.3.08-5.11v-20.22c-4.56-1.15-8.28-1.95-11.17-2.41-2.88-.45-5.65-.68-8.31-.68-5.26,0-8.92,1.03-10.98,3.08v25.11c-5.19,0-8.7.01-10.53.03v-.03h-9.02v-60.22c0-2.15-1.32-3.8-3.95-4.92-2.63-1.13-5.71-1.87-9.25-2.22-3.53-.35-8.53-.45-15-.3v75.79c0,4.66,1.15,8.96,3.46,12.89,2.3,3.94,5.42,7.06,9.36,9.36,3.93,2.31,8.23,3.46,12.89,3.46h22.33c3.71,0,7.82-.63,12.33-1.88,4.51-1.25,8.48-3.55,11.92-6.88,3.43-3.33,5.15-7.88,5.15-13.65,0,6.07.69,10.74,2.07,14.02,1.38,3.28,3.21,5.5,5.49,6.65,2.28,1.15,5.07,1.73,8.38,1.73,5.41,0,9.48-1.03,12.22-3.08Z"/>
    <path class="cls-2" d="M963.84,891.52c-2.36-.75-4.95-1.26-7.78-1.54-2.83-.27-5.64-.04-8.42.71-2.78.75-5.25,2.21-7.41,4.36,1.75,12.23,2.97,21.92,3.65,29.06.68,7.14,1.02,13.5,1.02,19.06,0,4.11-.98,7.37-2.93,9.77-1.95,2.41-5.16,4.17-9.62,5.3-4.46,1.13-10.5,1.69-18.12,1.69v39.1c11.28.15,20.69-.89,28.23-3.12,7.54-2.23,13.42-5.31,17.63-9.25,4.21-3.93,7.24-8.33,9.1-13.19,1.85-4.86,2.98-9.66,3.38-14.4.4-4.74.6-10.49.6-17.25v-1.65l-.75-45.11c-3.36-1.6-6.22-2.78-8.57-3.53Z"/>
    <path class="cls-2" d="M1015.79,980.09h-5.64c-3.31-.05-5.99-.08-8.04-.08-.5-.45-.85-1.34-1.05-2.67-.2-1.33-.16-2.56.11-3.68.27-1.13.79-1.69,1.54-1.69,1,0,1.63.43,1.88,1.28.25.85.2,2.36-.15,4.51h10.45c.6-3.01.91-5.45.94-7.33.02-1.88-.25-3.75-.83-5.6-.58-1.86-1.68-3.41-3.31-4.66-1.63-1.25-3.87-1.88-6.73-1.88-3.41,0-6.03.63-7.86,1.88-1.83,1.25-3.07,3.08-3.72,5.49-.4,1.45-.55,3.33-.45,5.64.1,2.3.63,4.33,1.58,6.09.95,1.75,2.43,2.63,4.44,2.63h-5.86c-.8,0-1.57.76-2.29,2.29-.73,1.53-1.59,4.17-2.59,7.93h27.59v-10.15Z"/>
    <path class="cls-2" d="M996.84,955.35c3.26.15,6.06.12,8.42-.08,2.36-.2,4.26-.49,5.71-.87,1.45-.38,2.57-.78,3.35-1.2.78-.43,1.47-.99,2.07-1.69v-97.59c-6.47-.2-11.47-.14-15,.19-3.53.33-6.62,1.05-9.25,2.18-2.63,1.13-3.95,2.77-3.95,4.92v91.8c1.7.85,3.2,1.45,4.47,1.8,1.28.35,2.67.53,4.17.53Z"/>
    <path class="cls-2" d="M1223.07,877.99c3.06,0,5.75-1.15,8.08-3.46,2.33-2.3,3.5-5.01,3.5-8.12s-1.17-5.81-3.5-8.12c-2.33-2.3-5.03-3.46-8.08-3.46s-5.81,1.15-8.12,3.46-3.46,5.01-3.46,8.12,1.15,5.82,3.46,8.12c2.3,2.31,5.01,3.46,8.12,3.46Z"/>
    <path class="cls-2" d="M1199.77,877.99c3.11,0,5.81-1.15,8.12-3.46,2.31-2.3,3.46-5.01,3.46-8.12s-1.15-5.81-3.46-8.12c-2.31-2.3-5.01-3.46-8.12-3.46s-5.81,1.15-8.12,3.46c-2.31,2.31-3.46,5.01-3.46,8.12s1.15,5.82,3.46,8.12c2.3,2.31,5.01,3.46,8.12,3.46Z"/>
    <path class="cls-2" d="M1225.48,936.41c2.15-3.46,3.76-7.34,4.81-11.65,1.05-4.31,1.68-8.57,1.88-12.78.2-4.21.16-8.06-.11-11.54-.28-3.48-.84-7.71-1.69-12.67-2.71-.7-6.04-1.42-10-2.14-3.96-.73-8.11-1.04-12.44-.94-4.34.1-7.58,1.1-9.74,3.01-.2.2-.28.43-.23.68l2.71,16.54c-.3,2.61-.74,4.71-1.32,6.32-.58,1.6-1.57,3.21-2.97,4.81-1.4,1.6-3.35,2.93-5.83,3.98-2.32.98-5.14,1.5-8.45,1.57-2.69-.05-4.87-.35-6.53-.92.12-5.16-.48-10.4-1.83-15.72-2.26-8.9-6.2-16.6-11.84-23.12-5.64-6.52-12.32-10.5-20.04-11.95-7.22-1.4-13.82-.19-19.81,3.65-5.99,3.83-10.91,9.91-14.77,18.23-2.1,4.52-3.75,9.52-5.01,14.98-7.52.69-14.05,2.13-19.58,4.34-6.01,2.41-11.12,6.57-15.3,12.48-4.19,5.91-7.06,14.37-8.61,25.37-1.55,11-1.43,25.05.38,42.14h36.69c-1.91-11.18-3.13-20.25-3.68-27.22-.55-6.97-.49-12.43.19-16.39.68-3.96,1.97-6.87,3.87-8.72,1.42-1.38,3.26-2.45,5.54-3.22.54,1.87,1.15,3.7,1.87,5.48,1.28,3.16,2.62,5.71,4.02,7.67,2.76,3.81,6.49,6.65,11.2,8.53,4.71,1.88,10.17,2.82,16.39,2.82,11.13,0,19.96-2.72,26.5-8.16,1.05-.87,2.03-1.79,2.96-2.74,1.82,2.46,4.13,4.13,6.92,5,2.51.79,5.77,1.22,9.77,1.3v.02c12.53.4,22.19-1.37,28.98-5.3,6.79-3.93,11.82-8.51,15.07-13.72ZM1145.03,923.17c-.45,1.45-1.29,2.63-2.52,3.53-1.23.9-2.62,1.35-4.17,1.35h-3.68c-1.5,0-2.79-.54-3.87-1.62-1.08-1.08-1.62-2.37-1.62-3.87-.05-4.66.05-8.43.3-11.32.25-2.88.89-5.26,1.92-7.14,1.03-1.88,2.59-2.82,4.7-2.82,3.31,0,5.8,1.13,7.48,3.38,1.68,2.26,2.59,5.09,2.74,8.5.15,3.41-.28,6.74-1.28,10Z"/>
    <path class="cls-2" d="M90.27,1126.69c-.15-.93-.5-1.79-1.05-2.59-.65-1.05-1.45-2.04-2.41-2.97-.95-.93-2.01-1.57-3.16-1.92-1.45-.35-2.92-.63-4.4-.83-1.48-.2-2.87,0-4.17.6-.8.35-1.59.8-2.37,1.35-.78.55-1.47,1.18-2.07,1.88-1.25,1.45-2.06,3.16-2.41,5.11-.2,1.2-.21,2.48-.04,3.83.17,1.35.64,2.53,1.39,3.53.55.8,1.18,1.58,1.88,2.33.7.75,1.5,1.35,2.41,1.8,1.1.55,2.28.98,3.53,1.28,1.25.3,2.51.3,3.76,0,1-.3,1.98-.59,2.93-.86.95-.27,1.78-.79,2.48-1.54,1.1-1,2.08-2.24,2.93-3.72.85-1.48,1.2-2.97,1.05-4.47-.05-.95-.15-1.89-.3-2.82Z"/>
    <path class="cls-2" d="M171.92,1144.84c-3.11,0-5.82,1.15-8.12,3.46-2.31,2.3-3.46,5.01-3.46,8.12s1.15,5.81,3.46,8.12c2.3,2.3,5.01,3.46,8.12,3.46s5.81-1.15,8.12-3.46c2.31-2.31,3.46-5.01,3.46-8.12s-1.15-5.82-3.46-8.12c-2.31-2.31-5.01-3.46-8.12-3.46Z"/>
    <path class="cls-2" d="M498.67,1038.98c-3.51.35-6.59,1.09-9.25,2.22-2.66,1.13-3.98,2.77-3.98,4.92v60.22h-7.52c-3.96,0-6.88-.53-8.76-1.58-.2-.11-.38-.23-.57-.35,0-.8-.03-1.78-.07-2.96v-28.19c-4.56-1.15-8.28-1.95-11.17-2.41-2.88-.45-5.65-.68-8.31-.68-5.26,0-8.92,1.03-10.98,3.08,1.9,15.19,2.86,23.11,2.86,23.76,0,2.91-1.12,5.28-3.35,7.11-2.23,1.83-6.4,2.74-12.52,2.74v-30c-4.51-1.15-8.21-1.95-11.09-2.41-2.88-.45-5.68-.68-8.38-.68-5.21,0-8.85,1.03-10.9,3.08l2.56,16.99c.1,1,.15,1.9.15,2.71,0,3.01-1.12,5.48-3.35,7.41-2.23,1.93-6.35,2.9-12.37,2.9l-.08-.3.08-5.11v-20.22c-4.56-1.15-8.28-1.95-11.17-2.41-2.88-.45-5.65-.68-8.31-.68-5.26,0-8.92,1.03-10.98,3.08v25.11c-5.19,0-8.7.01-10.53.03v-.03h-2.18c-2.86,0-5.44-1.62-7.74-4.85-2.31-3.23-4.14-7.38-5.49-12.44-1.35-5.06-2.03-10.15-2.03-15.26,0-.75.02-1.88.08-3.38.05-5.21-.13-9.61-.53-13.19-.4-3.58-1.54-7.07-3.42-10.45-1.88-3.38-5.03-6.11-9.44-8.2-4.41-2.08-10.33-3.12-17.74-3.12-7.87,0-14.28,1.47-19.25,4.4-4.96,2.93-8.63,6.74-11.01,11.43-2.38,4.69-3.87,9.66-4.47,14.92-.6,5.26-.71,10.24-.34,14.92.38,4.69,1.32,10.56,2.82,17.63h38.04c-1.8-4.31-2.95-7.64-3.42-10-.48-2.36-.38-4.41.3-6.17.68-1.75,2.32-2.63,4.92-2.63,1.4,0,2.33.83,2.78,2.48.45,1.65.8,4.26,1.05,7.82.2,3.36.49,6.12.86,8.27.38,2.16,1.18,4,2.41,5.53,1.23,1.53,3.07,2.29,5.53,2.29h-70.37v.08h-2.7c.65-3.26,1.05-6.5,1.2-9.7.2-4.21.16-8.06-.11-11.54-.28-3.48-.84-7.71-1.69-12.67-2.71-.7-6.04-1.42-10-2.14-3.96-.73-8.11-1.04-12.44-.94-4.34.1-7.58,1.1-9.74,3.01-.2.2-.28.43-.23.68l2.71,16.54c-.3,2.61-.74,4.71-1.32,6.32-.58,1.6-1.57,3.21-2.97,4.81-1.4,1.6-3.35,2.93-5.83,3.98-2.48,1.05-5.53,1.58-9.13,1.58h-54.06v-25.34c-1.45-1.4-3.62-2.24-6.5-2.52-2.88-.27-5.88-.23-8.98.15-3.11.38-7.24,1.16-12.41,2.37v38.64c0,.15.02.43.08.83.15,3.26.6,6.24,1.35,8.95.75,2.71,2.53,5.18,5.34,7.41,2.81,2.23,6.99,3.35,12.56,3.35h62.63c12.53.4,22.19-1.37,28.98-5.3,1.87-1.08,3.59-2.22,5.19-3.39.43.87.89,1.65,1.39,2.34,1.8,2.48,4.12,4.16,6.95,5.04,2.52.78,5.77,1.21,9.74,1.3v.02h109.47c3.71,0,7.82-.63,12.33-1.88,4.51-1.25,8.48-3.55,11.92-6.88,3.43-3.33,5.15-7.88,5.15-13.65,0,6.07.69,10.74,2.07,14.02,1.38,3.28,3.21,5.5,5.49,6.65,2.28,1.15,5.07,1.73,8.38,1.73,5.41,0,9.48-1.03,12.22-3.08,2.73-2.06,4.5-4.65,5.3-7.78.8-3.13,1.2-6.98,1.2-11.54,0,3.86.68,7.49,2.03,10.9,1.35,3.41,3.33,6.18,5.94,8.31,2.61,2.13,5.74,3.2,9.4,3.2,9.92,0,17.53-2.1,22.82-6.32.93-.74,1.78-1.5,2.6-2.28.42.83.86,1.58,1.35,2.24,1.8,2.48,4.12,4.16,6.95,5.04,2.52.78,5.77,1.21,9.74,1.3v.02h11.5c4.66,0,8.96-1.15,12.89-3.46,3.93-2.3,7.05-5.42,9.36-9.36,2.31-3.93,3.46-8.23,3.46-12.89v-75.79c-6.47-.15-11.45-.05-14.96.3Z"/>
    <path class="cls-2" d="M538.18,1038.87c-3.53.33-6.62,1.05-9.25,2.18-2.63,1.13-3.95,2.77-3.95,4.92v91.8c1.7.85,3.2,1.45,4.47,1.8,1.28.35,2.67.53,4.17.53,3.26.15,6.06.12,8.42-.08,2.36-.2,4.26-.49,5.71-.87,1.45-.38,2.57-.78,3.35-1.2.78-.43,1.47-.99,2.07-1.69v-97.59c-6.47-.2-11.47-.14-15,.19Z"/>
    <path class="cls-2" d="M616.33,1159.88c-3.11,0-5.81,1.17-8.12,3.5-2.31,2.33-3.46,5.05-3.46,8.16.05,3.06,1.23,5.74,3.53,8.04,2.31,2.3,5.01,3.46,8.12,3.46s5.8-1.17,8.08-3.5c2.28-2.33,3.42-5.05,3.42-8.16s-1.17-5.74-3.5-8.04c-2.33-2.31-5.03-3.46-8.08-3.46Z"/>
    <path class="cls-2" d="M639.56,1159.81c-3.11,0-5.8,1.17-8.08,3.5-2.28,2.33-3.42,5.02-3.42,8.08s1.17,5.81,3.5,8.12c2.33,2.3,5.02,3.46,8.08,3.46s5.81-1.17,8.12-3.5c2.3-2.33,3.46-5.05,3.46-8.16-.05-3.06-1.23-5.74-3.53-8.04-2.31-2.31-5.01-3.46-8.12-3.46Z"/>
    <path class="cls-2" d="M788.66,1047.37c-1.91-3.38-5.05-6.13-9.44-8.23-4.39-2.1-10.31-3.16-17.78-3.16-11.73,0-20.35,3.77-25.86,11.32-5.51,7.54-8.92,16.78-10.23,27.71-.45,4.01.18,7.81,1.88,11.39,1.7,3.58,4.22,6.45,7.56,8.61,3.33,2.16,7.03,3.23,11.09,3.23h30c-1.55,5.46-4.19,8.2-7.89,8.2h-20.6c-5.46-.05-10.73-.08-15.79-.08h-14.59v-.3c0-2.81-.4-6.25-1.2-10.34-.8-4.08-2.64-7.98-5.53-11.69-2.88-3.71-7.13-5.56-12.74-5.56h-41.95v25.41c0,3.41-.84,6.15-2.52,8.23-1.68,2.08-4.86,3.77-9.55,5.07-4.69,1.3-11.52,2.23-20.49,2.78v-11.95s.12-.02.23-.08c1.85-.4,3.48-.84,4.89-1.32,1.4-.48,2.82-1.25,4.25-2.33,1.43-1.08,2.66-2.62,3.68-4.62,1.03-2,1.65-4.61,1.88-7.82.23-3.21-.09-7.09-.94-11.65l-29.92.6c-2.86,0-5.21.5-7.07,1.5-1.85,1-3.18,2.18-3.98,3.53-.8,1.35-1.2,2.56-1.2,3.61-.2,5.16-.3,9.42-.3,12.78,0,3.06.08,5.16.23,6.32v48.19c10.53,0,19.96-.46,28.31-1.39,8.35-.93,15.61-2.23,21.8-3.91,6.19-1.68,11.44-3.63,15.75-5.86,4.31-2.23,7.86-4.62,10.64-7.18,2.78-2.56,4.97-5.21,6.58-7.97,1.6-2.76,2.78-5.48,3.53-8.16.75-2.68,1.21-5.2,1.39-7.56.17-2.36.26-4.94.26-7.74v-.38h5.79v28.87c0,1.45.78,2.58,2.33,3.38.98.37,1.95.64,2.92.83,1.06.34,2.19.52,3.4.52h57.22c6.32,0,12.27-1.42,17.86-4.25,5.59-2.83,10.14-6.8,13.65-11.92,4.26-6.11,6.39-13.03,6.39-20.75v-28.95c0-.7.02-1.8.08-3.31.05-5.21-.13-9.61-.53-13.19-.4-3.58-1.55-7.07-3.46-10.45ZM760.24,1085.6c-.05-5.41.56-10.09,1.84-14.02,1.28-3.93,3.62-5.9,7.03-5.9,2.36,0,4.27,1.99,5.75,5.98,1.48,3.98,2.29,8.63,2.44,13.95h-17.07Z"/>
    <path class="cls-2" d="M770.16,1025.45c2.3-2.3,3.46-5.01,3.46-8.12s-1.15-5.81-3.46-8.12c-2.31-2.31-5.01-3.46-8.12-3.46s-5.81,1.15-8.12,3.46c-2.31,2.31-3.46,5.01-3.46,8.12s1.15,5.81,3.46,8.12c2.31,2.31,5.01,3.46,8.12,3.46s5.81-1.15,8.12-3.46Z"/>
    <path class="cls-2" d="M886.09,1078.08c.9-4.66,1.38-8.45,1.43-11.35.05-2.91-.38-5.8-1.28-8.68-.9-2.88-2.59-5.29-5.08-7.22-2.48-1.93-5.95-2.9-10.41-2.9-5.36,0-9.45.98-12.26,2.93-2.81,1.95-4.71,4.76-5.71,8.42-.6,2.25-.84,5.18-.71,8.76.12,3.58.93,6.74,2.41,9.47,1.48,2.73,3.77,4.1,6.88,4.1h-9.02c-1.3,0-2.52,1.18-3.65,3.53-1.13,2.36-2.44,6.47-3.95,12.33h42.78v-15.79h-21.28c-.75-.75-1.28-2.17-1.58-4.25-.3-2.08-.24-3.98.19-5.71.43-1.73,1.19-2.59,2.29-2.59,1.6,0,2.61.65,3.01,1.95.4,1.3.33,3.63-.23,6.99h16.16Z"/>
    <path class="cls-2" d="M955.87,1038.98c-3.51.35-6.59,1.09-9.25,2.22-2.66,1.13-3.98,2.77-3.98,4.92v60.22h-7.52c-3.96,0-6.88-.53-8.76-1.58-.2-.11-.37-.23-.56-.35v-68.67c-6.47-.15-11.47-.05-15,.3-3.53.35-6.62,1.09-9.25,2.22-2.63,1.13-3.95,2.77-3.95,4.92v63.53h-63.61v24.06c0,2.61.91,4.83,2.74,6.65,1.83,1.83,4.05,2.74,6.65,2.74h56.69c4.66,0,8.96-1.15,12.89-3.46,1.44-.84,2.76-1.79,3.98-2.85,1.8,2.46,4.11,4.12,6.92,5,2.52.78,5.77,1.21,9.74,1.3v.02h11.5c4.66,0,8.96-1.15,12.89-3.46,3.93-2.3,7.05-5.42,9.36-9.36,2.31-3.93,3.46-8.23,3.46-12.89v-75.79c-6.47-.15-11.45-.05-14.96.3Z"/>
    <path class="cls-2" d="M1074.43,1025.45c2.3-2.3,3.46-5.01,3.46-8.12s-1.15-5.81-3.46-8.12c-2.31-2.31-5.01-3.46-8.12-3.46s-5.81,1.15-8.12,3.46c-2.31,2.31-3.46,5.01-3.46,8.12s1.15,5.81,3.46,8.12c2.31,2.31,5.01,3.46,8.12,3.46s5.81-1.15,8.12-3.46Z"/>
    <path class="cls-2" d="M1115.56,1106.35h-1.2c-2.86,0-5.44-1.62-7.74-4.85-2.31-3.23-4.14-7.38-5.49-12.44-1.35-5.06-2.03-10.15-2.03-15.26,0-.75.02-1.88.08-3.38.05-5.21-.13-9.61-.53-13.19-.4-3.58-1.54-7.07-3.42-10.45-1.88-3.38-5.03-6.11-9.44-8.2-4.41-2.08-10.33-3.12-17.74-3.12-7.87,0-14.28,1.47-19.25,4.4-4.96,2.93-8.63,6.74-11.01,11.43-2.38,4.69-3.87,9.66-4.47,14.92-.6,5.26-.71,10.24-.34,14.92.38,4.69,1.32,10.56,2.82,17.63h38.04c-1.8-4.31-2.95-7.64-3.42-10-.48-2.36-.38-4.41.3-6.17.68-1.75,2.32-2.63,4.92-2.63,1.4,0,2.33.83,2.78,2.48.45,1.65.8,4.26,1.05,7.82.2,3.36.49,6.12.86,8.27.38,2.16,1.18,4,2.41,5.53,1.23,1.53,3.07,2.29,5.53,2.29h-77.89v-60.22c0-2.15-1.32-3.8-3.95-4.92-2.63-1.13-5.71-1.87-9.25-2.22-3.53-.35-8.53-.45-15-.3v75.79c0,4.66,1.15,8.96,3.46,12.89,2.3,3.94,5.42,7.06,9.36,9.36,3.93,2.31,8.23,3.46,12.89,3.46h115.41v-36.69c-1.35,1.35-2.58,2.19-3.68,2.52-1.1.33-2.46.44-4.06.34Z"/>
    <path class="cls-2" d="M1196.46,1072.06h-.08c-.4-5.41-1-9.8-1.8-13.16-.8-3.36-2.12-6.72-3.95-10.07-1.83-3.36-4.36-6.15-7.59-8.38-3.23-2.23-7.23-3.35-11.99-3.35-9.97,0-17.38,3.62-22.22,10.86-4.84,7.24-7.79,15.1-8.87,23.57-1.08,8.47-1.59,17.24-1.54,26.31v2.1h27.67v-22.63c0-3.01.64-5.07,1.92-6.2,1.28-1.13,2.54-1.13,3.8,0,1.25,1.13,1.88,3.2,1.88,6.2v28.95h-35.26v24.74c0,2.51.9,4.66,2.71,6.47,1.8,1.8,3.96,2.71,6.47,2.71h35.64c5.26,0,8.96-3.37,11.09-10.11,2.13-6.74,3.22-14.61,3.27-23.61.05-9-.33-20.16-1.13-33.49v-.9Z"/>
    <path class="cls-2" d="M1239.24,1162.51c.6-3.01.91-5.45.94-7.33.02-1.88-.25-3.75-.83-5.6-.58-1.86-1.68-3.41-3.31-4.66-1.63-1.25-3.87-1.88-6.73-1.88-3.41,0-6.03.63-7.86,1.88-1.83,1.25-3.07,3.08-3.72,5.49-.4,1.45-.55,3.33-.45,5.64.1,2.3.63,4.33,1.58,6.09.95,1.75,2.43,2.63,4.44,2.63h-5.86c-.8,0-1.57.76-2.29,2.29-.73,1.53-1.59,4.17-2.59,7.93h27.59v-10.15h-5.64c-3.31-.05-5.99-.08-8.04-.08-.5-.45-.85-1.34-1.05-2.67-.2-1.33-.16-2.56.11-3.68.27-1.13.79-1.69,1.54-1.69,1,0,1.63.43,1.88,1.28.25.85.2,2.36-.15,4.51h10.45Z"/>
    <path class="cls-2" d="M1225.74,1038.87c-3.53.33-6.62,1.05-9.25,2.18-2.63,1.13-3.95,2.77-3.95,4.92v91.8c1.7.85,3.2,1.45,4.47,1.8,1.28.35,2.67.53,4.17.53,3.26.15,6.06.12,8.42-.08,2.36-.2,4.26-.49,5.71-.87,1.45-.38,2.57-.78,3.35-1.2.78-.43,1.47-.99,2.07-1.69v-97.59c-6.47-.2-11.47-.14-15,.19Z"/>
    <path class="cls-2" d="M1330.51,1105.37c0-6.67-.83-12.81-2.48-18.42-1.65-5.61-5.2-10.46-10.64-14.55-5.44-4.08-13.37-6.13-23.8-6.13-12.53,0-21.63,4.17-27.29,12.52-5.66,8.35-9.07,18.33-10.22,29.96-.6,6.12.16,11.65,2.29,16.62,2.13,4.96,5.61,8.9,10.45,11.8,4.84,2.91,10.86,4.36,18.08,4.36,3.26,0,6.04-.43,8.35-1.28,2.31-.85,4.12-1.89,5.45-3.12,1.33-1.23,2.3-2.47,2.93-3.72.63-1.25,1.14-2.88,1.54-4.89v7.89c0,3.41-.88,5.8-2.63,7.18-1.76,1.38-4.57,2.2-8.46,2.48-3.89.27-10.69.36-20.41.26-6.47-.1-11.65-.15-15.56-.15v39.1c28.32,0,47.5-5.75,57.55-17.26,10.05-11.5,15.07-25.4,15.07-41.69v-11.05c0-2.96-.08-6.26-.23-9.92ZM1305.17,1121.76v3.83h-9.17c-1.5,0-2.88-.45-4.14-1.35-1.25-.9-2.1-2.06-2.56-3.46-1-3.31-1.43-6.65-1.28-10.04.15-3.38,1.06-6.21,2.74-8.5,1.68-2.28,4.17-3.42,7.48-3.42,2.21,0,3.82,1.02,4.85,3.05,1.03,2.03,1.64,4.55,1.84,7.56.2,3.01.27,7.12.23,12.33Z"/>
  </g>
</svg>