<?xml version="1.0" encoding="UTF-8"?>
<svg id="Layer_1" data-name="Layer 1" xmlns="http://www.w3.org/2000/svg" viewBox="0 0 1951 972.28">
  <defs>
    <style>
      .cls-1 {
        fill: #1d1d1b;
      }

      .cls-2 {
        fill: #fff;
      }
    </style>
  </defs>
  <g>
    <g>
      <path class="cls-1" d="M82.7,245.4c-14.39,0-22-7.61-22-22V85.8h-31.7c-14.39,0-22-7.61-22-22v-31.2c0-14.39,7.61-22,22-22h146.1c14.39,0,22,7.61,22,22v31.2c0,14.39-7.61,22-22,22h-31.7v137.6c0,14.39-7.61,22-22,22h-38.7Z"/>
      <path class="cls-2" d="M175.1,17.6c10.5,0,15,4.5,15,15v31.2c0,10.5-4.5,15-15,15h-38.7v144.6c0,10.5-4.5,15-15,15h-38.7c-10.5,0-15-4.5-15-15V78.8H29c-10.5,0-15-4.5-15-15v-31.2c0-10.5,4.5-15,15-15h146.1M175.1,3.6H29c-9.07,0-16.25,2.58-21.34,7.66C2.58,16.35,0,23.53,0,32.6v31.2c0,9.07,2.58,16.25,7.66,21.34,5.08,5.08,12.26,7.66,21.34,7.66h24.7v130.6c0,9.07,2.58,16.25,7.66,21.34s12.26,7.66,21.34,7.66h38.7c9.07,0,16.25-2.58,21.34-7.66,5.08-5.08,7.66-12.26,7.66-21.34V92.8h24.7c9.07,0,16.25-2.58,21.34-7.66s7.66-12.26,7.66-21.34v-31.2c0-9.07-2.58-16.25-7.66-21.34-5.08-5.08-12.26-7.66-21.34-7.66h0Z"/>
    </g>
    <g>
      <path class="cls-1" d="M348.5,245.4c-14.39,0-22-7.61-22-22v-58.1h-39.7v58.1c0,14.39-7.61,22-22,22h-38.7c-14.39,0-22-7.61-22-22V32.6c0-14.39,7.61-22,22-22h38.7c14.39,0,22,7.61,22,22v57.5h39.7v-57.5c0-14.39,7.61-22,22-22h38.7c14.39,0,22,7.61,22,22v190.8c0,14.39-7.61,22-22,22h-38.7Z"/>
      <path class="cls-2" d="M387.2,17.6c10.5,0,15,4.5,15,15v190.8c0,10.5-4.5,15-15,15h-38.7c-10.5,0-15-4.5-15-15v-65.1h-53.7v65.1c0,10.5-4.5,15-15,15h-38.7c-10.5,0-15-4.5-15-15V32.6c0-10.5,4.5-15,15-15h38.7c10.5,0,15,4.5,15,15v64.5h53.7V32.6c0-10.5,4.5-15,15-15h38.7M387.2,3.6h-38.7c-9.07,0-16.25,2.58-21.34,7.66-5.08,5.08-7.66,12.26-7.66,21.34v50.5h-25.7v-50.5c0-9.07-2.58-16.25-7.66-21.34-5.08-5.08-12.26-7.66-21.34-7.66h-38.7c-9.07,0-16.25,2.58-21.34,7.66-5.09,5.08-7.66,12.26-7.66,21.34v190.8c0,9.07,2.58,16.25,7.66,21.34,5.08,5.08,12.26,7.66,21.34,7.66h38.7c9.07,0,16.25-2.58,21.34-7.66,5.08-5.08,7.66-12.26,7.66-21.34v-51.1h25.7v51.1c0,9.07,2.58,16.25,7.66,21.34,5.08,5.08,12.26,7.66,21.34,7.66h38.7c9.07,0,16.25-2.58,21.34-7.66,5.08-5.08,7.66-12.26,7.66-21.34V32.6c0-9.07-2.58-16.25-7.66-21.34-5.08-5.08-12.26-7.66-21.34-7.66h0Z"/>
    </g>
    <g>
      <path class="cls-1" d="M585.5,245.4c-22.03,0-26.32-11.22-27.61-19.7-1.16-6.93-2.34-14.05-3.66-21.1h-50.58c-1.39,7.02-2.77,14.15-3.94,21.15l-.02.1c-3.15,17.33-16.4,19.55-27.59,19.55h-37.5c-12.46,0-19.6-7.14-19.6-19.6,0-24.16,32.75-144.37,65.84-198.07,5.82-9.38,12.15-17.13,30.86-17.13h37.2c18.71,0,25.04,7.75,30.85,17.11,33.11,53.72,65.85,173.94,65.85,198.09,0,12.46-7.14,19.6-19.6,19.6h-40.5ZM538.07,135.7c-2.91-11.17-6.04-22.76-9.26-33.49-3.22,10.73-6.35,22.32-9.26,33.49h18.53Z"/>
      <path class="cls-2" d="M548.9,17.6c15,0,19.5,5.1,24.9,13.8,31.8,51.6,64.8,171.3,64.8,194.4,0,9.6-5.1,12.6-12.6,12.6h-40.5c-13.5,0-19.2-3.9-20.7-13.8-1.5-9-3-18-4.8-27h-62.1c-1.8,9-3.6,18-5.1,27-1.8,9.9-7.2,13.8-20.7,13.8h-37.5c-7.5,0-12.6-3-12.6-12.6,0-23.1,33-142.8,64.8-194.4,5.4-8.7,9.9-13.8,24.9-13.8h37.2M510.5,142.7h36.6c-6.3-24.6-12.3-46.5-18.3-63-6,16.5-12,38.4-18.3,63M548.9,3.6h-37.2c-22.26,0-30.38,10.09-36.8,20.42-19.7,31.97-37.15,83.33-45.8,111.11-10.51,33.74-21.11,74.87-21.11,90.68s10.19,26.6,26.6,26.6h37.5c9.78,0,16.96-1.78,22.6-5.6,6.28-4.26,10.28-10.89,11.88-19.7l.02-.1.02-.1c.84-5.05,1.8-10.19,2.79-15.3h38.99c.91,5.1,1.76,10.2,2.59,15.21,1.38,8.93,5.37,15.67,11.88,20.03,5.66,3.79,12.85,5.56,22.65,5.56h40.5c16.41,0,26.6-10.19,26.6-26.6s-10.6-56.93-21.11-90.68c-8.65-27.78-26.1-79.14-45.77-111.07-6.44-10.37-14.56-20.46-36.82-20.46h0ZM528.62,128.7c.06-.22.12-.45.18-.67.06.23.12.45.18.67h-.36Z"/>
    </g>
    <g>
      <path class="cls-1" d="M792.2,245.4c-13.76,0-22.73-5.47-28.24-17.23l-31.96-69.63v64.86c0,14.39-7.61,22-22,22h-36.6c-14.39,0-22-7.61-22-22V32.6c0-14.39,7.61-22,22-22h42.3c13.76,0,22.73,5.47,28.24,17.23l31.96,69.63V32.6c0-14.39,7.61-22,22-22h36.6c14.39,0,22,7.61,22,22v190.8c0,14.39-7.61,22-22,22h-42.3Z"/>
      <path class="cls-2" d="M834.5,17.6c10.5,0,15,4.5,15,15v190.8c0,10.5-4.5,15-15,15h-42.3c-10.5,0-17.4-3.6-21.9-13.2l-33.6-73.2c-3.9-8.4-7.8-16.5-11.7-27l-1.2.3c.9,11.4,1.2,23.4,1.2,33.9v64.2c0,10.5-4.5,15-15,15h-36.6c-10.5,0-15-4.5-15-15V32.6c0-10.5,4.5-15,15-15h42.3c10.5,0,17.4,3.6,21.9,13.2l33.6,73.2c3.9,8.4,7.8,16.5,11.7,27l1.2-.3c-.9-11.4-1.2-23.4-1.2-33.9V32.6c0-10.5,4.5-15,15-15h36.6M834.5,3.6h-36.6c-9.07,0-16.25,2.58-21.34,7.66-5.08,5.08-7.66,12.26-7.66,21.34v32.83l-18.58-40.47-.02-.05-.02-.05c-6.61-14.11-18.25-21.26-34.58-21.26h-42.3c-9.07,0-16.25,2.58-21.34,7.66-5.09,5.08-7.66,12.26-7.66,21.34v190.8c0,9.07,2.58,16.25,7.66,21.34,5.08,5.08,12.26,7.66,21.34,7.66h36.6c9.07,0,16.25-2.58,21.34-7.66,5.09-5.08,7.66-12.26,7.66-21.34v-32.83l18.58,40.47.02.05.02.05c6.61,14.11,18.25,21.26,34.58,21.26h42.3c9.07,0,16.25-2.58,21.34-7.66,5.08-5.08,7.66-12.26,7.66-21.34V32.6c0-9.07-2.58-16.25-7.66-21.34-5.08-5.08-12.26-7.66-21.34-7.66h0Z"/>
    </g>
    <g>
      <path class="cls-1" d="M1022.9,245.4c-14.71,0-22.35-5.15-27.26-18.36-9.52-24.96-17.55-42.5-25.43-55.46-2.8,2.13-5.94,4.43-9.01,6.59v45.23c0,14.39-7.61,22-22,22h-38.7c-14.39,0-22-7.61-22-22V32.6c0-14.39,7.61-22,22-22h38.7c14.39,0,22,7.61,22,22v46.33c12.5-15.66,22.02-30.98,31.72-50.63,6.77-13.89,12.57-17.7,26.98-17.7h43.5c9.42,0,14.17,4.17,16.49,7.66,4.11,6.18,3.95,15.33-.44,25.76-6.72,15.78-23.96,41.03-48.75,71.44,19.17,24.83,43.53,68.81,51.94,94.35,4.31,12.94,4.23,22.26-.25,28.48-2.34,3.24-7.01,7.11-16,7.11h-43.5Z"/>
      <path class="cls-2" d="M1063.4,17.6c14.4,0,14.4,12.3,9.6,23.7-6.9,16.2-25.8,43.2-51.3,74.1,18.9,22.8,45.6,70.2,54.3,96.6,3.6,10.8,6.6,26.4-9.6,26.4h-43.5c-11.7,0-16.8-3.3-20.7-13.8-11.1-29.1-20.4-48.9-30.3-63.3-3.9,3.3-11.1,8.7-17.7,13.2v48.9c0,10.5-4.5,15-15,15h-38.7c-10.5,0-15-4.5-15-15V32.6c0-10.5,4.5-15,15-15h38.7c10.5,0,15,4.5,15,15v65.4c20.4-22.8,32.7-41.7,45-66.6,5.7-11.7,9.3-13.8,20.7-13.8h43.5M1063.4,3.6h-43.5c-6.66,0-13.71.58-20.15,4.8-6.33,4.14-10.04,10.53-13.11,16.83-5.96,12.06-11.85,22.45-18.43,32.3v-24.93c0-9.07-2.58-16.25-7.66-21.34-5.08-5.08-12.26-7.66-21.34-7.66h-38.7c-9.07,0-16.25,2.58-21.34,7.66-5.08,5.08-7.66,12.26-7.66,21.34v190.8c0,9.07,2.58,16.25,7.66,21.34,5.08,5.08,12.26,7.66,21.34,7.66h38.7c9.07,0,16.25-2.58,21.34-7.66s7.66-12.26,7.66-21.34v-41.28c6.42,11.78,13.13,27.05,20.9,47.42,1.94,5.2,5.37,12.65,12.79,17.56,7.16,4.74,15.42,5.29,21.01,5.29h43.5c11.95,0,18.38-5.45,21.68-10.01,8.76-12.15,3.07-29.21,1.2-34.81-8.11-24.62-30.72-66.02-49.71-91.95,15.94-19.84,37.82-48.92,46.31-68.83v-.03s.02-.03.02-.03c5.33-12.66,5.26-24.14-.18-32.34-2.68-4.03-9.13-10.79-22.32-10.79h0Z"/>
    </g>
    <g>
      <path class="cls-1" d="M1156.4,249c-18.55,0-38.08-2.68-56.46-7.75-13.55-3.87-19.84-11.83-19.84-25.05v-29.4c0-18.06,11.61-20.01,16.61-20.01,2.83,0,5.94.53,9.52,1.61,12.96,3.83,35.59,7.2,48.38,7.2,9.37,0,13.12-1.29,14.52-2.06.86-.47.98-.61.98-1.74,0-.85,0-3.46-14.07-8.04l-18.94-6.31c-19.17-6.45-32.79-15.67-41.64-28.22-8.51-12.06-12.64-27.27-12.64-46.52,0-47.4,36.49-75.7,97.6-75.7,20.67,0,35.97,3.62,52.58,9.05,15.06,4.76,20.67,14,17.58,29.06l-5.41,25.83c-1.29,6.29-5.33,16.87-17.79,16.87-2.59,0-5.37-.46-8.49-1.41-11.7-3.71-25.49-6-36.07-6-7.12,0-10.63.99-12.31,1.82-1.39.69-1.39,1.06-1.39,1.68,0,1.95,0,4.15,14.16,8.97l18.86,6.29c37.54,12.51,54.29,35.2,54.29,73.54,0,25.36-10.76,45.79-31.11,59.07-17.26,11.27-41.09,17.23-68.89,17.23Z"/>
      <path class="cls-2" d="M1180.4,14c20.1,0,34.8,3.6,50.4,8.7,11.4,3.6,15.3,9.3,12.9,21l-5.4,25.8c-1.59,7.71-5.06,11.31-10.94,11.31-1.9,0-4.05-.37-6.46-1.11-12.3-3.9-26.7-6.3-38.1-6.3-13.5,0-20.7,3.3-20.7,10.5s4.8,10.8,18.9,15.6l18.9,6.3c36,12,49.5,32.7,49.5,66.9,0,49.5-43.5,69.3-93,69.3-18.3,0-37.2-2.7-54.6-7.5-10.5-3-14.7-8.1-14.7-18.3v-29.4c0-8.12,2.51-13.01,9.61-13.01,2.08,0,4.56.42,7.49,1.31,13.2,3.9,36.6,7.5,50.4,7.5,17.7,0,22.5-4.2,22.5-10.8s-5.1-10.2-18.9-14.7l-18.9-6.3c-35.7-12-49.5-33.6-49.5-68.1,0-44.1,34.2-68.7,90.6-68.7M1180.4,0c-31.37,0-56.55,6.93-74.83,20.6-19.47,14.56-29.77,36.03-29.77,62.1,0,20.74,4.55,37.28,13.92,50.56,9.74,13.8,24.5,23.88,45.12,30.81l12.76,4.25c-12.34-.87-29.23-3.64-39.39-6.64-4.22-1.27-7.98-1.89-11.49-1.89-8.09,0-14.86,3.41-19.06,9.61-3.06,4.52-4.55,10.21-4.55,17.4v29.4c0,16.36,8.36,27.05,24.85,31.76l.06.02.06.02c18.98,5.24,39.15,8,58.32,8,29.17,0,54.31-6.35,72.72-18.36,22.43-14.64,34.29-37.1,34.29-64.94,0-20.62-4.54-36.96-13.88-49.95-9.66-13.43-24.44-23.32-45.19-30.23l-14.39-4.8c8.54.72,18.23,2.63,26.73,5.32l.09.03.09.03c3.79,1.15,7.24,1.71,10.52,1.71,6.02,0,20.47-2.19,24.65-22.48l5.39-25.75v-.03s.01-.03.01-.03c2.64-12.88.91-29.77-22.33-37.14-17.22-5.63-33.12-9.37-54.69-9.37h0Z"/>
    </g>
    <g>
      <path class="cls-1" d="M1363.1,245.4c-14.39,0-22-7.61-22-22V32.6c0-14.39,7.61-22,22-22h122.4c14.39,0,22,7.61,22,22v31.2c0,14.39-7.61,22-22,22h-61.7v16.3h49.4c14.39,0,22,7.61,22,22v31.2c0,14.39-7.61,22-22,22h-49.4v46.1c0,14.39-7.61,22-22,22h-38.7Z"/>
      <path class="cls-2" d="M1485.5,17.6c10.5,0,15,4.5,15,15v31.2c0,10.5-4.5,15-15,15h-68.7v30.3h56.4c10.5,0,15,4.5,15,15v31.2c0,10.5-4.5,15-15,15h-56.4v53.1c0,10.5-4.5,15-15,15h-38.7c-10.5,0-15-4.5-15-15V32.6c0-10.5,4.5-15,15-15h122.4M1485.5,3.6h-122.4c-9.07,0-16.25,2.58-21.34,7.66-5.08,5.08-7.66,12.26-7.66,21.34v190.8c0,9.07,2.58,16.25,7.66,21.34,5.08,5.08,12.26,7.66,21.34,7.66h38.7c9.07,0,16.25-2.58,21.34-7.66,5.08-5.08,7.66-12.26,7.66-21.34v-39.1h42.4c9.07,0,16.25-2.58,21.34-7.66,5.08-5.08,7.66-12.26,7.66-21.34v-31.2c0-9.07-2.58-16.25-7.66-21.34-5.08-5.08-12.26-7.66-21.34-7.66h-42.4v-2.3h54.7c9.07,0,16.25-2.58,21.34-7.66,5.08-5.08,7.66-12.26,7.66-21.34v-31.2c0-9.07-2.58-16.25-7.66-21.34-5.08-5.08-12.26-7.66-21.34-7.66h0Z"/>
    </g>
    <g>
      <path class="cls-1" d="M1616.6,249c-76.19,0-108.7-36.19-108.7-121s32.51-121,108.7-121,108.7,36.19,108.7,121-32.51,121-108.7,121ZM1616.6,82.2c-14.26,0-23,2.21-23,45.8s7.01,45.8,23,45.8,23-4.33,23-45.8c0-43.59-8.74-45.8-23-45.8Z"/>
      <path class="cls-2" d="M1616.6,14c72,0,101.7,33,101.7,114s-29.7,114-101.7,114-101.7-33-101.7-114,29.7-114,101.7-114M1616.6,180.8c23.1,0,30-12,30-52.8s-7.2-52.8-30-52.8-30,12-30,52.8,6.9,52.8,30,52.8M1616.6,0c-19.88,0-36.48,2.34-50.75,7.16-15.18,5.12-27.81,13.25-37.54,24.14-18.7,20.92-27.41,51.65-27.41,96.71s8.71,75.78,27.41,96.71c9.74,10.89,22.37,19.01,37.54,24.14,14.26,4.82,30.86,7.16,50.75,7.16s36.48-2.34,50.75-7.16c15.18-5.12,27.81-13.25,37.54-24.14,18.7-20.92,27.41-51.65,27.41-96.71s-8.71-75.78-27.41-96.71c-9.74-10.89-22.37-19.01-37.54-24.14-14.26-4.82-30.86-7.16-50.75-7.16h0ZM1616.6,166.8c-9.2,0-10.47-2.23-11.5-4.03-4.5-7.91-4.5-28.13-4.5-34.77s0-26.73,4.59-34.73c1.04-1.81,2.34-4.07,11.41-4.07s10.37,2.26,11.41,4.07c4.59,8,4.59,28.12,4.59,34.73s0,26.86-4.5,34.77c-1.02,1.79-2.29,4.03-11.5,4.03h0Z"/>
    </g>
    <g>
      <path class="cls-1" d="M1879.7,245.4c-15.21,0-24.47-6.35-28.32-19.42-5.38-18.55-11.07-33.08-18.78-47.78h-8.31v45.2c0,14.39-7.61,22-22,22h-38.7c-14.39,0-22-7.61-22-22V32.6c0-14.39,7.61-22,22-22h79.5c32.31,0,57.37,7.19,74.48,21.37,17.53,14.53,26.42,35.94,26.42,63.63s-10.86,51.28-31.5,65.38c12.74,18.64,20.07,33.61,26.95,54.53,3.17,9.52,2.82,17.09-1.06,22.48-3.54,4.91-9.46,7.41-17.58,7.41h-41.1ZM1841,108.4c15.2,0,17.3-6.15,17.3-12.8s-2.1-12.8-17.3-12.8h-16.7v25.6h16.7Z"/>
      <path class="cls-2" d="M1843.1,17.6c61.5,0,93.9,26.7,93.9,78,0,29.7-12,51-34.5,63.3,15,21,22.8,36,30.3,58.8,4.5,13.5.6,20.7-12,20.7h-41.1c-12,0-18.6-4.2-21.6-14.4-6-20.7-12.3-36.3-21.3-52.8h-19.5v52.2c0,10.5-4.5,15-15,15h-38.7c-10.5,0-15-4.5-15-15V32.6c0-10.5,4.5-15,15-15h79.5M1817.3,115.4h23.7c16.2,0,24.3-6.6,24.3-19.8s-8.1-19.8-24.3-19.8h-23.7v39.6M1843.1,3.6h-79.5c-9.07,0-16.25,2.58-21.34,7.66-5.08,5.08-7.66,12.26-7.66,21.34v190.8c0,9.07,2.58,16.25,7.66,21.34,5.08,5.08,12.26,7.66,21.34,7.66h38.7c9.07,0,16.25-2.58,21.34-7.66,5.08-5.08,7.66-12.26,7.66-21.34v-32.06c5.13,11.07,9.27,22.47,13.35,36.56v.03s.02.03.02.03c2.44,8.31,6.87,14.62,13.15,18.76,5.8,3.83,12.96,5.69,21.88,5.69h41.1c13.08,0,19.87-5.61,23.26-10.31,5.27-7.31,5.95-16.99,2.03-28.78-6.41-19.47-13.19-33.95-24.08-50.69,19.03-15.49,28.99-38.37,28.99-67.02s-9.74-53.09-28.95-69.02c-18.4-15.25-44.96-22.98-78.95-22.98h0ZM1831.3,89.8h9.7c6.82,0,9.01,1.5,9.38,1.8.85.69.92,3.23.92,4s-.07,3.3-.92,4c-.37.3-2.56,1.8-9.38,1.8h-9.7v-11.6h0Z"/>
    </g>
    <g>
      <path class="cls-1" d="M185.9,559.37c-14.39,0-22-7.61-22-22v-190.8c0-14.39,7.61-22,22-22h128.4c14.39,0,22,7.61,22,22v30c0,14.39-7.61,22-22,22h-67.7v7.6h55.4c14.39,0,22,7.61,22,22v27.6c0,14.39-7.61,22-22,22h-55.4v7.6h67.7c14.39,0,22,7.61,22,22v30c0,14.39-7.61,22-22,22h-128.4Z"/>
      <path class="cls-2" d="M314.3,331.56c10.5,0,15,4.5,15,15v30c0,10.5-4.5,15-15,15h-74.7v21.6h62.4c10.5,0,15,4.5,15,15v27.6c0,10.5-4.5,15-15,15h-62.4v21.6h74.7c10.5,0,15,4.5,15,15v30c0,10.5-4.5,15-15,15h-128.4c-10.5,0-15-4.5-15-15v-190.8c0-10.5,4.5-15,15-15h128.4M314.3,317.56h-128.4c-9.07,0-16.25,2.58-21.34,7.66-5.08,5.08-7.66,12.26-7.66,21.34v190.8c0,9.07,2.58,16.25,7.66,21.34,5.08,5.08,12.26,7.66,21.34,7.66h128.4c9.07,0,16.25-2.58,21.34-7.66,5.08-5.08,7.66-12.26,7.66-21.34v-30c0-9.07-2.58-16.25-7.66-21.34-3.7-3.7-8.51-6.08-14.36-7.09.72-.57,1.41-1.18,2.06-1.83,5.08-5.08,7.66-12.26,7.66-21.34v-27.6c0-9.07-2.58-16.25-7.66-21.34-.65-.65-1.34-1.26-2.06-1.83,5.85-1.02,10.66-3.39,14.36-7.09,5.08-5.08,7.66-12.26,7.66-21.34v-30c0-9.07-2.58-16.25-7.66-21.34-5.08-5.08-12.26-7.66-21.34-7.66h0Z"/>
    </g>
    <g>
      <path class="cls-1" d="M493.1,559.37c-13.76,0-22.73-5.47-28.24-17.23l-31.96-69.63v64.86c0,14.39-7.61,22-22,22h-36.6c-14.39,0-22-7.61-22-22v-190.8c0-14.39,7.61-22,22-22h42.3c13.76,0,22.73,5.47,28.24,17.23l31.96,69.63v-64.86c0-14.39,7.61-22,22-22h36.6c14.39,0,22,7.61,22,22v190.8c0,14.39-7.61,22-22,22h-42.3Z"/>
      <path class="cls-2" d="M535.4,331.56c10.5,0,15,4.5,15,15v190.8c0,10.5-4.5,15-15,15h-42.3c-10.5,0-17.4-3.6-21.9-13.2l-33.6-73.2c-3.9-8.4-7.8-16.5-11.7-27l-1.2.3c.9,11.4,1.2,23.4,1.2,33.9v64.2c0,10.5-4.5,15-15,15h-36.6c-10.5,0-15-4.5-15-15v-190.8c0-10.5,4.5-15,15-15h42.3c10.5,0,17.4,3.6,21.9,13.2l33.6,73.2c3.9,8.4,7.8,16.5,11.7,27l1.2-.3c-.9-11.4-1.2-23.4-1.2-33.9v-64.2c0-10.5,4.5-15,15-15h36.6M535.4,317.56h-36.6c-9.07,0-16.25,2.58-21.34,7.66-5.08,5.08-7.66,12.26-7.66,21.34v32.83l-18.58-40.47-.02-.05-.02-.05c-6.61-14.11-18.25-21.26-34.58-21.26h-42.3c-9.07,0-16.25,2.58-21.34,7.66-5.09,5.08-7.66,12.26-7.66,21.34v190.8c0,9.07,2.58,16.25,7.66,21.34,5.08,5.08,12.26,7.66,21.34,7.66h36.6c9.07,0,16.25-2.58,21.34-7.66,5.09-5.08,7.66-12.26,7.66-21.34v-32.83l18.58,40.47.02.05.02.05c6.61,14.11,18.25,21.26,34.58,21.26h42.3c9.07,0,16.25-2.58,21.34-7.66,5.08-5.08,7.66-12.26,7.66-21.34v-190.8c0-9.07-2.58-16.25-7.66-21.34-5.08-5.08-12.26-7.66-21.34-7.66h0Z"/>
    </g>
    <g>
      <path class="cls-1" d="M640.1,559.37c-14.39,0-22-7.61-22-22v-137.6h-31.7c-14.39,0-22-7.61-22-22v-31.2c0-14.39,7.61-22,22-22h146.1c14.39,0,22,7.61,22,22v31.2c0,14.39-7.61,22-22,22h-31.7v137.6c0,14.39-7.61,22-22,22h-38.7Z"/>
      <path class="cls-2" d="M732.5,331.56c10.5,0,15,4.5,15,15v31.2c0,10.5-4.5,15-15,15h-38.7v144.6c0,10.5-4.5,15-15,15h-38.7c-10.5,0-15-4.5-15-15v-144.6h-38.7c-10.5,0-15-4.5-15-15v-31.2c0-10.5,4.5-15,15-15h146.1M732.5,317.56h-146.1c-9.07,0-16.25,2.58-21.34,7.66-5.08,5.08-7.66,12.26-7.66,21.34v31.2c0,9.07,2.58,16.25,7.66,21.34,5.08,5.08,12.26,7.66,21.34,7.66h24.7v130.6c0,9.07,2.58,16.25,7.66,21.34,5.08,5.08,12.26,7.66,21.34,7.66h38.7c9.07,0,16.25-2.58,21.34-7.66,5.08-5.08,7.66-12.26,7.66-21.34v-130.6h24.7c9.07,0,16.25-2.58,21.34-7.66,5.08-5.08,7.66-12.26,7.66-21.34v-31.2c0-9.07-2.58-16.25-7.66-21.34-5.08-5.08-12.26-7.66-21.34-7.66h0Z"/>
    </g>
    <g>
      <path class="cls-1" d="M783.5,559.37c-14.39,0-22-7.61-22-22v-190.8c0-14.39,7.61-22,22-22h128.4c14.39,0,22,7.61,22,22v30c0,14.39-7.61,22-22,22h-67.7v7.6h55.4c14.39,0,22,7.61,22,22v27.6c0,14.39-7.61,22-22,22h-55.4v7.6h67.7c14.39,0,22,7.61,22,22v30c0,14.39-7.61,22-22,22h-128.4Z"/>
      <path class="cls-2" d="M911.9,331.56c10.5,0,15,4.5,15,15v30c0,10.5-4.5,15-15,15h-74.7v21.6h62.4c10.5,0,15,4.5,15,15v27.6c0,10.5-4.5,15-15,15h-62.4v21.6h74.7c10.5,0,15,4.5,15,15v30c0,10.5-4.5,15-15,15h-128.4c-10.5,0-15-4.5-15-15v-190.8c0-10.5,4.5-15,15-15h128.4M911.9,317.56h-128.4c-9.07,0-16.25,2.58-21.34,7.66-5.09,5.08-7.66,12.26-7.66,21.34v190.8c0,9.07,2.58,16.25,7.66,21.34,5.08,5.08,12.26,7.66,21.34,7.66h128.4c9.07,0,16.25-2.58,21.34-7.66,5.08-5.08,7.66-12.26,7.66-21.34v-30c0-9.07-2.58-16.25-7.66-21.34-3.7-3.7-8.51-6.08-14.36-7.09.72-.57,1.41-1.18,2.06-1.83,5.08-5.08,7.66-12.26,7.66-21.34v-27.6c0-9.07-2.58-16.25-7.66-21.34-.65-.65-1.34-1.26-2.06-1.83,5.85-1.02,10.66-3.39,14.36-7.09,5.08-5.08,7.66-12.26,7.66-21.34v-30c0-9.07-2.58-16.25-7.66-21.34-5.08-5.08-12.26-7.66-21.34-7.66h0Z"/>
    </g>
    <g>
      <path class="cls-1" d="M1088,559.37c-15.21,0-24.47-6.35-28.32-19.42-5.38-18.55-11.07-33.08-18.78-47.78h-8.31v45.2c0,14.39-7.61,22-22,22h-38.7c-14.39,0-22-7.61-22-22v-190.8c0-14.39,7.61-22,22-22h79.5c32.31,0,57.37,7.19,74.48,21.37,17.53,14.53,26.42,35.94,26.42,63.63s-10.86,51.28-31.5,65.38c12.74,18.64,20.07,33.61,26.95,54.53,3.17,9.52,2.82,17.09-1.06,22.48-3.54,4.91-9.46,7.41-17.58,7.41h-41.1ZM1049.3,422.37c15.2,0,17.3-6.15,17.3-12.8s-2.1-12.8-17.3-12.8h-16.7v25.6h16.7Z"/>
      <path class="cls-2" d="M1051.4,331.56c61.5,0,93.9,26.7,93.9,78,0,29.7-12,51-34.5,63.3,15,21,22.8,36,30.3,58.8,4.5,13.5.6,20.7-12,20.7h-41.1c-12,0-18.6-4.2-21.6-14.4-6-20.7-12.3-36.3-21.3-52.8h-19.5v52.2c0,10.5-4.5,15-15,15h-38.7c-10.5,0-15-4.5-15-15v-190.8c0-10.5,4.5-15,15-15h79.5M1025.6,429.37h23.7c16.2,0,24.3-6.6,24.3-19.8s-8.1-19.8-24.3-19.8h-23.7v39.6M1051.4,317.56h-79.5c-9.07,0-16.25,2.58-21.34,7.66-5.08,5.08-7.66,12.26-7.66,21.34v190.8c0,9.07,2.58,16.25,7.66,21.34,5.08,5.08,12.26,7.66,21.34,7.66h38.7c9.07,0,16.25-2.58,21.34-7.66,5.08-5.08,7.66-12.26,7.66-21.34v-32.06c5.13,11.07,9.27,22.47,13.35,36.56v.03s.02.03.02.03c2.44,8.31,6.87,14.62,13.15,18.76,5.8,3.83,12.96,5.69,21.88,5.69h41.1c13.08,0,19.87-5.61,23.26-10.31,5.27-7.31,5.95-17,2.03-28.79-6.41-19.47-13.19-33.94-24.08-50.68,19.03-15.49,28.99-38.37,28.99-67.02s-9.74-53.09-28.95-69.02c-18.4-15.25-44.96-22.98-78.95-22.98h0ZM1039.6,403.76h9.7c6.82,0,9.01,1.5,9.38,1.8.85.69.92,3.23.92,4s-.07,3.3-.92,4c-.37.3-2.56,1.8-9.38,1.8h-9.7v-11.6h0Z"/>
    </g>
    <g>
      <rect class="cls-1" x="1167.7" y="324.56" width="82.7" height="234.8" rx="22" ry="22"/>
      <path class="cls-2" d="M1228.4,331.56c10.5,0,15,4.5,15,15v190.8c0,10.5-4.5,15-15,15h-38.7c-10.5,0-15-4.5-15-15v-190.8c0-10.5,4.5-15,15-15h38.7M1228.4,317.56h-38.7c-9.07,0-16.25,2.58-21.34,7.66-5.08,5.08-7.66,12.26-7.66,21.34v190.8c0,9.07,2.58,16.25,7.66,21.34,5.08,5.08,12.26,7.66,21.34,7.66h38.7c9.07,0,16.25-2.58,21.34-7.66,5.08-5.08,7.66-12.26,7.66-21.34v-190.8c0-9.07-2.58-16.25-7.66-21.34-5.08-5.08-12.26-7.66-21.34-7.66h0Z"/>
    </g>
    <g>
      <path class="cls-1" d="M1413.2,559.37c-13.76,0-22.73-5.47-28.24-17.23l-31.96-69.63v64.86c0,14.39-7.61,22-22,22h-36.6c-14.39,0-22-7.61-22-22v-190.8c0-14.39,7.61-22,22-22h42.3c13.76,0,22.73,5.47,28.24,17.23l31.96,69.63v-64.86c0-14.39,7.61-22,22-22h36.6c14.39,0,22,7.61,22,22v190.8c0,14.39-7.61,22-22,22h-42.3Z"/>
      <path class="cls-2" d="M1455.5,331.56c10.5,0,15,4.5,15,15v190.8c0,10.5-4.5,15-15,15h-42.3c-10.5,0-17.4-3.6-21.9-13.2l-33.6-73.2c-3.9-8.4-7.8-16.5-11.7-27l-1.2.3c.9,11.4,1.2,23.4,1.2,33.9v64.2c0,10.5-4.5,15-15,15h-36.6c-10.5,0-15-4.5-15-15v-190.8c0-10.5,4.5-15,15-15h42.3c10.5,0,17.4,3.6,21.9,13.2l33.6,73.2c3.9,8.4,7.8,16.5,11.7,27l1.2-.3c-.9-11.4-1.2-23.4-1.2-33.9v-64.2c0-10.5,4.5-15,15-15h36.6M1455.5,317.56h-36.6c-9.07,0-16.25,2.58-21.34,7.66-5.09,5.08-7.66,12.26-7.66,21.34v32.83l-18.58-40.47-.02-.05-.02-.05c-6.61-14.11-18.25-21.26-34.58-21.26h-42.3c-9.07,0-16.25,2.58-21.34,7.66-5.08,5.08-7.66,12.26-7.66,21.34v190.8c0,9.07,2.58,16.25,7.66,21.34,5.08,5.08,12.26,7.66,21.34,7.66h36.6c9.07,0,16.25-2.58,21.34-7.66,5.08-5.08,7.66-12.26,7.66-21.34v-32.83l18.58,40.47.02.05.02.05c6.61,14.11,18.25,21.26,34.58,21.26h42.3c9.07,0,16.25-2.58,21.34-7.66,5.08-5.08,7.66-12.26,7.66-21.34v-190.8c0-9.07-2.58-16.25-7.66-21.34-5.08-5.08-12.26-7.66-21.34-7.66h0Z"/>
    </g>
    <g>
      <path class="cls-1" d="M1604.3,562.97c-37.8,0-65.11-9.81-83.48-30-18.18-19.99-27.02-49.65-27.02-90.7s9.81-70.4,29.16-90.67c19.4-20.32,48.59-30.63,86.74-30.63,16.51,0,44.03,5.15,60.09,11.26,15.51,5.68,20.38,13.8,17.27,28.95l-6.62,30.67c-2.84,13.79-11,16.71-17.35,16.71-2.72,0-5.68-.53-9.05-1.62l-.12-.04c-19.73-6.76-32.54-9.52-44.23-9.52-18.13,0-30.2,7.58-30.2,44.6,0,45.39,8.64,47.6,23.9,47.6,9.71,0,15.81-1.09,21.2-2.5v-7.5h-9.2c-14.39,0-22-7.61-22-22v-24c0-14.39,7.61-22,22-22h60.9c14.39,0,22,7.61,22,22v74.1c0,17.82-2.7,27.38-18.72,36.92-18.89,11.34-47.75,18.38-75.28,18.38Z"/>
      <path class="cls-2" d="M1609.7,327.96c16.2,0,42.6,5.1,57.6,10.8,12.3,4.5,15.3,9.3,12.9,21l-6.6,30.6c-1.56,7.58-4.78,11.18-10.51,11.18-1.98,0-4.27-.43-6.89-1.28-21-7.2-34.2-9.9-46.5-9.9-26.1,0-37.2,15.6-37.2,51.6,0,42.3,6.9,54.6,30.9,54.6,13.8,0,21-2.1,28.2-4.2v-19.8h-16.2c-10.5,0-15-4.5-15-15v-24c0-10.5,4.5-15,15-15h60.9c10.5,0,15,4.5,15,15v74.1c0,17.4-2.7,23.4-15.3,30.9-18,10.8-45.9,17.4-71.7,17.4-70.8,0-103.5-36-103.5-113.7s36.3-114.3,108.9-114.3M1609.7,313.96c-40.14,0-71.03,11.03-91.8,32.8-20.64,21.62-31.1,53.75-31.1,95.51s9.44,74.08,28.84,95.41c10.02,11.02,22.79,19.31,37.96,24.66,14.38,5.07,31.43,7.63,50.69,7.63,28.73,0,58.97-7.43,78.9-19.39,18.67-11.12,22.1-23.17,22.1-42.91v-74.1c0-9.07-2.58-16.25-7.66-21.34-3.82-3.82-8.83-6.23-14.93-7.19,1.95-3,3.57-6.86,4.59-11.78l6.59-30.54v-.07s.03-.07.03-.07c1.25-6.09,2.33-15.15-2.73-23.36-4.65-7.55-12.58-11.22-18.99-13.57-17.01-6.44-45.02-11.68-62.49-11.68h0ZM1588.47,421c1.01-4.28,2.42-7.68,4.21-10.16,2.17-3.01,6.06-6.47,17.02-6.47,1.71,0,3.46.07,5.26.2-8.86.08-15.89,2.66-20.89,7.66-2.45,2.45-4.31,5.38-5.59,8.77h0ZM1598.33,482.28c-5.29-.69-6.33-2.51-7.19-4.04-1.16-2.05-2.03-4.91-2.68-8.15,1.28,3.41,3.15,6.35,5.6,8.81,1.29,1.29,2.71,2.42,4.27,3.38h0Z"/>
    </g>
    <g>
      <path class="cls-1" d="M1754.9,562.97c-29.74,0-47.5-15.29-47.5-40.9s17.76-40.9,47.5-40.9,47.5,15.29,47.5,40.9-17.76,40.9-47.5,40.9ZM1777.99,482.44c-1.79,0-3.75-.2-5.81-.6-6.43-1.17-11.62-1.67-17.27-1.67s-10.84.5-17.35,1.69c-1.99.39-3.94.59-5.74.59-10.03,0-16.46-6.43-17.2-17.19-7.22-104.04-7.22-104.59-7.22-105.78,0-23.75,18.2-38.5,47.5-38.5s47.5,14.75,47.5,38.5c0,1.2,0,1.74-7.22,105.79-.74,10.76-7.17,17.19-17.2,17.19Z"/>
      <path class="cls-2" d="M1754.9,327.96c25.5,0,40.5,12,40.5,31.5,0,.9,0,1.5-7.2,105.3-.49,7.17-3.84,10.68-10.22,10.68-1.36,0-2.85-.16-4.48-.47-6.6-1.2-12.3-1.8-18.6-1.8s-12,.6-18.6,1.8c-1.63.32-3.13.47-4.48.47-6.37,0-9.72-3.5-10.22-10.68-7.2-103.8-7.2-104.4-7.2-105.3,0-19.5,15-31.5,40.5-31.5M1754.9,488.17c25.8,0,40.5,12.3,40.5,33.9s-14.7,33.9-40.5,33.9-40.5-12.3-40.5-33.9,14.7-33.9,40.5-33.9M1754.9,313.96c-15.62,0-28.92,3.95-38.45,11.42-10.35,8.11-16.05,20.22-16.05,34.08,0,1.52,0,1.98,7.23,106.27.48,6.92,2.75,12.55,6.76,16.74.83.87,1.84,1.78,3.05,2.64-.49.38-.98.77-1.45,1.16-10.2,8.54-15.59,20.91-15.59,35.79s5.39,27.25,15.59,35.79c9.6,8.04,22.7,12.11,38.91,12.11s29.31-4.08,38.91-12.11c10.2-8.54,15.59-20.91,15.59-35.79s-5.39-27.25-15.59-35.79c-.47-.4-.96-.79-1.45-1.16,1.21-.87,2.22-1.78,3.05-2.65,4.01-4.19,6.28-9.82,6.76-16.74,7.23-104.28,7.23-104.74,7.23-106.26,0-13.86-5.7-25.97-16.05-34.08-9.53-7.47-22.83-11.42-38.45-11.42h0Z"/>
    </g>
  </g>
  <g>
    <path class="cls-2" d="M175.93,770.1v-30.12c-22.43-29.64-38.46-60.89-38.46-73.07,0-4.65,2.56-6.73,8.01-6.73h21.47c5.61,0,7.53,1.44,9.77,7.37,5.93,16.5,9.13,24.84,18.59,41.02,9.45-16.18,12.66-24.52,18.59-41.02,2.24-5.93,4.17-7.37,9.77-7.37h19.39c5.45,0,8.01,2.08,8.01,6.73,0,12.18-16.02,43.42-38.46,73.07v30.12c0,5.61-2.4,8.01-8.01,8.01h-20.67c-5.61,0-8.01-2.4-8.01-8.01Z"/>
    <path class="cls-2" d="M244.83,733.08c0-31.25,16.02-46.95,47.75-46.95s47.75,15.7,47.75,46.95-16.02,46.95-47.75,46.95-47.75-15.7-47.75-46.95ZM304.27,733.08c0-12.82-3.2-17.63-11.7-17.63s-11.7,4.81-11.7,17.63,3.2,17.63,11.7,17.63,11.7-4.81,11.7-17.63Z"/>
    <path class="cls-2" d="M351.06,739.49v-43.42c0-5.61,2.4-8.01,8.01-8.01h19.55c5.61,0,8.01,2.4,8.01,8.01v40.86c0,9.61,2.56,13.3,8.81,13.3,3.2,0,7.21-1.44,10.74-4.33v-49.83c0-5.61,2.4-8.01,8.01-8.01h19.55c5.61,0,8.01,2.4,8.01,8.01v74.03c0,5.61-2.4,8.01-8.01,8.01h-15.22c-5.77,0-8.01-2.24-8.01-7.69v-.48c-7.37,6.73-17.62,10.09-27.4,10.09-21.47,0-32.05-13.14-32.05-40.54Z"/>
    <path class="cls-2" d="M456.17,770.1v-74.03c0-5.61,2.4-8.01,8.01-8.01h15.22c5.61,0,8.01,2.24,8.01,7.85v5.77c2.56-8.01,13.3-15.54,22.43-15.54,5.61,0,8.01,2.4,8.01,8.01v21.15c0,5.61-2.4,8.01-8.01,8.01-3.53,0-12.02-1.44-18.11-2.88v49.67c0,5.61-2.4,8.01-8.01,8.01h-19.55c-5.61,0-8.01-2.4-8.01-8.01Z"/>
    <path class="cls-2" d="M562.08,735.17c0-31.08,15.54-49.03,42.62-49.03,5.45,0,10.74,1.44,15.06,3.21v-21.15c0-5.61,2.4-8.01,8.01-8.01h19.55c5.61,0,8.01,2.4,8.01,8.01v101.91c0,5.61-2.4,8.01-8.01,8.01h-15.22c-5.61,0-8.01-2.4-8.01-8.01v-.16c-4.49,5.77-13.46,10.09-24.36,10.09-23.55,0-37.65-16.82-37.65-44.87ZM619.76,747.02v-29.32c-2.56-1.28-5.29-2.24-8.81-2.24-8.65,0-12.82,6.25-12.82,18.91,0,11.06,3.2,16.34,10.42,16.34,4.01,0,8.49-1.44,11.22-3.69Z"/>
    <path class="cls-2" d="M669.75,770.1v-74.03c0-5.61,2.4-8.01,8.01-8.01h15.22c5.61,0,8.01,2.24,8.01,7.85v5.77c2.56-8.01,13.3-15.54,22.43-15.54,5.61,0,8.01,2.4,8.01,8.01v21.15c0,5.61-2.4,8.01-8.01,8.01-3.53,0-12.02-1.44-18.11-2.88v49.67c0,5.61-2.4,8.01-8.01,8.01h-19.55c-5.61,0-8.01-2.4-8.01-8.01Z"/>
    <path class="cls-2" d="M734.8,754.55c0-18.59,15.7-27.72,52.56-27.88v-1.6c0-6.25-4.65-9.61-13.62-9.61-7.69,0-13.78,1.44-22.11,4.65-5.13,1.92-7.69.32-9.13-5.61l-2.72-10.9c-1.28-5.45.16-8.65,5.77-11.06,9.29-3.85,23.23-6.41,35.41-6.41,27.56,0,41.98,13.46,41.98,38.94v45.03c0,5.61-2.4,8.01-8.01,8.01h-15.38c-5.61,0-8.01-2.56-8.01-8.49v-.8c-7.05,7.53-16.5,11.22-29,11.22-16.98,0-27.72-10.09-27.72-25.48ZM787.36,754.07v-9.13c-15.86.32-20.19,2.72-20.19,7.69,0,3.36,2.08,5.45,7.05,5.45,3.52,0,10.09-.96,13.14-4.01Z"/>
    <path class="cls-2" d="M856.73,770.74c-13.78-22.43-27.4-60.09-27.4-75.95,0-4.65,2.24-6.73,6.73-6.73h17.95c7.05,0,10.09,1.92,11.06,7.37,3.04,17.14,6.73,32.05,10.25,42.62h.32c4.97-12.82,8.97-28.84,11.54-42.62.96-5.45,4.01-7.37,11.06-7.37h11.38c7.05,0,10.09,1.92,11.06,7.37,2.88,16.34,6.41,32.69,10.9,44.54h.32c3.37-9.93,7.05-24.84,10.74-44.54.96-5.45,4.01-7.37,11.06-7.37h16.5c4.65,0,6.73,2.08,6.73,6.73,0,15.86-13.62,53.52-27.4,75.95-3.53,5.77-6.57,7.37-13.3,7.37h-7.05c-6.89,0-9.93-1.76-13.3-7.37-4.81-8.01-9.13-17.79-12.82-28.36h-.32c-3.85,10.58-8.01,20.19-12.82,28.36-3.37,5.61-6.41,7.37-13.3,7.37h-6.57c-6.73,0-9.77-1.6-13.3-7.37Z"/>
    <path class="cls-2" d="M1020.48,733.08c0-30.44,16.82-46.95,47.75-46.95,25.48,0,41.34,11.54,41.34,29.96,0,15.38-9.93,23.23-31.25,24.52l-21.47,1.44c1.28,6.73,6.09,9.45,16.66,9.45,7.21,0,16.02-1.6,22.27-4.17,6.57-2.72,11.22-1.6,11.22,4.17v11.86c0,5.61-2.88,9.45-8.97,11.7-8.17,3.04-19.39,4.97-29.48,4.97-32.85,0-48.07-14.74-48.07-46.95ZM1065.19,723.47c8.49-.64,12.02-2.4,12.02-6.57,0-3.85-3.37-6.09-9.45-6.09-6.41,0-10.09,4.49-11.06,13.3l8.49-.64Z"/>
    <path class="cls-2" d="M1119.5,770.1v-74.03c0-5.61,2.4-8.01,8.01-8.01h15.22c5.77,0,8.01,2.24,8.01,7.69v.48c7.37-6.73,17.3-10.09,27.4-10.09,21.79,0,32.37,13.14,32.37,40.54v43.42c0,5.61-2.4,8.01-8.01,8.01h-19.55c-5.61,0-8.01-2.4-8.01-8.01v-40.86c0-9.61-2.56-13.3-8.81-13.3-3.52,0-7.53,1.44-11.06,4.33v49.83c0,5.61-2.4,8.01-8.01,8.01h-19.55c-5.61,0-8.01-2.4-8.01-8.01Z"/>
    <path class="cls-2" d="M1229.1,740.29v-22.91h-4.97c-5.61,0-8.01-2.4-8.01-8.01v-13.3c0-5.61,2.4-8.01,8.01-8.01h4.97v-9.93c0-6.73,1.6-9.45,6.73-10.58l12.02-2.56c4.01-.96,7.37-1.6,9.77-1.6,5.45,0,7.05,2.56,7.05,8.01v16.66h16.98c5.61,0,8.01,2.4,8.01,8.01v13.3c0,5.61-2.4,8.01-8.01,8.01h-16.98v22.43c0,7.21,2.4,10.09,8.65,10.09,3.69,0,8.33-1.12,10.74-1.12,4.01,0,5.61,2.08,5.61,6.89v11.54c0,5.77-2.08,8.65-7.85,10.58-4.17,1.28-10.25,2.24-14.58,2.24-27.08,0-38.14-11.22-38.14-39.74Z"/>
    <path class="cls-2" d="M1299.76,770.1v-74.03c0-5.61,2.4-8.01,8.01-8.01h15.22c5.61,0,8.01,2.24,8.01,7.85v5.77c2.56-8.01,13.3-15.54,22.43-15.54,5.61,0,8.01,2.4,8.01,8.01v21.15c0,5.61-2.4,8.01-8.01,8.01-3.53,0-12.02-1.44-18.11-2.88v49.67c0,5.61-2.4,8.01-8.01,8.01h-19.55c-5.61,0-8.01-2.4-8.01-8.01Z"/>
    <path class="cls-2" d="M1371.38,806.31c-5.61-2.08-7.69-4.81-7.69-10.09v-10.9c0-4.97,1.28-6.89,5.45-6.89,2.08,0,4.33.32,6.41.32,6.41,0,12.98-.96,19.07-8.65-14.58-23.88-28.84-60.89-28.84-75.31,0-4.65,2.56-6.73,7.05-6.73h19.71c7.21,0,10.25,2.08,11.06,7.37,2.56,16.5,6.89,32.53,12.02,45.35,4.81-12.18,8.97-27.72,12.02-45.35.96-5.45,4.01-7.37,11.06-7.37h18.11c4.65,0,7.05,2.08,7.05,6.73,0,14.42-13.78,52.24-28.2,75.95-15.7,25.64-30.28,37.17-51.59,37.17-5.77,0-9.29-.48-12.66-1.6Z"/>
    <path class="cls-2" d="M1509.98,770.1v-101.91c0-5.61,2.4-8.01,8.01-8.01h19.55c5.61,0,8.01,2.4,8.01,8.01v25.32c5.93-4.17,13.14-7.37,23.07-7.37,21.79,0,32.37,13.14,32.37,40.54v43.42c0,5.61-2.4,8.01-8.01,8.01h-19.55c-5.61,0-8.01-2.4-8.01-8.01v-40.86c0-9.61-2.56-13.3-8.81-13.3-3.52,0-7.53,1.44-11.06,4.33v49.83c0,5.61-2.4,8.01-8.01,8.01h-19.55c-5.61,0-8.01-2.4-8.01-8.01Z"/>
    <path class="cls-2" d="M1610.12,754.55c0-18.59,15.7-27.72,52.56-27.88v-1.6c0-6.25-4.65-9.61-13.62-9.61-7.69,0-13.78,1.44-22.11,4.65-5.13,1.92-7.69.32-9.13-5.61l-2.72-10.9c-1.28-5.45.16-8.65,5.77-11.06,9.29-3.85,23.23-6.41,35.41-6.41,27.56,0,41.98,13.46,41.98,38.94v45.03c0,5.61-2.4,8.01-8.01,8.01h-15.38c-5.61,0-8.01-2.56-8.01-8.49v-.8c-7.05,7.53-16.5,11.22-29,11.22-16.98,0-27.72-10.09-27.72-25.48ZM1662.67,754.07v-9.13c-15.86.32-20.19,2.72-20.19,7.69,0,3.36,2.08,5.45,7.05,5.45,3.52,0,10.09-.96,13.14-4.01Z"/>
    <path class="cls-2" d="M1714.75,776.03c-5.61-1.6-7.85-4.33-7.85-9.77v-10.74c0-7.05,3.69-8.01,10.09-6.09,7.69,2.4,17.47,3.85,24.36,3.85,7.69,0,10.74-.96,10.74-3.53,0-2.4-1.92-3.69-8.81-4.81l-9.45-1.6c-15.86-2.72-25.32-11.38-25.32-26.28,0-19.23,17.14-30.92,45.19-30.92,8.97,0,19.55,1.44,25.64,3.69,5.13,1.92,6.89,4.97,5.93,10.74l-1.6,9.13c-.96,5.77-3.69,7.21-10.74,5.29-6.09-1.6-12.02-2.08-17.46-2.08-6.73,0-10.25,1.12-10.25,3.69,0,2.4,2.24,3.37,8.81,4.49l9.45,1.6c16.66,2.88,25.32,10.74,25.32,26.44,0,19.23-17.14,30.92-45.19,30.92-9.77,0-20.03-1.44-28.84-4.01Z"/>
    <path class="cls-2" d="M323.98,961.87c0,6.57-1.92,8.49-6.41,8.49h-11.38c-5.61,0-8.01-2.4-8.01-8.01v-101.91c0-5.61,2.4-8.01,8.01-8.01h19.55c5.61,0,8.01,2.4,8.01,8.01v23.88c4.97-3.53,12.02-5.93,20.03-5.93,23.55,0,37.65,16.82,37.65,44.87,0,31.08-15.54,49.03-42.62,49.03-8.49,0-18.27-3.21-24.84-10.42ZM355.39,924.05c0-11.06-3.2-16.34-10.42-16.34-4.01,0-8.49,1.44-11.22,4.01v28.68c2.56,1.6,5.45,2.56,8.81,2.56,8.65,0,12.82-6.25,12.82-18.91Z"/>
    <path class="cls-2" d="M400.09,925.33c0-30.44,16.82-46.95,47.75-46.95,25.48,0,41.34,11.54,41.34,29.96,0,15.38-9.93,23.23-31.25,24.52l-21.47,1.44c1.28,6.73,6.09,9.45,16.66,9.45,7.21,0,16.02-1.6,22.27-4.17,6.57-2.72,11.22-1.6,11.22,4.17v11.86c0,5.61-2.88,9.45-8.97,11.7-8.17,3.04-19.39,4.97-29.48,4.97-32.85,0-48.07-14.74-48.07-46.95ZM444.79,915.72c8.49-.64,12.02-2.4,12.02-6.57,0-3.85-3.37-6.09-9.45-6.09-6.41,0-10.09,4.49-11.06,13.3l8.49-.64Z"/>
    <path class="cls-2" d="M494.62,925.33c0-30.44,16.82-46.95,47.75-46.95,25.48,0,41.34,11.54,41.34,29.96,0,15.38-9.93,23.23-31.25,24.52l-21.47,1.44c1.28,6.73,6.09,9.45,16.66,9.45,7.21,0,16.02-1.6,22.27-4.17,6.57-2.72,11.22-1.6,11.22,4.17v11.86c0,5.61-2.88,9.45-8.97,11.7-8.17,3.04-19.39,4.97-29.48,4.97-32.85,0-48.07-14.74-48.07-46.95ZM539.33,915.72c8.49-.64,12.02-2.4,12.02-6.57,0-3.85-3.37-6.09-9.45-6.09-6.41,0-10.09,4.49-11.06,13.3l8.49-.64Z"/>
    <path class="cls-2" d="M593.64,962.35v-74.03c0-5.61,2.4-8.01,8.01-8.01h15.22c5.77,0,8.01,2.24,8.01,7.69v.48c7.37-6.73,17.3-10.09,27.4-10.09,21.79,0,32.37,13.14,32.37,40.54v43.42c0,5.61-2.4,8.01-8.01,8.01h-19.55c-5.61,0-8.01-2.4-8.01-8.01v-40.86c0-9.61-2.56-13.3-8.81-13.3-3.52,0-7.53,1.44-11.06,4.33v49.83c0,5.61-2.4,8.01-8.01,8.01h-19.55c-5.61,0-8.01-2.4-8.01-8.01Z"/>
    <path class="cls-2" d="M739.61,968.28c-5.61-1.6-7.85-4.33-7.85-9.77v-10.74c0-7.05,3.69-8.01,10.09-6.09,7.69,2.4,17.47,3.85,24.36,3.85,7.69,0,10.74-.96,10.74-3.53,0-2.4-1.92-3.69-8.81-4.81l-9.45-1.6c-15.86-2.72-25.32-11.38-25.32-26.28,0-19.23,17.14-30.92,45.19-30.92,8.97,0,19.55,1.44,25.64,3.69,5.13,1.92,6.89,4.97,5.93,10.74l-1.6,9.13c-.96,5.77-3.69,7.21-10.74,5.29-6.09-1.6-12.02-2.08-17.46-2.08-6.73,0-10.25,1.12-10.25,3.69,0,2.4,2.24,3.37,8.81,4.49l9.45,1.6c16.66,2.88,25.32,10.74,25.32,26.44,0,19.23-17.14,30.92-45.19,30.92-9.77,0-20.03-1.44-28.84-4.01Z"/>
    <path class="cls-2" d="M822.28,931.74v-43.42c0-5.61,2.4-8.01,8.01-8.01h19.55c5.61,0,8.01,2.4,8.01,8.01v40.86c0,9.61,2.56,13.3,8.81,13.3,3.2,0,7.21-1.44,10.74-4.33v-49.83c0-5.61,2.4-8.01,8.01-8.01h19.55c5.61,0,8.01,2.4,8.01,8.01v74.03c0,5.61-2.4,8.01-8.01,8.01h-15.22c-5.77,0-8.01-2.24-8.01-7.69v-.48c-7.37,6.73-17.62,10.09-27.4,10.09-21.47,0-32.05-13.14-32.05-40.54Z"/>
    <path class="cls-2" d="M953.19,961.87c0,6.57-1.92,8.49-6.41,8.49h-11.38c-5.61,0-8.01-2.4-8.01-8.01v-101.91c0-5.61,2.4-8.01,8.01-8.01h19.55c5.61,0,8.01,2.4,8.01,8.01v23.88c4.97-3.53,12.02-5.93,20.03-5.93,23.55,0,37.65,16.82,37.65,44.87,0,31.08-15.54,49.03-42.62,49.03-8.49,0-18.27-3.21-24.84-10.42ZM984.6,924.05c0-11.06-3.2-16.34-10.42-16.34-4.01,0-8.49,1.44-11.22,4.01v28.68c2.56,1.6,5.45,2.56,8.81,2.56,8.65,0,12.82-6.25,12.82-18.91Z"/>
    <path class="cls-2" d="M1032.18,962.35v-74.03c0-5.61,2.4-8.01,8.01-8.01h15.22c5.77,0,8.01,2.24,8.01,7.69v.16c7.05-6.41,16.98-9.77,27.08-9.77,12.02,0,19.55,3.69,25,10.9,8.17-7.21,18.75-10.9,30.12-10.9,21.79,0,32.37,13.14,32.37,40.54v43.42c0,5.61-2.4,8.01-8.01,8.01h-19.55c-5.61,0-8.01-2.4-8.01-8.01v-39.26c0-11.22-2.24-14.9-8.49-14.9-3.04,0-7.53,1.44-11.38,4.01.16,2.56.32,5.29.32,8.33v41.82c0,5.61-2.4,8.01-8.01,8.01h-19.55c-5.61,0-8.01-2.4-8.01-8.01v-39.26c0-11.22-2.24-14.9-8.49-14.9-3.52,0-7.53,1.44-11.06,4.33v49.83c0,5.61-2.4,8.01-8.01,8.01h-19.55c-5.61,0-8.01-2.4-8.01-8.01Z"/>
    <path class="cls-2" d="M1187.92,868.61c0-11.54,7.69-18.11,21.47-18.11s21.47,6.57,21.47,18.11-7.69,18.11-21.47,18.11-21.47-6.57-21.47-18.11ZM1191.61,962.35v-63.13c0-4.49,2.88-6.57,7.85-5.45,3.53.64,6.57.96,9.93.96s6.41-.32,9.93-.96c4.97-1.12,7.85.96,7.85,5.45v63.13c0,5.61-2.4,8.01-8.01,8.01h-19.55c-5.61,0-8.01-2.4-8.01-8.01Z"/>
    <path class="cls-2" d="M1247.36,932.55v-22.91h-4.97c-5.61,0-8.01-2.4-8.01-8.01v-13.3c0-5.61,2.4-8.01,8.01-8.01h4.97v-9.93c0-6.73,1.6-9.45,6.73-10.58l12.02-2.56c4.01-.96,7.37-1.6,9.77-1.6,5.45,0,7.05,2.56,7.05,8.01v16.66h16.98c5.61,0,8.01,2.4,8.01,8.01v13.3c0,5.61-2.4,8.01-8.01,8.01h-16.98v22.43c0,7.21,2.4,10.09,8.65,10.09,3.69,0,8.33-1.12,10.74-1.12,4.01,0,5.61,2.08,5.61,6.89v11.54c0,5.77-2.08,8.65-7.85,10.58-4.17,1.28-10.25,2.24-14.58,2.24-27.08,0-38.14-11.22-38.14-39.74Z"/>
    <path class="cls-2" d="M1323.79,932.55v-22.91h-4.97c-5.61,0-8.01-2.4-8.01-8.01v-13.3c0-5.61,2.4-8.01,8.01-8.01h4.97v-9.93c0-6.73,1.6-9.45,6.73-10.58l12.02-2.56c4.01-.96,7.37-1.6,9.77-1.6,5.45,0,7.05,2.56,7.05,8.01v16.66h16.98c5.61,0,8.01,2.4,8.01,8.01v13.3c0,5.61-2.4,8.01-8.01,8.01h-16.98v22.43c0,7.21,2.4,10.09,8.65,10.09,3.69,0,8.33-1.12,10.74-1.12,4.01,0,5.61,2.08,5.61,6.89v11.54c0,5.77-2.08,8.65-7.85,10.58-4.17,1.28-10.25,2.24-14.58,2.24-27.08,0-38.14-11.22-38.14-39.74Z"/>
    <path class="cls-2" d="M1389.97,925.33c0-30.44,16.82-46.95,47.75-46.95,25.48,0,41.34,11.54,41.34,29.96,0,15.38-9.93,23.23-31.25,24.52l-21.47,1.44c1.28,6.73,6.09,9.45,16.66,9.45,7.21,0,16.02-1.6,22.27-4.17,6.57-2.72,11.22-1.6,11.22,4.17v11.86c0,5.61-2.88,9.45-8.97,11.7-8.17,3.04-19.39,4.97-29.48,4.97-32.85,0-48.07-14.74-48.07-46.95ZM1434.67,915.72c8.49-.64,12.02-2.4,12.02-6.57,0-3.85-3.37-6.09-9.45-6.09-6.41,0-10.09,4.49-11.06,13.3l8.49-.64Z"/>
    <path class="cls-2" d="M1484.5,927.42c0-31.08,15.54-49.03,42.62-49.03,5.45,0,10.74,1.44,15.06,3.21v-21.15c0-5.61,2.4-8.01,8.01-8.01h19.55c5.61,0,8.01,2.4,8.01,8.01v101.91c0,5.61-2.4,8.01-8.01,8.01h-15.22c-5.61,0-8.01-2.4-8.01-8.01v-.16c-4.49,5.77-13.46,10.09-24.36,10.09-23.55,0-37.65-16.82-37.65-44.87ZM1542.18,939.28v-29.32c-2.56-1.28-5.29-2.24-8.81-2.24-8.65,0-12.82,6.25-12.82,18.91,0,11.06,3.2,16.34,10.42,16.34,4.01,0,8.49-1.44,11.22-3.69Z"/>
    <path class="cls-2" d="M1589.45,950.97c0-14.1,7.21-21.31,21.47-21.31s21.47,7.21,21.47,21.31-7.21,21.31-21.47,21.31-21.47-7.21-21.47-21.31Z"/>
  </g>
</svg>